<svg xmlns="http://www.w3.org/2000/svg" xmlns:xlink="http://www.w3.org/1999/xlink" xmlns:lucid="lucid" width="1493.67" height="575.61"><g transform="translate(-811.9081679370504 -200.21814028419)" lucid:page-tab-id="y-V0NohKHxXz"><path d="M500 0h2000v1000H500z" fill="#fff"/><path d="M1022.67 341.5c-33.12 0-60 26.88-60 60 0 33.24 26.88 60 60 60 33.24 0 60-26.88 60-60 0-33.24-26.76-60-60-60zm15.84 112.08V443.5c0-4.08-2.27-7.56-5.4-9.84h.6c5.77-.6 10.7-2.4 10.7-2.4s7.3-2.28 11.4-6.96c4.2-5.16 5.4-12.36 5.4-12.36s1.2-7.92 0-14.28c-1.2-5.88-6-10.32-6-10.32s1.55-4.2 1.3-8.28c0-4.08-1.9-8.16-1.9-8.16s-3.5-.36-7.33 1.2c-4.44 1.92-9.48 5.4-9.48 5.4s-3.5-1.2-7.57-1.56c-3.72-.72-8.16-.72-8.16-.72s-4.44 0-8.28.72c-4.1.6-7.57 1.56-7.57 1.56s-5.04-3.48-9.48-5.4c-3.72-1.56-7.2-1.2-7.2-1.2s-1.92 4.08-1.92 8.16c0 4.2 1.2 8.28 1.2 8.28s-4.32 4.08-5.88 10.32c-1.68 6.36 0 14.28 0 14.28s.84 7.2 5.28 12.36c4.2 4.68 11.4 6.96 11.4 6.96s5.04 1.8 10.68 2.4h.97c-2.16 2.28-4.44 5.76-4.44 9.84v10.08c-22.32-6.6-38.52-27.48-38.52-52.08 0-30 24.37-54.24 54.37-54.24 30 0 54.72 24.24 54.72 54.24 0 24.6-16.45 45.48-38.9 52.08z" stroke="#000" stroke-opacity="0" fill="#0078d7"/><use xlink:href="#a" transform="matrix(1,0,0,1,932.6666666666666,470.5028952958063) translate(60.45978515624999 16.589501953125)"/><path d="M1022.67 488.73c-33.12 0-60 26.88-60 60 0 33.24 26.88 60 60 60 33.24 0 60-26.88 60-60 0-33.24-26.76-60-60-60zm15.84 112.08v-10.07c0-4.08-2.27-7.56-5.4-9.84h.6c5.77-.6 10.7-2.4 10.7-2.4s7.3-2.3 11.4-6.97c4.2-5.16 5.4-12.36 5.4-12.36s1.2-7.92 0-14.28c-1.2-5.9-6-10.33-6-10.33s1.55-4.2 1.3-8.28c0-4.1-1.9-8.17-1.9-8.17s-3.5-.36-7.33 1.2c-4.44 1.92-9.48 5.4-9.48 5.4s-3.5-1.2-7.57-1.56c-3.72-.72-8.16-.72-8.16-.72s-4.44 0-8.28.72c-4.1.6-7.57 1.56-7.57 1.56s-5.04-3.48-9.48-5.4c-3.72-1.56-7.2-1.2-7.2-1.2s-1.92 4.08-1.92 8.16c0 4.2 1.2 8.27 1.2 8.27s-4.32 4.08-5.88 10.32c-1.68 6.35 0 14.27 0 14.27s.84 7.2 5.28 12.36c4.2 4.68 11.4 6.96 11.4 6.96s5.04 1.8 10.68 2.4h.97c-2.16 2.27-4.44 5.75-4.44 9.83v10.08c-22.32-6.6-38.52-27.47-38.52-52.07 0-30 24.37-54.24 54.37-54.24 30 0 54.72 24.23 54.72 54.23 0 24.6-16.45 45.48-38.9 52.08z" stroke="#000" stroke-opacity="0" fill="#0078d7"/><use xlink:href="#b" transform="matrix(1,0,0,1,932.6666666666666,617.7303531901041) translate(57.1289501953125 16.589501953125)"/><path d="M1622.55 379.7a6 6 0 0 1 6-6h138.67a6 6 0 0 1 6 6v38.68a6 6 0 0 1-6 6h-138.67a6 6 0 0 1-6-6z" stroke="#3a414a" stroke-width="2" fill="#fff"/><use xlink:href="#c" transform="matrix(1,0,0,1,1634.5508548343744,385.7099532129537) translate(22.641710069444443 23.21527777777778)"/><path d="M1166 345.04a6 6 0 0 1 6-6h148a6 6 0 0 1 6 6v114C1299.28 439 1282.64 439 1272.56 439c-16 0-37.28 20.04-53.28 20.04-9.92 0-26.72 0-53.28-20.04z" stroke="#3a414a" stroke-width="2" fill="#fff"/><use xlink:href="#d" transform="matrix(1,0,0,1,1170.9999999999807,344.043286546287) translate(10.481770833333343 38.40277777777778)"/><use xlink:href="#e" transform="matrix(1,0,0,1,1170.9999999999807,344.043286546287) translate(45.22569444444445 38.40277777777778)"/><use xlink:href="#f" transform="matrix(1,0,0,1,1170.9999999999807,344.043286546287) translate(117.82769097222223 38.40277777777778)"/><use xlink:href="#g" transform="matrix(1,0,0,1,1170.9999999999807,344.043286546287) translate(38.57964409722222 65.29079861111111)"/><path d="M1083.13 400.53l65.5-1.2" stroke="#3a414a" stroke-linejoin="round" fill="none"/><path d="M1083.15 401l-.5.02-.04-.95h.53z" stroke="#3a414a" stroke-width=".05" fill="#3a414a"/><path d="M1163.38 399.07l-14.18 4.9-.17-9.27z" stroke="#3a414a" fill="#3a414a"/><path d="M1083.13 547.76h.3l.78-.05.78-.08.76-.1.75-.15.73-.18.75-.2.74-.25.74-.28.76-.32.76-.36.77-.4.8-.47.8-.5.83-.6.86-.64.9-.75.92-.84.98-.95 1.03-1.1 1.1-1.27 1.18-1.5 1.27-1.74 1.4-2.1 1.52-2.53 1.73-3.14 2-4.03 2.38-5.38 3.1-7.83 5.1-14.86 13.43-41.03 3.1-7.83 2.38-5.4 2-4 1.72-3.16 1.54-2.54 1.4-2.1 1.26-1.75 1.18-1.48 1.1-1.27 1.03-1.1.62-.63" stroke="#3a414a" stroke-linejoin="round" fill="none"/><path d="M1083.15 548.24h-.5l-.04-.94h.53z" stroke="#3a414a" stroke-width=".05" fill="#3a414a"/><path d="M1163.52 417.04l-11.14 10.03-3.78-8.46z" stroke="#3a414a" fill="#3a414a"/><path d="M1166 494.73a6 6 0 0 1 6-6h148a6 6 0 0 1 6 6v114c-26.72-20.04-43.36-20.04-53.44-20.04-16 0-37.28 20.03-53.28 20.03-9.92 0-26.72 0-53.28-20.04z" stroke="#3a414a" stroke-width="2" fill="#fff"/><use xlink:href="#d" transform="matrix(1,0,0,1,1170.9999999999807,493.73035319010415) translate(24.12651909722223 52.46527777777778)"/><use xlink:href="#h" transform="matrix(1,0,0,1,1170.9999999999807,493.73035319010415) translate(58.870442708333336 52.46527777777778)"/><path d="M1083.13 547.77h65.5" stroke="#3a414a" stroke-linejoin="round" fill="none"/><path d="M1083.14 548.25h-.5l-.03-.95h.54z" stroke="#3a414a" stroke-width=".05" fill="#3a414a"/><path d="M1163.38 547.77l-14.26 4.64v-9.26z" stroke="#3a414a" fill="#3a414a"/><path d="M1083.13 400.55h.33l.82.06.8.1.8.1.77.16.78.18.77.22.77.25.77.3.78.32.8.37.78.4.82.48.83.53.86.6.9.68.9.76.97.86 1 1 1.07 1.12 1.13 1.3 1.2 1.54 1.3 1.8 1.44 2.15 1.6 2.63 1.78 3.26 2.08 4.2 2.53 5.68 3.38 8.6 19.26 55.06 2.52 5.7 2.08 4.2 1.8 3.25 1.58 2.6 1.43 2.16 1.3 1.8 1.2 1.53 1.14 1.3 1.05 1.13 1 .98.07.07" stroke="#3a414a" stroke-linejoin="round" fill="none"/><path d="M1083.15 400.08l-.02.95h-.48l-.04-.96z" stroke="#3a414a" stroke-width=".05" fill="#3a414a"/><path d="M1163.5 525.64l-14.92-1.38 3.65-8.5z" stroke="#3a414a" fill="#3a414a"/><path d="M1392.07 366.15a6 6 0 0 1 6-6h138.67a6 6 0 0 1 6 6v65.78a6 6 0 0 1-6 6h-138.67a6 6 0 0 1-6-6z" stroke="#3a414a" stroke-width="2" fill="#fff"/><use xlink:href="#i" transform="matrix(1,0,0,1,1404.0694870993127,372.1552657129537) translate(28.826605902777786 24.90277777777778)"/><use xlink:href="#j" transform="matrix(1,0,0,1,1404.0694870993127,372.1552657129537) translate(18.274305555555557 51.790798611111114)"/><path d="M1544.24 399.04h60.93" stroke="#3a414a" fill="none"/><path d="M1544.25 399.52h-.5v-.95h.5z" stroke="#3a414a" stroke-width=".05" fill="#3a414a"/><path d="M1619.93 399.04l-14.26 4.64v-9.27z" stroke="#3a414a" fill="#3a414a"/><path d="M1327.5 399.26h47.2" stroke="#3a414a" fill="none"/><path d="M1327.5 399.73h-.5v-.95h.5z" stroke="#3a414a" stroke-width=".05" fill="#3a414a"/><path d="M1389.45 399.26l-14.26 4.63v-9.28z" stroke="#3a414a" fill="#3a414a"/><path d="M1622.55 529.4a6 6 0 0 1 6-6h138.67a6 6 0 0 1 6 6v38.66a6 6 0 0 1-6 6h-138.67a6 6 0 0 1-6-6z" stroke="#3a414a" stroke-width="2" fill="#fff"/><use xlink:href="#k" transform="matrix(1,0,0,1,1634.5508548343744,535.3970198567708) translate(25.16449652777778 23.21527777777778)"/><path d="M1392.07 515.84a6 6 0 0 1 6-6h138.67a6 6 0 0 1 6 6v65.78a6 6 0 0 1-6 6h-138.67a6 6 0 0 1-6-6z" stroke="#3a414a" stroke-width="2" fill="#fff"/><use xlink:href="#i" transform="matrix(1,0,0,1,1404.0694870993127,521.8423323567708) translate(28.826605902777786 24.90277777777778)"/><use xlink:href="#l" transform="matrix(1,0,0,1,1404.0694870993127,521.8423323567708) translate(25.16449652777778 51.790798611111114)"/><path d="M1544.24 548.73h60.93" stroke="#3a414a" fill="none"/><path d="M1544.25 549.2h-.5v-.95h.5z" stroke="#3a414a" stroke-width=".05" fill="#3a414a"/><path d="M1619.93 548.73l-14.26 4.64v-9.27z" stroke="#3a414a" fill="#3a414a"/><path d="M1327.5 548.94h47.2" stroke="#3a414a" fill="none"/><path d="M1327.5 549.42h-.5v-.95h.5z" stroke="#3a414a" stroke-width=".05" fill="#3a414a"/><path d="M1389.45 548.94l-14.26 4.64v-9.27z" stroke="#3a414a" fill="#3a414a"/><path d="M1774.72 548.73h39.66a6 6 0 0 0 6-6V488.8a6 6 0 0 1 6-6h23.77" stroke="#3a414a" fill="none"/><path d="M1774.73 549.2h-.5v-.95h.5z" stroke="#3a414a" stroke-width=".05" fill="#3a414a"/><path d="M1864.92 482.8l-14.27 4.65v-9.27z" stroke="#3a414a" fill="#3a414a"/><path d="M1867.54 452.13a6 6 0 0 1 6-6h148a6 6 0 0 1 6 6v38.8a6 6 0 0 1-6 6h-148a6 6 0 0 1-6-6z" stroke="#3a414a" stroke-width="2" fill="#fff"/><use xlink:href="#m" transform="matrix(1,0,0,1,1879.538784716179,458.13385811913616) translate(38.09006076388889 23.21527777777778)"/><path d="M1774.72 399.04h39.66a6 6 0 0 1 6 6v41.06a6 6 0 0 0 6 6h23.77" stroke="#3a414a" fill="none"/><path d="M1774.73 399.52h-.5v-.95h.5z" stroke="#3a414a" stroke-width=".05" fill="#3a414a"/><path d="M1864.92 452.1l-14.27 4.63v-9.27z" stroke="#3a414a" fill="#3a414a"/><path d="M1260.7 693.3h-39.47a.04.04 0 0 1-.04-.03.04.04 0 0 0-.05-.03H818.4a6 6 0 0 1-6-6v-198.2a6 6 0 0 1 6-6h112.24" stroke="#3a414a" fill="none"/><path d="M1261.2 693.8h-.52v-.96h.5z" stroke="#3a414a" stroke-width=".05" fill="#3a414a"/><path d="M945.4 483.04l-14.26 4.63v-9.27z" stroke="#3a414a" fill="#3a414a"/><path d="M1947.54 498.43v215.04a6 6 0 0 1-6 6h-471.4" stroke="#3a414a" fill="none"/><path d="M1948 498.45h-.94v-.52h.95z" stroke="#3a414a" stroke-width=".05" fill="#3a414a"/><path d="M1455.37 719.47l14.27-4.64v9.27z" stroke="#3a414a" fill="#3a414a"/><path d="M1262.2 724.7a6 6 0 0 1 6-6h148a6 6 0 0 1 6 6v38.8a6 6 0 0 1-6 6h-148a6 6 0 0 1-6-6z" stroke="#3a414a" stroke-width="2" fill="#fff"/><use xlink:href="#n" transform="matrix(1,0,0,1,1274.191486762665,730.7118454257426) translate(20.647569444444443 23.21527777777778)"/><use xlink:href="#o" transform="matrix(1,0,0,1,1274.191486762665,730.7118454257426) translate(49.09809027777778 23.21527777777778)"/><path d="M1262.2 673.9a6 6 0 0 1 6-6h148a6 6 0 0 1 6 6v38.8a6 6 0 0 1-6 6h-148a6 6 0 0 1-6-6z" stroke="#3a414a" stroke-width="2" fill="#fff"/><use xlink:href="#n" transform="matrix(1,0,0,1,1274.191486762665,679.9127996152588) translate(9.552734375 23.21527777777778)"/><use xlink:href="#p" transform="matrix(1,0,0,1,1274.191486762665,679.9127996152588) translate(38.003255208333336 23.21527777777778)"/><path d="M882.67 337.18a6 6 0 0 1 6-6h68a6 6 0 0 1 6 6V628.9a6 6 0 0 1-6 6h-68a6 6 0 0 1-6-6z" fill="none"/><path d="M962.67 634.9c-5.53 0-10-4.48-10-10V493.04c0-5.53-4.48-10-10-10 5.52 0 10-4.48 10-10V341.17c0-5.52 4.47-10 10-10" stroke="#3a414a" stroke-width="2" fill="none"/><path d="M1285.38 206.22a6 6 0 0 1 6-6h228a6 6 0 0 1 6 6v48a6 6 0 0 1-6 6h-228a6 6 0 0 1-6-6z" fill="none"/><use xlink:href="#q" transform="matrix(1,0,0,1,1285.381247024179,200.21814028419) translate(99.58984375 44.55078125)"/><path d="M1260.7 744.1H818.4a6 6 0 0 1-6-6V489.05a6 6 0 0 1 6-6H928.6" stroke="#3a414a" fill="none"/><path d="M1261.2 744.6h-.52v-.96h.5z" stroke="#3a414a" stroke-width=".05" fill="#3a414a"/><path d="M928.57 483.04h.5" stroke="#3a414a" fill="none"/><path d="M1438.1 670.1a6 6 0 0 1 6-6h68a6 6 0 0 1 6 6v98.72a6 6 0 0 1-6 6h-68a6 6 0 0 1-6-6z" fill="none"/><path d="M1438.1 774.82c5.53 0 10-4.47 10-10v-35.35c0-5.53 4.48-10 10-10-5.52 0-10-4.48-10-10V674.1c0-5.5-4.47-10-10-10" stroke="#3a414a" stroke-width="2" fill="none"/><path d="M1774.72 548.73h352.48" stroke="#3a414a" fill="none"/><path d="M1774.73 549.2h-.5v-.95h.5z" stroke="#3a414a" stroke-width=".05" fill="#3a414a"/><path d="M2141.96 548.73l-14.27 4.64v-9.27z" stroke="#3a414a" fill="#3a414a"/><path d="M2144.58 523.77a6 6 0 0 1 6-6h148a6 6 0 0 1 6 6v49.92a6 6 0 0 1-6 6h-148a6 6 0 0 1-6-6z" stroke="#3a414a" stroke-width="2" fill="#fff"/><g><use xlink:href="#r" transform="matrix(1,0,0,1,2156.578297513367,529.7751033424203) translate(21.483072916666664 26.27777777777778)"/></g><defs><path d="M613 24c-304 0-509-231-509-576 0-350 205-580 509-580 216 0 392 114 453 309l-173 49c-33-115-133-197-280-197-223 0-326 196-326 419 0 220 103 415 326 415 150 0 252-85 285-206l172 49C1010-95 832 24 613 24" id="s"/><path d="M158 0v-1118h174v172h12c41-113 157-188 290-188 26 0 70 2 91 3v181c-11-2-60-10-108-10-161 0-279 109-279 260V0H158" id="t"/><path d="M471 26C259 26 90-98 90-318c0-256 228-303 435-329 202-27 287-16 287-108 0-139-79-219-234-219-161 0-248 86-283 164l-173-57c86-203 278-265 451-265 150 0 419 46 419 395V0H815v-152h-12C765-73 660 26 471 26zm31-159c199 0 310-134 310-271v-155c-30 35-226 55-295 64-131 17-246 59-246 186 0 116 97 176 231 176" id="u"/><path d="M409 0L70-1118h191c89 329 165 560 243 925 75-353 154-601 240-925h192c85 325 161 564 235 922 77-354 157-598 244-922h191L1267 0h-179c-86-307-176-590-250-913C763-588 675-308 588 0H409" id="v"/><path d="M338-1490V0H158v-1490h180" id="w"/><path d="M628 24c-324 0-524-230-524-574 0-343 198-582 503-582 237 0 487 146 487 559v75H286c9 234 145 362 343 362 132 0 231-58 273-172l174 48C1024-91 857 24 628 24zM287-650h624c-17-190-120-322-304-322-192 0-309 151-320 322" id="x"/><g id="a"><use transform="matrix(0.008173828125000001,0,0,0.008173828125000001,0,0)" xlink:href="#s"/><use transform="matrix(0.008173828125000001,0,0,0.008173828125000001,9.563378906250001,0)" xlink:href="#t"/><use transform="matrix(0.008173828125000001,0,0,0.008173828125000001,15.865400390625002,0)" xlink:href="#u"/><use transform="matrix(0.008173828125000001,0,0,0.008173828125000001,25.265302734375005,0)" xlink:href="#v"/><use transform="matrix(0.008173828125000001,0,0,0.008173828125000001,38.96463867187501,0)" xlink:href="#w"/><use transform="matrix(0.008173828125000001,0,0,0.008173828125000001,43.01885742187501,0)" xlink:href="#x"/><use transform="matrix(0.008173828125000001,0,0,0.008173828125000001,52.77840820312501,0)" xlink:href="#t"/></g><path d="M158 418v-1536h174v179h20c37-59 106-193 324-193 279 0 474 222 474 576 0 356-194 580-473 580-213 0-288-135-325-197h-14v591H158zm492-555c209 0 317-186 317-421 0-232-105-413-317-413-206 0-314 166-314 413 0 249 111 421 314 421" id="y"/><path d="M598-1118v154H368v674c0 100 37 144 132 144 23 0 62-6 92-12L629-6c-37 13-88 20-134 20-193 0-307-107-307-290v-688H20v-154h168v-266h180v266h230" id="z"/><path d="M678-1118v154H420V0H240v-964H20v-154h220v-149c0-194 155-293 318-293 85 0 141 18 168 30l-50 154c-19-6-47-17-97-17-111 0-159 58-159 166v109h258" id="A"/><path d="M613 24c-304 0-509-231-509-576 0-350 205-580 509-580 305 0 511 230 511 580 0 345-206 576-511 576zm0-161c226 0 329-195 329-415 0-222-103-419-329-419-223 0-326 196-326 419 0 220 103 415 326 415" id="B"/><path d="M158 0v-1118h175l1 205c55-151 181-225 313-225 147 0 245 90 285 228 53-141 190-228 352-228 194 0 352 125 352 384V0h-181v-749c0-161-105-225-225-225-151 0-243 103-243 244V0H807v-767c0-124-93-207-219-207-131 0-250 92-250 270V0H158" id="C"/><g id="b"><use transform="matrix(0.008173828125000001,0,0,0.008173828125000001,0,0)" xlink:href="#y"/><use transform="matrix(0.008173828125000001,0,0,0.008173828125000001,10.249980468750001,0)" xlink:href="#w"/><use transform="matrix(0.008173828125000001,0,0,0.008173828125000001,14.304199218750002,0)" xlink:href="#u"/><use transform="matrix(0.008173828125000001,0,0,0.008173828125000001,23.704101562500004,0)" xlink:href="#z"/><use transform="matrix(0.008173828125000001,0,0,0.008173828125000001,28.771875000000005,0)" xlink:href="#A"/><use transform="matrix(0.008173828125000001,0,0,0.008173828125000001,34.47720703125,0)" xlink:href="#B"/><use transform="matrix(0.008173828125000001,0,0,0.008173828125000001,44.514667968750004,0)" xlink:href="#t"/><use transform="matrix(0.008173828125000001,0,0,0.008173828125000001,51.078251953125005,0)" xlink:href="#C"/></g><path d="M481 0L54-1118h197c107 314 236 620 325 951 87-331 217-637 324-951h197L670 0H481" id="D"/><path d="M158 0v-1118h180V0H158zm91-1301c-68 0-125-53-125-119s57-119 125-119c69 0 126 53 126 119s-57 119-126 119" id="E"/><path d="M577 24c-279 0-473-224-473-580 0-354 195-576 474-576 218 0 287 134 324 193h14v-551h180V0H922v-173h-20C865-111 790 24 577 24zm27-161c203 0 314-172 314-421 0-247-108-413-314-413-212 0-317 181-317 413 0 235 108 421 317 421" id="F"/><g id="c"><use transform="matrix(0.010850694444444444,0,0,0.010850694444444444,0,0)" xlink:href="#D"/><use transform="matrix(0.010850694444444444,0,0,0.010850694444444444,12.38064236111111,0)" xlink:href="#u"/><use transform="matrix(0.010850694444444444,0,0,0.010850694444444444,24.85894097222222,0)" xlink:href="#w"/><use transform="matrix(0.010850694444444444,0,0,0.010850694444444444,30.240885416666664,0)" xlink:href="#E"/><use transform="matrix(0.010850694444444444,0,0,0.010850694444444444,35.62282986111111,0)" xlink:href="#F"/><use transform="matrix(0.010850694444444444,0,0,0.010850694444444444,49.22960069444444,0)" xlink:href="#u"/><use transform="matrix(0.010850694444444444,0,0,0.010850694444444444,61.70789930555555,0)" xlink:href="#z"/><use transform="matrix(0.010850694444444444,0,0,0.010850694444444444,68.76085069444444,0)" xlink:href="#x"/></g><path d="M180 0v-1490h510c348 0 508 209 508 474 0 266-160 477-507 477H370V0H180zm190-706h312c236 0 327-133 327-310 0-176-91-307-329-307H370v617" id="G"/><path d="M180 0v-1490h510c348 0 508 194 508 460 0 198-88 351-276 417L1256 0h-220L726-579c-117 2-238 0-356 1V0H180zm190-747h312c235 0 327-108 327-283 0-177-92-293-329-293H370v576" id="H"/><g id="d"><use transform="matrix(0.010850694444444444,0,0,0.010850694444444444,0,0)" xlink:href="#G"/><use transform="matrix(0.010850694444444444,0,0,0.010850694444444444,14.192708333333332,0)" xlink:href="#H"/></g><g id="e"><use transform="matrix(0.010850694444444444,0,0,0.010850694444444444,0,0)" xlink:href="#s"/><use transform="matrix(0.010850694444444444,0,0,0.010850694444444444,12.6953125,0)" xlink:href="#t"/><use transform="matrix(0.010850694444444444,0,0,0.010850694444444444,20.692274305555557,0)" xlink:href="#x"/><use transform="matrix(0.010850694444444444,0,0,0.010850694444444444,33.865017361111114,0)" xlink:href="#u"/><use transform="matrix(0.010850694444444444,0,0,0.010850694444444444,46.34331597222223,0)" xlink:href="#z"/><use transform="matrix(0.010850694444444444,0,0,0.010850694444444444,53.39626736111112,0)" xlink:href="#x"/></g><g id="f"><use transform="matrix(0.010850694444444444,0,0,0.010850694444444444,0,0)" xlink:href="#B"/><use transform="matrix(0.010850694444444444,0,0,0.010850694444444444,13.324652777777777,0)" xlink:href="#t"/></g><path d="M537 14c-226 0-379-139-379-422v-710h180v695c0 172 97 275 253 275 160 0 281-109 281-300v-670h181V0H879v-209C806-46 684 14 537 14" id="I"/><g id="g"><use transform="matrix(0.010850694444444444,0,0,0.010850694444444444,0,0)" xlink:href="#I"/><use transform="matrix(0.010850694444444444,0,0,0.010850694444444444,13.140190972222221,0)" xlink:href="#y"/><use transform="matrix(0.010850694444444444,0,0,0.010850694444444444,26.746961805555554,0)" xlink:href="#F"/><use transform="matrix(0.010850694444444444,0,0,0.010850694444444444,40.353732638888886,0)" xlink:href="#u"/><use transform="matrix(0.010850694444444444,0,0,0.010850694444444444,52.83203125,0)" xlink:href="#z"/><use transform="matrix(0.010850694444444444,0,0,0.010850694444444444,59.8849826388889,0)" xlink:href="#x"/></g><path d="M611 442c-248 0-391-105-460-228l146-94c47 65 117 165 314 165 178 0 307-82 307-266v-224h-17C863-141 792-18 576-18c-268 0-472-195-472-546 0-346 197-568 476-568 216 0 288 133 326 193h17v-179h175V29c0 289-215 413-487 413zm-5-620c203 0 314-146 314-390 0-237-108-403-314-403-213 0-319 180-319 403 0 230 109 390 319 390" id="J"/><g id="h"><use transform="matrix(0.010850694444444444,0,0,0.010850694444444444,0,0)" xlink:href="#C"/><use transform="matrix(0.010850694444444444,0,0,0.010850694444444444,19.466145833333332,0)" xlink:href="#x"/><use transform="matrix(0.010850694444444444,0,0,0.010850694444444444,32.421875,0)" xlink:href="#t"/><use transform="matrix(0.010850694444444444,0,0,0.010850694444444444,40.41883680555555,0)" xlink:href="#J"/><use transform="matrix(0.010850694444444444,0,0,0.010850694444444444,54.04730902777778,0)" xlink:href="#x"/></g><path d="M538 24C308 24 148-78 108-271l171-41c32 123 123 178 257 178 156 0 256-77 256-169 0-77-54-128-164-154l-186-44c-203-48-300-148-300-305 0-192 176-326 414-326 230 0 351 112 402 269l-163 42c-31-80-94-158-238-158-133 0-233 69-233 162 0 83 57 129 188 160l169 40c203 48 298 149 298 302 0 196-179 339-441 339" id="K"/><path d="M338-670V0H158v-1118h173l1 207c72-158 192-221 342-221 226 0 378 139 378 422V0H872v-695c0-172-96-275-252-275-161 0-282 109-282 300" id="L"/><g id="i"><use transform="matrix(0.010850694444444444,0,0,0.010850694444444444,0,0)" xlink:href="#K"/><use transform="matrix(0.010850694444444444,0,0,0.010850694444444444,11.729600694444445,0)" xlink:href="#y"/><use transform="matrix(0.010850694444444444,0,0,0.010850694444444444,25.553385416666664,0)" xlink:href="#u"/><use transform="matrix(0.010850694444444444,0,0,0.010850694444444444,38.03168402777777,0)" xlink:href="#v"/><use transform="matrix(0.010850694444444444,0,0,0.010850694444444444,56.21744791666666,0)" xlink:href="#L"/></g><g id="j"><use transform="matrix(0.010850694444444444,0,0,0.010850694444444444,0,0)" xlink:href="#D"/><use transform="matrix(0.010850694444444444,0,0,0.010850694444444444,12.38064236111111,0)" xlink:href="#u"/><use transform="matrix(0.010850694444444444,0,0,0.010850694444444444,24.85894097222222,0)" xlink:href="#w"/><use transform="matrix(0.010850694444444444,0,0,0.010850694444444444,30.240885416666664,0)" xlink:href="#E"/><use transform="matrix(0.010850694444444444,0,0,0.010850694444444444,35.62282986111111,0)" xlink:href="#F"/><use transform="matrix(0.010850694444444444,0,0,0.010850694444444444,49.22960069444444,0)" xlink:href="#u"/><use transform="matrix(0.010850694444444444,0,0,0.010850694444444444,61.70789930555555,0)" xlink:href="#z"/><use transform="matrix(0.010850694444444444,0,0,0.010850694444444444,68.76085069444444,0)" xlink:href="#B"/><use transform="matrix(0.010850694444444444,0,0,0.010850694444444444,82.08550347222221,0)" xlink:href="#t"/></g><g id="k"><use transform="matrix(0.010850694444444444,0,0,0.010850694444444444,0,0)" xlink:href="#t"/><use transform="matrix(0.010850694444444444,0,0,0.010850694444444444,7.996961805555555,0)" xlink:href="#x"/><use transform="matrix(0.010850694444444444,0,0,0.010850694444444444,20.95269097222222,0)" xlink:href="#w"/><use transform="matrix(0.010850694444444444,0,0,0.010850694444444444,26.334635416666664,0)" xlink:href="#x"/><use transform="matrix(0.010850694444444444,0,0,0.010850694444444444,39.50737847222222,0)" xlink:href="#u"/><use transform="matrix(0.010850694444444444,0,0,0.010850694444444444,51.98567708333333,0)" xlink:href="#K"/><use transform="matrix(0.010850694444444444,0,0,0.010850694444444444,63.71527777777778,0)" xlink:href="#x"/></g><g id="l"><use transform="matrix(0.010850694444444444,0,0,0.010850694444444444,0,0)" xlink:href="#t"/><use transform="matrix(0.010850694444444444,0,0,0.010850694444444444,7.996961805555555,0)" xlink:href="#x"/><use transform="matrix(0.010850694444444444,0,0,0.010850694444444444,20.95269097222222,0)" xlink:href="#w"/><use transform="matrix(0.010850694444444444,0,0,0.010850694444444444,26.334635416666664,0)" xlink:href="#x"/><use transform="matrix(0.010850694444444444,0,0,0.010850694444444444,39.50737847222222,0)" xlink:href="#u"/><use transform="matrix(0.010850694444444444,0,0,0.010850694444444444,51.98567708333333,0)" xlink:href="#K"/><use transform="matrix(0.010850694444444444,0,0,0.010850694444444444,63.71527777777778,0)" xlink:href="#x"/></g><path d="M140 405l46-156c120 36 205 19 263-150l32-93L54-1118h197c107 313 237 620 324 950 87-331 219-637 326-950h196L606 167c-68 178-176 259-334 259-64 0-113-12-132-21" id="M"/><g id="m"><use transform="matrix(0.010850694444444444,0,0,0.010850694444444444,0,0)" xlink:href="#L"/><use transform="matrix(0.010850694444444444,0,0,0.010850694444444444,13.129340277777777,0)" xlink:href="#B"/><use transform="matrix(0.010850694444444444,0,0,0.010850694444444444,26.453993055555554,0)" xlink:href="#z"/><use transform="matrix(0.010850694444444444,0,0,0.010850694444444444,33.72395833333333,0)" xlink:href="#E"/><use transform="matrix(0.010850694444444444,0,0,0.010850694444444444,39.10590277777777,0)" xlink:href="#A"/><use transform="matrix(0.010850694444444444,0,0,0.010850694444444444,47.33072916666666,0)" xlink:href="#M"/></g><path d="M783 20c-382 0-661-292-661-764 0-473 279-766 661-766 302 0 548 182 601 489h-190c-42-204-217-313-411-313-268 0-476 208-476 590 0 381 209 588 476 588 195 0 369-110 411-313h190c-52 303-296 489-601 489" id="N"/><path d="M370-1490V0H180v-1490h190" id="O"/><g id="n"><use transform="matrix(0.010850694444444444,0,0,0.010850694444444444,0,0)" xlink:href="#N"/><use transform="matrix(0.010850694444444444,0,0,0.010850694444444444,16.23263888888889,0)" xlink:href="#O"/></g><path d="M657 26c-323 0-524-166-541-416h195c15 169 171 246 346 246 202 0 356-106 356-265 5-203-294-238-475-293-239-73-380-191-380-389 0-252 224-419 512-419 294 0 499 171 508 396H992c-17-145-151-228-328-228-193 0-321 102-321 242 0 156 175 211 284 241l149 41c160 44 422 134 422 412 0 244-197 432-541 432" id="P"/><g id="o"><use transform="matrix(0.010850694444444444,0,0,0.010850694444444444,0,0)" xlink:href="#P"/><use transform="matrix(0.010850694444444444,0,0,0.010850694444444444,14.2578125,0)" xlink:href="#z"/><use transform="matrix(0.010850694444444444,0,0,0.010850694444444444,21.63628472222222,0)" xlink:href="#u"/><use transform="matrix(0.010850694444444444,0,0,0.010850694444444444,34.11458333333333,0)" xlink:href="#z"/><use transform="matrix(0.010850694444444444,0,0,0.010850694444444444,41.38454861111111,0)" xlink:href="#I"/><use transform="matrix(0.010850694444444444,0,0,0.010850694444444444,54.52473958333333,0)" xlink:href="#K"/></g><path d="M52 0l541-1490h220L1361 0h-200l-149-416H398L254 0H52zm404-582h497c-103-290-145-390-251-756-108 377-145 460-246 756" id="Q"/><g id="p"><use transform="matrix(0.010850694444444444,0,0,0.010850694444444444,0,0)" xlink:href="#Q"/><use transform="matrix(0.010850694444444444,0,0,0.010850694444444444,15.33203125,0)" xlink:href="#y"/><use transform="matrix(0.010850694444444444,0,0,0.010850694444444444,28.938802083333332,0)" xlink:href="#y"/><use transform="matrix(0.010850694444444444,0,0,0.010850694444444444,42.545572916666664,0)" xlink:href="#t"/><use transform="matrix(0.010850694444444444,0,0,0.010850694444444444,50.54253472222221,0)" xlink:href="#B"/><use transform="matrix(0.010850694444444444,0,0,0.010850694444444444,63.43315972222221,0)" xlink:href="#D"/><use transform="matrix(0.010850694444444444,0,0,0.010850694444444444,75.48828124999999,0)" xlink:href="#x"/></g><path d="M786 20C389 20 94-260 94-744c0-487 299-766 692-766 339 0 597 194 641 529h-309c-28-162-156-258-326-258-233 0-388 179-388 495 0 323 157 493 387 493 170 0 298-97 328-259h309c-34 277-266 530-642 530" id="R"/><path d="M440-1490V0H135v-1490h305" id="S"/><g id="q"><use transform="matrix(0.01953125,0,0,0.01953125,0,0)" xlink:href="#R"/><use transform="matrix(0.01953125,0,0,0.01953125,29.58984375,0)" xlink:href="#S"/></g><g id="r"><use transform="matrix(0.010850694444444444,0,0,0.010850694444444444,0,0)" xlink:href="#u"/><use transform="matrix(0.010850694444444444,0,0,0.010850694444444444,12.47829861111111,0)" xlink:href="#t"/><use transform="matrix(0.010850694444444444,0,0,0.010850694444444444,21.19140625,0)" xlink:href="#z"/><use transform="matrix(0.010850694444444444,0,0,0.010850694444444444,28.24435763888889,0)" xlink:href="#x"/><use transform="matrix(0.010850694444444444,0,0,0.010850694444444444,41.20008680555556,0)" xlink:href="#A"/><use transform="matrix(0.010850694444444444,0,0,0.010850694444444444,49.07769097222223,0)" xlink:href="#u"/><use transform="matrix(0.010850694444444444,0,0,0.010850694444444444,61.55598958333334,0)" xlink:href="#s"/><use transform="matrix(0.010850694444444444,0,0,0.010850694444444444,74.25130208333334,0)" xlink:href="#z"/><use transform="matrix(0.010850694444444444,0,0,0.010850694444444444,81.30425347222223,0)" xlink:href="#K"/></g></defs></g></svg>