<svg xmlns="http://www.w3.org/2000/svg" xmlns:xlink="http://www.w3.org/1999/xlink" xmlns:lucid="lucid" width="1784.89" height="775.38"><g transform="translate(1060.0885765146172 -28.002239493769594)" lucid:page-tab-id="0QX0JH206wMm"><path d="M-1500 0h2500v1000h-2500z" fill="#fff"/><path d="M-570.4 35.5a6 6 0 0 1 6-6H717.3a6 6 0 0 1 6 6v760.4a6 6 0 0 1-6 6H-564.4a6 6 0 0 1-6-6z" stroke="#242f3e" stroke-width="3" fill="#fff" fill-opacity="0"/><path d="M-570.4 29.5h56v56h-56v-56z" stroke="#fff" stroke-opacity="0" fill="#242f3e"/><path d="M-552.18 55.37c-.04.48.04.88.17 1.34.1.4.28.7.48 1.08.04.1.08.2.08.33 0 .2-.12.37-.28.46l-.95.62c-.12.1-.25.13-.37.13-.16 0-.33-.06-.45-.2-.2-.2-.36-.42-.52-.7-.17-.24-.3-.52-.46-.86-1.1 1.38-2.62 2.1-4.4 2.06-1.14.06-2.13-.3-2.95-1.08-.78-.8-1.15-1.76-1.1-2.85-.05-1.22.4-2.28 1.35-3.08 1.07-.85 2.3-1.23 3.66-1.16.57 0 1.02.03 1.6.1.57.1 1.1.2 1.72.33v-1.1c.08-.88-.16-1.67-.7-2.37-.74-.56-1.56-.78-2.46-.7-.53 0-1.03.07-1.6.2-.58.14-1.03.3-1.6.52l-.5.2h-.24c-.2 0-.33-.18-.33-.47v-.75c0-.18.04-.33.12-.5.12-.16.24-.25.4-.32.66-.3 1.2-.5 1.9-.68.77-.2 1.47-.3 2.3-.28 1.47-.13 2.78.27 3.9 1.2.94 1.05 1.35 2.28 1.22 3.68zm-6.07 2.28c.57 0 1.06-.08 1.6-.28.57-.2 1.02-.5 1.43-.96.25-.27.42-.56.5-.93.12-.45.16-.84.16-1.3v-.67c-.53-.1-.94-.16-1.44-.2h-1.4c-.8-.08-1.55.12-2.2.58-.54.45-.8 1.04-.75 1.73-.04.62.13 1.16.54 1.62.44.36.97.5 1.55.43zm12 1.6c-.22.02-.42-.02-.6-.15-.15-.17-.23-.35-.32-.6l-3.5-11.5-.1-.62c0-.24.1-.37.36-.37h1.47c.2 0 .37.04.57.15.17.2.25.37.3.6l2.5 9.96 2.38-9.93c0-.24.08-.43.28-.6.17-.12.37-.16.58-.14h1.2c.24-.02.4.02.6.14.17.18.25.36.3.6l2.33 9.94 2.56-9.98c.04-.23.16-.43.33-.6.15-.1.36-.16.56-.13l1.4-.02c.16 0 .33.12.37.3v.31s0 .2-.12.35l-3.6 11.53c-.05.23-.13.42-.3.6-.2.1-.37.15-.57.13h-1.27c-.25.04-.46-.02-.62-.14-.16-.17-.25-.37-.3-.6l-2.3-9.6-2.3 9.6c-.03.23-.1.43-.27.6-.2.12-.4.18-.62.15zm19.2.38c-.82 0-1.52-.07-2.3-.25-.65-.13-1.14-.3-1.72-.6-.2-.1-.37-.23-.45-.4-.08-.15-.13-.3-.13-.45v-.74c0-.32.13-.48.33-.48h.3l.36.16c.58.24 1.03.4 1.6.5.62.14 1.15.2 1.8.2.8.06 1.5-.1 2.2-.5.48-.3.77-.8.72-1.4.05-.4-.12-.76-.37-1.04-.46-.4-.95-.64-1.52-.78l-2.18-.7c-.95-.25-1.73-.72-2.38-1.5-.5-.64-.74-1.35-.74-2.18 0-.6.12-1.08.4-1.6.3-.5.63-.88 1.08-1.22.5-.38.98-.6 1.6-.77.66-.2 1.2-.28 1.9-.27.32-.03.6-.03.97 0l1 .16.8.23.67.25c.16.1.28.23.45.38.08.15.12.3.12.5v.7c0 .32-.12.47-.37.47-.2-.03-.37-.08-.57-.18-.95-.42-1.8-.6-2.88-.58-.7-.04-1.3.1-1.97.4-.5.3-.74.8-.7 1.36 0 .4.13.76.45 1.05.5.4 1 .65 1.6.82l2.1.67c.95.24 1.68.7 2.3 1.44.5.64.7 1.32.7 2.1 0 .63-.13 1.17-.37 1.73-.3.55-.62.96-1.1 1.32-.5.4-1 .66-1.6.84-.75.23-1.4.33-2.15.35zM-524.3 67c-5.6 3.8-11.36 5.56-18.15 5.54-8.54.05-15.82-2.73-22.16-8.45-.5-.42 0-1 .48-.68 7.07 4.05 14.02 5.9 22.2 5.9 6.1-.04 11.3-1.1 16.93-3.47.83-.35 1.52.55.7 1.14z" stroke="#fff" stroke-opacity="0" fill="#fff"/><path d="M-522.24 64.7c-.64-.8-4.16-.38-5.75-.2-.46 0-.53-.36-.1-.66 2.8-1.97 7.42-1.4 8-.74.6.67-.14 5.28-2.78 7.5-.4.33-.78.14-.6-.3.54-1.52 1.86-4.83 1.24-5.6z" stroke="#fff" stroke-opacity="0" fill="#fff"/><use xlink:href="#a" transform="matrix(1,0,0,1,-499.4001043968601,49.50223949376959) translate(0 16.216875)"/><use xlink:href="#b" transform="matrix(1,0,0,1,-499.4001043968601,49.50223949376959) translate(36.594228515625005 16.216875)"/><path d="M382.17 121l-28.2-28.24-15.54 15.55-2.7-2.72 16.85-16.9c.8-.75 1.97-.75 2.76 0l29.53 29.6z" stroke="#fff" stroke-opacity="0" fill="#d86613"/><path d="M412.45 105L390.62 83.2l-21.35 21.4-2.72-2.7L389.3 79.1c.74-.74 1.95-.74 2.68 0l23.2 23.2zM368.08 85.52c-4.95.02-8.97-4-9-8.97 0-4.96 4-8.98 8.97-9 4.95-.02 8.97 4 9 8.97v.03c-.03 4.95-4.03 8.95-8.97 8.97zm0-14.1c-2.85 0-5.15 2.3-5.15 5.13 0 2.84 2.3 5.14 5.14 5.14 2.83 0 5.13-2.3 5.13-5.15 0-2.84-2.28-5.14-5.12-5.14z" stroke="#fff" stroke-opacity="0" fill="#d86613"/><path d="M413.16 127.56H337.1c-1.05 0-1.93-.88-1.93-1.92V49.48c0-1.04.88-1.92 1.92-1.92h76.06c1.04 0 1.92.88 1.92 1.92v76.16c0 1.04-.88 1.92-1.92 1.92zM339 123.72h72.24V51.4H339z" stroke="#fff" stroke-opacity="0" fill="#d86613"/><use xlink:href="#c" transform="matrix(1,0,0,1,305.1729521700024,136.55622100503206) translate(26.363932291666664 21.52777777777778)"/><use xlink:href="#d" transform="matrix(1,0,0,1,305.1729521700024,136.55622100503206) translate(29.141710069444443 48.415798611111114)"/><use xlink:href="#e" transform="matrix(1,0,0,1,305.1729521700024,136.55622100503206) translate(38.044704861111114 75.30381944444446)"/><path d="M521.6 595.13h120v120h-120v-120z" stroke="#fff" stroke-opacity="0" stroke-width="2" fill="#d86613"/><path d="M616.83 643.26v32.7L588 692.58v-12.4l16-9.22c.93-.54 1.46-1.3 1.6-2.33.03-.47.03-.83 0-1.25v-18.23l11.23-6.43m2.25-4.76c-.18 0-.32 0-.46.12l-15.3 8.8c-.3.2-.9.5-.9.85v20.43l-17.13 9.9c-.3.17-.47.46-.47.82v17.57c0 .54.42.96.95.96.18 0 .32-.05.46-.1l33.33-19.2c.28-.17.46-.47.46-.83V638.8v-.07c0-.48-.42-.9-.95-.9z" stroke="#fff" stroke-opacity="0" stroke-width="2" fill="#fff"/><path d="M579.1 699.04c-.45 0-.9-.1-1.28-.35l-33.33-19.16c-.84-.53-1.28-1.32-1.28-2.2v-42.42c0-.96.44-1.75 1.27-2.2l36.63-21.16c.82-.44 1.72-.44 2.55 0L617 630.8c.84.43 1.3 1.22 1.3 2.2 0 .87-.46 1.66-1.3 2.18l-35.35 20.47v40.84c0 .96-.52 1.75-1.27 2.2-.46.25-.83.34-1.28.34zm-32.66-22.14l31.98 18.45V655.3c0-.97.45-1.76 1.28-2.3l34.68-20-31.98-18.46-35.96 20.82zm35.66-62.53zm.68 0z" stroke="#fff" stroke-opacity="0" stroke-width="2" fill="#fff"/><use xlink:href="#f" transform="matrix(1,0,0,1,491.6145165932137,724.133559727692) translate(38.811848958333336 21.52777777777778)"/><use xlink:href="#g" transform="matrix(1,0,0,1,491.6145165932137,724.133559727692) translate(46.92816840277778 48.415798611111114)"/><path d="M-959.6 475.13c-33.1 0-60 26.88-60 60 0 33.24 26.9 60 60 60 33.25 0 60-26.88 60-60 0-33.24-26.75-60-60-60zm15.85 112.08v-10.07c0-4.08-2.28-7.56-5.4-9.84h.6c5.76-.6 10.68-2.4 10.68-2.4s7.32-2.3 11.4-6.97c4.2-5.16 5.4-12.36 5.4-12.36s1.2-7.92 0-14.28c-1.2-5.9-6-10.33-6-10.33s1.56-4.2 1.32-8.28c0-4.1-1.92-8.17-1.92-8.17s-3.48-.36-7.32 1.2c-4.43 1.92-9.47 5.4-9.47 5.4s-3.48-1.2-7.56-1.56c-3.72-.72-8.16-.72-8.16-.72s-4.43 0-8.27.72c-4.08.6-7.56 1.56-7.56 1.56s-5.04-3.48-9.48-5.4c-3.73-1.56-7.2-1.2-7.2-1.2s-1.93 4.08-1.93 8.16c0 4.2 1.2 8.27 1.2 8.27s-4.32 4.08-5.88 10.32c-1.7 6.35 0 14.27 0 14.27s.83 7.2 5.27 12.36c4.2 4.68 11.4 6.96 11.4 6.96s5.04 1.8 10.68 2.4h.96c-2.15 2.27-4.43 5.75-4.43 9.83v10.08c-22.32-6.6-38.52-27.47-38.52-52.07 0-30 24.36-54.24 54.36-54.24s54.73 24.23 54.73 54.23c0 24.6-16.44 45.48-38.88 52.08z" stroke="#000" stroke-opacity="0" fill="#0078d7"/><use xlink:href="#h" transform="matrix(1,0,0,1,-1049.5935656602264,604.133559727692) translate(62.6953271484375 16.589501953125)"/><path d="M-106.78 362.64h120v120h-120v-120z" stroke="#fff" stroke-opacity="0" stroke-width="2" fill="#3b48cc"/><path d="M-38.1 439.84l2.22-2.28-4.58-4.52 5.12-3.83-1.92-2.56-6.63 4.97-.18.18c-.6.63-.6 1.63.04 2.25zM-20.3 434.4l-5.12 3.84 1.92 2.56 6.63-4.96c.4-.3.6-.7.64-1.18.03-.5-.14-.9-.5-1.25l-5.92-5.75-2.23 2.3z" stroke="#fff" stroke-opacity="0" stroke-width="2" fill="#fff"/><path d="M-36.12 443.6l8.45-19.2 2.93 1.3-8.46 19.2-2.92-1.3z" stroke="#fff" stroke-opacity="0" stroke-width=".81" fill="#fff"/><path d="M-5.36 395.84l-4.45-3.76-7.15-5.84-1.85-1.6c-.34-.32-.67-.4-1-.4h-59.4c0-.88-.66-1.6-1.58-1.6h-6.4c-.83 0-1.58.72-1.58 1.6v16c0 .88.75 1.6 1.6 1.6h6.38v59.2c0 .88.75 1.6 1.6 1.6h17.63c.84 0 1.6-.72 1.6-1.6v-62.4h28.8v11.76l-17.97 7.44h-1.26c-.92 0-1.6.72-1.6 1.6v28.8c0 .88.67 1.6 1.6 1.6H-8.8c.92 0 1.6-.72 1.6-1.6v-28.8c0-.88-.68-1.6-1.6-1.6h-1.27l-17.9-7.44v-11.76h21.6c.67 0 1.26-.4 1.5-1.04.26-.64 0-1.36-.5-1.76zm-15.04-8.32l-8.23 7.44-9.9-7.52h18.13zm-41.15 8h-12.77l7.9-6 7.8 5.92zm-15.2 32.72l13.6-12.08v24.16zm12.76 15.6l-13.5 12.08v-24.16zm-13.5-19.2v-24.08l13.5 12.08zm13.68-37.2h20l-10 7.52zm22.68 2l7.9 6h-15.88zm-28.05-2l-10 7.6v-7.6zm-13.18 11.2h-3.2v-12.8h3.2v12.8zm5.63 60.8l13.6-12v12zm13.6-50.4L-75 398.64h11.85zm52.75 37.52h-38.38v-25.6h38.38zm-30.4-28.8l11.25-4.64 11.17 4.64zm16.37-22.4l6.47-5.84 7.22 5.92z" stroke="#fff" stroke-opacity="0" stroke-width="2" fill="#fff"/><use xlink:href="#i" transform="matrix(1,0,0,1,-136.77948417215134,491.6414159273263) translate(49.14171006944444 21.52777777777778)"/><path d="M-106.78 595.13h120v120h-120v-120z" stroke="#fff" stroke-opacity="0" stroke-width="2" fill="#3b48cc"/><path d="M-38.1 672.33l2.22-2.28-4.58-4.5 5.12-3.84-1.92-2.57-6.63 4.97-.18.17c-.6.63-.6 1.63.04 2.26zM-20.3 666.9l-5.12 3.83 1.92 2.56 6.63-4.96c.4-.3.6-.7.64-1.2.03-.48-.14-.9-.5-1.24l-5.92-5.76-2.23 2.3z" stroke="#fff" stroke-opacity="0" stroke-width="2" fill="#fff"/><path d="M-36.12 676.1l8.45-19.2 2.93 1.28-8.46 19.2-2.92-1.3z" stroke="#fff" stroke-opacity="0" stroke-width=".81" fill="#fff"/><path d="M-5.36 628.33l-4.45-3.76-7.15-5.84-1.85-1.6c-.34-.32-.67-.4-1-.4h-59.4c0-.88-.66-1.6-1.58-1.6h-6.4c-.83 0-1.58.72-1.58 1.6v16c0 .88.75 1.6 1.6 1.6h6.38v59.2c0 .88.75 1.6 1.6 1.6h17.63c.84 0 1.6-.72 1.6-1.6v-62.4h28.8v11.76l-17.97 7.43h-1.26c-.92 0-1.6.72-1.6 1.6v28.8c0 .88.67 1.6 1.6 1.6H-8.8c.92 0 1.6-.72 1.6-1.6v-28.8c0-.88-.68-1.6-1.6-1.6h-1.27l-17.9-7.44v-11.77h21.6c.67 0 1.26-.4 1.5-1.04.26-.65 0-1.37-.5-1.77zM-20.4 620l-8.23 7.45-9.9-7.52h18.13zm-41.15 8h-12.77l7.9-6 7.8 5.93zm-15.2 32.73l13.6-12.08v24.16zm12.76 15.6l-13.5 12.08v-24.15zm-13.5-19.2v-24.08l13.5 12.08zm13.68-37.2h20l-10 7.52zm22.68 2l7.9 6h-15.88zm-28.05-2l-10 7.6v-7.6zm-13.18 11.2h-3.2v-12.8h3.2v12.8zm5.63 60.8l13.6-12v12zm13.6-50.4L-75 631.13h11.85zm52.75 37.52h-38.38v-25.6h38.38zm-30.4-28.8l11.25-4.64 11.17 4.65zm16.37-22.4l6.47-5.84 7.22 5.93z" stroke="#fff" stroke-opacity="0" stroke-width="2" fill="#fff"/><use xlink:href="#j" transform="matrix(1,0,0,1,-136.77948417215134,724.133559727692) translate(51.66449652777778 21.52777777777778)"/><path d="M-478.37 589.73c-30.12 0-54.6-24.48-54.6-54.6s24.5-54.6 54.6-54.6c30.13 0 54.6 24.48 54.6 54.6s-24.48 54.6-54.6 54.6zm0-114.6c-33.12 0-60 26.88-60 60 0 33.12 26.88 60 60 60 33.13 0 60-26.88 60-60 0-33.12-26.88-60-60-60zm-18.48 90.72h-14.63l17.4-36.24 7.3 15-10.07 21.25zm5.17-43.8c-.5-.96-1.44-1.56-2.52-1.56-.97 0-1.93.6-2.4 1.55l-21.6 45.36c-.37.85-.37 1.8.12 2.65.48.72 1.44 1.2 2.28 1.2h20.75c.97 0 1.93-.6 2.4-1.56l11.28-23.9c.37-.7.37-1.55 0-2.4l-10.3-21.35zm46.44 43.8h-14.88l-27.13-58.08c-.36-.96-1.3-1.56-2.4-1.56h-9.84v-11.27h19.7l26.88 58.08c.48.97 1.44 1.57 2.52 1.57h5.15v11.28zm2.63-16.8h-6.13l-26.88-57.96c-.48-1.1-1.44-1.7-2.4-1.7h-24.25c-1.44 0-2.63 1.2-2.63 2.77l-.13 16.68c0 .72.36 1.44.83 1.92.5.6 1.2.84 1.93.84h10.8l27.12 58.1c.36.95 1.3 1.55 2.4 1.55h19.3c1.57 0 2.77-1.2 2.77-2.76v-16.7c0-1.43-1.2-2.75-2.75-2.75z" stroke="#000" stroke-opacity="0" fill="#ed7100"/><use xlink:href="#k" transform="matrix(1,0,0,1,-568.3650109895427,604.133559727692) translate(51.32144531249999 16.589501953125)"/><path d="M-290.16 589.73c-30.12 0-54.6-24.48-54.6-54.6s24.48-54.6 54.6-54.6 54.6 24.48 54.6 54.6-24.48 54.6-54.6 54.6zm0-114.6c-33.12 0-60 26.88-60 60 0 33.12 26.88 60 60 60 33.12 0 60-26.88 60-60 0-33.12-26.88-60-60-60zm-18.48 90.72h-14.64l17.4-36.24 7.32 15-10.08 21.25zm5.16-43.8c-.48-.96-1.44-1.56-2.52-1.56-.96 0-1.92.6-2.4 1.55L-330 567.4c-.36.85-.36 1.8.12 2.65.48.72 1.44 1.2 2.28 1.2h20.76c.96 0 1.92-.6 2.4-1.56l11.28-23.9c.36-.7.36-1.55 0-2.4l-10.32-21.35zm46.44 43.8h-14.88l-27.12-58.08c-.36-.96-1.32-1.56-2.4-1.56h-9.84v-11.27h19.68l26.88 58.08c.48.97 1.44 1.57 2.52 1.57h5.16v11.28zm2.64-16.8h-6.12l-26.88-57.96c-.48-1.1-1.44-1.7-2.4-1.7h-24.24c-1.44 0-2.64 1.2-2.64 2.77l-.12 16.68c0 .72.36 1.44.84 1.92.48.6 1.2.84 1.92.84h10.8l27.12 58.1c.36.95 1.32 1.55 2.4 1.55h19.32c1.56 0 2.76-1.2 2.76-2.76v-16.7c0-1.43-1.2-2.75-2.76-2.75z" stroke="#000" stroke-opacity="0" fill="#ed7100"/><use xlink:href="#l" transform="matrix(1,0,0,1,-380.16308185503294,604.133559727692) translate(64.3546142578125 16.589501953125)"/><path d="M-229.66 535.13h55.2a6 6 0 0 0 6-6v-100.5a6 6 0 0 1 6-6h39.3" stroke="#3a414a" fill="none"/><path d="M-229.65 535.6h-.53l.02-.47-.02-.47h.53z" stroke="#3a414a" stroke-width=".05" fill="#3a414a"/><path d="M-108.4 422.64l-14.26 4.64V418z" stroke="#3a414a" fill="#3a414a"/><path d="M-229.66 535.13h55.2a6 6 0 0 1 6 6v108a6 6 0 0 0 6 6h39.3" stroke="#3a414a" fill="none"/><path d="M-229.65 535.6h-.53l.02-.47-.02-.47h.53z" stroke="#3a414a" stroke-width=".05" fill="#3a414a"/><path d="M-108.4 655.13l-14.26 4.64v-9.27z" stroke="#3a414a" fill="#3a414a"/><path d="M-417.87 535.13h51.32" stroke="#3a414a" fill="none"/><path d="M-417.85 535.6h-.53v-.94h.53z" stroke="#3a414a" stroke-width=".05" fill="#3a414a"/><path d="M-351.78 535.13l-14.27 4.64v-9.27z" stroke="#3a414a" fill="#3a414a"/><path d="M338.22 483.13c1.56 0 2.76 1.25 2.76 2.7v27.36c0 1.55-1.2 2.8-2.76 2.8H223.74c-1.56 0-2.76-1.25-2.76-2.8v-27.36c0-1.46 1.2-2.7 2.76-2.7zM226.38 510.5h109.2v-21.85h-109.2zm9.6 16.42v-5.5h8.16v5.5zm16.32 0v-5.5h8.28v5.5zm16.44 0v-5.5h8.16v5.5zm16.32 0v-5.5h8.16v5.5zm16.32 0v-5.5h8.28v5.5zm16.44 0v-5.5h8.16v5.5zm-81.84 24.65v-5.52h8.16v5.52zm16.32 0v-5.52h8.28v5.52zm16.44 0v-5.52h8.16v5.52zm16.32 0v-5.52h8.16v5.52zm16.32 0v-5.52h8.28v5.52zm16.44 0v-5.52h8.16v5.52zm-81.84 10.92v-5.42h8.16v5.4zm16.32 0v-5.42h8.28v5.4zm16.44 0v-5.42h8.16v5.4zm16.32 0v-5.42h8.16v5.4zm16.32 0v-5.42h8.28v5.4zm16.44 0v-5.42h8.16v5.4zm-81.84 24.63v-5.5h8.16v5.5zm16.32 0v-5.5h8.28v5.5zm16.44 0v-5.5h8.16v5.5zm16.32 0v-5.5h8.16v5.5zm16.32 0v-5.5h8.28v5.5zm16.44 0v-5.5h8.16v5.5zm23.16-27.35v4.06h-5.4v-1.35h-1.44v-5.42h4.08c1.56 0 2.76 1.14 2.76 2.7zm-5.4 20.5h5.4v4.15c0 1.46-1.2 2.7-2.76 2.7h-4.08v-5.5h1.44zm-111.84-23.2h4.08v5.4h-1.44v1.36h-5.4v-4.06c0-1.56 1.2-2.7 2.76-2.7zm2.64 24.54h1.44v5.5h-4.08c-1.56 0-2.76-1.23-2.76-2.7v-4.15h5.4zm109.2-36.92h5.4v4.16c0 1.46-1.2 2.7-2.76 2.7h-4.08v-5.5h1.44zm5.4-20.5v4.07h-5.4v-1.35h-1.44v-5.5h4.08c1.56 0 2.76 1.23 2.76 2.8zm-114.6 21.85h1.44v5.52h-4.08c-1.56 0-2.76-1.25-2.76-2.7v-4.17h5.4zm-2.64-24.64h4.08v5.52h-1.44v1.35h-5.4v-4.06c0-1.55 1.2-2.8 2.76-2.8zm-2.76 17.8v-5.42h5.4v5.4zm114.6 0v-5.42h5.4v5.4zm-114.6 35.66v-5.5h5.4v5.5zm114.6 0v-5.5h5.4v5.5z" stroke="#000" stroke-opacity="0" fill="#b0084d"/><path d="M223.66 499.46h114.6v85.4h-114.6v-85.4z" stroke="#000" stroke-opacity="0" fill-opacity="0"/><use xlink:href="#m" transform="matrix(1,0,0,1,190.98395560365543,596.133559727692) translate(72.95348144531249 16.589501953125)"/><path d="M13.72 422.64h97.38a6 6 0 0 1 6 6v100.5a6 6 0 0 0 6 6h81.5" stroke="#3a414a" fill="none"/><path d="M13.73 423.12h-.5v-.95h.5z" stroke="#3a414a" stroke-width=".05" fill="#3a414a"/><path d="M219.37 535.13l-14.27 4.64v-9.27z" stroke="#3a414a" fill="#3a414a"/><path d="M13.72 655.13h97.38a6 6 0 0 0 6-6v-108a6 6 0 0 1 6-6h81.5" stroke="#3a414a" fill="none"/><path d="M13.73 655.6h-.5v-.94h.5z" stroke="#3a414a" stroke-width=".05" fill="#3a414a"/><path d="M219.37 535.13l-14.27 4.64v-9.27z" stroke="#3a414a" fill="#3a414a"/><path d="M634.78 459.75l.58-4.44c4.87 2.9 6.38 4.57 6.84 5.3-1.28.47-3.94.1-7.42-.85zm-48.6-16.44c0-.1.1-.23.34-.23l-.12.5c-.1-.13-.23-.13-.23-.25zm37.58 56.4v.38c0 .36-1.05 1.92-5.7 3.72-1.96.83-4.4 1.56-7.18 2.15-7.08 1.7-15.77 2.53-24.36 2.53-23.3 0-37.35-5.88-37.35-8.4v-.37l-10.56-77.63c.7.37 1.4.73 2.22 1.08.1.13.34.25.58.25.7.36 1.4.6 2.1.96.33.12.57.24.9.35.83.25 1.52.62 2.45.86.12 0 .35.12.58.24 1.04.24 2.2.6 3.25.83.35.13.58.25.93.25.93.24 1.75.48 2.67.72.35 0 .82.1 1.16.23 1.05.13 2.1.37 3.14.6.23 0 .34 0 .57.13 1.28.12 2.56.36 3.83.6.35 0 .8 0 1.16.1.93.13 1.98.25 3.02.38.35 0 .8.12 1.16.12l3.72.36h.47l4.16.36h1.16c1.04.12 2.1.12 3.25.12.35 0 .8.1 1.16.1H590.7c.34 0 .8-.1 1.16-.1 1.16 0 2.2 0 3.25-.13h1.16l4.18-.36h.46c1.17-.1 2.44-.23 3.72-.35.35 0 .8-.12 1.16-.12l3.13-.36c.36-.12.7-.12 1.05-.12 1.28-.23 2.55-.47 3.83-.6.23-.12.35-.12.58-.12l3.13-.72c.46 0 .8-.1 1.15-.1l2.67-.73c.35 0 .58-.12.93-.24 1.04-.24 2.2-.6 3.25-.83.23-.13.35-.25.58-.25.92-.24 1.74-.6 2.43-.84.36-.1.6-.22.94-.34.7-.37 1.5-.6 2.1-.97.22 0 .45-.13.57-.25.82-.35 1.52-.7 2.2-1.07l-4.86 36.12c-9.98-3.13-24-8.88-37.24-15.13-.1-3-2.66-5.5-5.68-5.5-3.25 0-5.8 2.63-5.8 5.75s2.55 5.75 5.8 5.75c1.16 0 2.32-.47 3.25-1.07 11.95 5.63 27.03 12.36 38.86 15.7l-4.87 36zm-37.24-100.19c28.54 0 48.6 8.77 49.07 13.57l-.13.6c-.1.25-.1.37-.23.48-.12.25-.12.37-.23.5l-.46.47c-.1.12-.23.36-.46.48-.12.1-.46.35-.7.47-.1.25-.34.37-.58.5-.23.23-.57.35-.8.58-.24.13-.47.25-.82.37-.35.24-.7.36-1.04.6-.35.12-.58.24-.93.36-.46.23-.8.35-1.27.6-.34.12-.7.24-1.16.36-.46.24-.92.36-1.4.48-.45.23-.8.35-1.26.47-.46.12-1.04.36-1.62.48-.46.12-.93.24-1.4.48l-1.73.35-1.63.38c-.58.24-1.27.36-1.85.48-.58.12-1.16.24-1.86.36-.57.12-1.38.23-2.08.35-.57.13-1.15.25-1.85.25l-2.2.36c-.7.12-1.28.24-1.98.24-.82.12-1.63.24-2.44.24-.7.12-1.4.24-2.1.24-.92.1-1.85.1-2.77.23-.6 0-1.3.13-2 .13-1.03.12-2.08.12-3.12.12-.7 0-1.16.12-1.86.12-1.62 0-3.36.12-5.1.12-1.86 0-3.6-.13-5.22-.13-.58 0-1.16-.13-1.74-.13-1.16 0-2.2 0-3.25-.12-.68 0-1.26-.12-1.96-.12-.93-.12-1.86-.12-2.78-.23-.7 0-1.28-.13-1.97-.25-.83 0-1.75-.12-2.57-.24-.58 0-1.16-.1-1.85-.23-.8-.12-1.63-.24-2.32-.36-.7 0-1.16-.1-1.74-.23-.82-.12-1.5-.23-2.2-.35l-1.75-.37c-.7-.12-1.27-.24-1.97-.48l-1.5-.36c-.6-.1-1.28-.22-1.86-.34-.47-.25-.93-.37-1.4-.5-.58-.1-1.04-.23-1.62-.47-.46-.13-.8-.25-1.28-.36-.46-.25-.92-.37-1.4-.6-.45-.13-.8-.25-1.15-.37-.36-.24-.82-.36-1.28-.6-.35-.12-.58-.24-.93-.36-.36-.23-.7-.35-1.05-.6-.24-.1-.47-.23-.82-.35-.23-.23-.58-.35-.8-.6-.24-.12-.47-.24-.6-.48-.22-.12-.45-.36-.68-.47-.24-.13-.35-.37-.47-.5-.12-.1-.35-.35-.46-.47-.12-.12-.12-.24-.24-.48 0-.1-.1-.23-.23-.47v-.6c.35-4.8 20.42-13.56 49.07-13.56zm61.25 60.62c-.58-3.25-4.18-6.5-11.6-10.7l4.75-34.8.12-.94v-.37c0-11.38-28.77-19.3-54.52-19.3-25.87 0-54.63 7.92-54.63 19.3v.38l.1.95 11.6 85.56c.47 10.07 26.45 13.8 42.92 13.8 9.05 0 18.1-.97 25.64-2.64 3-.73 5.68-1.56 8-2.4 5.92-2.4 9.05-5.28 9.17-8.76l4.75-35.16c2.55.6 5 .83 6.96.83 2.67 0 4.64-.48 5.7-1.8.9-1.07 1.38-2.5 1.03-3.95zm-89.32.7l7.2-11.87 7.18 11.88h-14.38zm21.57 4.1c.47-.85.47-1.93 0-2.77l-12.06-19.9c-.93-1.7-3.7-1.7-4.75 0l-11.94 19.9c-.47.85-.58 1.93 0 2.77.46.83 1.4 1.3 2.32 1.3h24c1.05 0 1.98-.47 2.44-1.3zm25.3 3.7c4.4 0 8 3.62 8 8.06s-3.6 8.15-8 8.15c-4.53 0-8.13-3.7-8.13-8.15 0-4.44 3.6-8.05 8.1-8.05zm0 21.62c7.42 0 13.56-6 13.56-13.56 0-7.44-6.14-13.44-13.57-13.44-7.53 0-13.56 6-13.56 13.44 0 7.56 6.03 13.56 13.57 13.56zm-41.54 3.95v-13.56h13.58v13.56h-13.58zm16.25-19.08h-18.9c-1.52 0-2.8 1.2-2.8 2.75v19.08c0 1.56 1.28 2.76 2.8 2.76h18.9c1.62 0 2.78-1.2 2.78-2.75V477.9c0-1.56-1.15-2.76-2.77-2.76z" stroke="#000" stroke-opacity="0" fill="#7aa116"/><use xlink:href="#n" transform="matrix(1,0,0,1,501.88516074643735,522.9946366934082) translate(52.958798828125 16.589501953125)"/><path d="M13.72 655.13h491.5" stroke="#3a414a" fill="none"/><path d="M13.73 655.6h-.5v-.94h.5z" stroke="#3a414a" stroke-width=".05" fill="#3a414a"/><path d="M520 655.13l-14.27 4.64v-9.27z" stroke="#3a414a" fill="#3a414a"/><path d="M13.72 655.13h431.93a6 6 0 0 0 6-6V460a6 6 0 0 1 6-6h57.85" stroke="#3a414a" fill="none"/><path d="M13.73 655.6h-.5v-.94h.5z" stroke="#3a414a" stroke-width=".05" fill="#3a414a"/><path d="M530.27 454L516 458.63v-9.27z" stroke="#3a414a" fill="#3a414a"/><path d="M-825.33 534.65h-73.8v-.95h73.8zm270.58 0h-57.92v-.95h57.92z" stroke="#3a414a" stroke-width=".05" fill="#3a414a"/><path d="M-899.12 534.65h-.5l-.03-.95h.53z" fill="#3a414a"/><path stroke="#3a414a" stroke-width=".05" fill="#3a414a"/><path d="M-539.98 534.17l-14.27 4.64v-9.26z" fill="#3a414a"/><path d="M-538.45 534.17l-16.27 5.3v-10.6zm-15.32 4l12.25-4-12.25-3.98z" stroke="#3a414a" stroke-width=".05" fill="#3a414a"/><use xlink:href="#o" transform="matrix(1,0,0,1,-825.327355975641,523.4189895591828) translate(0 17.22222222222222)"/><use xlink:href="#p" transform="matrix(1,0,0,1,-825.327355975641,523.4189895591828) translate(27.404513888888893 17.22222222222222)"/><path d="M-478.37 251.36c-30.12 0-54.6-24.48-54.6-54.6s24.5-54.6 54.6-54.6c30.13 0 54.6 24.48 54.6 54.6s-24.48 54.6-54.6 54.6zm0-114.6c-33.12 0-60 26.88-60 60 0 33.12 26.88 60 60 60 33.13 0 60-26.88 60-60 0-33.12-26.88-60-60-60zm-18.48 90.72h-14.63l17.4-36.24 7.3 15-10.07 21.24zm5.17-43.8c-.5-.96-1.44-1.56-2.52-1.56-.97 0-1.93.6-2.4 1.56l-21.6 45.36c-.37.84-.37 1.8.12 2.64.48.72 1.44 1.2 2.28 1.2h20.75c.97 0 1.93-.6 2.4-1.56l11.28-23.88c.37-.72.37-1.56 0-2.4l-10.3-21.36zm46.44 43.8h-14.88l-27.13-58.08c-.36-.96-1.3-1.56-2.4-1.56h-9.84v-11.28h19.7l26.88 58.08c.48.96 1.44 1.56 2.52 1.56h5.15v11.28zm2.63-16.8h-6.13l-26.88-57.96c-.48-1.08-1.44-1.68-2.4-1.68h-24.25c-1.44 0-2.63 1.2-2.63 2.76l-.13 16.68c0 .72.36 1.44.83 1.92.5.6 1.2.84 1.93.84h10.8l27.12 58.08c.36.96 1.3 1.56 2.4 1.56h19.3c1.57 0 2.77-1.2 2.77-2.76v-16.68c0-1.44-1.2-2.76-2.75-2.76z" stroke="#000" stroke-opacity="0" fill="#ed7100"/><use xlink:href="#q" transform="matrix(1,0,0,1,-568.3650109895427,265.757330071767) translate(41.36572265624999 16.589501953125)"/><path d="M280.98 482.63V202.76a6 6 0 0 0-6-6h-676.96" stroke="#3a414a" fill="none"/><path d="M281.46 483.13h-.95v-.5h.96z" stroke="#3a414a" stroke-width=".05" fill="#3a414a"/><path d="M-416.75 196.76l14.27-4.64v9.27z" stroke="#3a414a" fill="#3a414a"/><path d="M-836.4 197.23h-217.17l-.88.07-.85.2-.8.34-.74.45-.65.55-.56.66-.45.75-.34.8-.2.84-.07.88v326.46l.06.88.2.84.33.8.44.74.57.66.66.56.74.45.8.34.85.2.88.08h17.6v.95h-17.64l-1-.08-1-.24-.93-.38-.87-.53-.77-.67-.66-.77-.53-.87-.4-.95-.22-.98-.08-1V202.74l.08-1 .23-.98.4-.94.52-.87.66-.77.78-.66.87-.53.94-.4 1-.24 1-.08h217.2zm297.53 0h-139.7v-.95h139.7z" stroke="#3a414a" stroke-width=".05" fill="#3a414a"/><path d="M-538.37 196.76l.02.47h-.53v-.95h.53z" fill="#3a414a"/><path stroke="#3a414a" stroke-width=".05" fill="#3a414a"/><path d="M-1021.2 535.25l-14.27 4.64v-9.28z" fill="#3a414a"/><path d="M-1019.67 535.25l-16.28 5.3v-10.58zm-15.33 4l12.26-4-12.26-3.98z" stroke="#3a414a" stroke-width=".05" fill="#3a414a"/><use xlink:href="#r" transform="matrix(1,0,0,1,-836.397495159187,186.0021217384337) translate(0 17.22222222222222)"/><use xlink:href="#s" transform="matrix(1,0,0,1,-836.397495159187,186.0021217384337) translate(48.43750000000001 17.22222222222222)"/><use xlink:href="#t" transform="matrix(1,0,0,1,-836.397495159187,186.0021217384337) translate(75.8420138888889 17.22222222222222)"/><path d="M-473.35 406.54c-30.12 0-54.6-24.48-54.6-54.6s24.48-54.6 54.6-54.6 54.6 24.48 54.6 54.6-24.48 54.6-54.6 54.6zm0-114.6c-33.12 0-60 26.88-60 60 0 33.12 26.88 60 60 60 33.12 0 60-26.88 60-60 0-33.12-26.88-60-60-60zm-18.48 90.72h-14.64l17.4-36.24 7.32 15-10.08 21.24zm5.16-43.8c-.48-.96-1.44-1.56-2.52-1.56-.95 0-1.9.6-2.4 1.56l-21.6 45.36c-.35.84-.35 1.8.13 2.64.48.72 1.44 1.2 2.28 1.2h20.77c.96 0 1.92-.6 2.4-1.56l11.28-23.88c.36-.72.36-1.56 0-2.4l-10.32-21.36zm46.44 43.8h-14.88l-27.13-58.08c-.36-.96-1.32-1.56-2.4-1.56h-9.84v-11.28h19.68l26.9 58.08c.47.96 1.43 1.56 2.5 1.56h5.17v11.28zm2.64-16.8h-6.1l-26.9-57.96c-.47-1.08-1.43-1.68-2.4-1.68h-24.23c-1.44 0-2.64 1.2-2.64 2.76l-.12 16.68c0 .72.37 1.44.85 1.92.48.6 1.2.84 1.92.84h10.8l27.12 58.08c.35.96 1.3 1.56 2.4 1.56h19.3c1.57 0 2.77-1.2 2.77-2.76v-16.68c0-1.44-1.2-2.76-2.76-2.76z" stroke="#000" stroke-opacity="0" fill="#ed7100"/><use xlink:href="#u" transform="matrix(1,0,0,1,-563.3484956669636,420.93899862013893) translate(45.971674804687495 16.589501953125)"/><use xlink:href="#v" transform="matrix(1,0,0,1,-563.3484956669636,420.93899862013893) translate(67.40345214843751 16.589501953125)"/><path d="M280.98 482.63v-124.7a6 6 0 0 0-6-6h-671.94" stroke="#3a414a" fill="none"/><path d="M281.46 483.13h-.95v-.5h.96z" stroke="#3a414a" stroke-width=".05" fill="#3a414a"/><path d="M-411.73 351.94l14.27-4.64v9.27z" stroke="#3a414a" fill="#3a414a"/><path d="M-834.2 352.4h-117.94l-.88.08-.84.2-.8.34-.74.45-.66.56-.56.66-.46.73-.33.8-.2.84-.08.9V458.8h-.95V357.92l.08-1 .24-.98.38-.94.53-.87.67-.77.77-.66.87-.53.94-.4 1-.23 1-.08h117.96zm300.35 0h-201.9v-.94h201.9z" stroke="#3a414a" stroke-width=".05" fill="#3a414a"/><path d="M-533.35 351.94l.02.47h-.53v-.94h.53z" fill="#3a414a"/><path stroke="#3a414a" stroke-width=".05" fill="#3a414a"/><path d="M-958.15 473.57l-4.64-14.27h9.28z" fill="#3a414a"/><path d="M-958.15 475.1l-5.3-16.28h10.58zm-4-15.33l4 12.26 3.98-12.25z" stroke="#3a414a" stroke-width=".05" fill="#3a414a"/><use xlink:href="#w" transform="matrix(1,0,0,1,-834.2039892144943,341.1837902868056) translate(0 17.22222222222222)"/><use xlink:href="#x" transform="matrix(1,0,0,1,-834.2039892144943,341.1837902868056) translate(75.26041666666667 17.22222222222222)"/><path d="M488.6 121l-28.2-28.24-15.53 15.55-2.7-2.72 16.86-16.9c.78-.75 1.96-.75 2.75 0l29.53 29.6z" stroke="#fff" stroke-opacity="0" fill="#d86613"/><path d="M518.9 105L497.05 83.2l-21.34 21.4-2.73-2.7 22.75-22.78c.73-.74 1.94-.74 2.67 0l23.2 23.2zM474.53 85.52c-4.96.02-8.98-4-9-8.97-.02-4.96 4-8.98 8.96-9 4.94-.02 8.97 4 9 8.97v.03c-.03 4.95-4.04 8.95-8.97 8.97zm0-14.1h-.02c-2.83 0-5.13 2.3-5.13 5.13 0 2.84 2.3 5.14 5.14 5.14 2.85 0 5.14-2.3 5.14-5.15 0-2.84-2.28-5.14-5.1-5.14z" stroke="#fff" stroke-opacity="0" fill="#d86613"/><path d="M519.6 127.56h-76.07c-1.04 0-1.9-.88-1.9-1.92V49.48c0-1.04.86-1.92 1.9-1.92h76.07c1.04 0 1.92.88 1.92 1.92v76.16c0 1.04-.88 1.92-1.92 1.92zm-74.15-3.84h72.23V51.4h-72.23z" stroke="#fff" stroke-opacity="0" fill="#d86613"/><use xlink:href="#c" transform="matrix(1,0,0,1,411.6145165932137,136.55622100503206) translate(26.363932291666664 21.52777777777778)"/><use xlink:href="#y" transform="matrix(1,0,0,1,411.6145165932137,136.55622100503206) translate(31.66449652777778 48.415798611111114)"/><use xlink:href="#e" transform="matrix(1,0,0,1,411.6145165932137,136.55622100503206) translate(38.044704861111114 75.30381944444446)"/><path d="M382.17 304.73l-28.2-28.23-15.54 15.55-2.7-2.73 16.85-16.9c.8-.75 1.97-.75 2.76 0l29.53 29.62z" stroke="#fff" stroke-opacity="0" fill="#d86613"/><path d="M412.45 288.75l-21.83-21.83-21.35 21.4-2.72-2.7 22.76-22.78c.74-.74 1.95-.74 2.68 0l23.2 23.2zM368.08 269.26c-4.95.02-8.97-4-9-8.97 0-4.97 4-9 8.97-9 4.95-.03 8.97 4 9 8.96v.03c-.03 4.94-4.03 8.94-8.97 8.96zm0-14.1c-2.85 0-5.15 2.3-5.15 5.13s2.3 5.13 5.14 5.13c2.83 0 5.13-2.3 5.13-5.14 0-2.85-2.28-5.15-5.12-5.15z" stroke="#fff" stroke-opacity="0" fill="#d86613"/><path d="M413.16 311.3H337.1c-1.05 0-1.93-.88-1.93-1.92v-76.16c0-1.04.88-1.92 1.92-1.92h76.06c1.04 0 1.92.88 1.92 1.92v76.16c0 1.04-.88 1.92-1.92 1.92zM339 307.46h72.24v-72.32H339z" stroke="#fff" stroke-opacity="0" fill="#d86613"/><g><use xlink:href="#z" transform="matrix(1,0,0,1,305.1729521700024,320.29655850677966) translate(30.78559027777778 21.52777777777778)"/><use xlink:href="#d" transform="matrix(1,0,0,1,305.1729521700024,320.29655850677966) translate(29.141710069444443 48.415798611111114)"/><use xlink:href="#e" transform="matrix(1,0,0,1,305.1729521700024,320.29655850677966) translate(38.044704861111114 75.30381944444446)"/></g><path d="M488.6 304.73l-28.2-28.23-15.53 15.55-2.7-2.73 16.86-16.9c.78-.75 1.96-.75 2.75 0l29.53 29.62z" stroke="#fff" stroke-opacity="0" fill="#d86613"/><path d="M518.9 288.75l-21.84-21.83-21.34 21.4-2.73-2.7 22.75-22.78c.73-.74 1.94-.74 2.67 0l23.2 23.2zM474.53 269.26c-4.96.02-8.98-4-9-8.97-.02-4.97 4-9 8.96-9 4.94-.03 8.97 4 9 8.96v.03c-.03 4.94-4.04 8.94-8.97 8.96zm0-14.1h-.02c-2.83 0-5.13 2.3-5.13 5.13s2.3 5.13 5.14 5.13c2.85 0 5.14-2.3 5.14-5.14 0-2.85-2.28-5.15-5.1-5.15z" stroke="#fff" stroke-opacity="0" fill="#d86613"/><path d="M519.6 311.3h-76.07c-1.04 0-1.9-.88-1.9-1.92v-76.16c0-1.04.86-1.92 1.9-1.92h76.07c1.04 0 1.92.88 1.92 1.92v76.16c0 1.04-.88 1.92-1.92 1.92zm-74.15-3.84h72.23v-72.32h-72.23z" stroke="#fff" stroke-opacity="0" fill="#d86613"/><g><use xlink:href="#z" transform="matrix(1,0,0,1,411.6145165932137,320.29655850677966) translate(30.78559027777778 21.52777777777778)"/><use xlink:href="#y" transform="matrix(1,0,0,1,411.6145165932137,320.29655850677966) translate(31.66449652777778 48.415798611111114)"/><use xlink:href="#e" transform="matrix(1,0,0,1,411.6145165932137,320.29655850677966) translate(38.044704861111114 75.30381944444446)"/></g><defs><path d="M784 20c-382 0-662-292-662-764 0-473 280-766 662-766s660 293 660 766c0 472-278 764-660 764zm0-176c266 0 475-207 475-588 0-383-209-590-475-590-268 0-477 208-477 590 0 380 209 588 477 588" id="A"/><path d="M158 418v-1536h174v179h20c37-59 106-193 324-193 279 0 474 222 474 576 0 356-194 580-473 580-213 0-288-135-325-197h-14v591H158zm492-555c209 0 317-186 317-421 0-232-105-413-317-413-206 0-314 166-314 413 0 249 111 421 314 421" id="B"/><path d="M538 24C308 24 148-78 108-271l171-41c32 123 123 178 257 178 156 0 256-77 256-169 0-77-54-128-164-154l-186-44c-203-48-300-148-300-305 0-192 176-326 414-326 230 0 351 112 402 269l-163 42c-31-80-94-158-238-158-133 0-233 69-233 162 0 83 57 129 188 160l169 40c203 48 298 149 298 302 0 196-179 339-441 339" id="C"/><g id="a"><use transform="matrix(0.008173828125000001,0,0,0.008173828125000001,0,0)" xlink:href="#A"/><use transform="matrix(0.008173828125000001,0,0,0.008173828125000001,12.800214843750002,0)" xlink:href="#B"/><use transform="matrix(0.008173828125000001,0,0,0.008173828125000001,23.0501953125,0)" xlink:href="#C"/></g><path d="M52 0l541-1490h220L1361 0h-200l-149-416H398L254 0H52zm404-582h497c-103-290-145-390-251-756-108 377-145 460-246 756" id="D"/><path d="M613 24c-304 0-509-231-509-576 0-350 205-580 509-580 216 0 392 114 453 309l-173 49c-33-115-133-197-280-197-223 0-326 196-326 419 0 220 103 415 326 415 150 0 252-85 285-206l172 49C1010-95 832 24 613 24" id="E"/><path d="M613 24c-304 0-509-231-509-576 0-350 205-580 509-580 305 0 511 230 511 580 0 345-206 576-511 576zm0-161c226 0 329-195 329-415 0-222-103-419-329-419-223 0-326 196-326 419 0 220 103 415 326 415" id="F"/><path d="M537 14c-226 0-379-139-379-422v-710h180v695c0 172 97 275 253 275 160 0 281-109 281-300v-670h181V0H879v-209C806-46 684 14 537 14" id="G"/><path d="M338-670V0H158v-1118h173l1 207c72-158 192-221 342-221 226 0 378 139 378 422V0H872v-695c0-172-96-275-252-275-161 0-282 109-282 300" id="H"/><path d="M598-1118v154H368v674c0 100 37 144 132 144 23 0 62-6 92-12L629-6c-37 13-88 20-134 20-193 0-307-107-307-290v-688H20v-154h168v-266h180v266h230" id="I"/><g id="b"><use transform="matrix(0.008173828125000001,0,0,0.008173828125000001,0,0)" xlink:href="#D"/><use transform="matrix(0.008173828125000001,0,0,0.008173828125000001,11.549619140625001,0)" xlink:href="#E"/><use transform="matrix(0.008173828125000001,0,0,0.008173828125000001,21.112998046875003,0)" xlink:href="#E"/><use transform="matrix(0.008173828125000001,0,0,0.008173828125000001,30.676376953125004,0)" xlink:href="#F"/><use transform="matrix(0.008173828125000001,0,0,0.008173828125000001,40.71383789062501,0)" xlink:href="#G"/><use transform="matrix(0.008173828125000001,0,0,0.008173828125000001,50.61234375,0)" xlink:href="#H"/><use transform="matrix(0.008173828125000001,0,0,0.008173828125000001,60.502675781250005,0)" xlink:href="#I"/></g><path d="M338-1490V0H158v-1490h180" id="J"/><path d="M471 26C259 26 90-98 90-318c0-256 228-303 435-329 202-27 287-16 287-108 0-139-79-219-234-219-161 0-248 86-283 164l-173-57c86-203 278-265 451-265 150 0 419 46 419 395V0H815v-152h-12C765-73 660 26 471 26zm31-159c199 0 310-134 310-271v-155c-30 35-226 55-295 64-131 17-246 59-246 186 0 116 97 176 231 176" id="K"/><path d="M678-1118v154H420V0H240v-964H20v-154h220v-149c0-194 155-293 318-293 85 0 141 18 168 30l-50 154c-19-6-47-17-97-17-111 0-159 58-159 166v109h258" id="L"/><path d="M158 0v-1118h174v172h12c41-113 157-188 290-188 26 0 70 2 91 3v181c-11-2-60-10-108-10-161 0-279 109-279 260V0H158" id="M"/><path d="M158 0v-1118h175l1 205c55-151 181-225 313-225 147 0 245 90 285 228 53-141 190-228 352-228 194 0 352 125 352 384V0h-181v-749c0-161-105-225-225-225-151 0-243 103-243 244V0H807v-767c0-124-93-207-219-207-131 0-250 92-250 270V0H158" id="N"/><g id="c"><use transform="matrix(0.010850694444444444,0,0,0.010850694444444444,0,0)" xlink:href="#B"/><use transform="matrix(0.010850694444444444,0,0,0.010850694444444444,13.606770833333332,0)" xlink:href="#J"/><use transform="matrix(0.010850694444444444,0,0,0.010850694444444444,18.98871527777778,0)" xlink:href="#K"/><use transform="matrix(0.010850694444444444,0,0,0.010850694444444444,31.46701388888889,0)" xlink:href="#I"/><use transform="matrix(0.010850694444444444,0,0,0.010850694444444444,38.19444444444444,0)" xlink:href="#L"/><use transform="matrix(0.010850694444444444,0,0,0.010850694444444444,45.76822916666667,0)" xlink:href="#F"/><use transform="matrix(0.010850694444444444,0,0,0.010850694444444444,59.09288194444445,0)" xlink:href="#M"/><use transform="matrix(0.010850694444444444,0,0,0.010850694444444444,67.80598958333334,0)" xlink:href="#N"/></g><path d="M481 0L54-1118h197c107 314 236 620 325 951 87-331 217-637 324-951h197L670 0H481" id="O"/><path d="M158 0v-1118h180V0H158zm91-1301c-68 0-125-53-125-119s57-119 125-119c69 0 126 53 126 119s-57 119-126 119" id="P"/><path d="M577 24c-279 0-473-224-473-580 0-354 195-576 474-576 218 0 287 134 324 193h14v-551h180V0H922v-173h-20C865-111 790 24 577 24zm27-161c203 0 314-172 314-421 0-247-108-413-314-413-212 0-317 181-317 413 0 235 108 421 317 421" id="Q"/><path d="M628 24c-324 0-524-230-524-574 0-343 198-582 503-582 237 0 487 146 487 559v75H286c9 234 145 362 343 362 132 0 231-58 273-172l174 48C1024-91 857 24 628 24zM287-650h624c-17-190-120-322-304-322-192 0-309 151-320 322" id="R"/><g id="d"><use transform="matrix(0.010850694444444444,0,0,0.010850694444444444,0,0)" xlink:href="#O"/><use transform="matrix(0.010850694444444444,0,0,0.010850694444444444,12.38064236111111,0)" xlink:href="#K"/><use transform="matrix(0.010850694444444444,0,0,0.010850694444444444,24.85894097222222,0)" xlink:href="#J"/><use transform="matrix(0.010850694444444444,0,0,0.010850694444444444,30.240885416666664,0)" xlink:href="#P"/><use transform="matrix(0.010850694444444444,0,0,0.010850694444444444,35.62282986111111,0)" xlink:href="#Q"/><use transform="matrix(0.010850694444444444,0,0,0.010850694444444444,49.22960069444444,0)" xlink:href="#K"/><use transform="matrix(0.010850694444444444,0,0,0.010850694444444444,61.70789930555555,0)" xlink:href="#I"/><use transform="matrix(0.010850694444444444,0,0,0.010850694444444444,68.76085069444444,0)" xlink:href="#R"/></g><path d="M611 442c-248 0-391-105-460-228l146-94c47 65 117 165 314 165 178 0 307-82 307-266v-224h-17C863-141 792-18 576-18c-268 0-472-195-472-546 0-346 197-568 476-568 216 0 288 133 326 193h17v-179h175V29c0 289-215 413-487 413zm-5-620c203 0 314-146 314-390 0-237-108-403-314-403-213 0-319 180-319 403 0 230 109 390 319 390" id="S"/><g id="e"><use transform="matrix(0.010850694444444444,0,0,0.010850694444444444,0,0)" xlink:href="#P"/><use transform="matrix(0.010850694444444444,0,0,0.010850694444444444,5.381944444444445,0)" xlink:href="#N"/><use transform="matrix(0.010850694444444444,0,0,0.010850694444444444,24.84809027777778,0)" xlink:href="#K"/><use transform="matrix(0.010850694444444444,0,0,0.010850694444444444,37.326388888888886,0)" xlink:href="#S"/><use transform="matrix(0.010850694444444444,0,0,0.010850694444444444,50.95486111111111,0)" xlink:href="#R"/></g><path d="M783 20c-382 0-661-292-661-764 0-473 279-766 661-766 302 0 548 182 601 489h-190c-42-204-217-313-411-313-268 0-476 208-476 590 0 381 209 588 476 588 195 0 369-110 411-313h190c-52 303-296 489-601 489" id="T"/><g id="f"><use transform="matrix(0.010850694444444444,0,0,0.010850694444444444,0,0)" xlink:href="#T"/><use transform="matrix(0.010850694444444444,0,0,0.010850694444444444,16.23263888888889,0)" xlink:href="#F"/><use transform="matrix(0.010850694444444444,0,0,0.010850694444444444,29.557291666666664,0)" xlink:href="#H"/><use transform="matrix(0.010850694444444444,0,0,0.010850694444444444,42.68663194444444,0)" xlink:href="#I"/><use transform="matrix(0.010850694444444444,0,0,0.010850694444444444,50.065104166666664,0)" xlink:href="#K"/><use transform="matrix(0.010850694444444444,0,0,0.010850694444444444,62.54340277777778,0)" xlink:href="#P"/><use transform="matrix(0.010850694444444444,0,0,0.010850694444444444,67.92534722222221,0)" xlink:href="#H"/><use transform="matrix(0.010850694444444444,0,0,0.010850694444444444,81.05468749999999,0)" xlink:href="#R"/><use transform="matrix(0.010850694444444444,0,0,0.010850694444444444,94.01041666666666,0)" xlink:href="#M"/></g><path d="M180 0v-1490h510c348 0 508 194 508 460 0 198-88 351-276 417L1256 0h-220L726-579c-117 2-238 0-356 1V0H180zm190-747h312c235 0 327-108 327-283 0-177-92-293-329-293H370v576" id="U"/><path d="M140 405l46-156c120 36 205 19 263-150l32-93L54-1118h197c107 313 237 620 324 950 87-331 219-637 326-950h196L606 167c-68 178-176 259-334 259-64 0-113-12-132-21" id="V"/><g id="g"><use transform="matrix(0.010850694444444444,0,0,0.010850694444444444,0,0)" xlink:href="#U"/><use transform="matrix(0.010850694444444444,0,0,0.010850694444444444,13.975694444444445,0)" xlink:href="#R"/><use transform="matrix(0.010850694444444444,0,0,0.010850694444444444,26.931423611111104,0)" xlink:href="#S"/><use transform="matrix(0.010850694444444444,0,0,0.010850694444444444,40.55989583333333,0)" xlink:href="#P"/><use transform="matrix(0.010850694444444444,0,0,0.010850694444444444,45.94184027777778,0)" xlink:href="#C"/><use transform="matrix(0.010850694444444444,0,0,0.010850694444444444,57.67144097222221,0)" xlink:href="#I"/><use transform="matrix(0.010850694444444444,0,0,0.010850694444444444,64.94140624999999,0)" xlink:href="#M"/><use transform="matrix(0.010850694444444444,0,0,0.010850694444444444,73.65451388888889,0)" xlink:href="#V"/></g><path d="M789 20c-398 0-667-293-667-764 0-473 273-766 655-766 315 0 558 198 612 487h-196c-61-191-204-311-415-311-262 0-471 207-471 590 0 380 208 588 482 588 249 0 420-165 425-427H828v-166h572v163c0 370-256 606-611 606" id="W"/><path d="M180 0v-1490h190v644h782v-644h190V0h-190v-678H370V0H180" id="X"/><path d="M677 24c-213 0-288-135-325-197h-20V0H158v-1490h180v551h14c37-59 106-193 324-193 279 0 474 222 474 576 0 356-194 580-473 580zm-27-161c209 0 317-186 317-421 0-232-105-413-317-413-206 0-314 166-314 413 0 249 111 421 314 421" id="Y"/><g id="h"><use transform="matrix(0.008173828125000001,0,0,0.008173828125000001,0,0)" xlink:href="#W"/><use transform="matrix(0.008173828125000001,0,0,0.008173828125000001,12.489609375000002,0)" xlink:href="#P"/><use transform="matrix(0.008173828125000001,0,0,0.008173828125000001,16.543828125000005,0)" xlink:href="#I"/><use transform="matrix(0.008173828125000001,0,0,0.008173828125000001,22.020292968750006,0)" xlink:href="#X"/><use transform="matrix(0.008173828125000001,0,0,0.008173828125000001,34.460859375000005,0)" xlink:href="#G"/><use transform="matrix(0.008173828125000001,0,0,0.008173828125000001,44.359365234375005,0)" xlink:href="#Y"/></g><g id="i"><use transform="matrix(0.010850694444444444,0,0,0.010850694444444444,0,0)" xlink:href="#O"/><use transform="matrix(0.010850694444444444,0,0,0.010850694444444444,12.38064236111111,0)" xlink:href="#K"/><use transform="matrix(0.010850694444444444,0,0,0.010850694444444444,24.85894097222222,0)" xlink:href="#J"/><use transform="matrix(0.010850694444444444,0,0,0.010850694444444444,30.240885416666664,0)" xlink:href="#P"/><use transform="matrix(0.010850694444444444,0,0,0.010850694444444444,35.62282986111111,0)" xlink:href="#Q"/><use transform="matrix(0.010850694444444444,0,0,0.010850694444444444,49.22960069444444,0)" xlink:href="#K"/><use transform="matrix(0.010850694444444444,0,0,0.010850694444444444,61.70789930555555,0)" xlink:href="#I"/><use transform="matrix(0.010850694444444444,0,0,0.010850694444444444,68.76085069444444,0)" xlink:href="#R"/></g><g id="j"><use transform="matrix(0.010850694444444444,0,0,0.010850694444444444,0,0)" xlink:href="#M"/><use transform="matrix(0.010850694444444444,0,0,0.010850694444444444,7.996961805555555,0)" xlink:href="#R"/><use transform="matrix(0.010850694444444444,0,0,0.010850694444444444,20.95269097222222,0)" xlink:href="#J"/><use transform="matrix(0.010850694444444444,0,0,0.010850694444444444,26.334635416666664,0)" xlink:href="#R"/><use transform="matrix(0.010850694444444444,0,0,0.010850694444444444,39.50737847222222,0)" xlink:href="#K"/><use transform="matrix(0.010850694444444444,0,0,0.010850694444444444,51.98567708333333,0)" xlink:href="#C"/><use transform="matrix(0.010850694444444444,0,0,0.010850694444444444,63.71527777777778,0)" xlink:href="#R"/></g><path d="M458 0L52-1490h194c108 439 233 855 324 1313 92-459 221-873 331-1313h216c110 438 234 854 330 1307 92-455 216-869 323-1307h196L1558 0h-221l-256-944c-26-95-50-200-73-331-22 122-44 223-73 331L680 0H458" id="Z"/><path d="M158 0v-1490h180v865h22l478-493h223L593-638 1096 0H865L456-523 338-412V0H158" id="aa"/><g id="k"><use transform="matrix(0.008173828125000001,0,0,0.008173828125000001,0,0)" xlink:href="#Z"/><use transform="matrix(0.008173828125000001,0,0,0.008173828125000001,15.644707031250004,0)" xlink:href="#R"/><use transform="matrix(0.008173828125000001,0,0,0.008173828125000001,25.404257812500006,0)" xlink:href="#Y"/><use transform="matrix(0.008173828125000001,0,0,0.008173828125000001,35.65423828125001,0)" xlink:href="#X"/><use transform="matrix(0.008173828125000001,0,0,0.008173828125000001,48.09480468750001,0)" xlink:href="#F"/><use transform="matrix(0.008173828125000001,0,0,0.008173828125000001,58.13226562500001,0)" xlink:href="#F"/><use transform="matrix(0.008173828125000001,0,0,0.008173828125000001,68.16972656250002,0)" xlink:href="#aa"/></g><path d="M180 0v-1490h510c348 0 508 209 508 474 0 266-160 477-507 477H370V0H180zm190-706h312c236 0 327-133 327-310 0-176-91-307-329-307H370v617" id="ab"/><g id="l"><use transform="matrix(0.008173828125000001,0,0,0.008173828125000001,0,0)" xlink:href="#ab"/><use transform="matrix(0.008173828125000001,0,0,0.008173828125000001,10.691367187500001,0)" xlink:href="#K"/><use transform="matrix(0.008173828125000001,0,0,0.008173828125000001,20.091269531250003,0)" xlink:href="#M"/><use transform="matrix(0.008173828125000001,0,0,0.008173828125000001,26.393291015625003,0)" xlink:href="#C"/><use transform="matrix(0.008173828125000001,0,0,0.008173828125000001,35.229199218750004,0)" xlink:href="#R"/><use transform="matrix(0.008173828125000001,0,0,0.008173828125000001,44.98875,0)" xlink:href="#M"/></g><path d="M657 26c-323 0-524-166-541-416h195c15 169 171 246 346 246 202 0 356-106 356-265 5-203-294-238-475-293-239-73-380-191-380-389 0-252 224-419 512-419 294 0 499 171 508 396H992c-17-145-151-228-328-228-193 0-321 102-321 242 0 156 175 211 284 241l149 41c160 44 422 134 422 412 0 244-197 432-541 432" id="ac"/><path d="M180 0v-1490h224l606 953c40 63 108 177 176 312-27-437-7-821-13-1265h190V0h-226C860-448 622-778 356-1262c27 476 11 792 15 1262H180" id="ad"/><g id="m"><use transform="matrix(0.008173828125000001,0,0,0.008173828125000001,0,0)" xlink:href="#ac"/><use transform="matrix(0.008173828125000001,0,0,0.008173828125000001,10.740410156250002,0)" xlink:href="#ad"/><use transform="matrix(0.008173828125000001,0,0,0.008173828125000001,23.352626953125004,0)" xlink:href="#ac"/></g><g id="n"><use transform="matrix(0.008173828125000001,0,0,0.008173828125000001,0,0)" xlink:href="#K"/><use transform="matrix(0.008173828125000001,0,0,0.008173828125000001,9.399902343750002,0)" xlink:href="#M"/><use transform="matrix(0.008173828125000001,0,0,0.008173828125000001,15.963486328125002,0)" xlink:href="#I"/><use transform="matrix(0.008173828125000001,0,0,0.008173828125000001,21.276474609375004,0)" xlink:href="#R"/><use transform="matrix(0.008173828125000001,0,0,0.008173828125000001,31.036025390625007,0)" xlink:href="#L"/><use transform="matrix(0.008173828125000001,0,0,0.008173828125000001,36.97022460937501,0)" xlink:href="#K"/><use transform="matrix(0.008173828125000001,0,0,0.008173828125000001,46.370126953125,0)" xlink:href="#E"/><use transform="matrix(0.008173828125000001,0,0,0.008173828125000001,55.93350585937502,0)" xlink:href="#I"/><use transform="matrix(0.008173828125000001,0,0,0.008173828125000001,61.24649414062501,0)" xlink:href="#C"/></g><path fill="#333" d="M135 0v-1490h581c339 0 533 210 533 503 0 295-197 500-540 500H440V0H135zm305-733h220c186 0 274-104 274-254s-88-251-275-251H440v505" id="ae"/><path fill="#333" d="M135 0v-1490h581c339 0 533 192 533 485 0 204-94 351-264 424L1302 0H964L680-532H440V0H135zm305-779h220c186 0 274-77 274-226 0-150-88-233-275-233H440v459" id="af"/><g id="o"><use transform="matrix(0.008680555555555556,0,0,0.008680555555555556,0,0)" xlink:href="#ae"/><use transform="matrix(0.008680555555555556,0,0,0.008680555555555556,11.519097222222223,0)" xlink:href="#af"/></g><path fill="#333" d="M628 22C291 22 81-210 81-554c0-346 210-578 547-578 265 0 455 142 497 372l-279 52c-25-116-99-188-215-188-160 0-244 139-244 341 0 200 84 341 244 341 116 0 193-74 217-195l279 51C1085-123 896 22 628 22" id="ag"/><path fill="#333" d="M128 0v-1118h290v195h12c54-169 184-238 367-200v268c-27-8-86-15-130-15-138 0-239 95-239 234V0H128" id="ah"/><path fill="#333" d="M633 22C291 22 81-200 81-553c0-345 210-579 537-579 292 0 525 185 525 567v84H378c7 183 109 277 260 277 105 0 184-46 216-132l272 51C1071-99 893 22 633 22zM380-669h474c-15-146-94-237-233-237-143 0-229 99-241 237" id="ai"/><path fill="#333" d="M440 22C227 22 68-92 68-313c0-250 202-322 422-343 195-21 271-24 271-105 0-95-63-149-175-149-116 0-187 57-211 129l-275-46c57-194 237-305 487-305 240 0 474 108 474 379V0H777v-155h-10C713-51 605 22 440 22zm85-211c140 0 238-93 238-211v-121c-37 26-156 42-222 51-111 16-185 59-185 149 0 87 70 132 169 132" id="aj"/><path fill="#333" d="M683-1118v229H474v562c0 71 29 104 102 104 23 0 73-7 95-13l43 225C647 9 580 16 520 16 296 16 174-96 174-301v-588H20v-229h154v-266h300v266h209" id="ak"/><path fill="#333" d="M768-1560L288 224H28l480-1784h260" id="al"/><path fill="#333" d="M513 14c-232 0-385-159-385-421v-711h300v659c0 139 76 222 202 222 127 0 217-86 217-234v-647h301V0H864l-4-232C797-74 683 14 513 14" id="am"/><path fill="#333" d="M128 418v-1536h295v188h14c41-89 129-202 319-202 248 0 453 193 453 575 0 372-197 576-455 576-183 0-275-108-317-198h-9v597H128zm534-640c156 0 240-139 240-336 0-196-83-334-240-334-154 0-241 131-241 334 0 202 88 336 241 336" id="an"/><path fill="#333" d="M537 19C279 19 81-185 81-557c0-382 206-575 454-575 190 0 278 113 318 202h10v-560h300V0H868v-179h-15C812-89 719 19 537 19zm92-241c153 0 240-134 240-336 0-203-86-334-240-334-158 0-240 138-240 334 0 197 84 336 240 336" id="ao"/><path fill="#333" d="M128 0v-1118h278l12 217c60-163 185-234 319-234 143 0 236 81 288 251 63-172 205-251 359-251 205 0 357 138 357 381V0h-301v-697c0-126-76-187-177-187-114 0-184 79-184 196V0H789v-705c0-109-72-179-174-179-106 0-187 74-187 208V0H128" id="ap"/><path fill="#333" d="M625 442c-280 0-454-114-503-274l258-72c28 63 97 128 243 128 153 0 246-69 246-216v-206h-23C805-108 717-16 536-16 284-16 81-191 81-561c0-378 208-571 456-571 188 0 280 113 321 202h13v-188h295V-9c0 303-226 451-541 451zm5-686c153 0 240-119 240-319 0-198-86-329-240-329-158 0-241 137-241 329 0 195 85 319 241 319" id="aq"/><g id="p"><use transform="matrix(0.008680555555555556,0,0,0.008680555555555556,0,0)" xlink:href="#ag"/><use transform="matrix(0.008680555555555556,0,0,0.008680555555555556,10.460069444444445,0)" xlink:href="#ah"/><use transform="matrix(0.008680555555555556,0,0,0.008680555555555556,17.265625,0)" xlink:href="#ai"/><use transform="matrix(0.008680555555555556,0,0,0.008680555555555556,28.02951388888889,0)" xlink:href="#aj"/><use transform="matrix(0.008680555555555556,0,0,0.008680555555555556,38.35069444444444,0)" xlink:href="#ak"/><use transform="matrix(0.008680555555555556,0,0,0.008680555555555556,44.68749999999999,0)" xlink:href="#ai"/><use transform="matrix(0.008680555555555556,0,0,0.008680555555555556,55.27777777777777,0)" xlink:href="#al"/><use transform="matrix(0.008680555555555556,0,0,0.008680555555555556,62.178819444444436,0)" xlink:href="#am"/><use transform="matrix(0.008680555555555556,0,0,0.008680555555555556,73.24652777777777,0)" xlink:href="#an"/><use transform="matrix(0.008680555555555556,0,0,0.008680555555555556,84.453125,0)" xlink:href="#ao"/><use transform="matrix(0.008680555555555556,0,0,0.008680555555555556,95.65972222222223,0)" xlink:href="#aj"/><use transform="matrix(0.008680555555555556,0,0,0.008680555555555556,105.98090277777779,0)" xlink:href="#ak"/><use transform="matrix(0.008680555555555556,0,0,0.008680555555555556,112.31770833333334,0)" xlink:href="#ai"/><use transform="matrix(0.008680555555555556,0,0,0.008680555555555556,122.90798611111111,0)" xlink:href="#al"/><use transform="matrix(0.008680555555555556,0,0,0.008680555555555556,129.80902777777777,0)" xlink:href="#ap"/><use transform="matrix(0.008680555555555556,0,0,0.008680555555555556,146.03298611111111,0)" xlink:href="#ai"/><use transform="matrix(0.008680555555555556,0,0,0.008680555555555556,156.62326388888889,0)" xlink:href="#ah"/><use transform="matrix(0.008680555555555556,0,0,0.008680555555555556,163.42881944444446,0)" xlink:href="#aq"/><use transform="matrix(0.008680555555555556,0,0,0.008680555555555556,174.66145833333334,0)" xlink:href="#ai"/></g><g id="q"><use transform="matrix(0.008173828125000001,0,0,0.008173828125000001,0,0)" xlink:href="#ac"/><use transform="matrix(0.008173828125000001,0,0,0.008173828125000001,10.740410156250002,0)" xlink:href="#I"/><use transform="matrix(0.008173828125000001,0,0,0.008173828125000001,16.298613281250002,0)" xlink:href="#K"/><use transform="matrix(0.008173828125000001,0,0,0.008173828125000001,25.698515625000006,0)" xlink:href="#I"/><use transform="matrix(0.008173828125000001,0,0,0.008173828125000001,31.174980468750007,0)" xlink:href="#G"/><use transform="matrix(0.008173828125000001,0,0,0.008173828125000001,41.07348632812501,0)" xlink:href="#C"/><use transform="matrix(0.008173828125000001,0,0,0.008173828125000001,49.34540039062501,0)" xlink:href="#Z"/><use transform="matrix(0.008173828125000001,0,0,0.008173828125000001,65.27619140625,0)" xlink:href="#M"/><use transform="matrix(0.008173828125000001,0,0,0.008173828125000001,71.83977539062501,0)" xlink:href="#P"/><use transform="matrix(0.008173828125000001,0,0,0.008173828125000001,75.89399414062501,0)" xlink:href="#I"/><use transform="matrix(0.008173828125000001,0,0,0.008173828125000001,81.20698242187501,0)" xlink:href="#R"/><use transform="matrix(0.008173828125000001,0,0,0.008173828125000001,90.96653320312501,0)" xlink:href="#M"/></g><path fill="#333" d="M361 0L31-1118h315c68 295 127 523 188 845 63-317 128-551 199-845h276c71 296 131 525 196 846 57-321 119-552 186-846h319L1378 0h-305c-73-261-148-486-204-771C813-484 740-261 666 0H361" id="ar"/><path fill="#333" d="M128 0v-1118h300V0H128zm150-1264c-91 0-165-68-165-154 0-85 74-154 165-154 90 0 165 69 165 154 0 86-75 154-165 154" id="as"/><g id="r"><use transform="matrix(0.008680555555555556,0,0,0.008680555555555556,0,0)" xlink:href="#ar"/><use transform="matrix(0.008680555555555556,0,0,0.008680555555555556,15.112847222222223,0)" xlink:href="#ah"/><use transform="matrix(0.008680555555555556,0,0,0.008680555555555556,22.482638888888893,0)" xlink:href="#as"/><use transform="matrix(0.008680555555555556,0,0,0.008680555555555556,27.30034722222223,0)" xlink:href="#ak"/><use transform="matrix(0.008680555555555556,0,0,0.008680555555555556,33.637152777777786,0)" xlink:href="#ai"/></g><g id="s"><use transform="matrix(0.008680555555555556,0,0,0.008680555555555556,0,0)" xlink:href="#ae"/><use transform="matrix(0.008680555555555556,0,0,0.008680555555555556,11.519097222222223,0)" xlink:href="#af"/></g><path fill="#333" d="M628 22C291 22 81-210 81-554c0-346 210-578 547-578 336 0 547 232 547 578 0 344-211 576-547 576zm0-236c160 0 242-146 242-341 0-197-82-341-242-341S387-753 387-555c0 195 81 341 241 341" id="at"/><path fill="#333" d="M428-647V0H128v-1118h283l4 231c63-156 176-245 348-245 232 0 384 159 384 421V0H847v-659c0-139-76-222-202-222-128 0-217 86-217 234" id="au"/><g id="t"><use transform="matrix(0.008680555555555556,0,0,0.008680555555555556,0,0)" xlink:href="#ag"/><use transform="matrix(0.008680555555555556,0,0,0.008680555555555556,10.460069444444445,0)" xlink:href="#at"/><use transform="matrix(0.008680555555555556,0,0,0.008680555555555556,21.36284722222222,0)" xlink:href="#ap"/><use transform="matrix(0.008680555555555556,0,0,0.008680555555555556,37.58680555555556,0)" xlink:href="#ap"/><use transform="matrix(0.008680555555555556,0,0,0.008680555555555556,53.81076388888889,0)" xlink:href="#ai"/><use transform="matrix(0.008680555555555556,0,0,0.008680555555555556,64.40104166666667,0)" xlink:href="#au"/><use transform="matrix(0.008680555555555556,0,0,0.008680555555555556,75.46875,0)" xlink:href="#ak"/></g><path d="M370-1490V0H180v-1490h190" id="av"/><g id="u"><use transform="matrix(0.008173828125000001,0,0,0.008173828125000001,0,0)" xlink:href="#T"/><use transform="matrix(0.008173828125000001,0,0,0.008173828125000001,12.228046875000002,0)" xlink:href="#av"/></g><g id="v"><use transform="matrix(0.008173828125000001,0,0,0.008173828125000001,0,0)" xlink:href="#D"/><use transform="matrix(0.008173828125000001,0,0,0.008173828125000001,11.549619140625001,0)" xlink:href="#B"/><use transform="matrix(0.008173828125000001,0,0,0.008173828125000001,21.799599609375,0)" xlink:href="#B"/><use transform="matrix(0.008173828125000001,0,0,0.008173828125000001,32.049580078125004,0)" xlink:href="#M"/><use transform="matrix(0.008173828125000001,0,0,0.008173828125000001,38.073691406250006,0)" xlink:href="#F"/><use transform="matrix(0.008173828125000001,0,0,0.008173828125000001,47.784199218750004,0)" xlink:href="#O"/><use transform="matrix(0.008173828125000001,0,0,0.008173828125000001,56.865322265625004,0)" xlink:href="#R"/></g><path fill="#333" d="M443 0L31-1118h319c90 293 199 572 268 885 66-313 175-593 264-885h315L784 0H443" id="aw"/><g id="w"><use transform="matrix(0.008680555555555556,0,0,0.008680555555555556,0,0)" xlink:href="#aj"/><use transform="matrix(0.008680555555555556,0,0,0.008680555555555556,10.321180555555555,0)" xlink:href="#an"/><use transform="matrix(0.008680555555555556,0,0,0.008680555555555556,21.52777777777778,0)" xlink:href="#an"/><use transform="matrix(0.008680555555555556,0,0,0.008680555555555556,32.734375,0)" xlink:href="#ah"/><use transform="matrix(0.008680555555555556,0,0,0.008680555555555556,39.53993055555556,0)" xlink:href="#at"/><use transform="matrix(0.008680555555555556,0,0,0.008680555555555556,50.12152777777778,0)" xlink:href="#aw"/><use transform="matrix(0.008680555555555556,0,0,0.008680555555555556,60.460069444444436,0)" xlink:href="#ai"/></g><g id="x"><use transform="matrix(0.008680555555555556,0,0,0.008680555555555556,0,0)" xlink:href="#ae"/><use transform="matrix(0.008680555555555556,0,0,0.008680555555555556,11.519097222222223,0)" xlink:href="#af"/></g><g id="y"><use transform="matrix(0.010850694444444444,0,0,0.010850694444444444,0,0)" xlink:href="#M"/><use transform="matrix(0.010850694444444444,0,0,0.010850694444444444,7.996961805555555,0)" xlink:href="#R"/><use transform="matrix(0.010850694444444444,0,0,0.010850694444444444,20.95269097222222,0)" xlink:href="#J"/><use transform="matrix(0.010850694444444444,0,0,0.010850694444444444,26.334635416666664,0)" xlink:href="#R"/><use transform="matrix(0.010850694444444444,0,0,0.010850694444444444,39.50737847222222,0)" xlink:href="#K"/><use transform="matrix(0.010850694444444444,0,0,0.010850694444444444,51.98567708333333,0)" xlink:href="#C"/><use transform="matrix(0.010850694444444444,0,0,0.010850694444444444,63.71527777777778,0)" xlink:href="#R"/></g><path d="M409 0L70-1118h191c89 329 165 560 243 925 75-353 154-601 240-925h192c85 325 161 564 235 922 77-354 157-598 244-922h191L1267 0h-179c-86-307-176-590-250-913C763-588 675-308 588 0H409" id="ax"/><g id="z"><use transform="matrix(0.010850694444444444,0,0,0.010850694444444444,0,0)" xlink:href="#E"/><use transform="matrix(0.010850694444444444,0,0,0.010850694444444444,12.6953125,0)" xlink:href="#M"/><use transform="matrix(0.010850694444444444,0,0,0.010850694444444444,21.061197916666664,0)" xlink:href="#K"/><use transform="matrix(0.010850694444444444,0,0,0.010850694444444444,33.53949652777777,0)" xlink:href="#ax"/><use transform="matrix(0.010850694444444444,0,0,0.010850694444444444,51.72526041666666,0)" xlink:href="#J"/><use transform="matrix(0.010850694444444444,0,0,0.010850694444444444,57.1072048611111,0)" xlink:href="#R"/><use transform="matrix(0.010850694444444444,0,0,0.010850694444444444,70.06293402777777,0)" xlink:href="#M"/></g></defs></g></svg>