<svg xmlns="http://www.w3.org/2000/svg" xmlns:xlink="http://www.w3.org/1999/xlink" xmlns:lucid="lucid" width="1251" height="805.67"><g transform="translate(-1179.8333333333335 -715.8333333333335)" lucid:page-tab-id="6HY08dbgAO-."><path d="M1000 500h1500v1500H1000z" fill="#fff"/><path d="M1181.33 958a6 6 0 0 1 6-6h412a6 6 0 0 1 6 6v356a6 6 0 0 1-6 6h-412a6 6 0 0 1-6-6z" stroke="#242f3e" stroke-width="3" fill="#fff" fill-opacity="0"/><path d="M1181.33 952h56v56h-56v-56z" stroke="#fff" stroke-opacity="0" fill="#242f3e"/><path d="M1199.56 977.87c-.04.48.04.87.16 1.34.13.4.3.7.5 1.07.04.1.08.22.08.34 0 .2-.13.36-.3.46l-.93.62c-.13.1-.25.13-.38.13-.17 0-.33-.06-.46-.2-.2-.22-.37-.43-.53-.7-.15-.25-.28-.53-.44-.86-1.1 1.37-2.63 2.1-4.4 2.06-1.15.06-2.13-.3-2.95-1.08-.77-.8-1.14-1.76-1.1-2.85-.04-1.23.4-2.28 1.35-3.08 1.07-.86 2.3-1.23 3.66-1.16.58 0 1.04.02 1.6.1.58.1 1.12.2 1.73.33v-1.1c.1-.88-.16-1.67-.7-2.37-.73-.56-1.55-.8-2.46-.7-.53 0-1.02.07-1.6.2-.57.13-1.02.3-1.6.5l-.5.2h-.24c-.2 0-.33-.16-.33-.45v-.75c0-.18.04-.33.13-.5.12-.16.24-.26.4-.33.66-.3 1.2-.5 1.9-.67.77-.2 1.47-.3 2.3-.28 1.47-.13 2.8.26 3.9 1.2.94 1.05 1.35 2.28 1.23 3.67zm-6.08 2.28c.58 0 1.07-.1 1.6-.28.58-.2 1.03-.5 1.44-.96.25-.27.4-.56.5-.93.12-.45.16-.84.16-1.3V976c-.54-.1-.95-.17-1.44-.2h-1.4c-.82-.08-1.56.12-2.2.58h-.02c-.53.45-.77 1.04-.73 1.73-.06.62.1 1.16.52 1.6.45.38.98.52 1.56.45zm12 1.6c-.2 0-.42-.03-.58-.15-.17-.17-.25-.36-.33-.6l-3.5-11.5c-.03-.22-.08-.4-.12-.62 0-.24.13-.37.37-.37h1.48c.2 0 .37.04.58.15.16.18.24.37.28.6l2.5 9.96 2.4-9.93c0-.24.07-.44.28-.6.16-.12.37-.16.57-.14h1.2c.25-.02.4.02.62.13.16.2.25.37.3.6l2.33 9.95 2.54-10c.03-.2.16-.4.32-.58.17-.1.37-.17.58-.14h1.4c.16 0 .32.12.36.3v.31s0 .2-.12.35l-3.6 11.53c-.05.22-.14.42-.3.6-.2.1-.37.14-.58.13h-1.27c-.26.04-.46-.02-.63-.15-.16-.16-.24-.36-.28-.6l-2.3-9.6-2.3 9.6c-.05.24-.13.43-.3.6-.2.13-.4.2-.62.16zm19.2.38c-.8 0-1.5-.07-2.3-.25-.65-.13-1.14-.3-1.72-.6-.2-.1-.37-.23-.45-.4-.07-.16-.1-.3-.1-.45v-.75c0-.3.1-.46.32-.46h.28l.37.15c.58.24 1.03.4 1.6.5.62.15 1.16.2 1.8.2.8.06 1.5-.1 2.2-.48.48-.32.77-.83.73-1.42.04-.4-.13-.76-.37-1.04-.45-.4-.95-.65-1.52-.8l-2.17-.68c-.94-.25-1.72-.73-2.38-1.5-.5-.65-.74-1.35-.74-2.18 0-.6.13-1.08.42-1.6.3-.5.62-.9 1.07-1.22.48-.38.98-.6 1.6-.78.65-.18 1.18-.26 1.88-.25.33-.03.62-.03 1 0l.97.16.82.23.66.25c.16.1.3.22.45.38.08.15.13.3.13.5v.7c0 .3-.12.47-.37.47-.2-.03-.36-.1-.57-.18-.94-.42-1.8-.6-2.87-.58-.7-.04-1.33.08-2 .4-.48.3-.72.8-.68 1.36 0 .4.12.76.45 1.05.5.4.98.65 1.6.82l2.1.67c.94.24 1.68.7 2.3 1.43.5.64.7 1.3.7 2.1 0 .63-.13 1.17-.38 1.73-.3.55-.62.95-1.12 1.32-.5.4-.98.66-1.6.84-.74.23-1.4.33-2.13.34zM1227.44 989.5c-5.6 3.8-11.37 5.56-18.15 5.54-8.56.05-15.84-2.74-22.18-8.45-.5-.42 0-1 .5-.68 7.07 4.05 14.02 5.9 22.2 5.9 6.1-.04 11.28-1.1 16.92-3.47.82-.35 1.52.54.7 1.13z" stroke="#fff" stroke-opacity="0" fill="#fff"/><path d="M1229.5 987.2c-.65-.82-4.17-.38-5.75-.2-.48 0-.55-.36-.1-.66 2.78-1.98 7.4-1.4 7.98-.74.6.67-.14 5.28-2.78 7.5-.4.32-.78.13-.6-.3.54-1.52 1.87-4.83 1.25-5.6z" stroke="#fff" stroke-opacity="0" fill="#fff"/><use xlink:href="#a" transform="matrix(1,0,0,1,1252.3333333333335,971.9999999999999) translate(0 16.216875)"/><use xlink:href="#b" transform="matrix(1,0,0,1,1252.3333333333335,971.9999999999999) translate(36.594228515625005 16.216875)"/><path d="M1697.33 723.33a6 6 0 0 1 6-6h720a6 6 0 0 1 6 6v389.34a6 6 0 0 1-6 6h-720a6 6 0 0 1-6-6z" stroke="#242f3e" stroke-width="3" fill="#fff" fill-opacity="0"/><path d="M1697.33 717.33h56v56h-56v-56z" stroke="#fff" stroke-opacity="0" fill="#242f3e"/><path d="M1715.56 743.2c-.04.48.04.88.16 1.34.13.38.3.7.5 1.07.04.1.08.22.08.35 0 .2-.13.35-.3.44l-.93.6c-.13.1-.25.14-.38.14-.17 0-.33-.07-.46-.2-.2-.22-.37-.43-.53-.7-.15-.25-.28-.53-.44-.87-1.1 1.38-2.63 2.1-4.4 2.06-1.15.06-2.13-.3-2.95-1.08-.77-.78-1.14-1.75-1.1-2.85-.04-1.22.4-2.28 1.35-3.08 1.07-.84 2.3-1.22 3.66-1.15.58 0 1.04.03 1.6.1.58.1 1.12.2 1.73.34v-1.1c.1-.88-.16-1.66-.7-2.37-.73-.56-1.55-.78-2.46-.7-.53 0-1.02.07-1.6.2-.57.14-1.02.3-1.6.52l-.5.2h-.24c-.2 0-.33-.18-.33-.47v-.75c0-.18.04-.33.13-.5.12-.15.24-.25.4-.32.66-.3 1.2-.5 1.9-.67.77-.2 1.47-.3 2.3-.28 1.47-.13 2.8.27 3.9 1.2.94 1.05 1.35 2.3 1.23 3.68zm-6.08 2.28c.58 0 1.07-.08 1.6-.28.58-.2 1.03-.5 1.44-.96.25-.28.4-.57.5-.94.12-.45.16-.84.16-1.3v-.66c-.54-.1-.95-.17-1.44-.22h-1.4c-.82-.07-1.56.13-2.2.6h-.02c-.53.44-.77 1.03-.73 1.72-.06.6.1 1.16.52 1.6.45.37.98.5 1.56.44zm12 1.6c-.2.02-.42-.02-.58-.15-.17-.17-.25-.35-.33-.6l-3.5-11.5-.12-.62c0-.23.13-.36.37-.36h1.48c.2 0 .37.03.58.14.16.2.24.37.28.6l2.5 9.96 2.4-9.94c0-.24.07-.43.28-.6.16-.1.37-.16.57-.14h1.2c.25-.02.4.03.62.14.16.18.25.36.3.6l2.33 9.94 2.54-10c.03-.22.16-.4.32-.58.17-.12.37-.17.58-.14h1.4c.16-.02.32.1.36.3v.3s0 .2-.12.37l-3.6 11.5c-.05.24-.14.43-.3.6-.2.1-.37.16-.58.14h-1.27c-.26.03-.46-.03-.63-.15-.16-.18-.24-.38-.28-.6l-2.3-9.6-2.3 9.6c-.05.22-.13.42-.3.6-.2.1-.4.17-.62.14zm19.2.38c-.8 0-1.5-.07-2.3-.25-.65-.12-1.14-.3-1.72-.58-.2-.1-.37-.24-.45-.42-.07-.14-.1-.28-.1-.44v-.74c0-.3.1-.47.32-.47h.28l.37.16c.58.25 1.03.4 1.6.5.62.15 1.16.2 1.8.2.8.07 1.5-.1 2.2-.48.48-.3.77-.82.73-1.4.04-.4-.13-.76-.37-1.05-.45-.4-.95-.64-1.52-.78l-2.17-.7c-.94-.25-1.72-.73-2.38-1.5-.5-.65-.74-1.36-.74-2.18 0-.6.13-1.1.42-1.6.3-.5.62-.9 1.07-1.23.48-.4.98-.6 1.6-.78.65-.2 1.18-.27 1.88-.26.33-.02.62-.02 1 0l.97.16.82.24.66.25c.16.12.3.24.45.4.08.14.13.3.13.48v.7c0 .33-.12.48-.37.48-.2-.02-.36-.08-.57-.18-.94-.42-1.8-.6-2.87-.58-.7-.04-1.33.1-2 .4-.48.3-.72.8-.68 1.36 0 .4.12.76.45 1.06.5.4.98.64 1.6.8l2.1.7c.94.22 1.68.7 2.3 1.42.5.63.7 1.3.7 2.1 0 .63-.13 1.16-.38 1.72-.3.55-.62.96-1.12 1.32-.5.4-.98.66-1.6.85-.74.24-1.4.33-2.13.35zM1743.44 754.82c-5.6 3.8-11.37 5.57-18.15 5.55-8.56.05-15.84-2.73-22.18-8.45-.5-.4 0-1 .5-.67 7.07 4.06 14.02 5.9 22.2 5.9 6.1-.04 11.28-1.1 16.92-3.47.82-.34 1.52.55.7 1.14z" stroke="#fff" stroke-opacity="0" fill="#fff"/><path d="M1745.5 752.53c-.65-.8-4.17-.38-5.75-.2-.48 0-.55-.36-.1-.66 2.78-1.97 7.4-1.4 7.98-.74.6.67-.14 5.3-2.78 7.5-.4.33-.78.14-.6-.3.54-1.52 1.87-4.83 1.25-5.6z" stroke="#fff" stroke-opacity="0" fill="#fff"/><use xlink:href="#c" transform="matrix(1,0,0,1,1768.3333333333335,737.3333333333335) translate(0 16.216875)"/><use xlink:href="#b" transform="matrix(1,0,0,1,1768.3333333333335,737.3333333333335) translate(55.214208984375006 16.216875)"/><path d="M1733.33 802a6 6 0 0 1 6-6H1998a6 6 0 0 1 6 6v236a6 6 0 0 1-6 6h-258.67a6 6 0 0 1-6-6z" fill="#fff" fill-opacity="0"/><path d="M1756.97 796h11.76m11.75 0h11.76m11.76 0h11.76m11.76 0h11.75m11.76 0h11.76m11.75 0h11.75m11.76 0h11.76m11.76 0h11.75m11.76 0h11.75m11.76 0h11.76m11.76 0h5.88l.94.07.9.22.88.35.8.5.72.6.6.72.5.8.37.88.23.9.07.95v5.9m0 11.8v11.8m0 11.8v11.8m0 11.8v11.8m0 11.8v11.8m0 11.8v11.8m0 11.8v11.8m0 11.8v11.8m0 11.8v11.8m0 11.8v11.8m0 11.8v5.9l-.07.94-.22.9-.35.88-.5.8-.6.72-.72.6-.8.5-.88.37-.9.23-.95.07h-5.88m-11.76 0h-11.75m-11.75 0h-11.76m-11.77 0h-11.75m-11.76 0h-11.76m-11.76 0h-11.75m-11.76 0h-11.77m-11.76 0h-11.75m-11.76 0H1804m-11.76 0h-11.76m-11.75 0h-11.76m-11.76 0h-5.87l-.93-.07-.92-.22-.87-.35-.8-.5-.7-.6-.62-.72-.5-.8-.35-.88-.22-.9-.07-.95v-5.9m0-11.8v-11.8m0-11.8v-11.8m0-11.8v-11.8m0-11.8v-11.8m0-11.8v-11.8m0-11.8v-11.8m0-11.8v-11.8m0-11.8v-11.8m0-11.8v-11.8m0-11.8V802l.08-.94.23-.9.36-.88.48-.8.6-.72.73-.6.8-.5.88-.37.9-.23.95-.07h5.88" stroke="#00a4a6" stroke-width="3" fill="none"/><path d="M1733.33 796h56v56h-56v-56z" stroke="#fff" stroke-opacity="0" fill="#00a4a6"/><path d="M1777.17 825.36l-5.95-7.36 5.95-7.4H1751v-2.08c1-.32 1.62-1.16 1.62-2.2-.1-1.15-1-2.02-2.15-2.14-1.3-.08-2.44.87-2.54 2.15 0 1.03.64 1.87 1.6 2.2v33.88h-4.04v1.6h9.43v-1.6H1751v-17.04zm-26.96-19.75c.42-.03.77.33.77.73 0 .44-.3.75-.73.75-.4.04-.76-.3-.76-.7v-.05c0-.4.32-.72.73-.72zm23.62 6.62l-4.66 5.78 4.65 5.73h-22.8v-11.5z" stroke="#fff" stroke-opacity="0" fill="#fff"/><use xlink:href="#d" transform="matrix(1,0,0,1,1804.333333333333,816) translate(0 16.216875)"/><path d="M2096 802a6 6 0 0 1 6-6h258.67a6 6 0 0 1 6 6v236a6 6 0 0 1-6 6H2102a6 6 0 0 1-6-6z" fill="#fff" fill-opacity="0"/><path d="M2119.64 796h11.75m11.75 0h11.76m11.77 0h11.75m11.76 0h11.76m11.76 0h11.76m11.75 0h11.77m11.76 0h11.76m11.74 0H2296m11.76 0h11.75m11.77 0h11.76m11.76 0h5.87l.93.07.92.22.87.35.8.5.7.6.62.72.5.8.35.88.22.9.07.95v5.9m0 11.8v11.8m0 11.8v11.8m0 11.8v11.8m0 11.8v11.8m0 11.8v11.8m0 11.8v11.8m0 11.8v11.8m0 11.8v11.8m0 11.8v11.8m0 11.8v5.9l-.08.94-.23.9-.36.88-.48.8-.6.72-.73.6-.8.5-.88.37-.9.23-.95.07h-5.88m-11.77 0h-11.76m-11.76 0h-11.74m-11.76 0h-11.76m-11.75 0h-11.77m-11.76 0h-11.76m-11.74 0h-11.76m-11.76 0h-11.76m-11.76 0h-11.75m-11.76 0h-11.75m-11.76 0h-11.76m-11.76 0H2102l-.94-.07-.9-.22-.88-.35-.8-.5-.72-.6-.6-.72-.5-.8-.37-.88-.23-.9-.07-.95v-5.9m0-11.8v-11.8m0-11.8v-11.8m0-11.8v-11.8m0-11.8v-11.8m0-11.8v-11.8m0-11.8v-11.8m0-11.8v-11.8m0-11.8v-11.8m0-11.8v-11.8m0-11.8V802l.07-.94.22-.9.35-.88.5-.8.6-.72.72-.6.8-.5.88-.37.9-.23.95-.07h5.88" stroke="#00a4a6" stroke-width="3" fill="none"/><path d="M2096 796h56v56h-56v-56z" stroke="#fff" stroke-opacity="0" fill="#00a4a6"/><path d="M2139.84 825.36l-5.96-7.36 5.96-7.4h-26.17v-2.08c.98-.32 1.62-1.16 1.62-2.2-.1-1.15-1.03-2.02-2.17-2.14-1.3-.08-2.44.87-2.53 2.15 0 1.03.63 1.87 1.58 2.2v33.88h-4.02v1.6h9.44v-1.6h-3.93v-17.04zm-26.96-19.75c.4-.03.76.33.76.73 0 .44-.32.75-.73.75-.4.04-.75-.3-.75-.7v-.05c0-.4.32-.72.73-.72zm23.6 6.62l-4.66 5.78 4.66 5.73h-22.8v-11.5z" stroke="#fff" stroke-opacity="0" fill="#fff"/><use xlink:href="#d" transform="matrix(1,0,0,1,2167,816) translate(0 16.216875)"/><path d="M1697.33 1124.67a6 6 0 0 1 6-6h720a6 6 0 0 1 6 6V1514a6 6 0 0 1-6 6h-720a6 6 0 0 1-6-6z" stroke="#242f3e" stroke-width="3" fill="#fff" fill-opacity="0"/><path d="M1697.33 1118.67h56v56h-56v-56z" stroke="#fff" stroke-opacity="0" fill="#242f3e"/><path d="M1715.56 1144.54c-.04.48.04.87.16 1.33.13.38.3.7.5 1.07.04.1.08.2.08.34 0 .2-.13.35-.3.45l-.93.62c-.13.08-.25.12-.38.12-.17 0-.33-.07-.46-.2-.2-.22-.37-.43-.53-.7-.15-.25-.28-.53-.44-.87-1.1 1.38-2.63 2.1-4.4 2.07-1.15.06-2.13-.3-2.95-1.08-.77-.8-1.14-1.77-1.1-2.87-.04-1.22.4-2.27 1.35-3.07 1.07-.85 2.3-1.23 3.66-1.16.58 0 1.04.03 1.6.12.58.08 1.12.2 1.73.32v-1.1c.1-.88-.16-1.67-.7-2.37-.73-.57-1.55-.8-2.46-.7-.53 0-1.02.06-1.6.2-.57.13-1.02.3-1.6.5l-.5.2h-.24c-.2 0-.33-.16-.33-.46v-.73c0-.18.04-.34.13-.5.12-.16.24-.26.4-.33.66-.3 1.2-.5 1.9-.67.77-.2 1.47-.3 2.3-.3 1.47-.1 2.8.28 3.9 1.22.94 1.03 1.35 2.27 1.23 3.66zm-6.08 2.28c.58 0 1.07-.1 1.6-.3.58-.18 1.03-.48 1.44-.94.25-.28.4-.58.5-.94.12-.45.16-.85.16-1.3v-.67c-.54-.1-.95-.17-1.44-.2h-1.4c-.82-.08-1.56.1-2.2.58h-.02c-.53.45-.77 1.04-.73 1.73-.06.6.1 1.15.52 1.6.45.36.98.5 1.56.43zm12 1.6c-.2 0-.42-.03-.58-.16-.17-.17-.25-.35-.33-.6l-3.5-11.5-.12-.62c0-.24.13-.36.37-.36h1.48c.2-.02.37.02.58.14.16.18.24.36.28.6l2.5 9.95 2.4-9.93c0-.24.07-.44.28-.6.16-.12.37-.16.57-.15h1.2c.25-.02.4.02.62.13.16.2.25.37.3.6l2.33 9.94 2.54-10c.03-.2.16-.4.32-.58.17-.12.37-.18.58-.15h1.4c.16-.02.32.1.36.3V1135.74s0 .2-.12.37l-3.6 11.52c-.05.23-.14.43-.3.6-.2.1-.37.15-.58.13h-1.27c-.26.03-.46-.02-.63-.15-.16-.17-.24-.37-.28-.6l-2.3-9.6-2.3 9.6c-.05.24-.13.43-.3.6-.2.13-.4.18-.62.15zm19.2.38c-.8 0-1.5-.07-2.3-.26-.65-.12-1.14-.3-1.72-.6-.2-.1-.37-.23-.45-.4-.07-.15-.1-.3-.1-.44v-.75c0-.3.1-.46.32-.46.12-.03.2-.03.28 0l.37.14c.58.24 1.03.4 1.6.5.62.15 1.16.2 1.8.2.8.06 1.5-.1 2.2-.5.48-.3.77-.8.73-1.4.04-.4-.13-.75-.37-1.03-.45-.4-.95-.64-1.52-.78l-2.17-.7c-.94-.24-1.72-.72-2.38-1.5-.5-.64-.74-1.34-.74-2.17 0-.6.13-1.08.42-1.6.3-.5.62-.9 1.07-1.23.48-.38.98-.6 1.6-.77.65-.18 1.18-.27 1.88-.25.33-.03.62-.03 1 0l.97.15.82.24.66.24c.16.12.3.23.45.38.08.16.13.3.13.5v.7c0 .32-.12.48-.37.48-.2-.03-.36-.1-.57-.2-.94-.4-1.8-.6-2.87-.56-.7-.05-1.33.08-2 .4-.48.3-.72.8-.68 1.35 0 .4.12.75.45 1.05.5.4.98.64 1.6.8l2.1.7c.94.23 1.68.7 2.3 1.42.5.63.7 1.3.7 2.1 0 .63-.13 1.16-.38 1.73-.3.54-.62.95-1.12 1.32-.5.4-.98.66-1.6.84-.74.24-1.4.34-2.13.35zM1743.44 1156.15c-5.6 3.82-11.37 5.58-18.15 5.56-8.56.05-15.84-2.73-22.18-8.44-.5-.42 0-1 .5-.67 7.07 4.04 14.02 5.88 22.2 5.87 6.1-.02 11.28-1.08 16.92-3.45.82-.35 1.52.54.7 1.13z" stroke="#fff" stroke-opacity="0" fill="#fff"/><path d="M1745.5 1153.86c-.65-.8-4.17-.38-5.75-.2-.48 0-.55-.35-.1-.66 2.78-1.97 7.4-1.4 7.98-.73.6.67-.14 5.28-2.78 7.48-.4.34-.78.15-.6-.28.54-1.52 1.87-4.84 1.25-5.6z" stroke="#fff" stroke-opacity="0" fill="#fff"/><use xlink:href="#e" transform="matrix(1,0,0,1,1768.3333333333335,1138.666666666667) translate(0 16.216875)"/><use xlink:href="#f" transform="matrix(1,0,0,1,1768.3333333333335,1138.666666666667) translate(55.214208984375006 16.216875)"/><path d="M1733.33 1203.33a6 6 0 0 1 6-6H1998a6 6 0 0 1 6 6v236a6 6 0 0 1-6 6h-258.67a6 6 0 0 1-6-6z" fill="#fff" fill-opacity="0"/><path d="M1756.97 1197.33h11.76m11.75 0h11.76m11.76 0h11.76m11.76 0h11.75m11.76 0h11.76m11.75 0h11.75m11.76 0h11.76m11.76 0h11.75m11.76 0h11.75m11.76 0h11.76m11.76 0h5.88l.94.08.9.23.88.36.8.48.72.6.6.73.5.8.37.88.23.9.07.95v5.9m0 11.8v11.8m0 11.8v11.8m0 11.8v11.8m0 11.8v11.8m0 11.8v11.8m0 11.8v11.8m0 11.8v11.8m0 11.8v11.8m0 11.8v11.8m0 11.8v5.9l-.07.94-.22.92-.35.86-.5.8-.6.72-.72.6-.8.5-.88.36-.9.22-.95.07h-5.88m-11.76 0h-11.75m-11.75 0h-11.76m-11.77 0h-11.75m-11.76 0h-11.76m-11.76 0h-11.75m-11.76 0h-11.77m-11.76 0h-11.75m-11.76 0H1804m-11.76 0h-11.76m-11.75 0h-11.76m-11.76 0h-5.87l-.93-.07-.92-.22-.87-.36-.8-.5-.7-.6-.62-.72-.5-.8-.35-.87-.22-.93-.07-.94v-5.9m0-11.8v-11.8m0-11.8v-11.8m0-11.8v-11.8m0-11.8v-11.8m0-11.8v-11.8m0-11.8v-11.8m0-11.8v-11.8m0-11.8v-11.8m0-11.8v-11.8m0-11.8v-5.9l.08-.93.23-.92.36-.87.48-.8.6-.7.73-.62.8-.5.88-.35.9-.22.95-.07h5.88" stroke="#00a4a6" stroke-width="3" fill="none"/><path d="M1733.33 1197.33h56v56h-56v-56z" stroke="#fff" stroke-opacity="0" fill="#00a4a6"/><path d="M1777.17 1226.7l-5.95-7.37 5.95-7.4H1751v-2.08c1-.32 1.62-1.15 1.62-2.2-.1-1.14-1-2.02-2.15-2.14-1.3-.07-2.44.9-2.54 2.16 0 1.04.64 1.87 1.6 2.2v33.88h-4.04v1.6h9.43v-1.6H1751v-17.04zm-26.96-19.76c.42-.04.77.32.77.72 0 .44-.3.76-.73.76-.4.04-.76-.32-.76-.72v-.04c0-.4.32-.72.73-.72zm23.62 6.62l-4.66 5.77 4.65 5.73h-22.8v-11.5z" stroke="#fff" stroke-opacity="0" fill="#fff"/><use xlink:href="#d" transform="matrix(1,0,0,1,1804.333333333333,1217.3333333333335) translate(0 16.216875)"/><path d="M1233.33 1103.33a6 6 0 0 1 6-6h148a6 6 0 0 1 6 6v108a6 6 0 0 1-6 6h-148a6 6 0 0 1-6-6z" stroke="#3a414a" stroke-width="2" fill="#fff"/><use xlink:href="#g" transform="matrix(1,0,0,1,1245.3333333333335,1109.3333333332946) translate(56.89973958333333 57.52777777777778)"/><path d="M1393.33 1103.33a6 6 0 0 1 6-6h148a6 6 0 0 1 6 6v108a6 6 0 0 1-6 6h-148a6 6 0 0 1-6-6z" stroke="#3a414a" stroke-width="2" fill="#fff"/><use xlink:href="#h" transform="matrix(1,0,0,1,1405.3333333333335,1109.3333333332946) translate(51.865017361111114 57.52777777777778)"/><path d="M1760 890a6 6 0 0 1 6-6h148a6 6 0 0 1 6 6v108a6 6 0 0 1-6 6h-148a6 6 0 0 1-6-6z" stroke="#3a414a" stroke-width="2" fill="#fff"/><use xlink:href="#i" transform="matrix(1,0,0,1,1771.9999999999995,896) translate(25.394748263888893 42.52777777777778)"/><use xlink:href="#j" transform="matrix(1,0,0,1,1771.9999999999995,896) translate(23.26801215277778 69.41579861111111)"/><path d="M2151.33 890a6 6 0 0 1 6-6h148a6 6 0 0 1 6 6v108a6 6 0 0 1-6 6h-148a6 6 0 0 1-6-6z" stroke="#3a414a" stroke-width="2" fill="#fff"/><g><use xlink:href="#i" transform="matrix(1,0,0,1,2163.3333333333335,896) translate(25.394748263888893 42.52777777777778)"/><use xlink:href="#j" transform="matrix(1,0,0,1,2163.3333333333335,896) translate(23.26801215277778 69.41579861111111)"/></g><path d="M1760 1291.33a6 6 0 0 1 6-6h148a6 6 0 0 1 6 6v108a6 6 0 0 1-6 6h-148a6 6 0 0 1-6-6z" stroke="#3a414a" stroke-width="2" fill="#fff"/><g><use xlink:href="#i" transform="matrix(1,0,0,1,1771.9999999999995,1297.3333333333335) translate(25.394748263888893 42.52777777777778)"/><use xlink:href="#j" transform="matrix(1,0,0,1,1771.9999999999995,1297.3333333333335) translate(23.26801215277778 69.41579861111111)"/></g><defs><path d="M784 20c-382 0-662-292-662-764 0-473 280-766 662-766s660 293 660 766c0 472-278 764-660 764zm0-176c266 0 475-207 475-588 0-383-209-590-475-590-268 0-477 208-477 590 0 380 209 588 477 588" id="k"/><path d="M158 418v-1536h174v179h20c37-59 106-193 324-193 279 0 474 222 474 576 0 356-194 580-473 580-213 0-288-135-325-197h-14v591H158zm492-555c209 0 317-186 317-421 0-232-105-413-317-413-206 0-314 166-314 413 0 249 111 421 314 421" id="l"/><path d="M538 24C308 24 148-78 108-271l171-41c32 123 123 178 257 178 156 0 256-77 256-169 0-77-54-128-164-154l-186-44c-203-48-300-148-300-305 0-192 176-326 414-326 230 0 351 112 402 269l-163 42c-31-80-94-158-238-158-133 0-233 69-233 162 0 83 57 129 188 160l169 40c203 48 298 149 298 302 0 196-179 339-441 339" id="m"/><g id="a"><use transform="matrix(0.008173828125000001,0,0,0.008173828125000001,0,0)" xlink:href="#k"/><use transform="matrix(0.008173828125000001,0,0,0.008173828125000001,12.800214843750002,0)" xlink:href="#l"/><use transform="matrix(0.008173828125000001,0,0,0.008173828125000001,23.0501953125,0)" xlink:href="#m"/></g><path d="M52 0l541-1490h220L1361 0h-200l-149-416H398L254 0H52zm404-582h497c-103-290-145-390-251-756-108 377-145 460-246 756" id="n"/><path d="M613 24c-304 0-509-231-509-576 0-350 205-580 509-580 216 0 392 114 453 309l-173 49c-33-115-133-197-280-197-223 0-326 196-326 419 0 220 103 415 326 415 150 0 252-85 285-206l172 49C1010-95 832 24 613 24" id="o"/><path d="M613 24c-304 0-509-231-509-576 0-350 205-580 509-580 305 0 511 230 511 580 0 345-206 576-511 576zm0-161c226 0 329-195 329-415 0-222-103-419-329-419-223 0-326 196-326 419 0 220 103 415 326 415" id="p"/><path d="M537 14c-226 0-379-139-379-422v-710h180v695c0 172 97 275 253 275 160 0 281-109 281-300v-670h181V0H879v-209C806-46 684 14 537 14" id="q"/><path d="M338-670V0H158v-1118h173l1 207c72-158 192-221 342-221 226 0 378 139 378 422V0H872v-695c0-172-96-275-252-275-161 0-282 109-282 300" id="r"/><path d="M598-1118v154H368v674c0 100 37 144 132 144 23 0 62-6 92-12L629-6c-37 13-88 20-134 20-193 0-307-107-307-290v-688H20v-154h168v-266h180v266h230" id="s"/><g id="b"><use transform="matrix(0.008173828125000001,0,0,0.008173828125000001,0,0)" xlink:href="#n"/><use transform="matrix(0.008173828125000001,0,0,0.008173828125000001,11.549619140625001,0)" xlink:href="#o"/><use transform="matrix(0.008173828125000001,0,0,0.008173828125000001,21.112998046875003,0)" xlink:href="#o"/><use transform="matrix(0.008173828125000001,0,0,0.008173828125000001,30.676376953125004,0)" xlink:href="#p"/><use transform="matrix(0.008173828125000001,0,0,0.008173828125000001,40.71383789062501,0)" xlink:href="#q"/><use transform="matrix(0.008173828125000001,0,0,0.008173828125000001,50.61234375,0)" xlink:href="#r"/><use transform="matrix(0.008173828125000001,0,0,0.008173828125000001,60.502675781250005,0)" xlink:href="#s"/></g><path d="M98-1322v-168h1126v168H757V0H567v-1322H98" id="t"/><path d="M471 26C259 26 90-98 90-318c0-256 228-303 435-329 202-27 287-16 287-108 0-139-79-219-234-219-161 0-248 86-283 164l-173-57c86-203 278-265 451-265 150 0 419 46 419 395V0H815v-152h-12C765-73 660 26 471 26zm31-159c199 0 310-134 310-271v-155c-30 35-226 55-295 64-131 17-246 59-246 186 0 116 97 176 231 176" id="u"/><path d="M158 0v-1118h174v172h12c41-113 157-188 290-188 26 0 70 2 91 3v181c-11-2-60-10-108-10-161 0-279 109-279 260V0H158" id="v"/><path d="M611 442c-248 0-391-105-460-228l146-94c47 65 117 165 314 165 178 0 307-82 307-266v-224h-17C863-141 792-18 576-18c-268 0-472-195-472-546 0-346 197-568 476-568 216 0 288 133 326 193h17v-179h175V29c0 289-215 413-487 413zm-5-620c203 0 314-146 314-390 0-237-108-403-314-403-213 0-319 180-319 403 0 230 109 390 319 390" id="w"/><path d="M628 24c-324 0-524-230-524-574 0-343 198-582 503-582 237 0 487 146 487 559v75H286c9 234 145 362 343 362 132 0 231-58 273-172l174 48C1024-91 857 24 628 24zM287-650h624c-17-190-120-322-304-322-192 0-309 151-320 322" id="x"/><g id="c"><use transform="matrix(0.008173828125000001,0,0,0.008173828125000001,0,0)" xlink:href="#t"/><use transform="matrix(0.008173828125000001,0,0,0.008173828125000001,9.579726562500001,0)" xlink:href="#u"/><use transform="matrix(0.008173828125000001,0,0,0.008173828125000001,18.979628906250003,0)" xlink:href="#v"/><use transform="matrix(0.008173828125000001,0,0,0.008173828125000001,25.003740234375,0)" xlink:href="#w"/><use transform="matrix(0.008173828125000001,0,0,0.008173828125000001,35.270068359375,0)" xlink:href="#x"/><use transform="matrix(0.008173828125000001,0,0,0.008173828125000001,45.02961914062501,0)" xlink:href="#s"/></g><path d="M180 0v-1490h510c348 0 508 194 508 460 0 198-88 351-276 417L1256 0h-220L726-579c-117 2-238 0-356 1V0H180zm190-747h312c235 0 327-108 327-283 0-177-92-293-329-293H370v576" id="y"/><path d="M158 0v-1118h180V0H158zm91-1301c-68 0-125-53-125-119s57-119 125-119c69 0 126 53 126 119s-57 119-126 119" id="z"/><g id="d"><use transform="matrix(0.008173828125000001,0,0,0.008173828125000001,0,0)" xlink:href="#y"/><use transform="matrix(0.008173828125000001,0,0,0.008173828125000001,10.527890625000001,0)" xlink:href="#x"/><use transform="matrix(0.008173828125000001,0,0,0.008173828125000001,20.287441406250004,0)" xlink:href="#w"/><use transform="matrix(0.008173828125000001,0,0,0.008173828125000001,30.553769531250005,0)" xlink:href="#z"/><use transform="matrix(0.008173828125000001,0,0,0.008173828125000001,34.60798828125,0)" xlink:href="#p"/><use transform="matrix(0.008173828125000001,0,0,0.008173828125000001,44.64544921875,0)" xlink:href="#r"/></g><g id="e"><use transform="matrix(0.008173828125000001,0,0,0.008173828125000001,0,0)" xlink:href="#t"/><use transform="matrix(0.008173828125000001,0,0,0.008173828125000001,9.579726562500001,0)" xlink:href="#u"/><use transform="matrix(0.008173828125000001,0,0,0.008173828125000001,18.979628906250003,0)" xlink:href="#v"/><use transform="matrix(0.008173828125000001,0,0,0.008173828125000001,25.003740234375,0)" xlink:href="#w"/><use transform="matrix(0.008173828125000001,0,0,0.008173828125000001,35.270068359375,0)" xlink:href="#x"/><use transform="matrix(0.008173828125000001,0,0,0.008173828125000001,45.02961914062501,0)" xlink:href="#s"/></g><path d="M154 0v-137l495-537c165-179 249-281 249-418 0-156-121-253-280-253-170 0-278 110-278 278H158c0-264 200-443 465-443 266 0 455 183 455 416 0 161-73 288-336 568L416-179v12h687V0H154" id="A"/><g id="f"><use transform="matrix(0.008173828125000001,0,0,0.008173828125000001,0,0)" xlink:href="#n"/><use transform="matrix(0.008173828125000001,0,0,0.008173828125000001,11.549619140625001,0)" xlink:href="#o"/><use transform="matrix(0.008173828125000001,0,0,0.008173828125000001,21.112998046875003,0)" xlink:href="#o"/><use transform="matrix(0.008173828125000001,0,0,0.008173828125000001,30.676376953125004,0)" xlink:href="#p"/><use transform="matrix(0.008173828125000001,0,0,0.008173828125000001,40.71383789062501,0)" xlink:href="#q"/><use transform="matrix(0.008173828125000001,0,0,0.008173828125000001,50.61234375,0)" xlink:href="#r"/><use transform="matrix(0.008173828125000001,0,0,0.008173828125000001,60.502675781250005,0)" xlink:href="#s"/><use transform="matrix(0.008173828125000001,0,0,0.008173828125000001,65.979140625,0)" xlink:href="#A"/></g><path d="M783 20c-382 0-661-292-661-764 0-473 279-766 661-766 302 0 548 182 601 489h-190c-42-204-217-313-411-313-268 0-476 208-476 590 0 381 209 588 476 588 195 0 369-110 411-313h190c-52 303-296 489-601 489" id="B"/><path d="M370-1490V0H180v-1490h190" id="C"/><g id="g"><use transform="matrix(0.010850694444444444,0,0,0.010850694444444444,0,0)" xlink:href="#B"/><use transform="matrix(0.010850694444444444,0,0,0.010850694444444444,16.23263888888889,0)" xlink:href="#C"/></g><path d="M645 0H180v-1490h484c435 0 692 280 692 742 0 466-257 748-711 748zM370-168h263c363 0 539-218 539-580 0-358-176-574-521-574H370v1154" id="D"/><g id="h"><use transform="matrix(0.010850694444444444,0,0,0.010850694444444444,0,0)" xlink:href="#B"/><use transform="matrix(0.010850694444444444,0,0,0.010850694444444444,16.23263888888889,0)" xlink:href="#D"/></g><path d="M657 26c-323 0-524-166-541-416h195c15 169 171 246 346 246 202 0 356-106 356-265 5-203-294-238-475-293-239-73-380-191-380-389 0-252 224-419 512-419 294 0 499 171 508 396H992c-17-145-151-228-328-228-193 0-321 102-321 242 0 156 175 211 284 241l149 41c160 44 422 134 422 412 0 244-197 432-541 432" id="E"/><path d="M338-1490V0H158v-1490h180" id="F"/><g id="i"><use transform="matrix(0.010850694444444444,0,0,0.010850694444444444,0,0)" xlink:href="#E"/><use transform="matrix(0.010850694444444444,0,0,0.010850694444444444,14.2578125,0)" xlink:href="#p"/><use transform="matrix(0.010850694444444444,0,0,0.010850694444444444,27.58246527777778,0)" xlink:href="#F"/><use transform="matrix(0.010850694444444444,0,0,0.010850694444444444,32.96440972222222,0)" xlink:href="#q"/><use transform="matrix(0.010850694444444444,0,0,0.010850694444444444,46.10460069444444,0)" xlink:href="#s"/><use transform="matrix(0.010850694444444444,0,0,0.010850694444444444,53.37456597222222,0)" xlink:href="#z"/><use transform="matrix(0.010850694444444444,0,0,0.010850694444444444,58.756510416666664,0)" xlink:href="#p"/><use transform="matrix(0.010850694444444444,0,0,0.010850694444444444,72.08116319444444,0)" xlink:href="#r"/></g><g id="j"><use transform="matrix(0.010850694444444444,0,0,0.010850694444444444,0,0)" xlink:href="#C"/><use transform="matrix(0.010850694444444444,0,0,0.010850694444444444,5.967881944444445,0)" xlink:href="#r"/><use transform="matrix(0.010850694444444444,0,0,0.010850694444444444,19.09722222222222,0)" xlink:href="#m"/><use transform="matrix(0.010850694444444444,0,0,0.010850694444444444,30.826822916666664,0)" xlink:href="#s"/><use transform="matrix(0.010850694444444444,0,0,0.010850694444444444,38.205295138888886,0)" xlink:href="#u"/><use transform="matrix(0.010850694444444444,0,0,0.010850694444444444,50.68359375,0)" xlink:href="#r"/><use transform="matrix(0.010850694444444444,0,0,0.010850694444444444,63.81293402777778,0)" xlink:href="#o"/><use transform="matrix(0.010850694444444444,0,0,0.010850694444444444,76.50824652777777,0)" xlink:href="#x"/></g></defs></g></svg>