<svg xmlns="http://www.w3.org/2000/svg" xmlns:xlink="http://www.w3.org/1999/xlink" xmlns:lucid="lucid" width="1545.31" height="620.52"><g transform="translate(-1125.4023437500389 -356.74571988208356)" lucid:page-tab-id="BoW0ij_5rZ0z"><path d="M1000 0h2000v1000H1000z" fill="#fff"/><path d="M1317.33 771.33a6 6 0 0 1 6-6h148a6 6 0 0 1 6 6v108a6 6 0 0 1-6 6h-148a6 6 0 0 1-6-6z" stroke="#3a414a" stroke-width="2" fill="#fff"/><use xlink:href="#a" transform="matrix(1,0,0,1,1329.3333333333721,777.3333333333721) translate(9.4767795138889 57.52777777777778)"/><path d="M1177.33 763.33a6 6 0 0 1 6-6h68a6 6 0 0 1 6 6v148a6 6 0 0 1-6 6h-68a6 6 0 0 1-6-6z" fill="none"/><path d="M1257.33 917.33c-5.52 0-10-4.47-10-10v-60c0-5.52-4.47-10-10-10 5.53 0 10-4.47 10-10v-60c0-5.52 4.48-10 10-10" stroke="#3a414a" stroke-width="2" fill="none"/><use xlink:href="#b" transform="matrix(1,0,0,1,1182.3333333333721,762.3333333333721) translate(-55.930989583333314 21.52777777777778)"/><use xlink:href="#c" transform="matrix(1,0,0,1,1182.3333333333721,762.3333333333721) translate(-32.84071180555556 48.415798611111114)"/><use xlink:href="#d" transform="matrix(1,0,0,1,1182.3333333333721,762.3333333333721) translate(-47.78211805555554 75.30381944444446)"/><use xlink:href="#e" transform="matrix(1,0,0,1,1182.3333333333721,762.3333333333721) translate(-53.8259548611111 102.19184027777777)"/><use xlink:href="#f" transform="matrix(1,0,0,1,1182.3333333333721,762.3333333333721) translate(-37.94053819444444 129.07986111111111)"/><use xlink:href="#g" transform="matrix(1,0,0,1,1182.3333333333721,762.3333333333721) translate(-34.01258680555556 155.96788194444446)"/><use xlink:href="#h" transform="matrix(1,0,0,1,1182.3333333333721,762.3333333333721) translate(-17.486979166666664 182.8559027777778)"/><path d="M1680 711.33a6 6 0 0 1 6-6h148a6 6 0 0 1 6 6v108a6 6 0 0 1-6 6h-148a6 6 0 0 1-6-6z" stroke="#3a414a" stroke-width="2" fill="#fff"/><use xlink:href="#i" transform="matrix(1,0,0,1,1692.0000000000389,717.3333333333721) translate(24.363932291666664 42.52777777777778)"/><use xlink:href="#j" transform="matrix(1,0,0,1,1692.0000000000389,717.3333333333721) translate(23.56098090277778 69.41579861111111)"/><path d="M1460 528.67a6 6 0 0 1 6-6h148a6 6 0 0 1 6 6v108a6 6 0 0 1-6 6h-148a6 6 0 0 1-6-6z" stroke="#3a414a" stroke-width="2" fill="#fff"/><use xlink:href="#i" transform="matrix(1,0,0,1,1472.0000000000389,534.6666666667054) translate(24.363932291666664 42.52777777777778)"/><use xlink:href="#k" transform="matrix(1,0,0,1,1472.0000000000389,534.6666666667054) translate(22.87196180555555 69.41579861111111)"/><path d="M1198.56 528.67a6 6 0 0 1 6-6h132a6 6 0 0 1 6 6v96c-24.05-17.04-39.02-17.04-48.1-17.04-14.4 0-33.55 17.04-47.95 17.04-8.9 0-24.04 0-47.94-17.04z" stroke="#3a414a" stroke-width="2" fill="#fff"/><path d="M1206.56 537.67a6 6 0 0 1 6-6h132a6 6 0 0 1 6 6v96c-24.05-17.04-39.02-17.04-48.1-17.04-14.4 0-33.55 17.04-47.95 17.04-8.9 0-24.04 0-47.94-17.04z" stroke="#3a414a" stroke-width="2" fill="#fff"/><path d="M1214.56 546.67a6 6 0 0 1 6-6h132a6 6 0 0 1 6 6v96c-24.05-17.04-39.02-17.04-48.1-17.04-14.4 0-33.55 17.04-47.95 17.04-8.9 0-24.04 0-47.94-17.04z" stroke="#3a414a" stroke-width="2" fill="#fff"/><use xlink:href="#l" transform="matrix(1,0,0,1,1226.5610388546293,552.6666666667054) translate(7.696180555555557 21.52777777777778)"/><use xlink:href="#m" transform="matrix(1,0,0,1,1226.5610388546293,552.6666666667054) translate(24.807725694444443 48.415798611111114)"/><path d="M1540 644.17V698a6 6 0 0 1-6 6h-70.67a6 6 0 0 0-6 6v37.95" stroke="#3a414a" fill="none"/><path d="M1540.47 644.18h-.94v-.5h.94z" stroke="#3a414a" stroke-width=".05" fill="#3a414a"/><path d="M1457.33 762.7l-4.63-14.25h9.27z" stroke="#3a414a" fill="#3a414a"/><path d="M1278.56 639.2v56.32a6 6 0 0 0 6 6H1350a6 6 0 0 1 6 6v40.43" stroke="#3a414a" fill="none"/><path d="M1279.04 639.2h-.95v-.28l.94-.44z" stroke="#3a414a" stroke-width=".05" fill="#3a414a"/><path d="M1356 762.7l-4.63-14.25h9.27z" stroke="#3a414a" fill="#3a414a"/><path d="M1478.83 825.33h93.84a6 6 0 0 0 6-6v-48a6 6 0 0 1 6-6h77.95" stroke="#3a414a" fill="none"/><path d="M1478.85 825.8h-.52v-.94h.52z" stroke="#3a414a" stroke-width=".05" fill="#3a414a"/><path d="M1677.38 765.33l-14.26 4.64v-9.27z" stroke="#3a414a" fill="#3a414a"/><path d="M1680 843.33a6 6 0 0 1 6-6h148a6 6 0 0 1 6 6v108a6 6 0 0 1-6 6h-148a6 6 0 0 1-6-6z" stroke="#3a414a" stroke-width="2" fill="#fff"/><use xlink:href="#i" transform="matrix(1,0,0,1,1692.0000000000389,849.3333333333721) translate(24.363932291666664 42.52777777777778)"/><use xlink:href="#j" transform="matrix(1,0,0,1,1692.0000000000389,849.3333333333721) translate(23.56098090277778 69.41579861111111)"/><path d="M1478.83 825.33h93.84a6 6 0 0 1 6 6v60a6 6 0 0 0 6 6h77.95" stroke="#3a414a" fill="none"/><path d="M1478.85 825.8h-.52v-.94h.52z" stroke="#3a414a" stroke-width=".05" fill="#3a414a"/><path d="M1677.38 897.33l-14.26 4.64v-9.27z" stroke="#3a414a" fill="#3a414a"/><path d="M2147.04 788.86a6 6 0 0 1 6-6h148a6 6 0 0 1 6 6v108a6 6 0 0 1-6 6h-148a6 6 0 0 1-6-6z" stroke="#3a414a" stroke-width="2" fill="#fff"/><use xlink:href="#a" transform="matrix(1,0,0,1,2159.0440376754996,794.8573156449039) translate(9.4767795138889 57.52777777777778)"/><path d="M2007.04 780.86a6 6 0 0 1 6-6h68a6 6 0 0 1 6 6v148a6 6 0 0 1-6 6h-68a6 6 0 0 1-6-6z" fill="none"/><path d="M2087.04 934.86c-5.52 0-10-4.48-10-10v-60c0-5.53-4.47-10-10-10 5.53 0 10-4.48 10-10v-60c0-5.53 4.48-10 10-10" stroke="#3a414a" stroke-width="2" fill="none"/><use xlink:href="#b" transform="matrix(1,0,0,1,2012.0440376754996,779.8573156449039) translate(-55.930989583333314 56.19574652777777)"/><use xlink:href="#c" transform="matrix(1,0,0,1,2012.0440376754996,779.8573156449039) translate(-32.84071180555556 83.08376736111111)"/><use xlink:href="#n" transform="matrix(1,0,0,1,2012.0440376754996,779.8573156449039) translate(-47.78211805555554 109.97178819444443)"/><path d="M2509.7 730.26a6 6 0 0 1 6-6h148a6 6 0 0 1 6 6v108a6 6 0 0 1-6 6h-148a6 6 0 0 1-6-6z" stroke="#3a414a" stroke-width="2" fill="#fff"/><use xlink:href="#o" transform="matrix(1,0,0,1,2521.7107043421665,736.262704622782) translate(28.78559027777778 42.52777777777778)"/><use xlink:href="#j" transform="matrix(1,0,0,1,2521.7107043421665,736.262704622782) translate(23.56098090277778 69.41579861111111)"/><path d="M2289.7 546.2a6 6 0 0 1 6-6h148a6 6 0 0 1 6 6v108a6 6 0 0 1-6 6h-148a6 6 0 0 1-6-6z" stroke="#3a414a" stroke-width="2" fill="#fff"/><use xlink:href="#o" transform="matrix(1,0,0,1,2301.7107043421665,552.1906489782372) translate(28.78559027777778 42.52777777777778)"/><use xlink:href="#k" transform="matrix(1,0,0,1,2301.7107043421665,552.1906489782372) translate(22.87196180555555 69.41579861111111)"/><path d="M2028.27 546.2a6 6 0 0 1 6-6h132a6 6 0 0 1 6 6v96c-24.05-17.04-39.02-17.04-48.1-17.04-14.4 0-33.55 17.03-47.95 17.03-8.92 0-24.04 0-47.95-17.04z" stroke="#3a414a" stroke-width="2" fill="#fff"/><path d="M2036.27 555.2a6 6 0 0 1 6-6h132a6 6 0 0 1 6 6v96c-24.05-17.04-39.02-17.04-48.1-17.04-14.4 0-33.55 17.03-47.95 17.03-8.92 0-24.04 0-47.95-17.04z" stroke="#3a414a" stroke-width="2" fill="#fff"/><path d="M2044.27 564.2a6 6 0 0 1 6-6h132a6 6 0 0 1 6 6v96c-24.05-17.04-39.02-17.04-48.1-17.04-14.4 0-33.55 17.03-47.95 17.03-8.92 0-24.04 0-47.95-17.04z" stroke="#3a414a" stroke-width="2" fill="#fff"/><use xlink:href="#l" transform="matrix(1,0,0,1,2056.2717431967567,570.1906489782372) translate(7.696180555555557 21.52777777777778)"/><use xlink:href="#m" transform="matrix(1,0,0,1,2056.2717431967567,570.1906489782372) translate(24.807725694444443 48.415798611111114)"/><path d="M2369.7 661.7v53.82a6 6 0 0 1-6 6h-70.66a6 6 0 0 0-6 6v37.95" stroke="#3a414a" fill="none"/><path d="M2370.2 661.7h-.96v-.5h.95z" stroke="#3a414a" stroke-width=".05" fill="#3a414a"/><path d="M2287.04 780.24l-4.63-14.27h9.28z" stroke="#3a414a" fill="#3a414a"/><path d="M2108.27 656.72v56.32a6 6 0 0 0 6 6h65.44a6 6 0 0 1 6 6v40.43" stroke="#3a414a" fill="none"/><path d="M2108.75 656.74h-.95v-.3l.95-.44z" stroke="#3a414a" stroke-width=".05" fill="#3a414a"/><path d="M2185.7 780.24l-4.63-14.27h9.28z" stroke="#3a414a" fill="#3a414a"/><path d="M2308.54 842.86h93.84a6 6 0 0 0 6-6v-46.6a6 6 0 0 1 6-6h77.95" stroke="#3a414a" fill="none"/><path d="M2308.56 843.33h-.52v-.95h.52z" stroke="#3a414a" stroke-width=".05" fill="#3a414a"/><path d="M2507.1 784.26l-14.27 4.64v-9.27z" stroke="#3a414a" fill="#3a414a"/><path d="M2509.7 862.26a6 6 0 0 1 6-6h148a6 6 0 0 1 6 6v108a6 6 0 0 1-6 6h-148a6 6 0 0 1-6-6z" stroke="#3a414a" stroke-width="2" fill="#fff"/><g><use xlink:href="#o" transform="matrix(1,0,0,1,2521.7107043421665,868.262704622782) translate(28.78559027777778 42.52777777777778)"/><use xlink:href="#j" transform="matrix(1,0,0,1,2521.7107043421665,868.262704622782) translate(23.56098090277778 69.41579861111111)"/></g><path d="M2308.54 842.86h93.84a6 6 0 0 1 6 6v61.4a6 6 0 0 0 6 6h77.95" stroke="#3a414a" fill="none"/><path d="M2308.56 843.33h-.52v-.95h.52z" stroke="#3a414a" stroke-width=".05" fill="#3a414a"/><path d="M2507.1 916.26l-14.27 4.64v-9.27z" stroke="#3a414a" fill="#3a414a"/><path d="M1309.63 362.75a6 6 0 0 1 6-6h228a6 6 0 0 1 6 6v48a6 6 0 0 1-6 6h-228a6 6 0 0 1-6-6z" fill="none"/><g><use xlink:href="#p" transform="matrix(1,0,0,1,1309.6276495777483,356.74571988208356) translate(37.34375 44.55078125)"/></g><path d="M2107.04 371.52a6 6 0 0 1 6-6h228a6 6 0 0 1 6 6v48a6 6 0 0 1-6 6h-228a6 6 0 0 1-6-6z" fill="none"/><g><use xlink:href="#q" transform="matrix(1,0,0,1,2107.0440376754996,365.5239823115704) translate(11.298828125 44.55078125)"/></g><defs><path d="M471 26C259 26 90-98 90-318c0-256 228-303 435-329 202-27 287-16 287-108 0-139-79-219-234-219-161 0-248 86-283 164l-173-57c86-203 278-265 451-265 150 0 419 46 419 395V0H815v-152h-12C765-73 660 26 471 26zm31-159c199 0 310-134 310-271v-155c-30 35-226 55-295 64-131 17-246 59-246 186 0 116 97 176 231 176" id="r"/><path d="M537 14c-226 0-379-139-379-422v-710h180v695c0 172 97 275 253 275 160 0 281-109 281-300v-670h181V0H879v-209C806-46 684 14 537 14" id="s"/><path d="M598-1118v154H368v674c0 100 37 144 132 144 23 0 62-6 92-12L629-6c-37 13-88 20-134 20-193 0-307-107-307-290v-688H20v-154h168v-266h180v266h230" id="t"/><path d="M613 24c-304 0-509-231-509-576 0-350 205-580 509-580 305 0 511 230 511 580 0 345-206 576-511 576zm0-161c226 0 329-195 329-415 0-222-103-419-329-419-223 0-326 196-326 419 0 220 103 415 326 415" id="u"/><path d="M158 0v-1118h175l1 205c55-151 181-225 313-225 147 0 245 90 285 228 53-141 190-228 352-228 194 0 352 125 352 384V0h-181v-749c0-161-105-225-225-225-151 0-243 103-243 244V0H807v-767c0-124-93-207-219-207-131 0-250 92-250 270V0H158" id="v"/><path d="M158 0v-1118h180V0H158zm91-1301c-68 0-125-53-125-119s57-119 125-119c69 0 126 53 126 119s-57 119-126 119" id="w"/><path d="M338-670V0H158v-1118h173l1 207c72-158 192-221 342-221 226 0 378 139 378 422V0H872v-695c0-172-96-275-252-275-161 0-282 109-282 300" id="x"/><g id="a"><use transform="matrix(0.010850694444444444,0,0,0.010850694444444444,0,0)" xlink:href="#r"/><use transform="matrix(0.010850694444444444,0,0,0.010850694444444444,12.47829861111111,0)" xlink:href="#s"/><use transform="matrix(0.010850694444444444,0,0,0.010850694444444444,25.618489583333332,0)" xlink:href="#t"/><use transform="matrix(0.010850694444444444,0,0,0.010850694444444444,32.67144097222222,0)" xlink:href="#u"/><use transform="matrix(0.010850694444444444,0,0,0.010850694444444444,45.99609375,0)" xlink:href="#v"/><use transform="matrix(0.010850694444444444,0,0,0.010850694444444444,65.46223958333333,0)" xlink:href="#r"/><use transform="matrix(0.010850694444444444,0,0,0.010850694444444444,77.94053819444444,0)" xlink:href="#t"/><use transform="matrix(0.010850694444444444,0,0,0.010850694444444444,85.21050347222221,0)" xlink:href="#w"/><use transform="matrix(0.010850694444444444,0,0,0.010850694444444444,90.59244791666666,0)" xlink:href="#u"/><use transform="matrix(0.010850694444444444,0,0,0.010850694444444444,103.91710069444441,0)" xlink:href="#x"/></g><path d="M158 418v-1536h174v179h20c37-59 106-193 324-193 279 0 474 222 474 576 0 356-194 580-473 580-213 0-288-135-325-197h-14v591H158zm492-555c209 0 317-186 317-421 0-232-105-413-317-413-206 0-314 166-314 413 0 249 111 421 314 421" id="y"/><path d="M158 0v-1118h174v172h12c41-113 157-188 290-188 26 0 70 2 91 3v181c-11-2-60-10-108-10-161 0-279 109-279 260V0H158" id="z"/><path d="M481 0L54-1118h197c107 314 236 620 325 951 87-331 217-637 324-951h197L670 0H481" id="A"/><path d="M538 24C308 24 148-78 108-271l171-41c32 123 123 178 257 178 156 0 256-77 256-169 0-77-54-128-164-154l-186-44c-203-48-300-148-300-305 0-192 176-326 414-326 230 0 351 112 402 269l-163 42c-31-80-94-158-238-158-133 0-233 69-233 162 0 83 57 129 188 160l169 40c203 48 298 149 298 302 0 196-179 339-441 339" id="B"/><g id="b"><use transform="matrix(0.010850694444444444,0,0,0.010850694444444444,0,0)" xlink:href="#y"/><use transform="matrix(0.010850694444444444,0,0,0.010850694444444444,13.606770833333332,0)" xlink:href="#z"/><use transform="matrix(0.010850694444444444,0,0,0.010850694444444444,21.603732638888886,0)" xlink:href="#u"/><use transform="matrix(0.010850694444444444,0,0,0.010850694444444444,34.494357638888886,0)" xlink:href="#A"/><use transform="matrix(0.010850694444444444,0,0,0.010850694444444444,46.98350694444444,0)" xlink:href="#w"/><use transform="matrix(0.010850694444444444,0,0,0.010850694444444444,52.365451388888886,0)" xlink:href="#B"/><use transform="matrix(0.010850694444444444,0,0,0.010850694444444444,64.09505208333333,0)" xlink:href="#w"/><use transform="matrix(0.010850694444444444,0,0,0.010850694444444444,69.47699652777777,0)" xlink:href="#u"/><use transform="matrix(0.010850694444444444,0,0,0.010850694444444444,82.80164930555554,0)" xlink:href="#x"/></g><path d="M577 24c-279 0-473-224-473-580 0-354 195-576 474-576 218 0 287 134 324 193h14v-551h180V0H922v-173h-20C865-111 790 24 577 24zm27-161c203 0 314-172 314-421 0-247-108-413-314-413-212 0-317 181-317 413 0 235 108 421 317 421" id="C"/><path d="M628 24c-324 0-524-230-524-574 0-343 198-582 503-582 237 0 487 146 487 559v75H286c9 234 145 362 343 362 132 0 231-58 273-172l174 48C1024-91 857 24 628 24zM287-650h624c-17-190-120-322-304-322-192 0-309 151-320 322" id="D"/><g id="c"><use transform="matrix(0.010850694444444444,0,0,0.010850694444444444,0,0)" xlink:href="#s"/><use transform="matrix(0.010850694444444444,0,0,0.010850694444444444,13.140190972222221,0)" xlink:href="#y"/><use transform="matrix(0.010850694444444444,0,0,0.010850694444444444,26.746961805555554,0)" xlink:href="#C"/><use transform="matrix(0.010850694444444444,0,0,0.010850694444444444,40.353732638888886,0)" xlink:href="#r"/><use transform="matrix(0.010850694444444444,0,0,0.010850694444444444,52.83203125,0)" xlink:href="#t"/><use transform="matrix(0.010850694444444444,0,0,0.010850694444444444,59.8849826388889,0)" xlink:href="#D"/></g><path d="M611 442c-248 0-391-105-460-228l146-94c47 65 117 165 314 165 178 0 307-82 307-266v-224h-17C863-141 792-18 576-18c-268 0-472-195-472-546 0-346 197-568 476-568 216 0 288 133 326 193h17v-179h175V29c0 289-215 413-487 413zm-5-620c203 0 314-146 314-390 0-237-108-403-314-403-213 0-319 180-319 403 0 230 109 390 319 390" id="E"/><g id="d"><use transform="matrix(0.010850694444444444,0,0,0.010850694444444444,0,0)" xlink:href="#s"/><use transform="matrix(0.010850694444444444,0,0,0.010850694444444444,13.140190972222221,0)" xlink:href="#y"/><use transform="matrix(0.010850694444444444,0,0,0.010850694444444444,26.746961805555554,0)" xlink:href="#E"/><use transform="matrix(0.010850694444444444,0,0,0.010850694444444444,40.37543402777777,0)" xlink:href="#z"/><use transform="matrix(0.010850694444444444,0,0,0.010850694444444444,48.741319444444436,0)" xlink:href="#r"/><use transform="matrix(0.010850694444444444,0,0,0.010850694444444444,61.21961805555554,0)" xlink:href="#C"/><use transform="matrix(0.010850694444444444,0,0,0.010850694444444444,74.82638888888887,0)" xlink:href="#D"/></g><path d="M613 24c-304 0-509-231-509-576 0-350 205-580 509-580 216 0 392 114 453 309l-173 49c-33-115-133-197-280-197-223 0-326 196-326 419 0 220 103 415 326 415 150 0 252-85 285-206l172 49C1010-95 832 24 613 24" id="F"/><path d="M338-1490V0H158v-1490h180" id="G"/><path d="M798-719v166H144v-166h654" id="H"/><g id="e"><use transform="matrix(0.010850694444444444,0,0,0.010850694444444444,0,0)" xlink:href="#F"/><use transform="matrix(0.010850694444444444,0,0,0.010850694444444444,12.6953125,0)" xlink:href="#G"/><use transform="matrix(0.010850694444444444,0,0,0.010850694444444444,18.077256944444443,0)" xlink:href="#D"/><use transform="matrix(0.010850694444444444,0,0,0.010850694444444444,31.25,0)" xlink:href="#r"/><use transform="matrix(0.010850694444444444,0,0,0.010850694444444444,43.728298611111114,0)" xlink:href="#x"/><use transform="matrix(0.010850694444444444,0,0,0.010850694444444444,56.8576388888889,0)" xlink:href="#H"/><use transform="matrix(0.010850694444444444,0,0,0.010850694444444444,67.07899305555556,0)" xlink:href="#s"/><use transform="matrix(0.010850694444444444,0,0,0.010850694444444444,80.21918402777777,0)" xlink:href="#y"/></g><path d="M677 24c-213 0-288-135-325-197h-20V0H158v-1490h180v551h14c37-59 106-193 324-193 279 0 474 222 474 576 0 356-194 580-473 580zm-27-161c209 0 317-186 317-421 0-232-105-413-317-413-206 0-314 166-314 413 0 249 111 421 314 421" id="I"/><path d="M158 0v-1490h180v865h22l478-493h223L593-638 1096 0H865L456-523 338-412V0H158" id="J"/><g id="f"><use transform="matrix(0.010850694444444444,0,0,0.010850694444444444,0,0)" xlink:href="#I"/><use transform="matrix(0.010850694444444444,0,0,0.010850694444444444,13.823784722222221,0)" xlink:href="#r"/><use transform="matrix(0.010850694444444444,0,0,0.010850694444444444,26.302083333333332,0)" xlink:href="#F"/><use transform="matrix(0.010850694444444444,0,0,0.010850694444444444,38.99739583333333,0)" xlink:href="#J"/><use transform="matrix(0.010850694444444444,0,0,0.010850694444444444,51.193576388888886,0)" xlink:href="#s"/><use transform="matrix(0.010850694444444444,0,0,0.010850694444444444,64.33376736111111,0)" xlink:href="#y"/></g><g id="g"><use transform="matrix(0.010850694444444444,0,0,0.010850694444444444,0,0)" xlink:href="#z"/><use transform="matrix(0.010850694444444444,0,0,0.010850694444444444,7.996961805555555,0)" xlink:href="#D"/><use transform="matrix(0.010850694444444444,0,0,0.010850694444444444,20.95269097222222,0)" xlink:href="#B"/><use transform="matrix(0.010850694444444444,0,0,0.010850694444444444,32.682291666666664,0)" xlink:href="#t"/><use transform="matrix(0.010850694444444444,0,0,0.010850694444444444,39.73524305555556,0)" xlink:href="#u"/><use transform="matrix(0.010850694444444444,0,0,0.010850694444444444,53.05989583333333,0)" xlink:href="#z"/><use transform="matrix(0.010850694444444444,0,0,0.010850694444444444,61.056857638888886,0)" xlink:href="#D"/></g><g id="h"><use transform="matrix(0.010850694444444444,0,0,0.010850694444444444,0,0)" xlink:href="#F"/><use transform="matrix(0.010850694444444444,0,0,0.010850694444444444,12.6953125,0)" xlink:href="#G"/><use transform="matrix(0.010850694444444444,0,0,0.010850694444444444,18.077256944444443,0)" xlink:href="#u"/><use transform="matrix(0.010850694444444444,0,0,0.010850694444444444,31.40190972222222,0)" xlink:href="#x"/><use transform="matrix(0.010850694444444444,0,0,0.010850694444444444,44.53125,0)" xlink:href="#D"/></g><path d="M678-1118v154H420V0H240v-964H20v-154h220v-149c0-194 155-293 318-293 85 0 141 18 168 30l-50 154c-19-6-47-17-97-17-111 0-159 58-159 166v109h258" id="K"/><g id="i"><use transform="matrix(0.010850694444444444,0,0,0.010850694444444444,0,0)" xlink:href="#y"/><use transform="matrix(0.010850694444444444,0,0,0.010850694444444444,13.606770833333332,0)" xlink:href="#G"/><use transform="matrix(0.010850694444444444,0,0,0.010850694444444444,18.98871527777778,0)" xlink:href="#r"/><use transform="matrix(0.010850694444444444,0,0,0.010850694444444444,31.46701388888889,0)" xlink:href="#t"/><use transform="matrix(0.010850694444444444,0,0,0.010850694444444444,38.19444444444444,0)" xlink:href="#K"/><use transform="matrix(0.010850694444444444,0,0,0.010850694444444444,45.76822916666667,0)" xlink:href="#u"/><use transform="matrix(0.010850694444444444,0,0,0.010850694444444444,59.09288194444445,0)" xlink:href="#z"/><use transform="matrix(0.010850694444444444,0,0,0.010850694444444444,67.80598958333334,0)" xlink:href="#v"/></g><g id="j"><use transform="matrix(0.010850694444444444,0,0,0.010850694444444444,0,0)" xlink:href="#w"/><use transform="matrix(0.010850694444444444,0,0,0.010850694444444444,5.381944444444445,0)" xlink:href="#x"/><use transform="matrix(0.010850694444444444,0,0,0.010850694444444444,18.51128472222222,0)" xlink:href="#B"/><use transform="matrix(0.010850694444444444,0,0,0.010850694444444444,30.240885416666664,0)" xlink:href="#t"/><use transform="matrix(0.010850694444444444,0,0,0.010850694444444444,37.619357638888886,0)" xlink:href="#r"/><use transform="matrix(0.010850694444444444,0,0,0.010850694444444444,50.09765625,0)" xlink:href="#x"/><use transform="matrix(0.010850694444444444,0,0,0.010850694444444444,63.22699652777778,0)" xlink:href="#F"/><use transform="matrix(0.010850694444444444,0,0,0.010850694444444444,75.92230902777777,0)" xlink:href="#D"/></g><g id="k"><use transform="matrix(0.010850694444444444,0,0,0.010850694444444444,0,0)" xlink:href="#y"/><use transform="matrix(0.010850694444444444,0,0,0.010850694444444444,13.823784722222221,0)" xlink:href="#r"/><use transform="matrix(0.010850694444444444,0,0,0.010850694444444444,26.302083333333332,0)" xlink:href="#F"/><use transform="matrix(0.010850694444444444,0,0,0.010850694444444444,38.99739583333333,0)" xlink:href="#J"/><use transform="matrix(0.010850694444444444,0,0,0.010850694444444444,51.193576388888886,0)" xlink:href="#r"/><use transform="matrix(0.010850694444444444,0,0,0.010850694444444444,63.671875,0)" xlink:href="#E"/><use transform="matrix(0.010850694444444444,0,0,0.010850694444444444,77.30034722222223,0)" xlink:href="#D"/></g><g id="l"><use transform="matrix(0.010850694444444444,0,0,0.010850694444444444,0,0)" xlink:href="#w"/><use transform="matrix(0.010850694444444444,0,0,0.010850694444444444,5.381944444444445,0)" xlink:href="#x"/><use transform="matrix(0.010850694444444444,0,0,0.010850694444444444,18.51128472222222,0)" xlink:href="#B"/><use transform="matrix(0.010850694444444444,0,0,0.010850694444444444,30.240885416666664,0)" xlink:href="#t"/><use transform="matrix(0.010850694444444444,0,0,0.010850694444444444,37.619357638888886,0)" xlink:href="#r"/><use transform="matrix(0.010850694444444444,0,0,0.010850694444444444,50.09765625,0)" xlink:href="#x"/><use transform="matrix(0.010850694444444444,0,0,0.010850694444444444,63.22699652777778,0)" xlink:href="#F"/><use transform="matrix(0.010850694444444444,0,0,0.010850694444444444,75.92230902777777,0)" xlink:href="#D"/><use transform="matrix(0.010850694444444444,0,0,0.010850694444444444,88.87803819444444,0)" xlink:href="#B"/></g><g id="m"><use transform="matrix(0.010850694444444444,0,0,0.010850694444444444,0,0)" xlink:href="#F"/><use transform="matrix(0.010850694444444444,0,0,0.010850694444444444,12.6953125,0)" xlink:href="#u"/><use transform="matrix(0.010850694444444444,0,0,0.010850694444444444,26.01996527777778,0)" xlink:href="#x"/><use transform="matrix(0.010850694444444444,0,0,0.010850694444444444,39.14930555555556,0)" xlink:href="#K"/><use transform="matrix(0.010850694444444444,0,0,0.010850694444444444,47.37413194444444,0)" xlink:href="#w"/><use transform="matrix(0.010850694444444444,0,0,0.010850694444444444,52.756076388888886,0)" xlink:href="#E"/></g><g id="n"><use transform="matrix(0.010850694444444444,0,0,0.010850694444444444,0,0)" xlink:href="#s"/><use transform="matrix(0.010850694444444444,0,0,0.010850694444444444,13.140190972222221,0)" xlink:href="#y"/><use transform="matrix(0.010850694444444444,0,0,0.010850694444444444,26.746961805555554,0)" xlink:href="#E"/><use transform="matrix(0.010850694444444444,0,0,0.010850694444444444,40.37543402777777,0)" xlink:href="#z"/><use transform="matrix(0.010850694444444444,0,0,0.010850694444444444,48.741319444444436,0)" xlink:href="#r"/><use transform="matrix(0.010850694444444444,0,0,0.010850694444444444,61.21961805555554,0)" xlink:href="#C"/><use transform="matrix(0.010850694444444444,0,0,0.010850694444444444,74.82638888888887,0)" xlink:href="#D"/></g><path d="M409 0L70-1118h191c89 329 165 560 243 925 75-353 154-601 240-925h192c85 325 161 564 235 922 77-354 157-598 244-922h191L1267 0h-179c-86-307-176-590-250-913C763-588 675-308 588 0H409" id="L"/><g id="o"><use transform="matrix(0.010850694444444444,0,0,0.010850694444444444,0,0)" xlink:href="#F"/><use transform="matrix(0.010850694444444444,0,0,0.010850694444444444,12.6953125,0)" xlink:href="#z"/><use transform="matrix(0.010850694444444444,0,0,0.010850694444444444,21.061197916666664,0)" xlink:href="#r"/><use transform="matrix(0.010850694444444444,0,0,0.010850694444444444,33.53949652777777,0)" xlink:href="#L"/><use transform="matrix(0.010850694444444444,0,0,0.010850694444444444,51.72526041666666,0)" xlink:href="#G"/><use transform="matrix(0.010850694444444444,0,0,0.010850694444444444,57.1072048611111,0)" xlink:href="#D"/><use transform="matrix(0.010850694444444444,0,0,0.010850694444444444,70.06293402777777,0)" xlink:href="#z"/></g><path d="M128 418v-1536h295v188h14c41-89 129-202 319-202 248 0 453 193 453 575 0 372-197 576-455 576-183 0-275-108-317-198h-9v597H128zm534-640c156 0 240-139 240-336 0-196-83-334-240-334-154 0-241 131-241 334 0 202 88 336 241 336" id="M"/><path d="M428-1490V0H128v-1490h300" id="N"/><path d="M440 22C227 22 68-92 68-313c0-250 202-322 422-343 195-21 271-24 271-105 0-95-63-149-175-149-116 0-187 57-211 129l-275-46c57-194 237-305 487-305 240 0 474 108 474 379V0H777v-155h-10C713-51 605 22 440 22zm85-211c140 0 238-93 238-211v-121c-37 26-156 42-222 51-111 16-185 59-185 149 0 87 70 132 169 132" id="O"/><path d="M683-1118v229H474v562c0 71 29 104 102 104 23 0 73-7 95-13l43 225C647 9 580 16 520 16 296 16 174-96 174-301v-588H20v-229h154v-266h300v266h209" id="P"/><path d="M750-1118v229H516V0H217v-889H20v-229h197v-86c0-238 156-356 363-356 94 0 178 20 215 31l-54 226c-25-7-61-15-100-15-123-3-131 84-125 200h234" id="Q"/><path d="M628 22C291 22 81-210 81-554c0-346 210-578 547-578 336 0 547 232 547 578 0 344-211 576-547 576zm0-236c160 0 242-146 242-341 0-197-82-341-242-341S387-753 387-555c0 195 81 341 241 341" id="R"/><path d="M128 0v-1118h290v195h12c54-169 184-238 367-200v268c-27-8-86-15-130-15-138 0-239 95-239 234V0H128" id="S"/><path d="M128 0v-1118h278l12 217c60-163 185-234 319-234 143 0 236 81 288 251 63-172 205-251 359-251 205 0 357 138 357 381V0h-301v-697c0-126-76-187-177-187-114 0-184 79-184 196V0H789v-705c0-109-72-179-174-179-106 0-187 74-187 208V0H128" id="T"/><g id="p"><use transform="matrix(0.01953125,0,0,0.01953125,0,0)" xlink:href="#M"/><use transform="matrix(0.01953125,0,0,0.01953125,25.21484375,0)" xlink:href="#N"/><use transform="matrix(0.01953125,0,0,0.01953125,36.0546875,0)" xlink:href="#O"/><use transform="matrix(0.01953125,0,0,0.01953125,59.27734375,0)" xlink:href="#P"/><use transform="matrix(0.01953125,0,0,0.01953125,72.63671875,0)" xlink:href="#Q"/><use transform="matrix(0.01953125,0,0,0.01953125,87.6953125,0)" xlink:href="#R"/><use transform="matrix(0.01953125,0,0,0.01953125,112.2265625,0)" xlink:href="#S"/><use transform="matrix(0.01953125,0,0,0.01953125,128.80859375,0)" xlink:href="#T"/></g><path d="M128 0v-1118h300V0H128zm150-1264c-91 0-165-68-165-154 0-85 74-154 165-154 90 0 165 69 165 154 0 86-75 154-165 154" id="U"/><path d="M628 22C291 22 81-210 81-554c0-346 210-578 547-578 265 0 455 142 497 372l-279 52c-25-116-99-188-215-188-160 0-244 139-244 341 0 200 84 341 244 341 116 0 193-74 217-195l279 51C1085-123 896 22 628 22" id="V"/><path d="M428-647V0H128v-1118h283l4 231c63-156 176-245 348-245 232 0 384 159 384 421V0H847v-659c0-139-76-222-202-222-128 0-217 86-217 234" id="W"/><g id="q"><use transform="matrix(0.01953125,0,0,0.01953125,0,0)" xlink:href="#O"/><use transform="matrix(0.01953125,0,0,0.01953125,23.22265625,0)" xlink:href="#M"/><use transform="matrix(0.01953125,0,0,0.01953125,48.4375,0)" xlink:href="#M"/><use transform="matrix(0.01953125,0,0,0.01953125,73.65234375,0)" xlink:href="#N"/><use transform="matrix(0.01953125,0,0,0.01953125,84.4921875,0)" xlink:href="#U"/><use transform="matrix(0.01953125,0,0,0.01953125,95.33203125,0)" xlink:href="#V"/><use transform="matrix(0.01953125,0,0,0.01953125,119.2578125,0)" xlink:href="#O"/><use transform="matrix(0.01953125,0,0,0.01953125,142.48046875,0)" xlink:href="#P"/><use transform="matrix(0.01953125,0,0,0.01953125,157.12890625,0)" xlink:href="#U"/><use transform="matrix(0.01953125,0,0,0.01953125,167.96875,0)" xlink:href="#R"/><use transform="matrix(0.01953125,0,0,0.01953125,192.5,0)" xlink:href="#W"/></g></defs></g></svg>