<svg xmlns="http://www.w3.org/2000/svg" xmlns:xlink="http://www.w3.org/1999/xlink" xmlns:lucid="lucid" width="1697.36" height="775.38"><g transform="translate(294.1796945551171 -436.3021105550978)" lucid:page-tab-id="0AY0H36pFFlo"><path d="M-500 0h2000v1500H-500z" fill="#fff"/><path d="M-292.68 443.8a6 6 0 0 1 6-6h1682.36a6 6 0 0 1 6 6v760.4a6 6 0 0 1-6 6H-286.68a6 6 0 0 1-6-6z" stroke="#242f3e" stroke-width="3" fill="#fff" fill-opacity="0"/><path d="M-292.68 437.8h56v56h-56v-56z" stroke="#fff" stroke-opacity="0" fill="#242f3e"/><path d="M-274.46 463.67c-.04.48.04.88.17 1.34.13.4.3.7.5 1.08.04.1.08.2.08.33 0 .2-.12.37-.28.46l-.95.62c-.12.1-.25.13-.37.13-.16 0-.33-.06-.45-.2-.2-.2-.37-.42-.53-.7-.17-.24-.3-.52-.45-.86-1.1 1.38-2.63 2.1-4.4 2.06-1.15.06-2.13-.3-2.96-1.08-.8-.78-1.15-1.75-1.1-2.85-.06-1.22.4-2.28 1.34-3.08 1.07-.85 2.3-1.23 3.66-1.16.57 0 1.02.03 1.6.1.57.1 1.1.2 1.72.33v-1.1c.08-.88-.16-1.67-.7-2.37-.74-.56-1.56-.78-2.46-.7-.53 0-1.03.07-1.6.2-.58.14-1.03.3-1.6.52l-.5.2h-.24c-.2 0-.33-.18-.33-.47v-.75c0-.18.03-.33.1-.5.14-.16.26-.25.42-.32.66-.3 1.2-.5 1.9-.68.77-.2 1.47-.3 2.3-.28 1.47-.13 2.78.27 3.9 1.2.94 1.05 1.35 2.28 1.22 3.68zm-6.07 2.28c.57 0 1.06-.08 1.6-.28.57-.2 1.03-.5 1.44-.96.25-.27.42-.56.5-.93.12-.45.16-.84.16-1.3v-.67c-.53-.1-.94-.17-1.43-.2h-1.4c-.82-.08-1.56.12-2.22.58-.52.45-.77 1.04-.73 1.73-.04.62.13 1.17.54 1.62.46.36 1 .5 1.57.43zm12 1.6c-.22.02-.42-.03-.6-.15-.15-.17-.23-.35-.32-.6l-3.5-11.5-.1-.62c0-.24.1-.37.36-.37h1.5c.2 0 .36.04.56.15.17.2.25.37.3.6l2.5 9.96 2.38-9.93c0-.24.08-.43.28-.6.17-.12.37-.16.58-.14h1.2c.24-.02.4.03.6.14.17.18.25.36.3.6l2.33 9.94 2.55-10c.04-.2.16-.4.33-.57.17-.12.38-.17.58-.14h1.4c.16-.03.33.1.37.28v.31s0 .2-.12.35l-3.62 11.53c-.03.22-.1.42-.28.6-.2.1-.36.14-.57.13h-1.27c-.25.04-.45-.02-.62-.14-.16-.17-.25-.37-.3-.6l-2.3-9.6-2.28 9.6c-.05.23-.13.43-.3.6-.2.12-.4.18-.6.15zm19.2.38c-.82 0-1.5-.07-2.3-.25-.65-.13-1.14-.3-1.72-.6-.2-.1-.37-.23-.45-.4-.08-.15-.12-.3-.12-.45v-.74c0-.32.12-.48.32-.48h.3l.36.16c.58.24 1.03.4 1.6.5.62.14 1.15.2 1.8.2.8.06 1.5-.1 2.2-.5.48-.3.77-.8.72-1.4.05-.4-.12-.76-.36-1.04-.46-.4-.95-.64-1.52-.8l-2.18-.67c-.94-.26-1.72-.73-2.38-1.5-.5-.65-.74-1.36-.74-2.2 0-.58.12-1.07.4-1.6.3-.5.63-.87 1.08-1.2.5-.4.98-.62 1.6-.78.66-.2 1.2-.28 1.9-.27.32-.03.6-.03.97 0l1 .16.8.23.67.25c.16.1.28.23.45.38.08.15.12.3.12.5v.7c0 .32-.13.47-.38.47-.2-.03-.37-.08-.57-.18-.95-.42-1.8-.6-2.88-.58-.7-.04-1.3.1-1.97.4-.5.3-.74.8-.7 1.36 0 .4.13.76.46 1.05.5.4.98.65 1.6.82l2.1.67c.94.24 1.67.7 2.3 1.44.48.64.7 1.3.7 2.1 0 .63-.13 1.17-.38 1.73-.3.55-.62.96-1.1 1.32-.5.4-1 .66-1.6.85-.75.23-1.4.33-2.15.35zM-246.57 475.3c-5.6 3.8-11.37 5.56-18.16 5.54-8.54.05-15.82-2.73-22.16-8.45-.48-.42 0-1 .5-.68 7.07 4.05 14.02 5.9 22.2 5.9 6.1-.04 11.3-1.1 16.93-3.47.82-.35 1.5.55.7 1.14z" stroke="#fff" stroke-opacity="0" fill="#fff"/><path d="M-244.52 473c-.64-.8-4.16-.38-5.75-.2-.47 0-.54-.36-.1-.66 2.8-1.97 7.4-1.4 8-.74.6.67-.15 5.28-2.8 7.5-.4.33-.77.14-.6-.3.55-1.52 1.87-4.83 1.25-5.6z" stroke="#fff" stroke-opacity="0" fill="#fff"/><use xlink:href="#a" transform="matrix(1,0,0,1,-221.67969455511712,457.8021105550978) translate(0 16.216875)"/><use xlink:href="#b" transform="matrix(1,0,0,1,-221.67969455511712,457.8021105550978) translate(42.544775390625006 16.216875)"/><path d="M592.92 714.66a6 6 0 0 1 6-6h715.7a6 6 0 0 1 6 6v388a6 6 0 0 1-6 6H598.9a6 6 0 0 1-6-6z" fill="#fff" fill-opacity="0"/><path d="M616.82 708.66h11.92m11.93 0h11.93m11.93 0h11.93m11.92 0h11.93m11.94 0h11.93m11.93 0h11.92m11.93 0h11.93m11.93 0h11.94m11.92 0h11.93m11.92 0h11.93m11.93 0h11.92m11.93 0h11.93m11.93 0H915m11.93 0h11.92m11.93 0h11.93m11.93 0h11.93m11.9 0h11.94m11.93 0h11.93m11.93 0h11.92m11.93 0H1082m11.94 0h11.93m11.93 0h11.92m11.93 0h11.93m11.93 0h11.93m11.93 0h11.93m11.92 0h11.93m11.92 0H1249m11.93 0h11.93m11.93 0h11.9m11.94 0h5.97l.95.08.9.22.88.36.8.5.72.6.6.72.5.8.36.87.23.93.08.93v6.07m0 12.12v12.13m0 12.12v12.13m0 12.12v12.13m0 12.12v12.13m0 12.12v12.13m0 12.12v12.13m0 12.12v12.13m0 12.12v12.13m0 12.12v12.13m0 12.12v12.13m0 12.12v12.13m0 12.12v12.13m0 12.12v12.13m0 12.12v12.13m0 12.12v12.13m0 12.12v6.07l-.07.93-.22.92-.35.87-.5.8-.6.7-.72.62-.8.5-.87.35-.9.22-.95.07h-5.96m-11.93 0h-11.9m-11.94 0h-11.93m-11.93 0h-11.92m-11.93 0h-11.93m-11.93 0h-11.94m-11.92 0h-11.93m-11.92 0h-11.93m-11.93 0h-11.92m-11.93 0h-11.93m-11.93 0h-11.92m-11.93 0h-11.92m-11.93 0h-11.93m-11.93 0H998.5m-11.9 0h-11.94m-11.93 0H950.8m-11.93 0h-11.92m-11.93 0H903.1m-11.94 0h-11.93m-11.93 0H855.4m-11.93 0h-11.93m-11.93 0h-11.94m-11.92 0H783.8m-11.92 0h-11.93m-11.93 0H736.1m-11.93 0h-11.93m-11.93 0H688.4m-11.92 0h-11.93m-11.93 0h-11.93m-11.93 0h-11.92m-11.93 0h-5.98l-.93-.08-.93-.23-.87-.36-.8-.48-.72-.6-.6-.73-.5-.8-.36-.88-.22-.92-.08-.93v-6.07m0-12.12v-12.13m0-12.12v-12.13m0-12.12v-12.13m0-12.12V999.6m0-12.12v-12.13m0-12.12V951.1m0-12.12v-12.13m0-12.12V902.6m0-12.12v-12.13m0-12.12V854.1m0-12.12v-12.13m0-12.12V805.6m0-12.12v-12.13m0-12.12V757.1m0-12.12v-12.13m0-12.12v-6.07l.08-.93.22-.92.36-.86.5-.8.6-.72.72-.6.8-.5.87-.36.9-.22.95-.08h5.97" stroke="#7d8998" stroke-width="3" fill="none"/><use xlink:href="#c" transform="matrix(1,0,0,1,592.9239732806616,728.6653024727418) translate(292.86284722222223 21.52777777777778)"/><use xlink:href="#d" transform="matrix(1,0,0,1,592.9239732806616,728.6653024727418) translate(386.9709201388889 21.52777777777778)"/><path d="M-242.72 894.62h120v120h-120v-120z" stroke="#fff" stroke-opacity="0" stroke-width="2" fill="#d86613"/><path d="M-147.5 942.75v32.7l-28.83 16.62v-12.4l16-9.22c.93-.54 1.46-1.3 1.6-2.33.03-.47.03-.83 0-1.25v-18.22l11.22-6.44m2.25-4.75c-.18 0-.32 0-.46.12l-15.32 8.8c-.28.2-.88.5-.88.85v20.43l-17.14 9.9c-.3.17-.46.46-.46.82v17.57c0 .54.42.96.95.96.17 0 .3-.06.46-.12l33.34-19.18c.28-.18.46-.48.46-.84v-38.48-.06c0-.48-.42-.9-.95-.9z" stroke="#fff" stroke-opacity="0" stroke-width="2" fill="#fff"/><path d="M-185.23 998.53c-.45 0-.9-.1-1.28-.35l-33.34-19.15c-.83-.53-1.28-1.32-1.28-2.2V934.4c0-.95.45-1.75 1.28-2.18l36.63-21.17c.82-.44 1.72-.44 2.55 0l33.33 19.23c.82.44 1.27 1.23 1.27 2.2 0 .88-.45 1.67-1.27 2.2l-35.36 20.46v40.84c0 .97-.53 1.76-1.28 2.2-.45.26-.82.35-1.27.35zm-32.66-22.13l32 18.44V954.8c0-.98.44-1.77 1.27-2.3l34.68-20.02-31.98-18.45-35.96 20.82zm35.67-62.54zm.67 0z" stroke="#fff" stroke-opacity="0" stroke-width="2" fill="#fff"/><use xlink:href="#e" transform="matrix(1,0,0,1,-272.71825190366695,1023.6243583063836) translate(38.811848958333336 21.52777777777778)"/><use xlink:href="#f" transform="matrix(1,0,0,1,-272.71825190366695,1023.6243583063836) translate(46.92816840277778 48.415798611111114)"/><path d="M465.53 954.35L455.1 964.8l-3.85-3.88 12.24-12.33c1.07-1.1 2.87-1.1 3.95 0l12.24 12.32-3.85 3.87-10.32-10.45zm-14.28 20.25l12.24-12.33c1.07-1.08 2.87-1.08 3.95 0l12.24 12.33-3.85 3.87-10.32-10.35-10.44 10.35-3.85-3.87zm-7.68-10l-7.8 7.93-3.84-3.87 3.12-3.15H411.4v-5.48h23.77l-3.24-3.33 3.84-3.88 7.8 7.92c.48.54.84 1.17.84 1.98 0 .72-.35 1.35-.83 1.9zm21.72-34.2c-12.73 0-21.25-3.95-21.25-7.64 0-3.7 8.52-7.65 21.24-7.65 13.9 0 22.55 4.5 22.55 7.66 0 3.24-8.64 7.65-22.56 7.65zm27.95-7.64c0-8.64-14.04-13.14-27.96-13.14-15.97 0-26.65 5.3-26.65 13.14v23.48h5.52v-15.03c4.68 2.97 12 4.68 21.12 4.68 8.5 0 17.03-1.7 22.43-4.95v55.62c0 3.06-8.04 7.56-22.44 7.56-13.1 0-21.13-3.96-21.13-7.56v-7.38h-5.52v7.37c0 7.83 10.68 13.05 26.64 13.05 13.43 0 27.83-4.14 27.83-13.05v-63.1c.12-.17.12-.44.12-.7zm-92.04-7.65c12.73 0 21.13 3.97 21.13 7.66 0 3.7-8.4 7.65-21.12 7.65-13.9 0-22.55-4.4-22.55-7.64 0-3.15 8.64-7.65 22.56-7.65zm21.13 71.47c0 3.6-8.04 7.56-21.12 7.56-14.5 0-22.43-4.5-22.43-7.56v-12.5c5.4 3.32 14.28 4.94 22.68 4.94v-5.48c-14.04 0-22.56-4.4-22.56-7.65h-.13v-12.6c5.4 3.42 14.28 4.95 22.68 4.95v-5.5c-14.04 0-22.56-4.4-22.56-7.55h-.13v-14.22c5.4 3.24 13.92 4.95 22.44 4.95 9.13 0 16.45-1.7 21.13-4.68v15.03h5.4v-22.68c0-.27.12-.54.12-.8 0-7.84-10.68-13.15-26.64-13.15-13.9 0-27.95 4.5-27.95 13.14v63.82c0 8.9 14.52 13.05 27.96 13.05 15.85 0 26.53-5.22 26.53-13.05v-7.38h-5.4v7.37z" stroke="#000" stroke-opacity="0" fill="#c925d1"/><use xlink:href="#g" transform="matrix(1,0,0,1,343.2488846080615,1008.6243583063836) translate(45.689677734375 16.216875)"/><use xlink:href="#h" transform="matrix(1,0,0,1,343.2488846080615,1008.6243583063836) translate(38.137060546875 36.47162109375)"/><path d="M-139.83 642.18l.58-4.44c4.88 2.88 6.38 4.56 6.85 5.28-1.28.48-3.95.12-7.43-.84zm-48.6-16.44c0-.12.12-.24.35-.24l-.12.48c-.1-.12-.23-.12-.23-.24zm37.58 56.4v.36c0 .36-1.04 1.92-5.68 3.72-1.97.84-4.4 1.56-7.2 2.16-7.07 1.68-15.77 2.52-24.35 2.52-23.32 0-37.35-5.88-37.35-8.4v-.36L-236 604.5c.7.36 1.4.72 2.2 1.08.13.12.36.24.6.24.7.36 1.4.6 2.08.96.35.12.58.24.93.36.82.24 1.52.6 2.45.84.1 0 .34.12.58.24 1.04.24 2.2.6 3.24.84.35.12.58.24.93.24.93.24 1.74.48 2.67.72.35 0 .8.12 1.16.24 1.04.12 2.1.36 3.13.6.23 0 .35 0 .58.12 1.28.12 2.55.36 3.83.6.35 0 .8 0 1.16.12l3.02.36c.34 0 .8.12 1.16.12l3.72.36h.46l4.18.36h1.16c1.04.12 2.1.12 3.25.12.34 0 .8.12 1.16.12h8.46c.34 0 .8-.12 1.15-.12 1.16 0 2.2 0 3.25-.12h1.16l4.18-.36h.46l3.7-.36c.36 0 .83-.12 1.17-.12l3.14-.36c.35-.12.7-.12 1.05-.12 1.28-.24 2.55-.48 3.83-.6.23-.12.35-.12.58-.12l3.13-.72c.45 0 .8-.12 1.15-.12.93-.24 1.86-.48 2.67-.72.35 0 .58-.12.93-.24 1.04-.24 2.2-.6 3.24-.84.23-.12.34-.24.57-.24.93-.24 1.74-.6 2.44-.84.36-.12.6-.24.94-.36.7-.36 1.5-.6 2.1-.96.22 0 .45-.12.57-.24.82-.36 1.5-.72 2.2-1.08l-4.86 36.12c-9.98-3.12-24-8.88-37.24-15.12-.1-3-2.67-5.52-5.68-5.52-3.25 0-5.8 2.64-5.8 5.76 0 3.12 2.55 5.76 5.8 5.76 1.16 0 2.32-.48 3.25-1.08 11.94 5.64 27.02 12.36 38.86 15.72l-4.88 36zm-37.23-100.2c28.53 0 48.6 8.76 49.07 13.56l-.13.6c-.12.24-.12.36-.23.48-.12.24-.12.36-.23.48-.1.12-.34.36-.46.48-.1.12-.23.36-.46.48-.12.12-.47.36-.7.48-.1.24-.35.36-.58.48-.23.24-.58.36-.8.6-.24.12-.47.24-.82.36-.35.24-.7.36-1.05.6-.34.12-.58.24-.92.36-.46.24-.8.36-1.27.6-.35.12-.7.24-1.16.36-.46.24-.93.36-1.4.48-.46.24-.8.36-1.27.48-.46.12-1.04.36-1.62.48-.47.12-.93.24-1.4.48l-1.73.36-1.63.36c-.58.24-1.27.36-1.85.48-.58.12-1.16.24-1.86.36-.57.12-1.38.24-2.08.36-.58.12-1.16.24-1.85.24l-2.2.36c-.7.12-1.28.24-1.98.24-.82.12-1.63.24-2.45.24-.7.12-1.4.24-2.08.24-.93.12-1.86.12-2.8.24-.57 0-1.26.12-1.96.12-1.03.12-2.08.12-3.12.12-.7 0-1.16.12-1.86.12-1.62 0-3.36.12-5.1.12-1.86 0-3.6-.12-5.22-.12-.58 0-1.16-.12-1.74-.12-1.16 0-2.2 0-3.25-.12-.7 0-1.27-.12-1.96-.12-.93-.12-1.86-.12-2.8-.24-.68 0-1.26-.12-1.96-.24-.8 0-1.74-.12-2.55-.24-.58 0-1.16-.12-1.86-.24-.8-.12-1.62-.24-2.32-.36-.7 0-1.16-.12-1.74-.24-.8-.12-1.5-.24-2.2-.36l-1.73-.36c-.7-.12-1.28-.24-1.97-.48-.47-.12-1.05-.24-1.5-.36-.6-.12-1.3-.24-1.87-.36-.46-.24-.92-.36-1.4-.48-.57-.12-1.03-.24-1.6-.48-.48-.12-.82-.24-1.3-.36-.45-.24-.92-.36-1.38-.6-.46-.12-.8-.24-1.16-.36-.36-.24-.82-.36-1.3-.6-.33-.12-.57-.24-.9-.36-.36-.24-.7-.36-1.06-.6-.23-.12-.46-.24-.8-.36-.24-.24-.6-.36-.82-.6-.23-.12-.47-.24-.58-.48-.23-.12-.47-.36-.7-.48-.23-.12-.35-.36-.46-.48l-.47-.48c-.1-.12-.1-.24-.22-.48 0-.12-.1-.24-.23-.48v-.6c.35-4.8 20.42-13.56 49.07-13.56zm61.25 60.6c-.58-3.24-4.18-6.48-11.6-10.68l4.75-34.8.12-.96v-.36c0-11.4-28.77-19.32-54.52-19.32-25.87 0-54.64 7.92-54.64 19.32v.36l.12.96 11.6 85.56c.46 10.08 26.45 13.8 42.92 13.8 9.05 0 18.1-.96 25.63-2.64 3.02-.72 5.7-1.56 8-2.4 5.92-2.4 9.06-5.28 9.17-8.76l4.76-35.16c2.55.6 5 .84 6.96.84 2.67 0 4.64-.48 5.68-1.8.93-1.08 1.4-2.52 1.05-3.96zm-89.32.72l7.2-11.88 7.18 11.88h-14.38zm21.57 4.08c.47-.84.47-1.92 0-2.76l-12.06-19.92c-.93-1.68-3.7-1.68-4.76 0l-11.95 19.92c-.46.84-.58 1.92 0 2.76.47.84 1.4 1.32 2.32 1.32H-197c1.03 0 1.96-.48 2.42-1.32zm25.3 3.72c4.4 0 8 3.6 8 8.04 0 4.44-3.6 8.16-8 8.16-4.53 0-8.13-3.72-8.13-8.16 0-4.44 3.6-8.04 8.1-8.04zm0 21.6c7.4 0 13.56-6 13.56-13.56 0-7.44-6.15-13.44-13.57-13.44-7.53 0-13.56 6-13.56 13.44 0 7.56 6.03 13.56 13.57 13.56zm-41.54 3.96v-13.56h13.57v13.56h-13.57zm16.24-19.08h-18.9c-1.5 0-2.8 1.2-2.8 2.76v19.08c0 1.56 1.3 2.76 2.8 2.76h18.9c1.63 0 2.8-1.2 2.8-2.76V660.3c0-1.56-1.17-2.76-2.8-2.76z" stroke="#000" stroke-opacity="0" fill="#7aa116"/><use xlink:href="#i" transform="matrix(1,0,0,1,-272.71825190366695,705.4155963446184) translate(52.958798828125 16.589501953125)"/><path d="M76.13 894.62h120v120h-120v-120z" stroke="#fff" stroke-opacity="0" stroke-width="2" fill="#3b48cc"/><path d="M148.93 955.7c-.8 0-1.53-.6-1.6-1.43v-.46c-.25-2.05-1.05-2.83-2.73-4.4l-.48-.5c-2.24-2.17-4.88-3.2-8-3.2-4.96 0-10.56 2.14-11.2 8.1v.47c0 .9-.72 1.6-1.6 1.6-.88 0-1.6-.7-1.6-1.6-.16-2.35-1.12-3.26-2.96-5.1l-.24-.22c-2.24-2.14-4.88-3.2-8-3.2-6.08 0-10.48 3.08-11.2 7.86-.08.87-.88 1.53-1.76 1.45-.88-.08-1.52-.87-1.44-1.73.48-21.67 18.32-38.88 40-38.64 22.4 0 39.6 16.6 40 38.68v.16c0 .87-.7 1.57-1.6 1.57-.87 0-1.6-.7-1.6-1.58v-.12c0-1.32-1.27-2.63-3.2-4.5-2.23-2.13-4.87-3.2-8-3.2-4.88 0-10.8 2.26-11.2 8.52-.08.87-.72 1.53-1.6 1.53zm-38.4-13.2c4 0 7.35 1.35 10.15 4.1l.32.25c.8.74 1.44 1.44 2.08 2.27 2.24-4.08 6.96-6.5 13.04-6.5 4 0 7.36 1.35 10.24 4.07l.48.48c.72.66 1.28 1.28 1.92 2.02 2.25-4.08 6.97-6.63 12.97-6.63 4 0 7.36 1.36 10.24 4.12l.32.32c-3.2-17.1-17.78-29.2-36.18-29.2-17.2-.2-31.76 11.12-35.76 27.88 3.04-2.27 6.32-3.34 10.16-3.2z" stroke="#fff" stroke-opacity="0" stroke-width="2" fill="#fff"/><path d="M96.93 954.7l1.75-2.68 14.3 9.3-1.74 2.7-14.3-9.3z" stroke="#fff" stroke-opacity="0" stroke-width="1.09" fill="#fff"/><path d="M160.87 961.03l12.77-8.88 1.82 2.62-12.77 8.9-1.83-2.64z" stroke="#fff" stroke-opacity="0" stroke-width="1.64" fill="#fff"/><path d="M148.82 961.44l-3.1-.84 1.6-6.74v-1.6c0-20.3-5.85-34.5-11.2-34.5-5.33 0-11.18 14.2-11.18 34.55v1.5l1.58 6.75-3.08.84-1.6-6.9v-2.28c-.12-24.4 7.32-37.6 14.3-37.6 6.97 0 14.4 13.2 14.4 37.74v1.07c-.03.3-.03.47 0 .7v.48zM129.2 984.62l-5.87-5.78c-.35-.33-.5-.75-.5-1.24.05-.5.27-.88.66-1.17l6.6-5 1.93 2.56-5.12 3.83 4.6 4.46zM143.82 985.57L141.9 983l5.14-3.84-4.52-4.45 2.25-2.28 5.92 5.77c.62.6.64 1.62.02 2.25-.07.07-.12.12-.2.17z" stroke="#fff" stroke-opacity="0" stroke-width="2" fill="#fff"/><path d="M131.17 988.38l8.46-19.2 2.93 1.3-8.46 19.2-2.93-1.3z" stroke="#fff" stroke-opacity="0" stroke-width=".81" fill="#fff"/><path d="M156.93 994.62h-40c-.87 0-1.6-.73-1.6-1.6v-27.18c0-.9.73-1.62 1.6-1.62h40c.86 0 1.6.73 1.6 1.62V993c0 .9-.74 1.62-1.6 1.62zm-38.4-3.2h36.8v-24h-36.8z" stroke="#fff" stroke-opacity="0" stroke-width="2" fill="#fff"/><use xlink:href="#j" transform="matrix(1,0,0,1,46.12689807520633,1023.6243583063836) translate(64.88606770833333 21.52777777777778)"/><use xlink:href="#k" transform="matrix(1,0,0,1,46.12689807520633,1023.6243583063836) translate(25.25933159722223 48.415798611111114)"/><path d="M903.17 896.1l-6.4 3.2v90.63l6.4 3.2 25.32-46.67-25.33-50.35zM922.73 912.46l9.44-13.4 42.4 18.85-9.9 1.58-41.94-7.02zM915.4 977.74l10.4 14.32L974.58 971l-9.4-1.46-49.78 8.2z" fill="#9d5025"/><path d="M918.15 989.64l-14.96 3.5V896.1l14.95 3.4v90.14z" fill="#f58536"/><path d="M910.28 892.54l7.87-3.92 14.82 62.28-14.82 49.72-7.87-3.92V892.54zM964.63 969.45l9.94 1.54 9.1-25.38-9.1-27.7-9.94 1.6v49.93z" fill="#9d5025"/><path d="M933.46 996.26l-15.3 4.36v-112l15.3 4.37v103.26z" fill="#f58536"/><path d="M985 969.04l-66.85 12.44v19.13L985 981.74v-12.7zM985.13 919.9l-66.98-12.73v-18.55l66.98 19v12.3z" fill="#f58536"/><path d="M974.6 904.63l10.73 2.96v74.1l-10.74 2.98v-80.05z" fill="#f58536"/><path d="M1016.75 934.83L988 936.18l-10.17-.7 29.07-23.43 9.85 22.78z" fill="#6b3a19"/><path d="M977.83 935.5l29.07-1.65v-21.8l-29.07 4.7v18.74z" fill="#9d5025"/><path d="M950.47 933.64l29.46-29.68 14.98 28.7-30.52 1.93-13.9-.96z" fill="#6b3a19"/><path d="M950.47 933.66l29.46-2.5v-27.2l-29.46 6.9v22.8zM977.83 954.13l38.92.68-9.85 22.76-29.07-4.7v-18.73z" fill="#9d5025"/><path d="M950.47 955.97l44.44 1-14.97 28.7-29.46-6.9v-22.8z" fill="#9d5025"/><path d="M950.47 955.96l29.46 2.52 14.98-1.5-30.52-1.95-13.9.93zM1016.75 954.8L988 953.46l-10.17.67 29.07 1.66 9.85-1z" fill="#fbbf93"/><path d="M1006.9 933.84l9.85.97V915l-9.84-2.95v21.8zM994.9 932.65l-14.97-1.5v-27.2l14.97 4.5v24.2zM1006.9 955.78l9.85-.98v19.83l-9.84 2.93v-21.78zM994.9 957l-14.97 1.48v27.18l14.97-4.47V957z" fill="#f58536"/><use xlink:href="#l" transform="matrix(1,0,0,1,896.7657417246419,1000.6243583063836) translate(17.161458333333343 21.52777777777778)"/><use xlink:href="#m" transform="matrix(1,0,0,1,896.7657417246419,1000.6243583063836) translate(38.076171875 48.415798611111114)"/><path d="M-122.22 954.62H59.74" stroke="#3a414a" fill="none"/><path d="M-122.2 955.1h-.52v-.95h.52z" stroke="#3a414a" stroke-width=".05" fill="#3a414a"/><path d="M74.5 954.62l-14.26 4.64V950z" stroke="#3a414a" fill="#3a414a"/><path d="M196.63 954.62h160.24" stroke="#3a414a" fill="none"/><path d="M196.64 955.1h-.5v-.95h.5z" stroke="#3a414a" stroke-width=".05" fill="#3a414a"/><path d="M371.63 954.62l-14.26 4.64V950z" stroke="#3a414a" fill="#3a414a"/><path d="M493.75 954.62h386.63" stroke="#3a414a" fill="none"/><path d="M493.76 955.1h-.63v-.95h.63z" stroke="#3a414a" stroke-width=".05" fill="#3a414a"/><path d="M895.15 954.62l-14.27 4.64V950z" stroke="#3a414a" fill="#3a414a"/><path d="M-126.22 636.42H59.74" stroke="#3a414a" fill="none"/><path d="M-126.2 636.9h-3.52v-.96h3.52z" stroke="#3a414a" stroke-width=".05" fill="#3a414a"/><path d="M74.5 636.42l-14.26 4.63v-9.27z" stroke="#3a414a" fill="#3a414a"/><path d="M353.25 582.42a6 6 0 0 1 6-6h148a6 6 0 0 1 6 6v108a6 6 0 0 1-6 6h-148a6 6 0 0 1-6-6z" stroke="#3a414a" stroke-width="2" fill="#fff"/><use xlink:href="#n" transform="matrix(1,0,0,1,365.2488846080615,588.4155963446184) translate(18.67816840277778 57.52777777777778)"/><path d="M196.63 636.42h139.24" stroke="#3a414a" fill="none"/><path d="M196.64 636.9h-.5v-.96h.5z" stroke="#3a414a" stroke-width=".05" fill="#3a414a"/><path d="M350.63 636.42l-14.26 4.63v-9.27z" stroke="#3a414a" fill="#3a414a"/><path d="M514.75 636.42h436.02a6 6 0 0 1 6 6v48.36" stroke="#3a414a" fill="none"/><path d="M514.76 636.9h-.5v-.96h.5z" stroke="#3a414a" stroke-width=".05" fill="#3a414a"/><path d="M956.77 705.55l-4.64-14.27h9.27z" stroke="#3a414a" fill="#3a414a"/><path d="M76.13 576.42h120v120h-120v-120z" stroke="#fff" stroke-opacity="0" stroke-width="2" fill="#3b48cc"/><path d="M144.8 653.62l2.22-2.3-4.57-4.5 5.12-3.83-1.92-2.58-6.63 4.96-.2.17c-.6.63-.6 1.64.04 2.26zM162.6 648.17l-5.1 3.84 1.9 2.58 6.63-4.96c.4-.3.6-.7.65-1.2.02-.47-.14-.9-.5-1.24l-5.93-5.76-2.22 2.3z" stroke="#fff" stroke-opacity="0" stroke-width="2" fill="#fff"/><path d="M146.78 657.37l8.46-19.2 2.92 1.3-8.45 19.2-2.92-1.3z" stroke="#fff" stroke-opacity="0" stroke-width=".81" fill="#fff"/><path d="M177.54 609.62l-4.45-3.76-7.15-5.84-1.84-1.6c-.33-.32-.67-.4-1-.4h-59.38c0-.88-.67-1.6-1.6-1.6h-6.38c-.84 0-1.6.72-1.6 1.6v16c0 .88.76 1.6 1.6 1.6h6.38v59.2c0 .88.76 1.6 1.6 1.6h17.64c.83 0 1.6-.72 1.6-1.6v-62.4h28.8v11.76l-17.97 7.44h-1.27c-.93 0-1.6.72-1.6 1.6v28.8c0 .88.67 1.6 1.6 1.6h41.57c.92 0 1.6-.72 1.6-1.6v-28.8c0-.88-.68-1.6-1.6-1.6h-1.26l-17.9-7.44v-11.76h21.6c.67 0 1.25-.4 1.5-1.04.26-.64 0-1.36-.5-1.76zm-15.03-8.32l-8.22 7.44-9.9-7.52h18.13zm-41.14 8H108.6l7.88-6 7.8 5.92zm-15.2 32.72l13.6-12.08v24.16zm12.76 15.6L105.4 669.7v-24.16zm-13.52-19.2v-24.08l13.52 12.08zm13.7-37.2h19.98l-10 7.52zm22.66 2l7.9 6h-15.88zm-28.05-2l-9.98 7.6v-7.6zm-13.17 11.2h-3.2v-12.8h3.2v12.8zm5.62 60.8l13.6-12v12zm13.6-50.4l-11.83-10.4h11.84zm52.75 37.52h-38.38v-25.6h38.38zm-30.4-28.8l11.25-4.64 11.18 4.64zm16.38-22.4l6.47-5.84 7.22 5.92z" stroke="#fff" stroke-opacity="0" stroke-width="2" fill="#fff"/><g><use xlink:href="#o" transform="matrix(1,0,0,1,46.12689807520633,705.4155963446184) translate(7.675781250000014 21.52777777777778)"/><use xlink:href="#p" transform="matrix(1,0,0,1,46.12689807520633,705.4155963446184) translate(64.15364583333334 21.52777777777778)"/></g><defs><path d="M52 0l541-1490h220L1361 0h-200l-149-416H398L254 0H52zm404-582h497c-103-290-145-390-251-756-108 377-145 460-246 756" id="q"/><path d="M458 0L52-1490h194c108 439 233 855 324 1313 92-459 221-873 331-1313h216c110 438 234 854 330 1307 92-455 216-869 323-1307h196L1558 0h-221l-256-944c-26-95-50-200-73-331-22 122-44 223-73 331L680 0H458" id="r"/><path d="M657 26c-323 0-524-166-541-416h195c15 169 171 246 346 246 202 0 356-106 356-265 5-203-294-238-475-293-239-73-380-191-380-389 0-252 224-419 512-419 294 0 499 171 508 396H992c-17-145-151-228-328-228-193 0-321 102-321 242 0 156 175 211 284 241l149 41c160 44 422 134 422 412 0 244-197 432-541 432" id="s"/><g id="a"><use transform="matrix(0.008173828125000001,0,0,0.008173828125000001,0,0)" xlink:href="#q"/><use transform="matrix(0.008173828125000001,0,0,0.008173828125000001,10.601455078125001,0)" xlink:href="#r"/><use transform="matrix(0.008173828125000001,0,0,0.008173828125000001,27.096240234375003,0)" xlink:href="#s"/></g><path d="M613 24c-304 0-509-231-509-576 0-350 205-580 509-580 216 0 392 114 453 309l-173 49c-33-115-133-197-280-197-223 0-326 196-326 419 0 220 103 415 326 415 150 0 252-85 285-206l172 49C1010-95 832 24 613 24" id="t"/><path d="M613 24c-304 0-509-231-509-576 0-350 205-580 509-580 305 0 511 230 511 580 0 345-206 576-511 576zm0-161c226 0 329-195 329-415 0-222-103-419-329-419-223 0-326 196-326 419 0 220 103 415 326 415" id="u"/><path d="M537 14c-226 0-379-139-379-422v-710h180v695c0 172 97 275 253 275 160 0 281-109 281-300v-670h181V0H879v-209C806-46 684 14 537 14" id="v"/><path d="M338-670V0H158v-1118h173l1 207c72-158 192-221 342-221 226 0 378 139 378 422V0H872v-695c0-172-96-275-252-275-161 0-282 109-282 300" id="w"/><path d="M598-1118v154H368v674c0 100 37 144 132 144 23 0 62-6 92-12L629-6c-37 13-88 20-134 20-193 0-307-107-307-290v-688H20v-154h168v-266h180v266h230" id="x"/><g id="b"><use transform="matrix(0.008173828125000001,0,0,0.008173828125000001,0,0)" xlink:href="#q"/><use transform="matrix(0.008173828125000001,0,0,0.008173828125000001,11.549619140625001,0)" xlink:href="#t"/><use transform="matrix(0.008173828125000001,0,0,0.008173828125000001,21.112998046875003,0)" xlink:href="#t"/><use transform="matrix(0.008173828125000001,0,0,0.008173828125000001,30.676376953125004,0)" xlink:href="#u"/><use transform="matrix(0.008173828125000001,0,0,0.008173828125000001,40.71383789062501,0)" xlink:href="#v"/><use transform="matrix(0.008173828125000001,0,0,0.008173828125000001,50.61234375,0)" xlink:href="#w"/><use transform="matrix(0.008173828125000001,0,0,0.008173828125000001,60.502675781250005,0)" xlink:href="#x"/></g><path d="M180 0v-1490h510c348 0 508 209 508 474 0 266-160 477-507 477H370V0H180zm190-706h312c236 0 327-133 327-310 0-176-91-307-329-307H370v617" id="y"/><path d="M338-1490V0H158v-1490h180" id="z"/><path d="M471 26C259 26 90-98 90-318c0-256 228-303 435-329 202-27 287-16 287-108 0-139-79-219-234-219-161 0-248 86-283 164l-173-57c86-203 278-265 451-265 150 0 419 46 419 395V0H815v-152h-12C765-73 660 26 471 26zm31-159c199 0 310-134 310-271v-155c-30 35-226 55-295 64-131 17-246 59-246 186 0 116 97 176 231 176" id="A"/><path d="M678-1118v154H420V0H240v-964H20v-154h220v-149c0-194 155-293 318-293 85 0 141 18 168 30l-50 154c-19-6-47-17-97-17-111 0-159 58-159 166v109h258" id="B"/><path d="M158 0v-1118h174v172h12c41-113 157-188 290-188 26 0 70 2 91 3v181c-11-2-60-10-108-10-161 0-279 109-279 260V0H158" id="C"/><path d="M158 0v-1118h175l1 205c55-151 181-225 313-225 147 0 245 90 285 228 53-141 190-228 352-228 194 0 352 125 352 384V0h-181v-749c0-161-105-225-225-225-151 0-243 103-243 244V0H807v-767c0-124-93-207-219-207-131 0-250 92-250 270V0H158" id="D"/><g id="c"><use transform="matrix(0.010850694444444444,0,0,0.010850694444444444,0,0)" xlink:href="#y"/><use transform="matrix(0.010850694444444444,0,0,0.010850694444444444,14.192708333333332,0)" xlink:href="#z"/><use transform="matrix(0.010850694444444444,0,0,0.010850694444444444,19.57465277777778,0)" xlink:href="#A"/><use transform="matrix(0.010850694444444444,0,0,0.010850694444444444,32.052951388888886,0)" xlink:href="#x"/><use transform="matrix(0.010850694444444444,0,0,0.010850694444444444,38.78038194444444,0)" xlink:href="#B"/><use transform="matrix(0.010850694444444444,0,0,0.010850694444444444,46.35416666666667,0)" xlink:href="#u"/><use transform="matrix(0.010850694444444444,0,0,0.010850694444444444,59.67881944444445,0)" xlink:href="#C"/><use transform="matrix(0.010850694444444444,0,0,0.010850694444444444,68.39192708333334,0)" xlink:href="#D"/></g><path d="M370-1490V0H180v-1490h190" id="E"/><g id="d"><use transform="matrix(0.010850694444444444,0,0,0.010850694444444444,0,0)" xlink:href="#E"/><use transform="matrix(0.010850694444444444,0,0,0.010850694444444444,5.967881944444445,0)" xlink:href="#w"/><use transform="matrix(0.010850694444444444,0,0,0.010850694444444444,19.09722222222222,0)" xlink:href="#B"/><use transform="matrix(0.010850694444444444,0,0,0.010850694444444444,27.32204861111111,0)" xlink:href="#C"/><use transform="matrix(0.010850694444444444,0,0,0.010850694444444444,35.68793402777778,0)" xlink:href="#A"/></g><path d="M783 20c-382 0-661-292-661-764 0-473 279-766 661-766 302 0 548 182 601 489h-190c-42-204-217-313-411-313-268 0-476 208-476 590 0 381 209 588 476 588 195 0 369-110 411-313h190c-52 303-296 489-601 489" id="F"/><path d="M158 0v-1118h180V0H158zm91-1301c-68 0-125-53-125-119s57-119 125-119c69 0 126 53 126 119s-57 119-126 119" id="G"/><path d="M628 24c-324 0-524-230-524-574 0-343 198-582 503-582 237 0 487 146 487 559v75H286c9 234 145 362 343 362 132 0 231-58 273-172l174 48C1024-91 857 24 628 24zM287-650h624c-17-190-120-322-304-322-192 0-309 151-320 322" id="H"/><g id="e"><use transform="matrix(0.010850694444444444,0,0,0.010850694444444444,0,0)" xlink:href="#F"/><use transform="matrix(0.010850694444444444,0,0,0.010850694444444444,16.23263888888889,0)" xlink:href="#u"/><use transform="matrix(0.010850694444444444,0,0,0.010850694444444444,29.557291666666664,0)" xlink:href="#w"/><use transform="matrix(0.010850694444444444,0,0,0.010850694444444444,42.68663194444444,0)" xlink:href="#x"/><use transform="matrix(0.010850694444444444,0,0,0.010850694444444444,50.065104166666664,0)" xlink:href="#A"/><use transform="matrix(0.010850694444444444,0,0,0.010850694444444444,62.54340277777778,0)" xlink:href="#G"/><use transform="matrix(0.010850694444444444,0,0,0.010850694444444444,67.92534722222221,0)" xlink:href="#w"/><use transform="matrix(0.010850694444444444,0,0,0.010850694444444444,81.05468749999999,0)" xlink:href="#H"/><use transform="matrix(0.010850694444444444,0,0,0.010850694444444444,94.01041666666666,0)" xlink:href="#C"/></g><path d="M180 0v-1490h510c348 0 508 194 508 460 0 198-88 351-276 417L1256 0h-220L726-579c-117 2-238 0-356 1V0H180zm190-747h312c235 0 327-108 327-283 0-177-92-293-329-293H370v576" id="I"/><path d="M611 442c-248 0-391-105-460-228l146-94c47 65 117 165 314 165 178 0 307-82 307-266v-224h-17C863-141 792-18 576-18c-268 0-472-195-472-546 0-346 197-568 476-568 216 0 288 133 326 193h17v-179h175V29c0 289-215 413-487 413zm-5-620c203 0 314-146 314-390 0-237-108-403-314-403-213 0-319 180-319 403 0 230 109 390 319 390" id="J"/><path d="M538 24C308 24 148-78 108-271l171-41c32 123 123 178 257 178 156 0 256-77 256-169 0-77-54-128-164-154l-186-44c-203-48-300-148-300-305 0-192 176-326 414-326 230 0 351 112 402 269l-163 42c-31-80-94-158-238-158-133 0-233 69-233 162 0 83 57 129 188 160l169 40c203 48 298 149 298 302 0 196-179 339-441 339" id="K"/><path d="M140 405l46-156c120 36 205 19 263-150l32-93L54-1118h197c107 313 237 620 324 950 87-331 219-637 326-950h196L606 167c-68 178-176 259-334 259-64 0-113-12-132-21" id="L"/><g id="f"><use transform="matrix(0.010850694444444444,0,0,0.010850694444444444,0,0)" xlink:href="#I"/><use transform="matrix(0.010850694444444444,0,0,0.010850694444444444,13.975694444444445,0)" xlink:href="#H"/><use transform="matrix(0.010850694444444444,0,0,0.010850694444444444,26.931423611111104,0)" xlink:href="#J"/><use transform="matrix(0.010850694444444444,0,0,0.010850694444444444,40.55989583333333,0)" xlink:href="#G"/><use transform="matrix(0.010850694444444444,0,0,0.010850694444444444,45.94184027777778,0)" xlink:href="#K"/><use transform="matrix(0.010850694444444444,0,0,0.010850694444444444,57.67144097222221,0)" xlink:href="#x"/><use transform="matrix(0.010850694444444444,0,0,0.010850694444444444,64.94140624999999,0)" xlink:href="#C"/><use transform="matrix(0.010850694444444444,0,0,0.010850694444444444,73.65451388888889,0)" xlink:href="#L"/></g><path d="M180 0v-1490h528c311 0 458 177 458 395 0 191-114 278-244 313v14c139 9 302 137 302 371 0 225-148 397-499 397H180zm190-168h350c232 0 321-102 321-231 0-149-120-277-311-277H370v508zm0-668h328c160 0 286-101 286-255 0-129-87-231-280-231H370v486" id="M"/><path d="M692-1560L212 224H46l480-1784h166" id="N"/><path d="M789 20c-398 0-667-293-667-764 0-473 273-766 655-766 315 0 558 198 612 487h-196c-61-191-204-311-415-311-262 0-471 207-471 590 0 380 208 588 482 588 249 0 420-165 425-427H828v-166h572v163c0 370-256 606-611 606" id="O"/><g id="g"><use transform="matrix(0.008173828125000001,0,0,0.008173828125000001,0,0)" xlink:href="#M"/><use transform="matrix(0.008173828125000001,0,0,0.008173828125000001,10.952929687500001,0)" xlink:href="#z"/><use transform="matrix(0.008173828125000001,0,0,0.008173828125000001,15.007148437500001,0)" xlink:href="#v"/><use transform="matrix(0.008173828125000001,0,0,0.008173828125000001,24.905654296875003,0)" xlink:href="#H"/><use transform="matrix(0.008173828125000001,0,0,0.008173828125000001,34.665205078125005,0)" xlink:href="#N"/><use transform="matrix(0.008173828125000001,0,0,0.008173828125000001,40.697490234375,0)" xlink:href="#O"/><use transform="matrix(0.008173828125000001,0,0,0.008173828125000001,53.187099609375004,0)" xlink:href="#C"/><use transform="matrix(0.008173828125000001,0,0,0.008173828125000001,59.2112109375,0)" xlink:href="#H"/><use transform="matrix(0.008173828125000001,0,0,0.008173828125000001,68.97076171875,0)" xlink:href="#H"/><use transform="matrix(0.008173828125000001,0,0,0.008173828125000001,78.7303125,0)" xlink:href="#w"/></g><path d="M645 0H180v-1490h484c435 0 692 280 692 742 0 466-257 748-711 748zM370-168h263c363 0 539-218 539-580 0-358-176-574-521-574H370v1154" id="P"/><path d="M158 418v-1536h174v179h20c37-59 106-193 324-193 279 0 474 222 474 576 0 356-194 580-473 580-213 0-288-135-325-197h-14v591H158zm492-555c209 0 317-186 317-421 0-232-105-413-317-413-206 0-314 166-314 413 0 249 111 421 314 421" id="Q"/><g id="h"><use transform="matrix(0.008173828125000001,0,0,0.008173828125000001,0,0)" xlink:href="#P"/><use transform="matrix(0.008173828125000001,0,0,0.008173828125000001,12.08091796875,0)" xlink:href="#H"/><use transform="matrix(0.008173828125000001,0,0,0.008173828125000001,21.84046875,0)" xlink:href="#Q"/><use transform="matrix(0.008173828125000001,0,0,0.008173828125000001,32.09044921875,0)" xlink:href="#z"/><use transform="matrix(0.008173828125000001,0,0,0.008173828125000001,36.14466796875,0)" xlink:href="#u"/><use transform="matrix(0.008173828125000001,0,0,0.008173828125000001,45.85517578125,0)" xlink:href="#L"/><use transform="matrix(0.008173828125000001,0,0,0.008173828125000001,55.263251953125,0)" xlink:href="#D"/><use transform="matrix(0.008173828125000001,0,0,0.008173828125000001,69.927099609375,0)" xlink:href="#H"/><use transform="matrix(0.008173828125000001,0,0,0.008173828125000001,79.686650390625,0)" xlink:href="#w"/><use transform="matrix(0.008173828125000001,0,0,0.008173828125000001,89.576982421875,0)" xlink:href="#x"/><use transform="matrix(0.008173828125000001,0,0,0.008173828125000001,94.889970703125,0)" xlink:href="#K"/></g><g id="i"><use transform="matrix(0.008173828125000001,0,0,0.008173828125000001,0,0)" xlink:href="#A"/><use transform="matrix(0.008173828125000001,0,0,0.008173828125000001,9.399902343750002,0)" xlink:href="#C"/><use transform="matrix(0.008173828125000001,0,0,0.008173828125000001,15.963486328125002,0)" xlink:href="#x"/><use transform="matrix(0.008173828125000001,0,0,0.008173828125000001,21.276474609375004,0)" xlink:href="#H"/><use transform="matrix(0.008173828125000001,0,0,0.008173828125000001,31.036025390625007,0)" xlink:href="#B"/><use transform="matrix(0.008173828125000001,0,0,0.008173828125000001,36.97022460937501,0)" xlink:href="#A"/><use transform="matrix(0.008173828125000001,0,0,0.008173828125000001,46.370126953125,0)" xlink:href="#t"/><use transform="matrix(0.008173828125000001,0,0,0.008173828125000001,55.93350585937502,0)" xlink:href="#x"/><use transform="matrix(0.008173828125000001,0,0,0.008173828125000001,61.24649414062501,0)" xlink:href="#K"/></g><g id="j"><use transform="matrix(0.010850694444444444,0,0,0.010850694444444444,0,0)" xlink:href="#q"/><use transform="matrix(0.010850694444444444,0,0,0.010850694444444444,14.073350694444445,0)" xlink:href="#r"/><use transform="matrix(0.010850694444444444,0,0,0.010850694444444444,35.970052083333336,0)" xlink:href="#s"/></g><path d="M577 24c-279 0-473-224-473-580 0-354 195-576 474-576 218 0 287 134 324 193h14v-551h180V0H922v-173h-20C865-111 790 24 577 24zm27-161c203 0 314-172 314-421 0-247-108-413-314-413-212 0-317 181-317 413 0 235 108 421 317 421" id="R"/><g id="k"><use transform="matrix(0.010850694444444444,0,0,0.010850694444444444,0,0)" xlink:href="#F"/><use transform="matrix(0.010850694444444444,0,0,0.010850694444444444,16.23263888888889,0)" xlink:href="#u"/><use transform="matrix(0.010850694444444444,0,0,0.010850694444444444,29.557291666666664,0)" xlink:href="#R"/><use transform="matrix(0.010850694444444444,0,0,0.010850694444444444,43.1640625,0)" xlink:href="#H"/><use transform="matrix(0.010850694444444444,0,0,0.010850694444444444,56.119791666666664,0)" xlink:href="#P"/><use transform="matrix(0.010850694444444444,0,0,0.010850694444444444,72.15711805555556,0)" xlink:href="#H"/><use transform="matrix(0.010850694444444444,0,0,0.010850694444444444,85.11284722222223,0)" xlink:href="#Q"/><use transform="matrix(0.010850694444444444,0,0,0.010850694444444444,98.71961805555556,0)" xlink:href="#z"/><use transform="matrix(0.010850694444444444,0,0,0.010850694444444444,104.1015625,0)" xlink:href="#u"/><use transform="matrix(0.010850694444444444,0,0,0.010850694444444444,116.9921875,0)" xlink:href="#L"/></g><path d="M126 0v-134l627-806v-11H146v-167h839v143L376-178v11h629V0H126" id="S"/><g id="l"><use transform="matrix(0.010850694444444444,0,0,0.010850694444444444,0,0)" xlink:href="#q"/><use transform="matrix(0.010850694444444444,0,0,0.010850694444444444,15.33203125,0)" xlink:href="#D"/><use transform="matrix(0.010850694444444444,0,0,0.010850694444444444,34.79817708333333,0)" xlink:href="#A"/><use transform="matrix(0.010850694444444444,0,0,0.010850694444444444,47.27647569444444,0)" xlink:href="#S"/><use transform="matrix(0.010850694444444444,0,0,0.010850694444444444,59.22309027777778,0)" xlink:href="#u"/><use transform="matrix(0.010850694444444444,0,0,0.010850694444444444,72.54774305555554,0)" xlink:href="#w"/></g><path d="M180 0v-1490h908v168H370v486h669v168H370v500h727V0H180" id="T"/><g id="m"><use transform="matrix(0.010850694444444444,0,0,0.010850694444444444,0,0)" xlink:href="#T"/><use transform="matrix(0.010850694444444444,0,0,0.010850694444444444,13.35720486111111,0)" xlink:href="#F"/><use transform="matrix(0.010850694444444444,0,0,0.010850694444444444,29.58984375,0)" xlink:href="#s"/></g><g id="n"><use transform="matrix(0.010850694444444444,0,0,0.010850694444444444,0,0)" xlink:href="#x"/><use transform="matrix(0.010850694444444444,0,0,0.010850694444444444,7.052951388888888,0)" xlink:href="#H"/><use transform="matrix(0.010850694444444444,0,0,0.010850694444444444,20.008680555555554,0)" xlink:href="#C"/><use transform="matrix(0.010850694444444444,0,0,0.010850694444444444,28.721788194444443,0)" xlink:href="#C"/><use transform="matrix(0.010850694444444444,0,0,0.010850694444444444,37.08767361111111,0)" xlink:href="#A"/><use transform="matrix(0.010850694444444444,0,0,0.010850694444444444,49.56597222222221,0)" xlink:href="#B"/><use transform="matrix(0.010850694444444444,0,0,0.010850694444444444,57.13975694444444,0)" xlink:href="#u"/><use transform="matrix(0.010850694444444444,0,0,0.010850694444444444,70.46440972222221,0)" xlink:href="#C"/><use transform="matrix(0.010850694444444444,0,0,0.010850694444444444,79.17751736111111,0)" xlink:href="#D"/></g><g id="o"><use transform="matrix(0.010850694444444444,0,0,0.010850694444444444,0,0)" xlink:href="#q"/><use transform="matrix(0.010850694444444444,0,0,0.010850694444444444,14.073350694444445,0)" xlink:href="#r"/><use transform="matrix(0.010850694444444444,0,0,0.010850694444444444,35.970052083333336,0)" xlink:href="#s"/></g><g id="p"><use transform="matrix(0.010850694444444444,0,0,0.010850694444444444,0,0)" xlink:href="#F"/><use transform="matrix(0.010850694444444444,0,0,0.010850694444444444,16.23263888888889,0)" xlink:href="#u"/><use transform="matrix(0.010850694444444444,0,0,0.010850694444444444,29.557291666666664,0)" xlink:href="#R"/><use transform="matrix(0.010850694444444444,0,0,0.010850694444444444,43.1640625,0)" xlink:href="#H"/><use transform="matrix(0.010850694444444444,0,0,0.010850694444444444,56.119791666666664,0)" xlink:href="#M"/><use transform="matrix(0.010850694444444444,0,0,0.010850694444444444,70.65972222222221,0)" xlink:href="#v"/><use transform="matrix(0.010850694444444444,0,0,0.010850694444444444,83.79991319444443,0)" xlink:href="#G"/><use transform="matrix(0.010850694444444444,0,0,0.010850694444444444,89.18185763888887,0)" xlink:href="#z"/><use transform="matrix(0.010850694444444444,0,0,0.010850694444444444,94.56380208333331,0)" xlink:href="#R"/></g></defs></g></svg>