<svg xmlns="http://www.w3.org/2000/svg" xmlns:xlink="http://www.w3.org/1999/xlink" xmlns:lucid="lucid" width="1114.78" height="608.87"><g transform="translate(279.94795873494263 -189.21089189359913)" lucid:page-tab-id="0_0"><path d="M-500 0h1500v1000H-500z" fill="#fff"/><path d="M376.15 476.67h21.98" stroke="#3a414a" fill="none"/><path d="M376.16 477.14h-.57l.05-.47-.06-.48h.56zM398.63 476.67l.06.47h-.58v-.95h.57z" stroke="#3a414a" stroke-width=".05" fill="#3a414a"/><path d="M634.48 476.67h22" stroke="#3a414a" fill="none"/><path d="M634.5 477.14h-.58l.06-.47-.06-.48h.58zM656.97 476.67l.06.47h-.58v-.95h.58z" stroke="#3a414a" stroke-width=".05" fill="#3a414a"/><path d="M686.15 476.67h21.98" stroke="#3a414a" fill="none"/><path d="M686.16 477.14h-.57l.05-.47-.06-.48h.56zM708.63 476.67l.07.47h-.58v-.95h.58z" stroke="#3a414a" stroke-width=".05" fill="#3a414a"/><path d="M272.82 476.67h21.98" stroke="#3a414a" fill="none"/><path d="M272.83 477.14h-.58l.07-.47-.07-.48h.58zM295.3 476.67l.06.47h-.57v-.95h.56zM770.4 477.14h-32.58v-.95h32.6zm47.55 0h-16.7v-.95h16.7z" stroke="#3a414a" stroke-width=".05" fill="#3a414a"/><path d="M737.83 477.14h-.58l.07-.47-.07-.48h.58z" fill="#3a414a"/><path stroke="#3a414a" stroke-width=".05" fill="#3a414a"/><path d="M832.7 476.67l-14.25 4.63v-9.27z" fill="#3a414a"/><path d="M834.25 476.67l-16.28 5.3v-10.6zm-15.33 3.98l12.26-3.98-12.26-4z" stroke="#3a414a" stroke-width=".05" fill="#3a414a"/><use xlink:href="#a" transform="matrix(1,0,0,1,770.4117191626306,465.91145833333337) translate(0 17.22222222222222)"/><use xlink:href="#b" transform="matrix(1,0,0,1,770.4117191626306,465.91145833333337) translate(10.72048611111111 17.22222222222222)"/><use xlink:href="#c" transform="matrix(1,0,0,1,770.4117191626306,465.91145833333337) translate(20.868055555555557 17.22222222222222)"/><path d="M324.48 476.67h22" stroke="#3a414a" fill="none"/><path d="M324.5 477.14h-.58l.06-.47-.06-.48h.58zM346.97 476.67l.06.47h-.58v-.95h.58z" stroke="#3a414a" stroke-width=".05" fill="#3a414a"/><path d="M427.82 476.67h21.98" stroke="#3a414a" fill="none"/><path d="M427.83 477.14h-.58l.07-.47-.07-.48h.58zM450.3 476.67l.06.47h-.57v-.95h.56z" stroke="#3a414a" stroke-width=".05" fill="#3a414a"/><path d="M479.48 476.67h22" stroke="#3a414a" fill="none"/><path d="M479.5 477.14h-.58l.06-.47-.06-.48h.58zM501.97 476.67l.06.47h-.58v-.95h.58z" stroke="#3a414a" stroke-width=".05" fill="#3a414a"/><path d="M531.15 476.67h21.98" stroke="#3a414a" fill="none"/><path d="M531.16 477.14h-.57l.05-.47-.06-.48h.56zM553.63 476.67l.07.47h-.58v-.95h.58z" stroke="#3a414a" stroke-width=".05" fill="#3a414a"/><path d="M582.82 476.67h21.98" stroke="#3a414a" fill="none"/><path d="M582.83 477.14h-.58l.07-.47-.07-.48h.58zM605.3 476.67l.06.47h-.57v-.95h.56z" stroke="#3a414a" stroke-width=".05" fill="#3a414a"/><path d="M310 326a6 6 0 0 1 6-6h40a6 6 0 0 1 6 6v108a6 6 0 0 1-6 6h-40a6 6 0 0 1-6-6z" stroke="#3a414a" stroke-width="2" fill="#fff"/><use xlink:href="#d" transform="matrix(1,0,0,1,322.0000000000002,332) translate(5.407118055555555 57.52777777777778)"/><path d="M154 326a6 6 0 0 1 6-6h40a6 6 0 0 1 6 6v108a6 6 0 0 1-6 6h-40a6 6 0 0 1-6-6z" stroke="#3a414a" stroke-width="2" fill="#fff"/><use xlink:href="#e" transform="matrix(1,0,0,1,165.99999999999997,332) translate(4.766927083333334 57.52777777777778)"/><path d="M206 326a6 6 0 0 1 6-6h40a6 6 0 0 1 6 6v108a6 6 0 0 1-6 6h-40a6 6 0 0 1-6-6z" stroke="#3a414a" stroke-width="2" fill="#fff"/><use xlink:href="#e" transform="matrix(1,0,0,1,218.00000000000014,332) translate(4.766927083333334 57.52777777777778)"/><path d="M258 326a6 6 0 0 1 6-6h40a6 6 0 0 1 6 6v108a6 6 0 0 1-6 6h-40a6 6 0 0 1-6-6z" stroke="#3a414a" stroke-width="2" fill="#fff"/><use xlink:href="#d" transform="matrix(1,0,0,1,270.0000000000001,332) translate(5.407118055555555 57.52777777777778)"/><path d="M362 526a6 6 0 0 1 6-6h40a6 6 0 0 1 6 6v108a6 6 0 0 1-6 6h-40a6 6 0 0 1-6-6z" stroke="#3a414a" stroke-width="2" fill="#fff"/><use xlink:href="#e" transform="matrix(1,0,0,1,374.0000000000002,532) translate(4.766927083333334 57.52777777777778)"/><path d="M154 526a6 6 0 0 1 6-6h40a6 6 0 0 1 6 6v108a6 6 0 0 1-6 6h-40a6 6 0 0 1-6-6z" stroke="#3a414a" stroke-width="2" fill="#fff"/><use xlink:href="#e" transform="matrix(1,0,0,1,165.99999999999997,532) translate(4.766927083333334 57.52777777777778)"/><path d="M206 526a6 6 0 0 1 6-6h40a6 6 0 0 1 6 6v108a6 6 0 0 1-6 6h-40a6 6 0 0 1-6-6z" stroke="#3a414a" stroke-width="2" fill="#fff"/><use xlink:href="#f" transform="matrix(1,0,0,1,218.00000000000014,532) translate(7.696614583333334 57.52777777777778)"/><path d="M258 526a6 6 0 0 1 6-6h40a6 6 0 0 1 6 6v108a6 6 0 0 1-6 6h-40a6 6 0 0 1-6-6z" stroke="#3a414a" stroke-width="2" fill="#fff"/><use xlink:href="#e" transform="matrix(1,0,0,1,270.0000000000001,532) translate(4.766927083333334 57.52777777777778)"/><path d="M414 526a6 6 0 0 1 6-6h40a6 6 0 0 1 6 6v108a6 6 0 0 1-6 6h-40a6 6 0 0 1-6-6z" stroke="#3a414a" stroke-width="2" fill="#fff"/><use xlink:href="#d" transform="matrix(1,0,0,1,426.0000000000002,532) translate(5.407118055555555 57.52777777777778)"/><path d="M362 326a6 6 0 0 1 6-6h40a6 6 0 0 1 6 6v108a6 6 0 0 1-6 6h-40a6 6 0 0 1-6-6z" stroke="#3a414a" stroke-width="2" fill="#fff"/><use xlink:href="#f" transform="matrix(1,0,0,1,374.0000000000002,332) translate(7.696614583333334 57.52777777777778)"/><path d="M414 326a6 6 0 0 1 6-6h40a6 6 0 0 1 6 6v108a6 6 0 0 1-6 6h-40a6 6 0 0 1-6-6z" stroke="#3a414a" stroke-width="2" fill="#fff"/><use xlink:href="#e" transform="matrix(1,0,0,1,426.00000000000034,332) translate(4.766927083333334 57.52777777777778)"/><path d="M466 326a6 6 0 0 1 6-6h40a6 6 0 0 1 6 6v108a6 6 0 0 1-6 6h-40a6 6 0 0 1-6-6z" stroke="#3a414a" stroke-width="2" fill="#fff"/><use xlink:href="#e" transform="matrix(1,0,0,1,478.00000000000045,332) translate(4.766927083333334 57.52777777777778)"/><path d="M518 326a6 6 0 0 1 6-6h40a6 6 0 0 1 6 6v108a6 6 0 0 1-6 6h-40a6 6 0 0 1-6-6z" stroke="#3a414a" stroke-width="2" fill="#fff"/><use xlink:href="#e" transform="matrix(1,0,0,1,530.0000000000005,332) translate(4.766927083333334 57.52777777777778)"/><path d="M310 526a6 6 0 0 1 6-6h40a6 6 0 0 1 6 6v108a6 6 0 0 1-6 6h-40a6 6 0 0 1-6-6z" stroke="#3a414a" stroke-width="2" fill="#fff"/><use xlink:href="#f" transform="matrix(1,0,0,1,322.0000000000002,532) translate(7.696614583333334 57.52777777777778)"/><path d="M466 526a6 6 0 0 1 6-6h40a6 6 0 0 1 6 6v108a6 6 0 0 1-6 6h-40a6 6 0 0 1-6-6z" stroke="#3a414a" stroke-width="2" fill="#fff"/><use xlink:href="#d" transform="matrix(1,0,0,1,478.0000000000002,532) translate(5.407118055555555 57.52777777777778)"/><path d="M518 526a6 6 0 0 1 6-6h40a6 6 0 0 1 6 6v108a6 6 0 0 1-6 6h-40a6 6 0 0 1-6-6z" stroke="#3a414a" stroke-width="2" fill="#fff"/><use xlink:href="#d" transform="matrix(1,0,0,1,530.0000000000002,532) translate(5.407118055555555 57.52777777777778)"/><path d="M570 526a6 6 0 0 1 6-6h40a6 6 0 0 1 6 6v108a6 6 0 0 1-6 6h-40a6 6 0 0 1-6-6z" stroke="#3a414a" stroke-width="2" fill="#fff"/><use xlink:href="#d" transform="matrix(1,0,0,1,582.0000000000002,532) translate(5.407118055555555 57.52777777777778)"/><path d="M-279.95 446a6 6 0 0 1 6-6h427.5a6 6 0 0 1 6 6v49.98a6 6 0 0 1-6 6h-427.5a6 6 0 0 1-6-6z" fill="none"/><use xlink:href="#g" transform="matrix(1,0,0,1,-279.94795873494263,440) translate(73.61870659722223 39.083767361111114)"/><use xlink:href="#h" transform="matrix(1,0,0,1,-279.94795873494263,440) translate(140.41558159722223 39.083767361111114)"/><use xlink:href="#i" transform="matrix(1,0,0,1,-279.94795873494263,440) translate(193.84440104166666 39.083767361111114)"/><use xlink:href="#j" transform="matrix(1,0,0,1,-279.94795873494263,440) translate(252.10177951388889 39.083767361111114)"/><use xlink:href="#k" transform="matrix(1,0,0,1,-279.94795873494263,440) translate(310.4134114583333 39.083767361111114)"/><path d="M4.64 556a6 6 0 0 1 6-6h228a6 6 0 0 1 6 6v48a6 6 0 0 1-6 6h-228a6 6 0 0 1-6-6z" fill="none"/><use xlink:href="#l" transform="matrix(1,0,0,1,4.64093853948242,550) translate(112.73003472222223 38.083767361111114)"/><path d="M5.3 356a6 6 0 0 1 6-6h228a6 6 0 0 1 6 6v48a6 6 0 0 1-6 6h-228a6 6 0 0 1-6-6z" fill="none"/><use xlink:href="#m" transform="matrix(1,0,0,1,5.307605206148992,350) translate(111.50390625 38.083767361111114)"/><path d="M271.3 476.67c0 7.36-5.96 13.33-13.33 13.33-7.36 0-13.33-5.97-13.33-13.33 0-7.37 5.97-13.34 13.33-13.34 7.37 0 13.34 5.97 13.34 13.34z" stroke="#3a414a" stroke-width="2" fill="#fff"/><use xlink:href="#n" transform="matrix(1,0,0,1,249.64093853948242,468.33333333333337) translate(3.0789930555555554 17.22222222222222)"/><path d="M322.97 476.67c0 7.36-5.97 13.33-13.33 13.33s-13.33-5.97-13.33-13.33c0-7.37 5.98-13.34 13.34-13.34 7.37 0 13.33 5.97 13.33 13.34z" stroke="#3a414a" stroke-width="2" fill="#fff"/><use xlink:href="#o" transform="matrix(1,0,0,1,301.30760520614905,468.33333333333337) translate(3.0095486111111107 17.22222222222222)"/><path d="M374.64 476.67c0 7.36-5.97 13.33-13.33 13.33s-13.33-5.97-13.33-13.33c0-7.37 5.97-13.34 13.34-13.34s13.34 5.97 13.34 13.34z" stroke="#3a414a" stroke-width="2" fill="#fff"/><use xlink:href="#p" transform="matrix(1,0,0,1,352.9742718728157,468.33333333333337) translate(2.7578125 17.22222222222222)"/><path d="M426.3 476.67c0 7.36-5.96 13.33-13.33 13.33-7.36 0-13.33-5.97-13.33-13.33 0-7.37 5.97-13.34 13.33-13.34 7.37 0 13.34 5.97 13.34 13.34z" stroke="#3a414a" stroke-width="2" fill="#fff"/><use xlink:href="#q" transform="matrix(1,0,0,1,404.6409385394823,468.33333333333337) translate(3.096354166666666 17.22222222222222)"/><path d="M477.97 476.67c0 7.36-5.97 13.33-13.33 13.33s-13.33-5.97-13.33-13.33c0-7.37 5.98-13.34 13.34-13.34 7.37 0 13.33 5.97 13.33 13.34z" stroke="#3a414a" stroke-width="2" fill="#fff"/><use xlink:href="#r" transform="matrix(1,0,0,1,456.30760520614893,468.33333333333337) translate(2.9878472222222223 17.22222222222222)"/><path d="M529.64 476.67c0 7.36-5.97 13.33-13.33 13.33s-13.33-5.97-13.33-13.33c0-7.37 5.97-13.34 13.34-13.34s13.34 5.97 13.34 13.34z" stroke="#3a414a" stroke-width="2" fill="#fff"/><use xlink:href="#s" transform="matrix(1,0,0,1,507.97427187281556,468.33333333333337) translate(3.4696180555555554 17.22222222222222)"/><path d="M581.3 476.67c0 7.36-5.96 13.33-13.33 13.33-7.36 0-13.33-5.97-13.33-13.33 0-7.37 5.97-13.34 13.33-13.34 7.37 0 13.34 5.97 13.34 13.34z" stroke="#3a414a" stroke-width="2" fill="#fff"/><use xlink:href="#t" transform="matrix(1,0,0,1,559.6409385394822,468.33333333333337) translate(3.0008680555555554 17.22222222222222)"/><path d="M632.97 476.67c0 7.36-5.97 13.33-13.33 13.33s-13.33-5.97-13.33-13.33c0-7.37 5.98-13.34 13.34-13.34 7.37 0 13.33 5.97 13.33 13.34z" stroke="#3a414a" stroke-width="2" fill="#fff"/><use xlink:href="#u" transform="matrix(1,0,0,1,611.3076052061488,468.33333333333337) translate(2.9878472222222223 17.22222222222222)"/><path d="M684.64 476.67c0 7.36-5.97 13.33-13.33 13.33s-13.33-5.97-13.33-13.33c0-7.37 5.97-13.34 13.34-13.34s13.34 5.97 13.34 13.34z" stroke="#3a414a" stroke-width="2" fill="#fff"/><use xlink:href="#v" transform="matrix(1,0,0,1,662.9742718728155,468.33333333333337) translate(-0.7230902777777786 17.22222222222222)"/><path d="M736.3 476.67c0 7.36-5.96 13.33-13.33 13.33-7.36 0-13.33-5.97-13.33-13.33 0-7.37 5.97-13.34 13.33-13.34 7.37 0 13.34 5.97 13.34 13.34z" stroke="#3a414a" stroke-width="2" fill="#fff"/><use xlink:href="#w" transform="matrix(1,0,0,1,714.6409385394822,468.33333333333337) translate(1.2690972222222223 17.22222222222222)"/><path d="M222.16 476.67h21.98" stroke="#3a414a" fill="none"/><path d="M222.17 477.14h-.57l.06-.47-.06-.48h.57z" stroke="#3a414a" stroke-width=".05" fill="#3a414a"/><path d="M244.13 476.67h.5" stroke="#3a414a" fill="none"/><path d="M220.65 476.67c0 7.36-5.97 13.33-13.33 13.33-7.37 0-13.34-5.97-13.34-13.33 0-7.37 5.97-13.34 13.34-13.34 7.36 0 13.33 5.97 13.33 13.34z" stroke="#3a414a" stroke-width="2" fill="#fff"/><use xlink:href="#x" transform="matrix(1,0,0,1,198.9828166218332,468.33333333333337) translate(4.884548611111111 17.22222222222222)"/><path d="M259 250.2V797.1M361 250.2V797.1" stroke="#3a414a" stroke-width="2" stroke-linecap="round" fill="none"/><path d="M133.64 195.2a6 6 0 0 1 6-6h228a6 6 0 0 1 6 6v48a6 6 0 0 1-6 6h-228a6 6 0 0 1-6-6z" fill="none"/><use xlink:href="#y" transform="matrix(1,0,0,1,133.64093853948225,189.21089189359913) translate(99.21006944444444 38.083767361111114)"/><path d="M245.3 195.2a6 6 0 0 1 6-6h228a6 6 0 0 1 6 6v48a6 6 0 0 1-6 6h-228a6 6 0 0 1-6-6z" fill="none"/><use xlink:href="#z" transform="matrix(1,0,0,1,245.307605206149,189.21089189359918) translate(101.46701388888889 38.083767361111114)"/><path d="M414 250.2V797.1" stroke="#3a414a" stroke-width="2" stroke-linecap="round" fill="none"/><path d="M300 195.2a6 6 0 0 1 6-6h228a6 6 0 0 1 6 6v48a6 6 0 0 1-6 6H306a6 6 0 0 1-6-6z" fill="none"/><use xlink:href="#A" transform="matrix(1,0,0,1,300,189.21089189359918) translate(99.26432291666667 38.083767361111114)"/><path d="M570 326a6 6 0 0 1 6-6h40a6 6 0 0 1 6 6v108a6 6 0 0 1-6 6h-40a6 6 0 0 1-6-6z" stroke="#3a414a" stroke-width="2" fill="#fff"/><use xlink:href="#f" transform="matrix(1,0,0,1,582.0000000000005,332) translate(7.696614583333334 57.52777777777778)"/><path d="M622 526a6 6 0 0 1 6-6h40a6 6 0 0 1 6 6v108a6 6 0 0 1-6 6h-40a6 6 0 0 1-6-6z" stroke="#3a414a" stroke-width="2" fill="#fff"/><use xlink:href="#f" transform="matrix(1,0,0,1,634.0000000000002,532) translate(7.696614583333334 57.52777777777778)"/><path d="M622 250.2V797.1" stroke="#3a414a" stroke-width="2" stroke-linecap="round" fill="none"/><g><path d="M674 250.2V797.1" stroke="#3a414a" stroke-width="2" stroke-linecap="round" fill="none"/></g><path d="M500 195.2a6 6 0 0 1 6-6h228a6 6 0 0 1 6 6v48a6 6 0 0 1-6 6H506a6 6 0 0 1-6-6z" fill="none"/><g><use xlink:href="#B" transform="matrix(1,0,0,1,500,189.21089189359918) translate(99.23719618055556 38.083767361111114)"/></g><path d="M560 195.2a6 6 0 0 1 6-6h228a6 6 0 0 1 6 6v48a6 6 0 0 1-6 6H566a6 6 0 0 1-6-6z" fill="none"/><g><use xlink:href="#C" transform="matrix(1,0,0,1,560,189.21089189359918) translate(99.21006944444444 38.083767361111114)"/></g><defs><path fill="#333" d="M683-1118v229H474v562c0 71 29 104 102 104 23 0 73-7 95-13l43 225C647 9 580 16 520 16 296 16 174-96 174-301v-588H20v-229h154v-266h300v266h209" id="D"/><use transform="matrix(0.008680555555555556,0,0,0.008680555555555556,0,0)" xlink:href="#D" id="a"/><path fill="#333" d="M119 395l88-620h300L323 395H119" id="E"/><use transform="matrix(0.008680555555555556,0,0,0.008680555555555556,0,0)" xlink:href="#E" id="b"/><path fill="#333" d="M572 22C302 22 117-98 78-306l279-48c29 105 101 156 224 156 114 0 185-48 185-115 0-118-228-130-337-155-215-49-322-150-322-317 0-215 187-347 470-347 265 0 424 116 466 298l-266 47c-24-76-87-130-196-130-98 0-174 46-174 113 0 56 38 95 144 117l201 40c216 44 320 143 320 302 0 220-207 367-500 367" id="F"/><use transform="matrix(0.008680555555555556,0,0,0.008680555555555556,0,0)" xlink:href="#F" id="c"/><path d="M409 0L70-1118h191c89 329 165 560 243 925 75-353 154-601 240-925h192c85 325 161 564 235 922 77-354 157-598 244-922h191L1267 0h-179c-86-307-176-590-250-913C763-588 675-308 588 0H409" id="G"/><use transform="matrix(0.010850694444444444,0,0,0.010850694444444444,0,0)" xlink:href="#G" id="d"/><path d="M158 0v-1118h175l1 205c55-151 181-225 313-225 147 0 245 90 285 228 53-141 190-228 352-228 194 0 352 125 352 384V0h-181v-749c0-161-105-225-225-225-151 0-243 103-243 244V0H807v-767c0-124-93-207-219-207-131 0-250 92-250 270V0H158" id="H"/><use transform="matrix(0.010850694444444444,0,0,0.010850694444444444,0,0)" xlink:href="#H" id="e"/><path d="M158 418v-1536h174v179h20c37-59 106-193 324-193 279 0 474 222 474 576 0 356-194 580-473 580-213 0-288-135-325-197h-14v591H158zm492-555c209 0 317-186 317-421 0-232-105-413-317-413-206 0-314 166-314 413 0 249 111 421 314 421" id="I"/><use transform="matrix(0.010850694444444444,0,0,0.010850694444444444,0,0)" xlink:href="#I" id="f"/><path d="M226 279v-1860h398v153H398V126h226v153H226" id="J"/><path d="M232-923l-22-567h194l-22 567H232zm340 0l-22-567h194l-22 567H572" id="K"/><path d="M677 24c-213 0-288-135-325-197h-20V0H158v-1490h180v551h14c37-59 106-193 324-193 279 0 474 222 474 576 0 356-194 580-473 580zm-27-161c209 0 317-186 317-421 0-232-105-413-317-413-206 0-314 166-314 413 0 249 111 421 314 421" id="L"/><path d="M154 0v-137l495-537c165-179 249-281 249-418 0-156-121-253-280-253-170 0-278 110-278 278H158c0-264 200-443 465-443 266 0 455 183 455 416 0 161-73 288-336 568L416-179v12h687V0H154" id="M"/><path d="M128 359l88-567h206L266 359H128" id="N"/><g id="g"><use transform="matrix(0.010850694444444444,0,0,0.010850694444444444,0,0)" xlink:href="#J"/><use transform="matrix(0.010850694444444444,0,0,0.010850694444444444,8.10546875,0)" xlink:href="#K"/><use transform="matrix(0.010850694444444444,0,0,0.010850694444444444,18.45703125,0)" xlink:href="#L"/><use transform="matrix(0.010850694444444444,0,0,0.010850694444444444,32.06380208333333,0)" xlink:href="#M"/><use transform="matrix(0.010850694444444444,0,0,0.010850694444444444,45.61631944444444,0)" xlink:href="#K"/><use transform="matrix(0.010850694444444444,0,0,0.010850694444444444,54.14496527777778,0)" xlink:href="#N"/></g><path d="M653-1490V0H466v-1314h-10L96-1047v-204l324-239h233" id="O"/><g id="h"><use transform="matrix(0.010850694444444444,0,0,0.010850694444444444,0,0)" xlink:href="#K"/><use transform="matrix(0.010850694444444444,0,0,0.010850694444444444,10.3515625,0)" xlink:href="#L"/><use transform="matrix(0.010850694444444444,0,0,0.010850694444444444,23.209635416666664,0)" xlink:href="#O"/><use transform="matrix(0.010850694444444444,0,0,0.010850694444444444,32.248263888888886,0)" xlink:href="#K"/><use transform="matrix(0.010850694444444444,0,0,0.010850694444444444,40.776909722222214,0)" xlink:href="#N"/></g><path d="M613 24c-304 0-509-231-509-576 0-350 205-580 509-580 305 0 511 230 511 580 0 345-206 576-511 576zm0-161c226 0 329-195 329-415 0-222-103-419-329-419-223 0-326 196-326 419 0 220 103 415 326 415" id="P"/><path d="M635 20c-292 0-500-160-510-396h192c11 142 145 229 315 229 187 0 323-105 323-260 0-161-125-274-346-274H488v-165h121c174 0 294-100 294-254 0-148-104-245-266-245-152 0-291 85-297 230H157c8-234 222-395 484-395 278 0 448 188 448 400 0 168-95 291-247 336v12c190 31 301 169 301 357 0 244-216 425-508 425" id="Q"/><g id="i"><use transform="matrix(0.010850694444444444,0,0,0.010850694444444444,0,0)" xlink:href="#K"/><use transform="matrix(0.010850694444444444,0,0,0.010850694444444444,10.026041666666666,0)" xlink:href="#P"/><use transform="matrix(0.010850694444444444,0,0,0.010850694444444444,23.350694444444443,0)" xlink:href="#Q"/><use transform="matrix(0.010850694444444444,0,0,0.010850694444444444,37.076822916666664,0)" xlink:href="#K"/><use transform="matrix(0.010850694444444444,0,0,0.010850694444444444,45.60546875,0)" xlink:href="#N"/></g><path d="M646 20c-249 0-524-159-524-708 0-524 209-822 547-822 250 0 431 161 467 395H950c-33-129-126-227-281-227-229 0-367 208-367 566h12c80-124 212-198 367-198 255 0 467 205 467 493 0 278-198 501-502 501zm0-167c179 0 318-148 318-334 0-182-133-328-313-328-181 0-322 156-322 330 0 176 134 332 317 332" id="R"/><g id="j"><use transform="matrix(0.010850694444444444,0,0,0.010850694444444444,0,0)" xlink:href="#K"/><use transform="matrix(0.010850694444444444,0,0,0.010850694444444444,10.026041666666666,0)" xlink:href="#P"/><use transform="matrix(0.010850694444444444,0,0,0.010850694444444444,23.350694444444443,0)" xlink:href="#R"/><use transform="matrix(0.010850694444444444,0,0,0.010850694444444444,37.131076388888886,0)" xlink:href="#K"/><use transform="matrix(0.010850694444444444,0,0,0.010850694444444444,45.65972222222222,0)" xlink:href="#N"/></g><path d="M123 279V126h226v-1554H123v-153h398V279H123" id="S"/><g id="k"><use transform="matrix(0.010850694444444444,0,0,0.010850694444444444,0,0)" xlink:href="#K"/><use transform="matrix(0.010850694444444444,0,0,0.010850694444444444,10.3515625,0)" xlink:href="#L"/><use transform="matrix(0.010850694444444444,0,0,0.010850694444444444,23.958333333333332,0)" xlink:href="#M"/><use transform="matrix(0.010850694444444444,0,0,0.010850694444444444,37.51085069444444,0)" xlink:href="#K"/><use transform="matrix(0.010850694444444444,0,0,0.010850694444444444,47.86241319444444,0)" xlink:href="#S"/></g><path d="M180 0v-1490h528c311 0 458 177 458 395 0 191-114 278-244 313v14c139 9 302 137 302 371 0 225-148 397-499 397H180zm190-168h350c232 0 321-102 321-231 0-149-120-277-311-277H370v508zm0-668h328c160 0 286-101 286-255 0-129-87-231-280-231H370v486" id="T"/><use transform="matrix(0.010850694444444444,0,0,0.010850694444444444,0,0)" xlink:href="#T" id="l"/><path d="M784 20c-382 0-662-292-662-764 0-473 280-766 662-766s660 293 660 766c0 472-278 764-660 764zm0-176c266 0 475-207 475-588 0-383-209-590-475-590-268 0-477 208-477 590 0 380 209 588 477 588" id="U"/><use transform="matrix(0.010850694444444444,0,0,0.010850694444444444,0,0)" xlink:href="#U" id="m"/><use transform="matrix(0.008680555555555556,0,0,0.008680555555555556,0,0)" xlink:href="#M" id="n"/><use transform="matrix(0.008680555555555556,0,0,0.008680555555555556,0,0)" xlink:href="#Q" id="o"/><path d="M120-303v-155l652-1032h231v1020h202v167h-202V0H821v-303H120zm702-167v-782h-12L323-482v12h499" id="V"/><use transform="matrix(0.008680555555555556,0,0,0.008680555555555556,0,0)" xlink:href="#V" id="p"/><path d="M626 20c-262 0-458-168-468-396h184c12 133 134 229 284 229 180 0 311-137 311-326 0-192-136-335-323-335-92 0-196 33-255 78l-178-22 88-738h784v167H429l-51 435h8c61-51 160-87 263-87 273 0 474 211 474 499 0 286-210 496-497 496" id="W"/><use transform="matrix(0.008680555555555556,0,0,0.008680555555555556,0,0)" xlink:href="#W" id="q"/><use transform="matrix(0.008680555555555556,0,0,0.008680555555555556,0,0)" xlink:href="#R" id="r"/><path d="M200 0l662-1311v-12H98v-167h963v177L400 0H200" id="X"/><use transform="matrix(0.008680555555555556,0,0,0.008680555555555556,0,0)" xlink:href="#X" id="s"/><path d="M633 20c-303 0-511-173-511-416 0-188 124-348 291-378v-8c-145-37-237-174-237-332 0-227 192-396 457-396 261 0 456 169 456 396 0 158-94 295-235 332v8c162 30 291 190 291 378 0 243-212 416-512 416zm0-165c197 0 322-103 322-261 0-165-138-283-322-283-188 0-324 118-324 283 0 158 123 261 324 261zm0-703c157 0 272-101 272-252 0-149-110-246-272-246-165 0-273 97-273 246 0 151 112 252 273 252" id="Y"/><use transform="matrix(0.008680555555555556,0,0,0.008680555555555556,0,0)" xlink:href="#Y" id="t"/><path d="M603 20c-253 0-434-161-469-399h188c31 132 124 231 281 231 227 0 367-207 367-568h-12c-80 122-211 199-367 199-257 0-469-206-469-493 0-278 200-505 506-500 245 4 520 158 520 706 0 527-208 824-545 824zm16-703c181 0 324-157 324-332 0-171-135-328-318-328-180 0-317 148-317 332 0 183 131 328 311 328" id="Z"/><use transform="matrix(0.008680555555555556,0,0,0.008680555555555556,0,0)" xlink:href="#Z" id="u"/><path d="M646 20c-332 0-524-278-524-764 0-483 194-766 524-766s524 283 524 766c0 485-191 764-524 764zm0-166c218 0 341-220 341-598 0-380-123-601-341-601s-341 222-341 601c0 378 123 598 341 598" id="aa"/><g id="v"><use transform="matrix(0.008680555555555556,0,0,0.008680555555555556,0,0)" xlink:href="#O"/><use transform="matrix(0.008680555555555556,0,0,0.008680555555555556,7.230902777777778,0)" xlink:href="#aa"/></g><g id="w"><use transform="matrix(0.008680555555555556,0,0,0.008680555555555556,0,0)" xlink:href="#O"/><use transform="matrix(0.008680555555555556,0,0,0.008680555555555556,7.230902777777778,0)" xlink:href="#O"/></g><use transform="matrix(0.008680555555555556,0,0,0.008680555555555556,0,0)" xlink:href="#O" id="x"/><path d="M158 0v-1118h180V0H158zm91-1301c-68 0-125-53-125-119s57-119 125-119c69 0 126 53 126 119s-57 119-126 119" id="ab"/><g id="y"><use transform="matrix(0.010850694444444444,0,0,0.010850694444444444,0,0)" xlink:href="#ab"/><use transform="matrix(0.010850694444444444,0,0,0.010850694444444444,5.381944444444445,0)" xlink:href="#O"/><use transform="matrix(0.010850694444444444,0,0,0.010850694444444444,14.420572916666666,0)" xlink:href="#L"/><use transform="matrix(0.010850694444444444,0,0,0.010850694444444444,28.02734375,0)" xlink:href="#M"/></g><g id="z"><use transform="matrix(0.010850694444444444,0,0,0.010850694444444444,0,0)" xlink:href="#ab"/><use transform="matrix(0.010850694444444444,0,0,0.010850694444444444,5.381944444444445,0)" xlink:href="#O"/><use transform="matrix(0.010850694444444444,0,0,0.010850694444444444,14.420572916666666,0)" xlink:href="#L"/><use transform="matrix(0.010850694444444444,0,0,0.010850694444444444,28.02734375,0)" xlink:href="#O"/></g><g id="A"><use transform="matrix(0.010850694444444444,0,0,0.010850694444444444,0,0)" xlink:href="#ab"/><use transform="matrix(0.010850694444444444,0,0,0.010850694444444444,5.381944444444445,0)" xlink:href="#O"/><use transform="matrix(0.010850694444444444,0,0,0.010850694444444444,14.420572916666666,0)" xlink:href="#P"/><use transform="matrix(0.010850694444444444,0,0,0.010850694444444444,27.745225694444443,0)" xlink:href="#Q"/></g><g id="B"><use transform="matrix(0.010850694444444444,0,0,0.010850694444444444,0,0)" xlink:href="#ab"/><use transform="matrix(0.010850694444444444,0,0,0.010850694444444444,5.381944444444445,0)" xlink:href="#O"/><use transform="matrix(0.010850694444444444,0,0,0.010850694444444444,14.420572916666666,0)" xlink:href="#P"/><use transform="matrix(0.010850694444444444,0,0,0.010850694444444444,27.745225694444443,0)" xlink:href="#R"/></g><g id="C"><use transform="matrix(0.010850694444444444,0,0,0.010850694444444444,0,0)" xlink:href="#ab"/><use transform="matrix(0.010850694444444444,0,0,0.010850694444444444,5.381944444444445,0)" xlink:href="#O"/><use transform="matrix(0.010850694444444444,0,0,0.010850694444444444,14.420572916666666,0)" xlink:href="#L"/><use transform="matrix(0.010850694444444444,0,0,0.010850694444444444,28.02734375,0)" xlink:href="#M"/></g></defs></g></svg>