<svg xmlns="http://www.w3.org/2000/svg" xmlns:xlink="http://www.w3.org/1999/xlink" xmlns:lucid="lucid" width="2043.7" height="1437.42"><g transform="translate(-656.0785878656218 -430.8865324874371)" lucid:page-tab-id="Q-T0bY~11w96"><path d="M500 0h2500v2000H500z" fill="#fff"/><path d="M1176 615.33a6 6 0 0 1 6-6h148a6 6 0 0 1 6 6v108a6 6 0 0 1-6 6h-148a6 6 0 0 1-6-6z" stroke="#3a414a" stroke-width="2" fill="#fff"/><use xlink:href="#a" transform="matrix(1,0,0,1,1188,621.3333333333721) translate(50.253689236111114 57.52777777777778)"/><path d="M936 615.33a6 6 0 0 1 6-6h148a6 6 0 0 1 6 6v114c-26.72-20.04-43.36-20.04-53.44-20.04-16 0-37.28 20.03-53.28 20.03-9.92 0-26.72 0-53.28-20.04z" stroke="#3a414a" stroke-width="2" fill="#fff"/><use xlink:href="#b" transform="matrix(1,0,0,1,941,614.3333333333721) translate(56.43988715277778 38.40277777777778)"/><use xlink:href="#c" transform="matrix(1,0,0,1,941,614.3333333333721) translate(15.543619791666679 65.29079861111111)"/><path d="M1097.5 669.55h61.12" stroke="#3a414a" fill="none"/><path d="M1097.5 670.02h-.5v-.95h.5z" stroke="#3a414a" stroke-width=".05" fill="#3a414a"/><path d="M1173.38 669.55l-14.26 4.63v-9.27z" stroke="#3a414a" fill="#3a414a"/><path d="M1337.5 669.33h61.12" stroke="#3a414a" fill="none"/><path d="M1337.5 669.8h-.5v-.94h.5z" stroke="#3a414a" stroke-width=".05" fill="#3a414a"/><path d="M1413.38 669.33l-14.26 4.64v-9.27z" stroke="#3a414a" fill="#3a414a"/><path d="M1416 615.33a6 6 0 0 1 6-6h148a6 6 0 0 1 6 6v108a6 6 0 0 1-6 6h-148a6 6 0 0 1-6-6z" stroke="#3a414a" stroke-width="2" fill="#fff"/><use xlink:href="#d" transform="matrix(1,0,0,1,1428,621.3333333333721) translate(27.141710069444443 30.52777777777778)"/><use xlink:href="#e" transform="matrix(1,0,0,1,1428,621.3333333333721) translate(41.73589409722222 57.415798611111114)"/><use xlink:href="#f" transform="matrix(1,0,0,1,1428,621.3333333333721) translate(28.17252604166667 84.30381944444446)"/><path d="M1577.5 669.33h61.12" stroke="#3a414a" fill="none"/><path d="M1577.5 669.8h-.5v-.94h.5z" stroke="#3a414a" stroke-width=".05" fill="#3a414a"/><path d="M1653.38 669.33l-14.26 4.64v-9.27z" stroke="#3a414a" fill="#3a414a"/><path d="M1656 615.33a6 6 0 0 1 6-6h148a6 6 0 0 1 6 6v108a6 6 0 0 1-6 6h-148a6 6 0 0 1-6-6z" stroke="#3a414a" stroke-width="2" fill="#fff"/><use xlink:href="#g" transform="matrix(1,0,0,1,1668,621.3333333333721) translate(38.32335069444444 42.52777777777778)"/><use xlink:href="#f" transform="matrix(1,0,0,1,1668,621.3333333333721) translate(28.17252604166667 69.41579861111111)"/><path d="M2190.67 495.55a6 6 0 0 1 6-6h148a6 6 0 0 1 6 6v114c-26.72-20.04-43.36-20.04-53.44-20.04-16 0-37.28 20.05-53.28 20.05-9.92 0-26.72 0-53.28-20.04z" stroke="#3a414a" stroke-width="2" fill="#fff"/><use xlink:href="#h" transform="matrix(1,0,0,1,2195.6666666667443,494.5467052836068) translate(14.75694444444445 52.46527777777778)"/><use xlink:href="#i" transform="matrix(1,0,0,1,2195.6666666667443,494.5467052836068) translate(58.12717013888889 52.46527777777778)"/><path d="M1817.5 669.33h179.83a6 6 0 0 0 6-6V555.55a6 6 0 0 1 6-6h163.95" stroke="#3a414a" fill="none"/><path d="M1817.5 669.8h-.5v-.94h.5z" stroke="#3a414a" stroke-width=".05" fill="#3a414a"/><path d="M2188.05 549.55l-14.27 4.63v-9.27z" stroke="#3a414a" fill="#3a414a"/><path d="M1817.5 669.33h179.83a6 6 0 0 1 6 6v81.43a6 6 0 0 0 6 6h163.95" stroke="#3a414a" fill="none"/><path d="M1817.5 669.8h-.5v-.94h.5z" stroke="#3a414a" stroke-width=".05" fill="#3a414a"/><path d="M2188.05 762.76l-14.27 4.63v-9.28z" stroke="#3a414a" fill="#3a414a"/><path d="M2585.76 810.75c0 6.63-26.86 12-60 12s-60-5.37-60-12v-96c0-6.62 26.86-12 60-12s60 5.38 60 12z" stroke="#3a414a" stroke-width="2" fill="#fff"/><path d="M2585.76 714.75c0 6.63-26.86 12-60 12s-60-5.37-60-12" stroke="#3a414a" stroke-width="2" fill="none"/><use xlink:href="#j" transform="matrix(1,0,0,1,2477.7616601955942,738.7548403477454) translate(-2.6293402777777715 30.639756944444443)"/><use xlink:href="#k" transform="matrix(1,0,0,1,2477.7616601955942,738.7548403477454) translate(32.71137152777778 57.52777777777778)"/><path d="M2352.17 762.97h96.2" stroke="#3a414a" fill="none"/><path d="M2352.18 763.44h-.5v-.95h.5z" stroke="#3a414a" stroke-width=".05" fill="#3a414a"/><path d="M2463.14 762.97l-14.26 4.63v-9.27z" stroke="#3a414a" fill="#3a414a"/><path d="M2352.17 549.76h55.94a.1.1 0 0 0 .1-.1.1.1 0 0 1 .12-.1h40.06" stroke="#3a414a" fill="none"/><path d="M2352.18 550.24h-.5v-.96h.5z" stroke="#3a414a" stroke-width=".05" fill="#3a414a"/><path d="M2463.14 549.55l-14.26 4.63v-9.27z" stroke="#3a414a" fill="#3a414a"/><path d="M2585.76 597.55c0 6.62-26.86 12-60 12s-60-5.38-60-12v-96c0-6.63 26.86-12 60-12s60 5.37 60 12z" stroke="#3a414a" stroke-width="2" fill="#fff"/><path d="M2585.76 501.55c0 6.62-26.86 12-60 12s-60-5.38-60-12" stroke="#3a414a" stroke-width="2" fill="none"/><use xlink:href="#l" transform="matrix(1,0,0,1,2477.7616601955942,525.5467052836068) translate(8.177951388888893 30.52777777777778)"/><use xlink:href="#m" transform="matrix(1,0,0,1,2477.7616601955942,525.5467052836068) translate(32.71137152777778 57.415798611111114)"/><path d="M2525.76 824.25v218.4a6 6 0 0 1-6 6h-561.64a6 6 0 0 0-6 6v257.64" stroke="#3a414a" fill="none"/><path d="M2525.76 823.76l.48-.02v.53h-.95v-.53z" stroke="#3a414a" stroke-width=".05" fill="#3a414a"/><path d="M1952.12 1327.06l-4.63-14.26h9.26z" stroke="#3a414a" fill="#3a414a"/><path d="M933.08 1335.68a6 6 0 0 1 6-6h148a6 6 0 0 1 6 6v114c-26.72-20.04-43.36-20.04-53.44-20.04-16 0-37.28 20.04-53.28 20.04-9.92 0-26.72 0-53.28-20.04z" stroke="#3a414a" stroke-width="2" fill="#fff"/><use xlink:href="#n" transform="matrix(1,0,0,1,938.0785878655827,1334.6785930894216) translate(40.02821180555556 52.46527777777778)"/><path d="M657.08 1555.68a6 6 0 0 1 6-6h148a6 6 0 0 1 6 6v108a6 6 0 0 1-6 6h-148a6 6 0 0 1-6-6z" stroke="#3a414a" stroke-width="2" fill="#fff"/><use xlink:href="#o" transform="matrix(1,0,0,1,662.0785878656218,1554.678593089422) translate(23.014322916666664 62.77777777777778)"/><path d="M765.35 1398.2c16.5 10.2 26.73 28.92 26.73 48.72 0 1.56-1.2 2.76-2.75 2.76h-104.5c-1.54 0-2.75-1.2-2.75-2.76 0-26.64 18.04-49.08 42.13-55.08-11.54-5.04-19.57-16.44-19.57-29.76 0-17.88 14.52-32.4 32.45-32.4 17.93 0 32.45 14.52 32.45 32.4 0 13.32-8.03 24.72-19.58 29.76 5.4 1.32 10.56 3.36 15.4 6.36zm-77.66 46.08h98.77c-.88-17.04-9.9-32.64-24.1-41.4-7.58-4.8-16.38-7.2-25.3-7.2-26.4 0-48.06 21.48-49.38 48.6zm22.43-82.2c0 14.88 12.1 26.88 26.95 26.88s26.95-12 26.95-26.88c0-14.88-12.1-27-26.95-27s-26.95 12.12-26.95 27z" stroke="#000" stroke-opacity="0" fill="#242f3e"/><use xlink:href="#p" transform="matrix(1,0,0,1,652.0785878656218,1458.6785930894216) translate(66.32280273437499 16.589501953125)"/><path d="M792.58 1389.68h123.1" stroke="#3a414a" fill="none"/><path stroke="#3a414a" stroke-width=".05" fill="#3a414a"/><path d="M930.46 1389.68l-14.27 4.63v-9.26z" stroke="#3a414a" fill="#3a414a"/><path d="M818.58 1609.68h188.5a6 6 0 0 0 6-6v-146.73" stroke="#3a414a" fill="none"/><path d="M818.6 1610.15h-.52v-.95h.5z" stroke="#3a414a" stroke-width=".05" fill="#3a414a"/><path d="M1013.08 1442.18l4.63 14.27h-9.26z" stroke="#3a414a" fill="#3a414a"/><path d="M1181.08 1335.68a6 6 0 0 1 6-6h148a6 6 0 0 1 6 6v108a6 6 0 0 1-6 6h-148a6 6 0 0 1-6-6z" stroke="#3a414a" stroke-width="2" fill="#fff"/><use xlink:href="#a" transform="matrix(1,0,0,1,1193.0785878656218,1341.6785930894216) translate(50.253689236111114 57.52777777777778)"/><path d="M1094.58 1389.68h69.12" stroke="#3a414a" fill="none"/><path d="M1094.6 1390.15h-.52v-.95h.5z" stroke="#3a414a" stroke-width=".05" fill="#3a414a"/><path d="M1178.46 1389.68l-14.27 4.63v-9.26z" stroke="#3a414a" fill="#3a414a"/><path d="M1421.08 1335.68a6 6 0 0 1 6-6h148a6 6 0 0 1 6 6v108a6 6 0 0 1-6 6h-148a6 6 0 0 1-6-6z" stroke="#3a414a" stroke-width="2" fill="#fff"/><use xlink:href="#q" transform="matrix(1,0,0,1,1433.0785878656218,1341.6785930894216) translate(27.141710069444443 30.52777777777778)"/><use xlink:href="#r" transform="matrix(1,0,0,1,1433.0785878656218,1341.6785930894216) translate(0.7311197916666572 57.415798611111114)"/><use xlink:href="#s" transform="matrix(1,0,0,1,1433.0785878656218,1341.6785930894216) translate(82.74066840277777 57.415798611111114)"/><use xlink:href="#t" transform="matrix(1,0,0,1,1433.0785878656218,1341.6785930894216) translate(28.17252604166667 84.30381944444446)"/><path d="M1342.58 1389.68h61.12" stroke="#3a414a" fill="none"/><path d="M1342.6 1390.15h-.52v-.95h.5z" stroke="#3a414a" stroke-width=".05" fill="#3a414a"/><path d="M1418.46 1389.68l-14.27 4.63v-9.26z" stroke="#3a414a" fill="#3a414a"/><path d="M1661.08 1335.68a6 6 0 0 1 6-6h148a6 6 0 0 1 6 6v108a6 6 0 0 1-6 6h-148a6 6 0 0 1-6-6z" stroke="#3a414a" stroke-width="2" fill="#fff"/><use xlink:href="#u" transform="matrix(1,0,0,1,1673.0785878656218,1341.6785930894216) translate(35.10069444444444 30.52777777777778)"/><use xlink:href="#v" transform="matrix(1,0,0,1,1673.0785878656218,1341.6785930894216) translate(30.120225694444443 57.415798611111114)"/><use xlink:href="#w" transform="matrix(1,0,0,1,1673.0785878656218,1341.6785930894216) translate(22.416232638888893 84.30381944444446)"/><path d="M1582.58 1389.68h61.12" stroke="#3a414a" fill="none"/><path d="M1582.6 1390.15h-.52v-.95h.5z" stroke="#3a414a" stroke-width=".05" fill="#3a414a"/><path d="M1658.46 1389.68l-14.27 4.63v-9.26z" stroke="#3a414a" fill="#3a414a"/><path d="M1922.4 1335.68a6 6 0 0 1 6-6h148a6 6 0 0 1 6 6v108a6 6 0 0 1-6 6h-148a6 6 0 0 1-6-6z" stroke="#3a414a" stroke-width="2" fill="#fff"/><use xlink:href="#x" transform="matrix(1,0,0,1,1934.411921198994,1341.6785930894216) translate(28.78559027777778 57.52777777777778)"/><path d="M1822.58 1389.68h82.45" stroke="#3a414a" fill="none"/><path d="M1822.6 1390.15h-.52v-.95h.5z" stroke="#3a414a" stroke-width=".05" fill="#3a414a"/><path d="M1919.8 1389.68l-14.27 4.63v-9.26z" stroke="#3a414a" fill="#3a414a"/><path d="M2190.67 708.76a6 6 0 0 1 6-6h148a6 6 0 0 1 6 6v114c-26.72-20.04-43.36-20.04-53.44-20.04-16 0-37.28 20.04-53.28 20.04-9.92 0-26.72 0-53.28-20.04z" stroke="#3a414a" stroke-width="2" fill="#fff"/><use xlink:href="#h" transform="matrix(1,0,0,1,2195.6666666667443,707.7557185543903) translate(4.2046440972222285 52.46527777777778)"/><use xlink:href="#y" transform="matrix(1,0,0,1,2195.6666666667443,707.7557185543903) translate(47.57486979166667 52.46527777777778)"/><path d="M2083.9 1421.22h43.18a6 6 0 0 1 6 6v29.06a6 6 0 0 0 6 6h27.28" stroke="#3a414a" fill="none"/><path d="M2083.93 1421.7h-.52v-.96h.53z" stroke="#3a414a" stroke-width=".05" fill="#3a414a"/><path d="M2181.13 1462.28l-14.27 4.63v-9.26z" stroke="#3a414a" fill="#3a414a"/><path d="M2183.74 1408.28a6 6 0 0 1 6-6h132a6 6 0 0 1 6 6v96c-24.04-17.04-39.02-17.04-48.1-17.04-14.4 0-33.54 17.04-47.94 17.04-8.93 0-24.05 0-47.95-17.04z" stroke="#3a414a" stroke-width="2" fill="#fff"/><path d="M2191.74 1417.28a6 6 0 0 1 6-6h132a6 6 0 0 1 6 6v96c-24.04-17.04-39.02-17.04-48.1-17.04-14.4 0-33.54 17.04-47.94 17.04-8.93 0-24.05 0-47.95-17.04z" stroke="#3a414a" stroke-width="2" fill="#fff"/><path d="M2199.74 1426.28a6 6 0 0 1 6-6h132a6 6 0 0 1 6 6v96c-24.04-17.04-39.02-17.04-48.1-17.04-14.4 0-33.54 17.04-47.94 17.04-8.93 0-24.05 0-47.95-17.04z" stroke="#3a414a" stroke-width="2" fill="#fff"/><use xlink:href="#z" transform="matrix(1,0,0,1,2211.7452545323663,1432.2794313689437) translate(5.352430555555564 21.52777777777778)"/><use xlink:href="#A" transform="matrix(1,0,0,1,2211.7452545323663,1432.2794313689437) translate(11.602430555555564 21.52777777777778)"/><use xlink:href="#B" transform="matrix(1,0,0,1,2211.7452545323663,1432.2794313689437) translate(18.22135416666667 48.415798611111114)"/><path d="M2345.24 1462.28h96.22" stroke="#3a414a" fill="none"/><path d="M2345.26 1462.75h-.52v-.95h.52z" stroke="#3a414a" stroke-width=".05" fill="#3a414a"/><path d="M2456.22 1462.28l-14.26 4.63v-9.26z" stroke="#3a414a" fill="#3a414a"/><path d="M2578.84 1510.28c0 6.63-26.86 12-60 12s-60-5.37-60-12v-96c0-6.63 26.86-12 60-12s60 5.37 60 12z" stroke="#3a414a" stroke-width="2" fill="#fff"/><path d="M2578.84 1414.28c0 6.63-26.86 12-60 12s-60-5.37-60-12" stroke="#3a414a" stroke-width="2" fill="none"/><use xlink:href="#C" transform="matrix(1,0,0,1,2470.8402480612162,1438.2794313689437) translate(-11.765624999999993 30.639756944444443)"/><use xlink:href="#m" transform="matrix(1,0,0,1,2470.8402480612162,1438.2794313689437) translate(32.71137152777778 57.52777777777778)"/><path d="M737.08 1329.18V675.33a6 6 0 0 1 6-6h56.62" stroke="#3a414a" fill="none"/><path d="M737.55 1329.7l-.47-.02h-.48v-.5h.95z" stroke="#3a414a" stroke-width=".05" fill="#3a414a"/><path d="M814.46 669.33l-14.26 4.64v-9.27z" stroke="#3a414a" fill="#3a414a"/><path d="M857.05 669.33h61.57" stroke="#3a414a" fill="none"/><path d="M857.06 669.8h-.56l.05-.4v-.36l-.03-.18h.54z" stroke="#3a414a" stroke-width=".05" fill="#3a414a"/><path d="M933.38 669.33l-14.26 4.64v-9.27z" stroke="#3a414a" fill="#3a414a"/><path d="M2083.9 1364.48h43.18a6 6 0 0 0 6-6v-35.4a6 6 0 0 1 6-6h27.28" stroke="#3a414a" fill="none"/><path d="M2083.93 1364.95h-.52v-.95h.53z" stroke="#3a414a" stroke-width=".05" fill="#3a414a"/><path d="M2181.13 1317.08l-14.27 4.63v-9.26z" stroke="#3a414a" fill="#3a414a"/><path d="M2183.74 1263.08a6 6 0 0 1 6-6h132a6 6 0 0 1 6 6v96c-24.04-17.04-39.02-17.04-48.1-17.04-14.4 0-33.54 17.04-47.94 17.04-8.93 0-24.05 0-47.95-17.04z" stroke="#3a414a" stroke-width="2" fill="#fff"/><path d="M2191.74 1272.08a6 6 0 0 1 6-6h132a6 6 0 0 1 6 6v96c-24.04-17.04-39.02-17.04-48.1-17.04-14.4 0-33.54 17.04-47.94 17.04-8.93 0-24.05 0-47.95-17.04z" stroke="#3a414a" stroke-width="2" fill="#fff"/><path d="M2199.74 1281.08a6 6 0 0 1 6-6h132a6 6 0 0 1 6 6v96c-24.04-17.04-39.02-17.04-48.1-17.04-14.4 0-33.54 17.04-47.94 17.04-8.93 0-24.05 0-47.95-17.04z" stroke="#3a414a" stroke-width="2" fill="#fff"/><use xlink:href="#D" transform="matrix(1,0,0,1,2211.7452545323663,1287.0777548099) translate(5.352430555555564 21.52777777777778)"/><use xlink:href="#E" transform="matrix(1,0,0,1,2211.7452545323663,1287.0777548099) translate(11.602430555555564 21.52777777777778)"/><use xlink:href="#F" transform="matrix(1,0,0,1,2211.7452545323663,1287.0777548099) translate(8.88975694444445 48.415798611111114)"/><path d="M2587.26 549.55h33.5a6 6 0 0 1 6 6v521.18a6 6 0 0 1-6 6h-628.9a6 6 0 0 0-6 6v223.57" stroke="#3a414a" fill="none"/><path d="M2587.27 550.02h-.5v-.95h.5z" stroke="#3a414a" stroke-width=".05" fill="#3a414a"/><path d="M1985.86 1327.06l-4.64-14.26h9.27z" stroke="#3a414a" fill="#3a414a"/><path d="M2345.24 1317.27h348.04a6 6 0 0 0 6-6v-542.5a6 6 0 0 0-6-6h-90.13" stroke="#3a414a" fill="none"/><path d="M2345.26 1317.75h-.52v-.95h.52z" stroke="#3a414a" stroke-width=".05" fill="#3a414a"/><path d="M2588.38 762.75l14.27-4.63v9.27z" stroke="#3a414a" fill="#3a414a"/><path d="M1259.6 1499.75a6 6 0 0 1 6-6h302.14a6 6 0 0 1 6 6v108a6 6 0 0 1-6 6H1265.6a6 6 0 0 1-6-6z" stroke="#3a414a" stroke-width="2" fill="#fff"/><path d="M1291.02 1493.75v120m251.3-120v120" stroke="#3a414a" stroke-width="2" fill="none"/><use xlink:href="#G" transform="matrix(1,0,0,1,1303.876125419526,1498.749831537224) translate(73.89409722222223 63.08376736111111)"/><path d="M1302.7 1723.1a6 6 0 0 1 6-6h312.7a6 6 0 0 1 6 6v138.2a6 6 0 0 1-6 6h-312.7a6 6 0 0 1-6-6z" stroke="#3a414a" stroke-width="2" fill="#fff"/><use xlink:href="#H" transform="matrix(1,0,0,1,1314.689152275337,1729.0885994241692) translate(17.611545138888914 73.12152777777777)"/><use xlink:href="#I" transform="matrix(1,0,0,1,1314.689152275337,1729.0885994241692) translate(159.47352430555557 73.12152777777777)"/><path d="M1645.02 1723.1a6 6 0 0 1 6-6h356.53a6 6 0 0 1 6 6v138.2a6 6 0 0 1-6 6h-356.53a6 6 0 0 1-6-6z" stroke="#3a414a" stroke-width="2" fill="#fff"/><use xlink:href="#J" transform="matrix(1,0,0,1,1657.015846046213,1729.0885994241692) translate(46.70247395833334 73.12152777777777)"/><use xlink:href="#K" transform="matrix(1,0,0,1,1657.015846046213,1729.0885994241692) translate(91.61349826388889 73.12152777777777)"/><use xlink:href="#L" transform="matrix(1,0,0,1,1657.015846046213,1729.0885994241692) translate(112.17556423611111 73.12152777777777)"/><use xlink:href="#M" transform="matrix(1,0,0,1,1657.015846046213,1729.0885994241692) translate(203.23459201388889 73.12152777777777)"/><path d="M1686 1499.75a6 6 0 0 1 6-6h302.14a6 6 0 0 1 6 6v108a6 6 0 0 1-6 6H1692a6 6 0 0 1-6-6z" stroke="#3a414a" stroke-width="2" fill="#fff"/><path d="M1717.42 1493.75v120m251.3-120v120" stroke="#3a414a" stroke-width="2" fill="none"/><use xlink:href="#N" transform="matrix(1,0,0,1,1730.2710957423938,1498.749831537224) translate(90.96766493055556 63.08376736111111)"/><g fill="none"><path d="M2084.67 1475.54a6 6 0 0 1 6 6v62.14a6 6 0 0 1-6 6h-909.6a6 6 0 0 1-6-6v-62.14a6 6 0 0 1 6-6z"/><path d="M1169.08 1475.54c0 5.52 4.48 10 10 10h440.8c5.52 0 10 4.47 10 10 0-5.53 4.47-10 10-10h440.8c5.5 0 10-4.48 10-10" stroke="#3a414a" stroke-width="2"/></g><path d="M1629.88 1502.3v45.45a6 6 0 0 1-6 6h-32.76M1629.88 1502.32v-3.52" stroke="#3a414a" fill="none"/><path d="M1576.36 1553.75l14.27-4.63v9.27z" stroke="#3a414a" fill="#3a414a"/><path d="M1629.88 1491.68v56.07a6 6 0 0 0 6 6h32.74M1629.88 1491.7v-3.52" stroke="#3a414a" fill="none"/><path d="M1683.4 1553.75l-14.28 4.63v-9.27z" stroke="#3a414a" fill="#3a414a"/><path d="M1125.1 437.9a6 6 0 0 1 6-6h302.12a6 6 0 0 1 6 6v108a6 6 0 0 1-6 6H1131.1a6 6 0 0 1-6-6z" stroke="#3a414a" stroke-width="2" fill="#fff"/><path d="M1156.5 431.9v120m251.3-120v120" stroke="#3a414a" stroke-width="2" fill="none"/><use xlink:href="#G" transform="matrix(1,0,0,1,1169.357329073338,436.8865324874371) translate(73.89409722222223 63.08376736111111)"/><path d="M1551.5 437.9a6 6 0 0 1 6-6h302.12a6 6 0 0 1 6 6v108a6 6 0 0 1-6 6H1557.5a6 6 0 0 1-6-6z" stroke="#3a414a" stroke-width="2" fill="#fff"/><path d="M1582.9 431.9v120m251.3-120v120" stroke="#3a414a" stroke-width="2" fill="none"/><use xlink:href="#O" transform="matrix(1,0,0,1,1595.7522993962057,436.8865324874371) translate(90.96766493055556 63.08376736111111)"/><g fill="none"><path d="M1828.7 592.86a6 6 0 0 0 6-6v-62.14a6 6 0 0 0-6-6H1162a6 6 0 0 0-6 6v62.14a6 6 0 0 0 6 6z"/><path d="M1156 592.86c0-5.52 4.48-10 10-10h319.35c5.53 0 10-4.47 10-10 0 5.53 4.48 10 10 10h319.36c5.53 0 10 4.48 10 10" stroke="#3a414a" stroke-width="2"/></g><path d="M1495.36 566.1l-.02-68.2a6 6 0 0 0-6-6h-32.73M1495.36 566.08v3.5" stroke="#3a414a" fill="none"/><path d="M1441.84 491.9l14.27-4.65v9.27z" stroke="#3a414a" fill="#3a414a"/><path d="M1495.36 576.72l-.02-78.83a6 6 0 0 1 6-6h32.76M1495.36 576.7v3.52" stroke="#3a414a" fill="none"/><path d="M1548.87 491.9l-14.27 4.62v-9.27z" stroke="#3a414a" fill="#3a414a"/><path d="M930.8 894.28a6 6 0 0 1 6-6h148a6 6 0 0 1 6 6v114c-26.7-20.04-43.35-20.04-53.43-20.04-16 0-37.28 20.04-53.28 20.04-9.93 0-26.73 0-53.3-20.04z" stroke="#3a414a" stroke-width="2" fill="#fff"/><use xlink:href="#P" transform="matrix(1,0,0,1,935.8089408992164,893.2797666671275) translate(29.79600694444445 38.40277777777778)"/><use xlink:href="#c" transform="matrix(1,0,0,1,935.8089408992164,893.2797666671275) translate(15.543619791666679 65.29079861111111)"/><path d="M1092.3 948.5h41a.1.1 0 0 0 .1-.1.1.1 0 0 1 .1-.12h25.12" stroke="#3a414a" fill="none"/><path d="M1092.32 948.97h-.5v-.95h.5z" stroke="#3a414a" stroke-width=".05" fill="#3a414a"/><path d="M1173.38 948.28l-14.26 4.63v-9.25z" stroke="#3a414a" fill="#3a414a"/><path d="M799.7 948.5h-34.3a6 6 0 0 0-6 6v383.6" stroke="#3a414a" fill="none"/><path d="M814.46 948.5l-14.26 4.63v-9.27z" stroke="#3a414a" fill="#3a414a"/><path d="M759.88 1339.06l-.2-.22-.75-.63v-.1h.95z" stroke="#3a414a" stroke-width=".05" fill="#3a414a"/><path d="M913.42 948.5h-56.37" stroke="#3a414a" fill="none"/><path d="M928.2 948.5l-14.28 4.63v-9.27z" stroke="#3a414a" fill="#3a414a"/><path d="M857.06 948.97h-.56l.05-.42v-.35l-.03-.18h.54z" stroke="#3a414a" stroke-width=".05" fill="#3a414a"/><path d="M1176 894.28a6 6 0 0 1 6-6h148a6 6 0 0 1 6 6v108a6 6 0 0 1-6 6h-148a6 6 0 0 1-6-6z" stroke="#3a414a" stroke-width="2" fill="#fff"/><use xlink:href="#Q" transform="matrix(1,0,0,1,1188,900.2797666671275) translate(50.253689236111114 57.52777777777778)"/><path d="M1416 894.28a6 6 0 0 1 6-6h148a6 6 0 0 1 6 6v108a6 6 0 0 1-6 6h-148a6 6 0 0 1-6-6z" stroke="#3a414a" stroke-width="2" fill="#fff"/><use xlink:href="#d" transform="matrix(1,0,0,1,1428,900.2797666671275) translate(27.141710069444443 30.52777777777778)"/><use xlink:href="#e" transform="matrix(1,0,0,1,1428,900.2797666671275) translate(41.73589409722222 57.415798611111114)"/><use xlink:href="#f" transform="matrix(1,0,0,1,1428,900.2797666671275) translate(28.17252604166667 84.30381944444446)"/><path d="M1656 894.28a6 6 0 0 1 6-6h148a6 6 0 0 1 6 6v108a6 6 0 0 1-6 6h-148a6 6 0 0 1-6-6z" stroke="#3a414a" stroke-width="2" fill="#fff"/><g><use xlink:href="#g" transform="matrix(1,0,0,1,1668,900.2797666671275) translate(38.32335069444444 42.52777777777778)"/><use xlink:href="#f" transform="matrix(1,0,0,1,1668,900.2797666671275) translate(28.17252604166667 69.41579861111111)"/></g><path d="M1337.5 948.28h61.12" stroke="#3a414a" fill="none"/><path d="M1337.5 948.75h-.5v-.95h.5z" stroke="#3a414a" stroke-width=".05" fill="#3a414a"/><path d="M1413.38 948.28l-14.26 4.63v-9.25z" stroke="#3a414a" fill="#3a414a"/><path d="M1577.5 948.28h61.12" stroke="#3a414a" fill="none"/><path d="M1577.5 948.75h-.5v-.95h.5z" stroke="#3a414a" stroke-width=".05" fill="#3a414a"/><path d="M1653.38 948.28l-14.26 4.63v-9.25z" stroke="#3a414a" fill="#3a414a"/><path d="M2190.67 894.28a6 6 0 0 1 6-6h148a6 6 0 0 1 6 6v114c-26.72-20.04-43.36-20.04-53.44-20.04-16 0-37.28 20.04-53.28 20.04-9.92 0-26.72 0-53.28-20.04z" stroke="#3a414a" stroke-width="2" fill="#fff"/><g><use xlink:href="#R" transform="matrix(1,0,0,1,2195.6666666667443,893.2797666671275) translate(29.79600694444445 52.46527777777778)"/></g><path d="M1817.5 948.28h355.78" stroke="#3a414a" fill="none"/><path d="M1817.5 948.75h-.5v-.95h.5z" stroke="#3a414a" stroke-width=".05" fill="#3a414a"/><path d="M2188.05 948.28l-14.27 4.63v-9.25z" stroke="#3a414a" fill="#3a414a"/><path d="M2352.17 948.5h50.04a6 6 0 0 0 6-6V804.55a6 6 0 0 1 6-6h34.18" stroke="#3a414a" fill="none"/><path d="M2352.18 948.97h-.5v-.95h.5z" stroke="#3a414a" stroke-width=".05" fill="#3a414a"/><path d="M2463.14 798.56l-14.26 4.63v-9.28z" stroke="#3a414a" fill="#3a414a"/><path d="M855.55 669.33c0 10.63-8.6 19.24-19.24 19.24-10.6 0-19.22-8.6-19.22-19.24 0-10.62 8.6-19.23 19.23-19.23 10.64 0 19.25 8.6 19.25 19.23z" stroke="#3a414a" stroke-width="2"/><g><use xlink:href="#S" transform="matrix(1,0,0,1,822.0785878656218,655.0975697365067) translate(9.214418402777778 23.34027777777778)"/></g><path d="M855.55 948.5c0 10.62-8.6 19.23-19.24 19.23-10.6 0-19.22-8.6-19.22-19.24 0-10.63 8.6-19.24 19.23-19.24 10.64 0 19.25 8.6 19.25 19.23z" stroke="#3a414a" stroke-width="2"/><g><use xlink:href="#T" transform="matrix(1,0,0,1,822.0785878656218,934.2573748669914) translate(7.006302083333333 23.34027777777778)"/></g><path d="M855.55 1383.04c0 10.63-8.6 19.24-19.24 19.24-10.6 0-19.22-8.6-19.22-19.24 0-10.62 8.6-19.23 19.23-19.23 10.64 0 19.25 8.62 19.25 19.24z" stroke="#3a414a" stroke-width="2"/><g><use xlink:href="#U" transform="matrix(1,0,0,1,822.0785878656218,1368.8079041752128) translate(6.832690972222222 23.34027777777778)"/></g><defs><path d="M52 0l541-1490h220L1361 0h-200l-149-416H398L254 0H52zm404-582h497c-103-290-145-390-251-756-108 377-145 460-246 756" id="V"/><path d="M180 0v-1490h510c348 0 508 209 508 474 0 266-160 477-507 477H370V0H180zm190-706h312c236 0 327-133 327-310 0-176-91-307-329-307H370v617" id="W"/><path d="M370-1490V0H180v-1490h190" id="X"/><g id="a"><use transform="matrix(0.010850694444444444,0,0,0.010850694444444444,0,0)" xlink:href="#V"/><use transform="matrix(0.010850694444444444,0,0,0.010850694444444444,15.33203125,0)" xlink:href="#W"/><use transform="matrix(0.010850694444444444,0,0,0.010850694444444444,29.524739583333332,0)" xlink:href="#X"/></g><path d="M538 24C308 24 148-78 108-271l171-41c32 123 123 178 257 178 156 0 256-77 256-169 0-77-54-128-164-154l-186-44c-203-48-300-148-300-305 0-192 176-326 414-326 230 0 351 112 402 269l-163 42c-31-80-94-158-238-158-133 0-233 69-233 162 0 83 57 129 188 160l169 40c203 48 298 149 298 302 0 196-179 339-441 339" id="Y"/><path d="M158 0v-1118h180V0H158zm91-1301c-68 0-125-53-125-119s57-119 125-119c69 0 126 53 126 119s-57 119-126 119" id="Z"/><path d="M598-1118v154H368v674c0 100 37 144 132 144 23 0 62-6 92-12L629-6c-37 13-88 20-134 20-193 0-307-107-307-290v-688H20v-154h168v-266h180v266h230" id="aa"/><path d="M628 24c-324 0-524-230-524-574 0-343 198-582 503-582 237 0 487 146 487 559v75H286c9 234 145 362 343 362 132 0 231-58 273-172l174 48C1024-91 857 24 628 24zM287-650h624c-17-190-120-322-304-322-192 0-309 151-320 322" id="ab"/><g id="b"><use transform="matrix(0.010850694444444444,0,0,0.010850694444444444,0,0)" xlink:href="#Y"/><use transform="matrix(0.010850694444444444,0,0,0.010850694444444444,11.729600694444445,0)" xlink:href="#Z"/><use transform="matrix(0.010850694444444444,0,0,0.010850694444444444,17.11154513888889,0)" xlink:href="#aa"/><use transform="matrix(0.010850694444444444,0,0,0.010850694444444444,24.16449652777778,0)" xlink:href="#ab"/></g><path d="M158 0v-1118h174v172h12c41-113 157-188 290-188 26 0 70 2 91 3v181c-11-2-60-10-108-10-161 0-279 109-279 260V0H158" id="ac"/><path d="M611 442c-248 0-391-105-460-228l146-94c47 65 117 165 314 165 178 0 307-82 307-266v-224h-17C863-141 792-18 576-18c-268 0-472-195-472-546 0-346 197-568 476-568 216 0 288 133 326 193h17v-179h175V29c0 289-215 413-487 413zm-5-620c203 0 314-146 314-390 0-237-108-403-314-403-213 0-319 180-319 403 0 230 109 390 319 390" id="ad"/><path d="M471 26C259 26 90-98 90-318c0-256 228-303 435-329 202-27 287-16 287-108 0-139-79-219-234-219-161 0-248 86-283 164l-173-57c86-203 278-265 451-265 150 0 419 46 419 395V0H815v-152h-12C765-73 660 26 471 26zm31-159c199 0 310-134 310-271v-155c-30 35-226 55-295 64-131 17-246 59-246 186 0 116 97 176 231 176" id="ae"/><path d="M613 24c-304 0-509-231-509-576 0-350 205-580 509-580 305 0 511 230 511 580 0 345-206 576-511 576zm0-161c226 0 329-195 329-415 0-222-103-419-329-419-223 0-326 196-326 419 0 220 103 415 326 415" id="af"/><path d="M338-670V0H158v-1118h173l1 207c72-158 192-221 342-221 226 0 378 139 378 422V0H872v-695c0-172-96-275-252-275-161 0-282 109-282 300" id="ag"/><g id="c"><use transform="matrix(0.010850694444444444,0,0,0.010850694444444444,0,0)" xlink:href="#ac"/><use transform="matrix(0.010850694444444444,0,0,0.010850694444444444,7.996961805555555,0)" xlink:href="#ab"/><use transform="matrix(0.010850694444444444,0,0,0.010850694444444444,20.95269097222222,0)" xlink:href="#ad"/><use transform="matrix(0.010850694444444444,0,0,0.010850694444444444,34.58116319444444,0)" xlink:href="#Z"/><use transform="matrix(0.010850694444444444,0,0,0.010850694444444444,39.963107638888886,0)" xlink:href="#Y"/><use transform="matrix(0.010850694444444444,0,0,0.010850694444444444,51.69270833333333,0)" xlink:href="#aa"/><use transform="matrix(0.010850694444444444,0,0,0.010850694444444444,58.96267361111111,0)" xlink:href="#ac"/><use transform="matrix(0.010850694444444444,0,0,0.010850694444444444,67.32855902777777,0)" xlink:href="#ae"/><use transform="matrix(0.010850694444444444,0,0,0.010850694444444444,79.80685763888889,0)" xlink:href="#aa"/><use transform="matrix(0.010850694444444444,0,0,0.010850694444444444,87.07682291666666,0)" xlink:href="#Z"/><use transform="matrix(0.010850694444444444,0,0,0.010850694444444444,92.45876736111111,0)" xlink:href="#af"/><use transform="matrix(0.010850694444444444,0,0,0.010850694444444444,105.78342013888887,0)" xlink:href="#ag"/></g><path d="M481 0L54-1118h197c107 314 236 620 325 951 87-331 217-637 324-951h197L670 0H481" id="ah"/><path d="M338-1490V0H158v-1490h180" id="ai"/><path d="M577 24c-279 0-473-224-473-580 0-354 195-576 474-576 218 0 287 134 324 193h14v-551h180V0H922v-173h-20C865-111 790 24 577 24zm27-161c203 0 314-172 314-421 0-247-108-413-314-413-212 0-317 181-317 413 0 235 108 421 317 421" id="aj"/><g id="d"><use transform="matrix(0.010850694444444444,0,0,0.010850694444444444,0,0)" xlink:href="#ah"/><use transform="matrix(0.010850694444444444,0,0,0.010850694444444444,12.38064236111111,0)" xlink:href="#ae"/><use transform="matrix(0.010850694444444444,0,0,0.010850694444444444,24.85894097222222,0)" xlink:href="#ai"/><use transform="matrix(0.010850694444444444,0,0,0.010850694444444444,30.240885416666664,0)" xlink:href="#Z"/><use transform="matrix(0.010850694444444444,0,0,0.010850694444444444,35.62282986111111,0)" xlink:href="#aj"/><use transform="matrix(0.010850694444444444,0,0,0.010850694444444444,49.22960069444444,0)" xlink:href="#ae"/><use transform="matrix(0.010850694444444444,0,0,0.010850694444444444,61.70789930555555,0)" xlink:href="#aa"/><use transform="matrix(0.010850694444444444,0,0,0.010850694444444444,68.76085069444444,0)" xlink:href="#ab"/></g><path d="M158 418v-1536h174v179h20c37-59 106-193 324-193 279 0 474 222 474 576 0 356-194 580-473 580-213 0-288-135-325-197h-14v591H158zm492-555c209 0 317-186 317-421 0-232-105-413-317-413-206 0-314 166-314 413 0 249 111 421 314 421" id="ak"/><path d="M537 14c-226 0-379-139-379-422v-710h180v695c0 172 97 275 253 275 160 0 281-109 281-300v-670h181V0H879v-209C806-46 684 14 537 14" id="al"/><g id="e"><use transform="matrix(0.010850694444444444,0,0,0.010850694444444444,0,0)" xlink:href="#Z"/><use transform="matrix(0.010850694444444444,0,0,0.010850694444444444,5.381944444444445,0)" xlink:href="#ag"/><use transform="matrix(0.010850694444444444,0,0,0.010850694444444444,18.51128472222222,0)" xlink:href="#ak"/><use transform="matrix(0.010850694444444444,0,0,0.010850694444444444,32.11805555555556,0)" xlink:href="#al"/><use transform="matrix(0.010850694444444444,0,0,0.010850694444444444,45.25824652777778,0)" xlink:href="#aa"/></g><path d="M1096 418H916v-591h-14C865-111 790 24 577 24c-279 0-473-224-473-580 0-354 195-576 474-576 218 0 287 134 324 193h20v-179h174V418zM604-137c203 0 314-172 314-421 0-247-108-413-314-413-212 0-317 181-317 413 0 235 108 421 317 421" id="am"/><g id="f"><use transform="matrix(0.010850694444444444,0,0,0.010850694444444444,0,0)" xlink:href="#ac"/><use transform="matrix(0.010850694444444444,0,0,0.010850694444444444,7.996961805555555,0)" xlink:href="#ab"/><use transform="matrix(0.010850694444444444,0,0,0.010850694444444444,20.95269097222222,0)" xlink:href="#am"/><use transform="matrix(0.010850694444444444,0,0,0.010850694444444444,34.55946180555556,0)" xlink:href="#al"/><use transform="matrix(0.010850694444444444,0,0,0.010850694444444444,47.69965277777778,0)" xlink:href="#ab"/><use transform="matrix(0.010850694444444444,0,0,0.010850694444444444,60.65538194444444,0)" xlink:href="#Y"/><use transform="matrix(0.010850694444444444,0,0,0.010850694444444444,72.38498263888889,0)" xlink:href="#aa"/></g><g id="g"><use transform="matrix(0.010850694444444444,0,0,0.010850694444444444,0,0)" xlink:href="#ak"/><use transform="matrix(0.010850694444444444,0,0,0.010850694444444444,13.823784722222221,0)" xlink:href="#ae"/><use transform="matrix(0.010850694444444444,0,0,0.010850694444444444,26.302083333333332,0)" xlink:href="#ac"/><use transform="matrix(0.010850694444444444,0,0,0.010850694444444444,34.66796875,0)" xlink:href="#Y"/><use transform="matrix(0.010850694444444444,0,0,0.010850694444444444,46.39756944444444,0)" xlink:href="#ab"/></g><g id="h"><use transform="matrix(0.010850694444444444,0,0,0.010850694444444444,0,0)" xlink:href="#Y"/><use transform="matrix(0.010850694444444444,0,0,0.010850694444444444,11.729600694444445,0)" xlink:href="#Z"/><use transform="matrix(0.010850694444444444,0,0,0.010850694444444444,17.11154513888889,0)" xlink:href="#aa"/><use transform="matrix(0.010850694444444444,0,0,0.010850694444444444,24.16449652777778,0)" xlink:href="#ab"/></g><path d="M613 24c-304 0-509-231-509-576 0-350 205-580 509-580 216 0 392 114 453 309l-173 49c-33-115-133-197-280-197-223 0-326 196-326 419 0 220 103 415 326 415 150 0 252-85 285-206l172 49C1010-95 832 24 613 24" id="an"/><g id="i"><use transform="matrix(0.010850694444444444,0,0,0.010850694444444444,0,0)" xlink:href="#Y"/><use transform="matrix(0.010850694444444444,0,0,0.010850694444444444,11.729600694444445,0)" xlink:href="#ab"/><use transform="matrix(0.010850694444444444,0,0,0.010850694444444444,24.68532986111111,0)" xlink:href="#an"/><use transform="matrix(0.010850694444444444,0,0,0.010850694444444444,37.380642361111114,0)" xlink:href="#ac"/><use transform="matrix(0.010850694444444444,0,0,0.010850694444444444,45.377604166666664,0)" xlink:href="#ab"/><use transform="matrix(0.010850694444444444,0,0,0.010850694444444444,58.33333333333333,0)" xlink:href="#aa"/><use transform="matrix(0.010850694444444444,0,0,0.010850694444444444,65.38628472222221,0)" xlink:href="#Y"/></g><path d="M180 0v-1490h270l367 940c28 72 75 218 110 339 35-117 81-264 110-339l362-940h271V0h-187c2-448-5-837 7-1287-157 497-311 829-483 1287H842C666-458 514-784 354-1284c12 438 5 843 7 1284H180" id="ao"/><path d="M645 0H180v-1490h484c435 0 692 280 692 742 0 466-257 748-711 748zM370-168h263c363 0 539-218 539-580 0-358-176-574-521-574H370v1154" id="ap"/><g id="j"><use transform="matrix(0.010850694444444444,0,0,0.010850694444444444,0,0)" xlink:href="#ao"/><use transform="matrix(0.010850694444444444,0,0,0.010850694444444444,20.07378472222222,0)" xlink:href="#ab"/><use transform="matrix(0.010850694444444444,0,0,0.010850694444444444,33.029513888888886,0)" xlink:href="#aa"/><use transform="matrix(0.010850694444444444,0,0,0.010850694444444444,40.40798611111111,0)" xlink:href="#ae"/><use transform="matrix(0.010850694444444444,0,0,0.010850694444444444,52.88628472222221,0)" xlink:href="#ap"/><use transform="matrix(0.010850694444444444,0,0,0.010850694444444444,68.9236111111111,0)" xlink:href="#ae"/><use transform="matrix(0.010850694444444444,0,0,0.010850694444444444,81.40190972222221,0)" xlink:href="#aa"/><use transform="matrix(0.010850694444444444,0,0,0.010850694444444444,88.78038194444443,0)" xlink:href="#ae"/></g><path d="M180 0v-1490h528c311 0 458 177 458 395 0 191-114 278-244 313v14c139 9 302 137 302 371 0 225-148 397-499 397H180zm190-168h350c232 0 321-102 321-231 0-149-120-277-311-277H370v508zm0-668h328c160 0 286-101 286-255 0-129-87-231-280-231H370v486" id="aq"/><g id="k"><use transform="matrix(0.010850694444444444,0,0,0.010850694444444444,0,0)" xlink:href="#ap"/><use transform="matrix(0.010850694444444444,0,0,0.010850694444444444,16.03732638888889,0)" xlink:href="#aq"/></g><path d="M657 26c-323 0-524-166-541-416h195c15 169 171 246 346 246 202 0 356-106 356-265 5-203-294-238-475-293-239-73-380-191-380-389 0-252 224-419 512-419 294 0 499 171 508 396H992c-17-145-151-228-328-228-193 0-321 102-321 242 0 156 175 211 284 241l149 41c160 44 422 134 422 412 0 244-197 432-541 432" id="ar"/><g id="l"><use transform="matrix(0.010850694444444444,0,0,0.010850694444444444,0,0)" xlink:href="#ar"/><use transform="matrix(0.010850694444444444,0,0,0.010850694444444444,14.2578125,0)" xlink:href="#ab"/><use transform="matrix(0.010850694444444444,0,0,0.010850694444444444,27.213541666666664,0)" xlink:href="#an"/><use transform="matrix(0.010850694444444444,0,0,0.010850694444444444,39.908854166666664,0)" xlink:href="#ac"/><use transform="matrix(0.010850694444444444,0,0,0.010850694444444444,47.90581597222221,0)" xlink:href="#ab"/><use transform="matrix(0.010850694444444444,0,0,0.010850694444444444,60.86154513888888,0)" xlink:href="#aa"/><use transform="matrix(0.010850694444444444,0,0,0.010850694444444444,67.91449652777777,0)" xlink:href="#Y"/></g><g id="m"><use transform="matrix(0.010850694444444444,0,0,0.010850694444444444,0,0)" xlink:href="#ap"/><use transform="matrix(0.010850694444444444,0,0,0.010850694444444444,16.03732638888889,0)" xlink:href="#aq"/></g><g id="n"><use transform="matrix(0.010850694444444444,0,0,0.010850694444444444,0,0)" xlink:href="#aa"/><use transform="matrix(0.010850694444444444,0,0,0.010850694444444444,7.269965277777778,0)" xlink:href="#ac"/><use transform="matrix(0.010850694444444444,0,0,0.010850694444444444,15.983072916666666,0)" xlink:href="#Z"/><use transform="matrix(0.010850694444444444,0,0,0.010850694444444444,21.36501736111111,0)" xlink:href="#ad"/><use transform="matrix(0.010850694444444444,0,0,0.010850694444444444,34.99348958333333,0)" xlink:href="#ad"/><use transform="matrix(0.010850694444444444,0,0,0.010850694444444444,48.62196180555556,0)" xlink:href="#ab"/><use transform="matrix(0.010850694444444444,0,0,0.010850694444444444,61.57769097222221,0)" xlink:href="#ac"/></g><path d="M338-670V0H158v-1490h180v566c73-149 190-208 336-208 226 0 379 139 379 422V0H872v-695c0-172-96-275-252-275-161 0-282 109-282 300" id="as"/><g id="o"><use transform="matrix(0.010850694444444444,0,0,0.010850694444444444,0,0)" xlink:href="#Y"/><use transform="matrix(0.010850694444444444,0,0,0.010850694444444444,11.729600694444445,0)" xlink:href="#an"/><use transform="matrix(0.010850694444444444,0,0,0.010850694444444444,24.424913194444443,0)" xlink:href="#as"/><use transform="matrix(0.010850694444444444,0,0,0.010850694444444444,37.565104166666664,0)" xlink:href="#ab"/><use transform="matrix(0.010850694444444444,0,0,0.010850694444444444,50.52083333333333,0)" xlink:href="#aj"/><use transform="matrix(0.010850694444444444,0,0,0.010850694444444444,64.12760416666666,0)" xlink:href="#al"/><use transform="matrix(0.010850694444444444,0,0,0.010850694444444444,77.26779513888889,0)" xlink:href="#ai"/><use transform="matrix(0.010850694444444444,0,0,0.010850694444444444,82.64973958333333,0)" xlink:href="#ab"/><use transform="matrix(0.010850694444444444,0,0,0.010850694444444444,95.60546875,0)" xlink:href="#ac"/></g><path d="M763 24c-353 0-583-224-583-531v-983h190v968c0 214 149 370 393 370 243 0 391-156 391-370v-968h190v983c0 307-230 531-581 531" id="at"/><g id="p"><use transform="matrix(0.008173828125000001,0,0,0.008173828125000001,0,0)" xlink:href="#at"/><use transform="matrix(0.008173828125000001,0,0,0.008173828125000001,12.456914062500001,0)" xlink:href="#Y"/><use transform="matrix(0.008173828125000001,0,0,0.008173828125000001,21.292822265625002,0)" xlink:href="#ab"/><use transform="matrix(0.008173828125000001,0,0,0.008173828125000001,31.052373046875005,0)" xlink:href="#ac"/></g><g id="q"><use transform="matrix(0.010850694444444444,0,0,0.010850694444444444,0,0)" xlink:href="#ah"/><use transform="matrix(0.010850694444444444,0,0,0.010850694444444444,12.38064236111111,0)" xlink:href="#ae"/><use transform="matrix(0.010850694444444444,0,0,0.010850694444444444,24.85894097222222,0)" xlink:href="#ai"/><use transform="matrix(0.010850694444444444,0,0,0.010850694444444444,30.240885416666664,0)" xlink:href="#Z"/><use transform="matrix(0.010850694444444444,0,0,0.010850694444444444,35.62282986111111,0)" xlink:href="#aj"/><use transform="matrix(0.010850694444444444,0,0,0.010850694444444444,49.22960069444444,0)" xlink:href="#ae"/><use transform="matrix(0.010850694444444444,0,0,0.010850694444444444,61.70789930555555,0)" xlink:href="#aa"/><use transform="matrix(0.010850694444444444,0,0,0.010850694444444444,68.76085069444444,0)" xlink:href="#ab"/></g><path d="M98-1322v-168h1126v168H757V0H567v-1322H98" id="au"/><g id="r"><use transform="matrix(0.010850694444444444,0,0,0.010850694444444444,0,0)" xlink:href="#au"/><use transform="matrix(0.010850694444444444,0,0,0.010850694444444444,13.0859375,0)" xlink:href="#ac"/><use transform="matrix(0.010850694444444444,0,0,0.010850694444444444,21.799045138888886,0)" xlink:href="#Z"/><use transform="matrix(0.010850694444444444,0,0,0.010850694444444444,27.18098958333333,0)" xlink:href="#ad"/><use transform="matrix(0.010850694444444444,0,0,0.010850694444444444,40.80946180555555,0)" xlink:href="#ad"/><use transform="matrix(0.010850694444444444,0,0,0.010850694444444444,54.43793402777778,0)" xlink:href="#ab"/><use transform="matrix(0.010850694444444444,0,0,0.010850694444444444,67.39366319444444,0)" xlink:href="#ac"/></g><g id="s"><use transform="matrix(0.010850694444444444,0,0,0.010850694444444444,0,0)" xlink:href="#Z"/><use transform="matrix(0.010850694444444444,0,0,0.010850694444444444,5.381944444444445,0)" xlink:href="#ag"/><use transform="matrix(0.010850694444444444,0,0,0.010850694444444444,18.51128472222222,0)" xlink:href="#ak"/><use transform="matrix(0.010850694444444444,0,0,0.010850694444444444,32.11805555555556,0)" xlink:href="#al"/><use transform="matrix(0.010850694444444444,0,0,0.010850694444444444,45.25824652777778,0)" xlink:href="#aa"/></g><g id="t"><use transform="matrix(0.010850694444444444,0,0,0.010850694444444444,0,0)" xlink:href="#ac"/><use transform="matrix(0.010850694444444444,0,0,0.010850694444444444,7.996961805555555,0)" xlink:href="#ab"/><use transform="matrix(0.010850694444444444,0,0,0.010850694444444444,20.95269097222222,0)" xlink:href="#am"/><use transform="matrix(0.010850694444444444,0,0,0.010850694444444444,34.55946180555556,0)" xlink:href="#al"/><use transform="matrix(0.010850694444444444,0,0,0.010850694444444444,47.69965277777778,0)" xlink:href="#ab"/><use transform="matrix(0.010850694444444444,0,0,0.010850694444444444,60.65538194444444,0)" xlink:href="#Y"/><use transform="matrix(0.010850694444444444,0,0,0.010850694444444444,72.38498263888889,0)" xlink:href="#aa"/></g><g id="u"><use transform="matrix(0.010850694444444444,0,0,0.010850694444444444,0,0)" xlink:href="#am"/><use transform="matrix(0.010850694444444444,0,0,0.010850694444444444,13.606770833333332,0)" xlink:href="#al"/><use transform="matrix(0.010850694444444444,0,0,0.010850694444444444,26.746961805555554,0)" xlink:href="#ab"/><use transform="matrix(0.010850694444444444,0,0,0.010850694444444444,39.70269097222222,0)" xlink:href="#al"/><use transform="matrix(0.010850694444444444,0,0,0.010850694444444444,52.84288194444444,0)" xlink:href="#ab"/></g><g id="v"><use transform="matrix(0.010850694444444444,0,0,0.010850694444444444,0,0)" xlink:href="#au"/><use transform="matrix(0.010850694444444444,0,0,0.010850694444444444,13.0859375,0)" xlink:href="#ac"/><use transform="matrix(0.010850694444444444,0,0,0.010850694444444444,21.799045138888886,0)" xlink:href="#Z"/><use transform="matrix(0.010850694444444444,0,0,0.010850694444444444,27.18098958333333,0)" xlink:href="#ad"/><use transform="matrix(0.010850694444444444,0,0,0.010850694444444444,40.80946180555555,0)" xlink:href="#ad"/><use transform="matrix(0.010850694444444444,0,0,0.010850694444444444,54.43793402777778,0)" xlink:href="#ab"/><use transform="matrix(0.010850694444444444,0,0,0.010850694444444444,67.39366319444444,0)" xlink:href="#ac"/></g><g id="w"><use transform="matrix(0.010850694444444444,0,0,0.010850694444444444,0,0)" xlink:href="#ac"/><use transform="matrix(0.010850694444444444,0,0,0.010850694444444444,7.996961805555555,0)" xlink:href="#ab"/><use transform="matrix(0.010850694444444444,0,0,0.010850694444444444,20.95269097222222,0)" xlink:href="#am"/><use transform="matrix(0.010850694444444444,0,0,0.010850694444444444,34.55946180555556,0)" xlink:href="#al"/><use transform="matrix(0.010850694444444444,0,0,0.010850694444444444,47.69965277777778,0)" xlink:href="#ab"/><use transform="matrix(0.010850694444444444,0,0,0.010850694444444444,60.65538194444444,0)" xlink:href="#Y"/><use transform="matrix(0.010850694444444444,0,0,0.010850694444444444,72.38498263888889,0)" xlink:href="#aa"/><use transform="matrix(0.010850694444444444,0,0,0.010850694444444444,79.43793402777777,0)" xlink:href="#Y"/></g><path d="M409 0L70-1118h191c89 329 165 560 243 925 75-353 154-601 240-925h192c85 325 161 564 235 922 77-354 157-598 244-922h191L1267 0h-179c-86-307-176-590-250-913C763-588 675-308 588 0H409" id="av"/><g id="x"><use transform="matrix(0.010850694444444444,0,0,0.010850694444444444,0,0)" xlink:href="#an"/><use transform="matrix(0.010850694444444444,0,0,0.010850694444444444,12.6953125,0)" xlink:href="#ac"/><use transform="matrix(0.010850694444444444,0,0,0.010850694444444444,21.061197916666664,0)" xlink:href="#ae"/><use transform="matrix(0.010850694444444444,0,0,0.010850694444444444,33.53949652777777,0)" xlink:href="#av"/><use transform="matrix(0.010850694444444444,0,0,0.010850694444444444,51.72526041666666,0)" xlink:href="#ai"/><use transform="matrix(0.010850694444444444,0,0,0.010850694444444444,57.1072048611111,0)" xlink:href="#ab"/><use transform="matrix(0.010850694444444444,0,0,0.010850694444444444,70.06293402777777,0)" xlink:href="#ac"/></g><path d="M158 0v-1118h175l1 205c55-151 181-225 313-225 147 0 245 90 285 228 53-141 190-228 352-228 194 0 352 125 352 384V0h-181v-749c0-161-105-225-225-225-151 0-243 103-243 244V0H807v-767c0-124-93-207-219-207-131 0-250 92-250 270V0H158" id="aw"/><g id="y"><use transform="matrix(0.010850694444444444,0,0,0.010850694444444444,0,0)" xlink:href="#aw"/><use transform="matrix(0.010850694444444444,0,0,0.010850694444444444,19.466145833333332,0)" xlink:href="#ab"/><use transform="matrix(0.010850694444444444,0,0,0.010850694444444444,32.421875,0)" xlink:href="#aa"/><use transform="matrix(0.010850694444444444,0,0,0.010850694444444444,39.80034722222222,0)" xlink:href="#ae"/><use transform="matrix(0.010850694444444444,0,0,0.010850694444444444,52.27864583333333,0)" xlink:href="#aj"/><use transform="matrix(0.010850694444444444,0,0,0.010850694444444444,65.88541666666666,0)" xlink:href="#ae"/><use transform="matrix(0.010850694444444444,0,0,0.010850694444444444,78.36371527777777,0)" xlink:href="#aa"/><use transform="matrix(0.010850694444444444,0,0,0.010850694444444444,85.74218749999999,0)" xlink:href="#ae"/></g><g id="A"><use transform="matrix(0.010850694444444444,0,0,0.010850694444444444,0,0)" xlink:href="#Y"/><use transform="matrix(0.010850694444444444,0,0,0.010850694444444444,11.729600694444445,0)" xlink:href="#an"/><use transform="matrix(0.010850694444444444,0,0,0.010850694444444444,24.424913194444443,0)" xlink:href="#ac"/><use transform="matrix(0.010850694444444444,0,0,0.010850694444444444,32.79079861111111,0)" xlink:href="#ae"/><use transform="matrix(0.010850694444444444,0,0,0.010850694444444444,45.26909722222221,0)" xlink:href="#ak"/><use transform="matrix(0.010850694444444444,0,0,0.010850694444444444,58.87586805555554,0)" xlink:href="#ak"/><use transform="matrix(0.010850694444444444,0,0,0.010850694444444444,72.48263888888887,0)" xlink:href="#ab"/><use transform="matrix(0.010850694444444444,0,0,0.010850694444444444,85.43836805555554,0)" xlink:href="#aj"/></g><g id="B"><use transform="matrix(0.010850694444444444,0,0,0.010850694444444444,0,0)" xlink:href="#an"/><use transform="matrix(0.010850694444444444,0,0,0.010850694444444444,12.6953125,0)" xlink:href="#af"/><use transform="matrix(0.010850694444444444,0,0,0.010850694444444444,26.01996527777778,0)" xlink:href="#ag"/><use transform="matrix(0.010850694444444444,0,0,0.010850694444444444,39.14930555555556,0)" xlink:href="#aa"/><use transform="matrix(0.010850694444444444,0,0,0.010850694444444444,46.20225694444445,0)" xlink:href="#ab"/><use transform="matrix(0.010850694444444444,0,0,0.010850694444444444,59.15798611111112,0)" xlink:href="#ag"/><use transform="matrix(0.010850694444444444,0,0,0.010850694444444444,72.28732638888889,0)" xlink:href="#aa"/></g><g id="C"><use transform="matrix(0.010850694444444444,0,0,0.010850694444444444,0,0)" xlink:href="#ap"/><use transform="matrix(0.010850694444444444,0,0,0.010850694444444444,16.03732638888889,0)" xlink:href="#af"/><use transform="matrix(0.010850694444444444,0,0,0.010850694444444444,29.361979166666664,0)" xlink:href="#an"/><use transform="matrix(0.010850694444444444,0,0,0.010850694444444444,42.057291666666664,0)" xlink:href="#al"/><use transform="matrix(0.010850694444444444,0,0,0.010850694444444444,55.197482638888886,0)" xlink:href="#aw"/><use transform="matrix(0.010850694444444444,0,0,0.010850694444444444,74.66362847222221,0)" xlink:href="#ab"/><use transform="matrix(0.010850694444444444,0,0,0.010850694444444444,87.61935763888889,0)" xlink:href="#ag"/><use transform="matrix(0.010850694444444444,0,0,0.010850694444444444,100.74869791666666,0)" xlink:href="#aa"/><use transform="matrix(0.010850694444444444,0,0,0.010850694444444444,107.80164930555556,0)" xlink:href="#Y"/></g><g id="E"><use transform="matrix(0.010850694444444444,0,0,0.010850694444444444,0,0)" xlink:href="#Y"/><use transform="matrix(0.010850694444444444,0,0,0.010850694444444444,11.729600694444445,0)" xlink:href="#an"/><use transform="matrix(0.010850694444444444,0,0,0.010850694444444444,24.424913194444443,0)" xlink:href="#ac"/><use transform="matrix(0.010850694444444444,0,0,0.010850694444444444,32.79079861111111,0)" xlink:href="#ae"/><use transform="matrix(0.010850694444444444,0,0,0.010850694444444444,45.26909722222221,0)" xlink:href="#ak"/><use transform="matrix(0.010850694444444444,0,0,0.010850694444444444,58.87586805555554,0)" xlink:href="#ak"/><use transform="matrix(0.010850694444444444,0,0,0.010850694444444444,72.48263888888887,0)" xlink:href="#ab"/><use transform="matrix(0.010850694444444444,0,0,0.010850694444444444,85.43836805555554,0)" xlink:href="#aj"/></g><g id="F"><use transform="matrix(0.010850694444444444,0,0,0.010850694444444444,0,0)" xlink:href="#aw"/><use transform="matrix(0.010850694444444444,0,0,0.010850694444444444,19.466145833333332,0)" xlink:href="#ab"/><use transform="matrix(0.010850694444444444,0,0,0.010850694444444444,32.421875,0)" xlink:href="#aa"/><use transform="matrix(0.010850694444444444,0,0,0.010850694444444444,39.80034722222222,0)" xlink:href="#ae"/><use transform="matrix(0.010850694444444444,0,0,0.010850694444444444,52.27864583333333,0)" xlink:href="#aj"/><use transform="matrix(0.010850694444444444,0,0,0.010850694444444444,65.88541666666666,0)" xlink:href="#ae"/><use transform="matrix(0.010850694444444444,0,0,0.010850694444444444,78.36371527777777,0)" xlink:href="#aa"/><use transform="matrix(0.010850694444444444,0,0,0.010850694444444444,85.74218749999999,0)" xlink:href="#ae"/></g><g id="G"><use transform="matrix(0.010850694444444444,0,0,0.010850694444444444,0,0)" xlink:href="#aw"/><use transform="matrix(0.010850694444444444,0,0,0.010850694444444444,19.466145833333332,0)" xlink:href="#ab"/><use transform="matrix(0.010850694444444444,0,0,0.010850694444444444,32.421875,0)" xlink:href="#aa"/><use transform="matrix(0.010850694444444444,0,0,0.010850694444444444,39.69184027777778,0)" xlink:href="#ac"/><use transform="matrix(0.010850694444444444,0,0,0.010850694444444444,48.404947916666664,0)" xlink:href="#Z"/><use transform="matrix(0.010850694444444444,0,0,0.010850694444444444,53.78689236111111,0)" xlink:href="#an"/><use transform="matrix(0.010850694444444444,0,0,0.010850694444444444,66.48220486111111,0)" xlink:href="#Y"/></g><path d="M678-1118v154H420V0H240v-964H20v-154h220v-149c0-194 155-293 318-293 85 0 141 18 168 30l-50 154c-19-6-47-17-97-17-111 0-159 58-159 166v109h258" id="ax"/><g id="H"><use transform="matrix(0.010850694444444444,0,0,0.010850694444444444,0,0)" xlink:href="#ak"/><use transform="matrix(0.010850694444444444,0,0,0.010850694444444444,13.606770833333332,0)" xlink:href="#ab"/><use transform="matrix(0.010850694444444444,0,0,0.010850694444444444,26.5625,0)" xlink:href="#ac"/><use transform="matrix(0.010850694444444444,0,0,0.010850694444444444,35.275607638888886,0)" xlink:href="#ax"/><use transform="matrix(0.010850694444444444,0,0,0.010850694444444444,42.849392361111114,0)" xlink:href="#af"/><use transform="matrix(0.010850694444444444,0,0,0.010850694444444444,56.1740451388889,0)" xlink:href="#ac"/><use transform="matrix(0.010850694444444444,0,0,0.010850694444444444,64.88715277777779,0)" xlink:href="#aw"/><use transform="matrix(0.010850694444444444,0,0,0.010850694444444444,84.35329861111111,0)" xlink:href="#ae"/><use transform="matrix(0.010850694444444444,0,0,0.010850694444444444,96.83159722222221,0)" xlink:href="#ag"/><use transform="matrix(0.010850694444444444,0,0,0.010850694444444444,109.9609375,0)" xlink:href="#an"/><use transform="matrix(0.010850694444444444,0,0,0.010850694444444444,122.65625,0)" xlink:href="#ab"/></g><path d="M677 24c-213 0-288-135-325-197h-20V0H158v-1490h180v551h14c37-59 106-193 324-193 279 0 474 222 474 576 0 356-194 580-473 580zm-27-161c209 0 317-186 317-421 0-232-105-413-317-413-206 0-314 166-314 413 0 249 111 421 314 421" id="ay"/><g id="I"><use transform="matrix(0.010850694444444444,0,0,0.010850694444444444,0,0)" xlink:href="#aj"/><use transform="matrix(0.010850694444444444,0,0,0.010850694444444444,13.606770833333332,0)" xlink:href="#ae"/><use transform="matrix(0.010850694444444444,0,0,0.010850694444444444,26.085069444444443,0)" xlink:href="#Y"/><use transform="matrix(0.010850694444444444,0,0,0.010850694444444444,37.814670138888886,0)" xlink:href="#as"/><use transform="matrix(0.010850694444444444,0,0,0.010850694444444444,50.95486111111111,0)" xlink:href="#ay"/><use transform="matrix(0.010850694444444444,0,0,0.010850694444444444,64.56163194444444,0)" xlink:href="#af"/><use transform="matrix(0.010850694444444444,0,0,0.010850694444444444,78.1032986111111,0)" xlink:href="#ae"/><use transform="matrix(0.010850694444444444,0,0,0.010850694444444444,90.58159722222221,0)" xlink:href="#ac"/><use transform="matrix(0.010850694444444444,0,0,0.010850694444444444,98.57855902777777,0)" xlink:href="#aj"/><use transform="matrix(0.010850694444444444,0,0,0.010850694444444444,112.1853298611111,0)" xlink:href="#Y"/></g><g id="J"><use transform="matrix(0.010850694444444444,0,0,0.010850694444444444,0,0)" xlink:href="#af"/><use transform="matrix(0.010850694444444444,0,0,0.010850694444444444,13.324652777777777,0)" xlink:href="#ak"/><use transform="matrix(0.010850694444444444,0,0,0.010850694444444444,26.931423611111104,0)" xlink:href="#Y"/></g><path d="M580 20c-295 0-476-179-476-409 0-189 123-290 294-416-104-125-173-226-173-362 0-197 144-337 365-337 224 0 362 144 362 321 0 185-174 312-306 405l319 387c38-75 61-165 61-267h173c0 208-62 332-120 406L1287 0h-217L967-124C868-27 716 20 580 20zm279-273L507-675l-51 38c-123 91-167 162-167 254 0 147 113 246 278 246 107 0 210-41 292-116zM538-908l97-72c54-40 136-101 136-206 0-95-68-163-176-163-113 0-189 74-189 181 0 90 53 164 132 260" id="az"/><use transform="matrix(0.010850694444444444,0,0,0.010850694444444444,0,0)" xlink:href="#az" id="K"/><path d="M140 405l46-156c120 36 205 19 263-150l32-93L54-1118h197c107 313 237 620 324 950 87-331 219-637 326-950h196L606 167c-68 178-176 259-334 259-64 0-113-12-132-21" id="aA"/><g id="L"><use transform="matrix(0.010850694444444444,0,0,0.010850694444444444,0,0)" xlink:href="#Y"/><use transform="matrix(0.010850694444444444,0,0,0.010850694444444444,11.729600694444445,0)" xlink:href="#ab"/><use transform="matrix(0.010850694444444444,0,0,0.010850694444444444,24.68532986111111,0)" xlink:href="#an"/><use transform="matrix(0.010850694444444444,0,0,0.010850694444444444,37.380642361111114,0)" xlink:href="#al"/><use transform="matrix(0.010850694444444444,0,0,0.010850694444444444,50.52083333333333,0)" xlink:href="#ac"/><use transform="matrix(0.010850694444444444,0,0,0.010850694444444444,59.23394097222222,0)" xlink:href="#Z"/><use transform="matrix(0.010850694444444444,0,0,0.010850694444444444,64.61588541666667,0)" xlink:href="#aa"/><use transform="matrix(0.010850694444444444,0,0,0.010850694444444444,72.31987847222221,0)" xlink:href="#aA"/></g><g id="M"><use transform="matrix(0.010850694444444444,0,0,0.010850694444444444,0,0)" xlink:href="#Z"/><use transform="matrix(0.010850694444444444,0,0,0.010850694444444444,5.381944444444445,0)" xlink:href="#ag"/><use transform="matrix(0.010850694444444444,0,0,0.010850694444444444,18.51128472222222,0)" xlink:href="#an"/><use transform="matrix(0.010850694444444444,0,0,0.010850694444444444,31.20659722222222,0)" xlink:href="#Z"/><use transform="matrix(0.010850694444444444,0,0,0.010850694444444444,36.588541666666664,0)" xlink:href="#aj"/><use transform="matrix(0.010850694444444444,0,0,0.010850694444444444,50.1953125,0)" xlink:href="#ab"/><use transform="matrix(0.010850694444444444,0,0,0.010850694444444444,63.151041666666664,0)" xlink:href="#ag"/><use transform="matrix(0.010850694444444444,0,0,0.010850694444444444,76.28038194444444,0)" xlink:href="#aa"/><use transform="matrix(0.010850694444444444,0,0,0.010850694444444444,83.33333333333333,0)" xlink:href="#Y"/></g><g id="N"><use transform="matrix(0.010850694444444444,0,0,0.010850694444444444,0,0)" xlink:href="#ai"/><use transform="matrix(0.010850694444444444,0,0,0.010850694444444444,5.381944444444445,0)" xlink:href="#af"/><use transform="matrix(0.010850694444444444,0,0,0.010850694444444444,18.70659722222222,0)" xlink:href="#ad"/><use transform="matrix(0.010850694444444444,0,0,0.010850694444444444,32.33506944444444,0)" xlink:href="#Y"/></g><g id="O"><use transform="matrix(0.010850694444444444,0,0,0.010850694444444444,0,0)" xlink:href="#ai"/><use transform="matrix(0.010850694444444444,0,0,0.010850694444444444,5.381944444444445,0)" xlink:href="#af"/><use transform="matrix(0.010850694444444444,0,0,0.010850694444444444,18.70659722222222,0)" xlink:href="#ad"/><use transform="matrix(0.010850694444444444,0,0,0.010850694444444444,32.33506944444444,0)" xlink:href="#Y"/></g><g id="P"><use transform="matrix(0.010850694444444444,0,0,0.010850694444444444,0,0)" xlink:href="#Y"/><use transform="matrix(0.010850694444444444,0,0,0.010850694444444444,11.729600694444445,0)" xlink:href="#an"/><use transform="matrix(0.010850694444444444,0,0,0.010850694444444444,24.424913194444443,0)" xlink:href="#ab"/><use transform="matrix(0.010850694444444444,0,0,0.010850694444444444,37.38064236111111,0)" xlink:href="#ag"/><use transform="matrix(0.010850694444444444,0,0,0.010850694444444444,50.509982638888886,0)" xlink:href="#ae"/><use transform="matrix(0.010850694444444444,0,0,0.010850694444444444,62.98828125,0)" xlink:href="#ac"/><use transform="matrix(0.010850694444444444,0,0,0.010850694444444444,71.70138888888889,0)" xlink:href="#Z"/><use transform="matrix(0.010850694444444444,0,0,0.010850694444444444,77.08333333333333,0)" xlink:href="#af"/></g><g id="Q"><use transform="matrix(0.010850694444444444,0,0,0.010850694444444444,0,0)" xlink:href="#V"/><use transform="matrix(0.010850694444444444,0,0,0.010850694444444444,15.33203125,0)" xlink:href="#W"/><use transform="matrix(0.010850694444444444,0,0,0.010850694444444444,29.524739583333332,0)" xlink:href="#X"/></g><g id="R"><use transform="matrix(0.010850694444444444,0,0,0.010850694444444444,0,0)" xlink:href="#Y"/><use transform="matrix(0.010850694444444444,0,0,0.010850694444444444,11.729600694444445,0)" xlink:href="#an"/><use transform="matrix(0.010850694444444444,0,0,0.010850694444444444,24.424913194444443,0)" xlink:href="#ab"/><use transform="matrix(0.010850694444444444,0,0,0.010850694444444444,37.38064236111111,0)" xlink:href="#ag"/><use transform="matrix(0.010850694444444444,0,0,0.010850694444444444,50.509982638888886,0)" xlink:href="#ae"/><use transform="matrix(0.010850694444444444,0,0,0.010850694444444444,62.98828125,0)" xlink:href="#ac"/><use transform="matrix(0.010850694444444444,0,0,0.010850694444444444,71.70138888888889,0)" xlink:href="#Z"/><use transform="matrix(0.010850694444444444,0,0,0.010850694444444444,77.08333333333333,0)" xlink:href="#af"/></g><path fill="#fff" d="M749-1490V0H444v-1221h-10L93-980v-279l329-231h327" id="aB"/><use transform="matrix(0.010850694444444444,0,0,0.010850694444444444,0,0)" xlink:href="#aB" id="S"/><path fill="#fff" d="M124 0v-220l528-495c135-132 210-216 210-336 0-133-98-215-231-215-139 0-229 88-229 233H110c0-290 214-477 523-477 315 0 525 182 525 440 0 167-80 305-385 586L548-262v11h630V0H124" id="aC"/><use transform="matrix(0.010850694444444444,0,0,0.010850694444444444,0,0)" xlink:href="#aC" id="T"/><path fill="#fff" d="M659 20C335 20 103-159 99-418h307c5 112 113 185 254 185 147 0 250-83 250-204 0-123-105-209-278-209H494v-227h138c145 0 246-81 246-200 0-115-87-193-216-193-130 0-237 73-240 189H128c4-255 233-433 536-433 306 0 510 185 510 418 0 167-114 285-279 317v11c217 29 333 162 333 347 0 254-237 437-569 437" id="aD"/><use transform="matrix(0.010850694444444444,0,0,0.010850694444444444,0,0)" xlink:href="#aD" id="U"/></defs></g></svg>