<svg xmlns="http://www.w3.org/2000/svg" xmlns:xlink="http://www.w3.org/1999/xlink" xmlns:lucid="lucid" width="2420.78" height="1689.41"><g transform="translate(172.71801183364198 -38.20386577944737)" lucid:page-tab-id="0_0"><path d="M-500 0h3000v2000H-500z" fill="#fff"/><path d="M184.72 45.7a6 6 0 0 1 6-6h2049.84a6 6 0 0 1 6 6v1674.4a6 6 0 0 1-6 6.02H190.72a6 6 0 0 1-6-6z" stroke="#242f3e" stroke-width="3" fill="#fff" fill-opacity="0"/><path d="M184.72 39.7h56v56h-56v-56z" stroke="#fff" stroke-opacity="0" fill="#242f3e"/><path d="M202.94 65.58c-.04.47.04.87.16 1.33.13.4.3.7.5 1.08.04.1.08.2.08.34 0 .2-.12.35-.3.45l-.93.6c-.13.1-.25.14-.37.14-.17 0-.33-.06-.45-.2-.2-.2-.37-.42-.54-.7-.17-.24-.3-.52-.46-.86-1.1 1.38-2.63 2.1-4.4 2.07-1.14.06-2.13-.3-2.95-1.08-.8-.78-1.16-1.75-1.12-2.85-.04-1.22.4-2.28 1.36-3.08 1.06-.85 2.3-1.23 3.65-1.16.57 0 1.02.03 1.6.1.57.1 1.1.2 1.72.34v-1.1c.08-.9-.17-1.67-.7-2.38-.74-.56-1.56-.78-2.46-.7v.02c-.54 0-1.03.05-1.6.18-.58.14-1.03.3-1.6.52l-.5.2h-.25c-.2 0-.3-.17-.3-.47v-.74c0-.18.03-.33.1-.5.13-.16.26-.25.42-.32.66-.3 1.2-.5 1.9-.68.77-.2 1.47-.3 2.3-.28 1.47-.13 2.78.27 3.9 1.2.93 1.05 1.34 2.3 1.22 3.68zm-6.08 2.27c.58 0 1.07-.08 1.6-.28.58-.2 1.03-.5 1.44-.95.25-.3.4-.58.5-.95.12-.45.16-.84.16-1.3v-.66c-.53-.1-.94-.16-1.44-.2h-1.4c-.8-.08-1.55.12-2.2.58-.55.45-.8 1.05-.75 1.73-.04.62.12 1.17.53 1.62.45.36 1 .5 1.56.43zm12 1.6c-.2.02-.42-.02-.58-.15-.16-.17-.25-.35-.33-.6l-3.5-11.5-.1-.62c0-.24.1-.37.36-.37h1.5c.2 0 .36.04.56.15.16.2.25.37.3.6l2.5 9.96 2.37-9.93c0-.24.1-.43.3-.6.16-.1.36-.16.57-.14h1.2c.23-.02.4.03.6.14.17.18.25.36.3.6l2.33 9.94 2.55-9.98c.04-.23.16-.42.32-.6.17-.1.38-.16.58-.13h1.4c.16-.03.32.1.37.28v.31s0 .2-.13.36l-3.6 11.52c-.05.23-.13.42-.3.6-.2.1-.37.15-.57.13h-1.28c-.24.04-.45-.02-.6-.14-.18-.17-.26-.37-.3-.6l-2.3-9.6-2.3 9.6c-.04.23-.12.43-.3.6-.2.12-.4.18-.6.15zm19.2.38c-.8 0-1.5-.07-2.3-.25-.64-.13-1.14-.3-1.7-.6-.22-.1-.38-.23-.46-.4-.1-.15-.13-.3-.13-.45v-.74c0-.32.13-.48.33-.48h.3l.36.16c.57.24 1.03.4 1.6.5.62.15 1.15.2 1.8.2.8.06 1.48-.1 2.18-.5.5-.3.78-.8.74-1.4.04-.4-.12-.75-.37-1.04-.44-.4-.93-.64-1.5-.78l-2.18-.7c-.95-.24-1.73-.72-2.38-1.5-.5-.64-.74-1.34-.74-2.17 0-.6.12-1.1.4-1.62.3-.5.62-.88 1.07-1.22.5-.38 1-.6 1.6-.77.66-.2 1.2-.28 1.9-.27.32-.02.6-.02.98 0l.98.16.83.23.65.25c.18.1.3.23.47.38.08.16.12.3.12.5v.7c0 .32-.13.47-.38.47-.2-.02-.37-.08-.58-.18-.94-.42-1.8-.6-2.87-.58-.7-.04-1.3.1-1.97.4-.5.3-.74.8-.7 1.36 0 .4.12.76.45 1.06.5.38 1 .63 1.6.8l2.1.68c.94.23 1.68.7 2.3 1.43.5.64.7 1.32.7 2.1 0 .64-.13 1.17-.37 1.73-.3.55-.62.96-1.1 1.32-.5.4-1 .66-1.6.85-.75.23-1.4.33-2.15.35zM230.82 77.2c-5.6 3.8-11.36 5.56-18.15 5.54-8.55.05-15.83-2.73-22.16-8.44-.48-.42 0-1 .5-.68 7.07 4.06 14.02 5.9 22.2 5.9 6.1-.04 11.3-1.1 16.93-3.46.82-.36 1.5.54.7 1.13z" stroke="#fff" stroke-opacity="0" fill="#fff"/><path d="M232.88 74.9c-.64-.8-4.16-.38-5.75-.2-.47 0-.54-.36-.1-.66 2.8-1.97 7.4-1.4 8-.74.58.67-.16 5.3-2.8 7.5-.4.33-.77.14-.6-.3.55-1.52 1.87-4.83 1.25-5.6z" stroke="#fff" stroke-opacity="0" fill="#fff"/><use xlink:href="#a" transform="matrix(1,0,0,1,255.71698793048157,59.70386577944737) translate(0 16.216875)"/><use xlink:href="#b" transform="matrix(1,0,0,1,255.71698793048157,59.70386577944737) translate(42.544775390625006 16.216875)"/><path d="M1518.63 403.96a6 6 0 0 1 6-6h373.34a6 6 0 0 1 6 6v466.67a6 6 0 0 1-6 6h-373.34a6 6 0 0 1-6-6z" fill="#fff" fill-opacity="0"/><path d="M1542.13 397.96h11.67m11.67 0h11.66m11.67 0h11.67m11.66 0h11.67m11.67 0h11.66m11.67 0h11.67m11.66 0h11.67m11.67 0h11.66m11.67 0h11.67m11.66 0h11.67m11.67 0h11.66m11.67 0h11.67m11.66 0h11.67m11.67 0h11.66m11.67 0h11.67m11.66 0h5.84l.94.08.92.2.87.38.8.5.7.6.62.7.5.82.35.87.22.92.07.94v6.14m0 12.28v12.28m0 12.28v12.28m0 12.28v12.3m0 12.27v12.28m0 12.28v12.28m0 12.3v12.27m0 12.28v12.28m0 12.28v12.3m0 12.27v12.28m0 12.28v12.3m0 12.27v12.28m0 12.28v12.28m0 12.28v12.28m0 12.28v12.28m0 12.28v12.28m0 12.28v12.28m0 12.28v12.3m0 12.27v12.28m0 12.3v6.13l-.08.94-.23.9-.36.88-.48.8-.6.72-.73.6-.8.5-.88.36-.9.22-.95.08h-5.84m-11.66 0h-11.67m-11.66 0h-11.67m-11.67 0h-11.66m-11.67 0h-11.67m-11.66 0h-11.67m-11.67 0h-11.66m-11.67 0h-11.67m-11.66 0h-11.67m-11.67 0h-11.66m-11.67 0h-11.67m-11.66 0h-11.67m-11.67 0h-11.66m-11.67 0h-11.67m-11.66 0h-11.67m-11.67 0h-11.66m-11.67 0h-5.84l-.93-.08-.92-.22-.87-.36-.8-.5-.7-.6-.62-.72-.5-.8-.35-.87-.22-.9-.07-.95v-6.14m0-12.3v-12.27m0-12.28v-12.28m0-12.3V790.8m0-12.28v-12.28m0-12.28v-12.28m0-12.28v-12.28m0-12.28v-12.28m0-12.28V668m0-12.28v-12.3m0-12.27v-12.28m0-12.28v-12.3m0-12.27v-12.28m0-12.28V545.2m0-12.3v-12.27m0-12.28v-12.28m0-12.28v-12.3m0-12.28v-12.28m0-12.28v-12.28m0-12.28v-6.14l.08-.94.23-.9.36-.88.48-.8.6-.72.73-.6.8-.5.88-.37.92-.2.93-.1h5.84" stroke="#ed7100" stroke-width="3" fill="none"/><path d="M1683.3 397.96h56v56h-56v-56z" stroke="#fff" stroke-opacity="0" fill="#ed7100"/><path d="M1702.98 421.7l-1.13 1.13 2.33 2.33h-12.88v1.6h12.88l-2.33 2.34 1.13 1.13 4.27-4.27-4.27-4.27zM1731.3 425.16h-12.87l2.33-2.33-1.13-1.14-4.28 4.26 4.28 4.27 1.13-1.13-2.33-2.34h12.87v-1.6zM1710.5 408.6v12.86h1.6V408.6l2.34 2.32 1.13-1.13-4.27-4.3-4.27 4.3 1.14 1.12 2.33-2.33zM1712.1 443.33v-12.87h-1.6v12.87l-2.33-2.33-1.14 1.13 4.27 4.28 4.27-4.27-1.13-1.13-2.34 2.33z" stroke="#fff" stroke-opacity="0" fill="#fff"/><use xlink:href="#c" transform="matrix(1,0,0,1,1518.6347399785918,468.9613038331349) translate(152.433291015625 16.216875)"/><use xlink:href="#d" transform="matrix(1,0,0,1,1518.6347399785918,468.9613038331349) translate(191.79027343750002 16.216875)"/><path d="M900.52 1087.52a6 6 0 0 1 6-6h449.34a6 6 0 0 1 6 6v469.33a6 6 0 0 1-6 6H906.52a6 6 0 0 1-6-6z" fill="#fff" fill-opacity="0"/><path d="M924.26 1081.52h11.83m11.8 0h11.83m11.83 0h11.82m11.83 0h11.83m11.83 0h11.82m11.83 0h11.83m11.83 0h11.82m11.82 0h11.83m11.82 0h11.83m11.82 0h11.83m11.82 0h11.83m11.82 0h11.82m11.83 0h11.83m11.82 0h11.82m11.83 0h11.82m11.83 0h11.82m11.83 0h11.82m11.83 0h11.82m11.83 0h5.9l.95.07.9.2.88.37.8.5.72.6.6.72.5.8.36.86.22.92.08.94v5.86m0 11.74v11.73m0 11.73v11.74m0 11.73v11.73m0 11.74v11.73m0 11.73v11.74m0 11.73v11.73m0 11.74v11.73m0 11.73v11.74m0 11.73v11.73m0 11.74v11.73m0 11.73v11.74m0 11.73v11.73m0 11.74v11.73m0 11.73v11.74m0 11.73v11.73m0 11.74v11.73m0 11.73v11.74m0 11.73v11.73m0 11.74v11.73m0 11.73v5.87l-.08.94-.22.9-.36.87-.5.8-.6.72-.72.6-.8.5-.87.36-.9.22-.94.07h-5.9m-11.84 0h-11.82m-11.83 0h-11.82m-11.83 0H1279m-11.83 0h-11.82m-11.83 0h-11.82m-11.83 0h-11.82m-11.83 0h-11.82m-11.82 0h-11.83m-11.82 0h-11.83m-11.82 0h-11.83m-11.82 0h-11.83m-11.82 0h-11.83m-11.82 0h-11.82m-11.82 0h-11.82m-11.83 0H995.2m-11.82 0h-11.82m-11.83 0H947.9m-11.8 0h-11.84m-11.82 0h-5.92l-.93-.07-.93-.22-.87-.36-.8-.5-.72-.6-.6-.72-.5-.8-.36-.88-.22-.9-.08-.95v-5.87m0-11.73v-11.73m0-11.74v-11.73m0-11.73v-11.74m0-11.73v-11.73m0-11.74v-11.73m0-11.73v-11.74m0-11.73v-11.73m0-11.74v-11.73m0-11.73v-11.74m0-11.73v-11.73m0-11.74v-11.73m0-11.73v-11.74m0-11.73v-11.73m0-11.74v-11.73m0-11.73v-11.74m0-11.73v-11.73m0-11.74v-11.73m0-11.73v-11.74m0-11.73v-11.73m0-11.74v-5.86l.08-.94.22-.92.36-.87.5-.8.6-.72.72-.62.8-.5.87-.35.92-.2.92-.08h5.92" stroke="#7d8998" stroke-width="3" fill="none"/><path d="M1411.2 1087.52a6 6 0 0 1 6-6h449.32a6 6 0 0 1 6 6v469.33a6 6 0 0 1-6 6H1417.2a6 6 0 0 1-6-6z" fill="#fff" fill-opacity="0"/><path d="M1434.93 1081.52h11.82m11.83 0h11.82m11.82 0h11.83m11.83 0h11.82m11.82 0h11.83m11.82 0H1565m11.82 0h11.83m11.82 0h11.83m11.82 0h11.83m11.82 0h11.82m11.82 0h11.82m11.83 0h11.82m11.82 0h11.82m11.83 0h11.82m11.82 0h11.82m11.82 0h11.83m11.8 0h11.84m11.82 0h11.83m11.8 0h5.92l.94.07.92.2.87.37.8.5.72.6.6.72.5.8.36.86.22.92.07.94v5.86m0 11.74v11.73m0 11.73v11.74m0 11.73v11.73m0 11.74v11.73m0 11.73v11.74m0 11.73v11.73m0 11.74v11.73m0 11.73v11.74m0 11.73v11.73m0 11.74v11.73m0 11.73v11.74m0 11.73v11.73m0 11.74v11.73m0 11.73v11.74m0 11.73v11.73m0 11.74v11.73m0 11.73v11.74m0 11.73v11.73m0 11.74v11.73m0 11.73v5.87l-.07.94-.22.9-.36.87-.5.8-.6.72-.72.6-.8.5-.87.36-.92.22-.94.07h-5.9m-11.83 0h-11.84m-11.82 0h-11.83m-11.8 0h-11.84m-11.82 0h-11.82m-11.83 0h-11.83m-11.83 0h-11.82m-11.83 0h-11.83m-11.83 0h-11.82m-11.83 0h-11.83m-11.83 0h-11.82m-11.82 0h-11.83m-11.82 0h-11.83m-11.82 0h-11.83m-11.82 0h-11.83m-11.82 0h-11.83m-11.82 0h-11.83m-11.82 0h-11.82m-11.83 0h-11.82m-11.83 0h-5.9l-.95-.07-.9-.22-.88-.36-.8-.5-.72-.6-.6-.72-.5-.8-.37-.88-.22-.9-.07-.95v-5.87m0-11.73v-11.73m0-11.74v-11.73m0-11.73v-11.74m0-11.73v-11.73m0-11.74v-11.73m0-11.73v-11.74m0-11.73v-11.73m0-11.74v-11.73m0-11.73v-11.74m0-11.73v-11.73m0-11.74v-11.73m0-11.73v-11.74m0-11.73v-11.73m0-11.74v-11.73m0-11.73v-11.74m0-11.73v-11.73m0-11.74v-11.73m0-11.73v-11.74m0-11.73v-11.73m0-11.74v-5.86l.06-.94.22-.92.36-.87.5-.8.6-.72.72-.62.8-.5.88-.35.9-.2.95-.08h5.9" stroke="#7d8998" stroke-width="3" fill="none"/><path d="M1377.6 569.35v-6.48h6.47v6.48h-6.48zm-18.85 0v-6.48h6.36v6.48h-6.35zm-21.48 0v-6.48h6.48v6.48h-6.48zm-18.96 0v-6.48h6.25v6.48h-6.24zm16.57-47.76v-15.97h32.64v15.96h-32.63zm51.84 35.75h-4.2v-9.12c0-1.56-1.2-2.76-2.63-2.76h-6.84v-9.24c0-1.44-1.2-2.64-2.76-2.64h-16.32v-6.5h16.32c1.56 0 2.76-1.3 2.76-2.75v-21.48c0-1.56-1.2-2.76-2.76-2.76h-38.16c-1.55 0-2.75 1.2-2.75 2.77v21.48c0 1.44 1.2 2.76 2.76 2.76h16.33v6.5h-16.32c-1.55 0-2.75 1.2-2.75 2.63v9.24h-6.84c-1.43 0-2.63 1.2-2.63 2.76v9.12h-4.2c-1.56 0-2.76 1.32-2.76 2.76v12c0 1.45 1.2 2.65 2.77 2.65h11.64c1.57 0 2.77-1.2 2.77-2.64v-12c0-1.43-1.2-2.75-2.76-2.75h-2.03v-6.48h11.28v6.48h-2.04c-1.55 0-2.75 1.32-2.75 2.76v12c0 1.45 1.2 2.65 2.76 2.65h11.9c1.55 0 2.75-1.2 2.75-2.64v-12c0-1.43-1.2-2.75-2.76-2.75h-4.45v-9.12c0-1.56-1.2-2.76-2.64-2.76h-4.43V539h32.64v6.47h-4.43c-1.44 0-2.64 1.2-2.64 2.76v9.12H1356c-1.57 0-2.77 1.32-2.77 2.76v12c0 1.45 1.2 2.65 2.76 2.65h11.87c1.56 0 2.76-1.2 2.76-2.64v-12c0-1.43-1.2-2.75-2.76-2.75h-2.04v-6.48h11.28v6.48h-2.27c-1.44 0-2.64 1.32-2.64 2.76v12c0 1.45 1.2 2.65 2.63 2.65h11.88c1.57 0 2.77-1.2 2.77-2.64v-12c0-1.43-1.2-2.75-2.76-2.75zm-35.5 38.28c-30.13 0-54.6-24.48-54.6-54.6s24.47-54.6 54.6-54.6c30.1 0 54.6 24.48 54.6 54.6s-24.5 54.6-54.6 54.6zm0-114.6c-33.13 0-60 26.88-60 60 0 33.12 26.87 60 60 60 33.1 0 60-26.88 60-60 0-33.12-26.9-60-60-60z" stroke="#000" stroke-opacity="0" fill="#8c4fff"/><use xlink:href="#e" transform="matrix(1,0,0,1,1261.1903441160357,610.0335054392847) translate(23.6162548828125 16.216875)"/><use xlink:href="#f" transform="matrix(1,0,0,1,1261.1903441160357,610.0335054392847) translate(117.0676318359375 16.216875)"/><use xlink:href="#g" transform="matrix(1,0,0,1,1261.1903441160357,610.0335054392847) translate(55.3388818359375 36.47162109375)"/><path d="M1818.38 378.1l-6.4 3.2v90.63l6.4 3.2 25.32-46.66-25.32-50.36zM1837.94 394.46l9.43-13.4 42.4 18.85-9.9 1.58-41.93-7.02zM1830.6 459.74l10.4 14.32L1889.8 453l-9.4-1.45-49.8 8.2z" fill="#9d5025"/><path d="M1833.35 471.64l-14.96 3.5V378.1l14.95 3.4v90.14z" fill="#f58536"/><path d="M1825.48 374.55l7.87-3.92 14.82 62.27-14.82 49.73-7.87-3.92V374.56zM1879.83 451.45l9.95 1.54 9.1-25.38-9.1-27.7-9.95 1.6v49.93z" fill="#9d5025"/><path d="M1848.66 478.26l-15.3 4.37v-112l15.3 4.37v103.26z" fill="#f58536"/><path d="M1900.22 451.04l-66.87 12.44v19.14l66.87-18.88v-12.7zM1900.34 401.9l-67-12.72v-18.55l67 19v12.28z" fill="#f58536"/><path d="M1889.8 386.63l10.73 2.96v74.12l-10.74 2.96v-80.05z" fill="#f58536"/><path d="M1931.96 416.83l-28.77 1.35-10.17-.7 29.08-23.42 9.86 22.77z" fill="#6b3a19"/><path d="M1893.03 417.5l29.07-1.65v-21.8l-29.07 4.72v18.72z" fill="#9d5025"/><path d="M1865.67 415.64l29.47-29.68 14.98 28.7-30.54 1.93-13.9-.96z" fill="#6b3a19"/><path d="M1865.67 415.66l29.46-2.5v-27.2l-29.46 6.9v22.8zM1893.03 436.14l38.93.68-9.85 22.75-29.07-4.7v-18.73z" fill="#9d5025"/><path d="M1865.67 437.97l44.45 1-14.98 28.7-29.47-6.88v-22.83z" fill="#9d5025"/><path d="M1865.67 437.96l29.47 2.52 14.98-1.5-30.54-1.95-13.9.93zM1931.96 436.8l-28.77-1.34-10.17.68 29.08 1.65 9.86-1z" fill="#fbbf93"/><path d="M1922.12 415.84l9.84.98V397l-9.84-2.94v21.78zM1910.1 414.65l-14.97-1.5v-27.2l14.97 4.52v24.18zM1922.12 437.8l9.84-1v19.83l-9.84 2.94V437.8zM1910.1 439l-14.97 1.48v27.2l14.97-4.5V439z" fill="#f58536"/><use xlink:href="#h" transform="matrix(1,0,0,1,1811.9680733119646,482.6279704998017) translate(17.161458333333343 21.52777777777778)"/><use xlink:href="#i" transform="matrix(1,0,0,1,1811.9680733119646,482.6279704998017) translate(38.076171875 48.415798611111114)"/><path d="M1553.3 545.38h120v61.4h-120v-61.4z" fill="#9d5025"/><path d="M1553.3 539.8h120v61.4h-120v-61.4z" fill="#f58536"/><path d="M1579.22 543.47h5.65v54.08h-5.65v-54.08zM1589.64 543.47h5.65v54.08h-5.66v-54.08zM1600.05 543.47h5.65v54.08h-5.65v-54.08zM1558.4 543.47h5.64v54.08h-5.65v-54.08zM1568.8 543.47h5.66v54.08h-5.65v-54.08zM1610.47 543.47h5.65v54.08h-5.65v-54.08zM1620.88 543.47h5.66v54.08h-5.67v-54.08zM1631.3 543.47h5.65v54.08h-5.65v-54.08zM1641.7 543.47h5.66v54.08h-5.65v-54.08zM1652.12 543.47h5.65v54.08h-5.65v-54.08zM1662.54 543.47h5.65v54.08h-5.66v-54.08z" fill="#fbbf93"/><path d="M1559.87 544.93h4.18v52.62h-4.18v-52.62zM1570.28 544.93h4.2v52.62h-4.2v-52.62zM1580.7 544.93h4.18v52.62h-4.18v-52.62zM1591.1 544.93h4.2v52.62h-4.2v-52.62zM1601.52 544.93h4.18v52.62h-4.18v-52.62zM1611.93 544.93h4.2v52.62h-4.2v-52.62zM1622.35 544.93h4.2v52.62h-4.2v-52.62zM1632.77 544.93h4.18v52.62h-4.18v-52.62zM1643.18 544.93h4.2v52.62h-4.2v-52.62zM1653.6 544.93h4.2v52.62h-4.2v-52.62zM1664 544.93h4.2v52.62h-4.2v-52.62z" fill="#fff"/><use xlink:href="#j" transform="matrix(1,0,0,1,1553.3014066452588,606.7946371664682) translate(19.01692708333333 21.52777777777778)"/><path d="M1722.63 545.38h120v61.4h-120v-61.4z" fill="#9d5025"/><path d="M1722.63 539.8h120v61.4h-120v-61.4z" fill="#f58536"/><path d="M1748.56 543.47h5.65v54.08h-5.64v-54.08zM1758.97 543.47h5.65v54.08h-5.65v-54.08zM1769.4 543.47h5.64v54.08h-5.65v-54.08zM1727.72 543.47h5.65v54.08h-5.65v-54.08zM1738.14 543.47h5.65v54.08h-5.66v-54.08zM1779.8 543.47h5.65v54.08h-5.65v-54.08zM1790.22 543.47h5.65v54.08h-5.65v-54.08zM1800.63 543.47h5.66v54.08h-5.66v-54.08zM1811.04 543.47h5.65v54.08h-5.66v-54.08zM1821.45 543.47h5.66v54.08h-5.64v-54.08zM1831.87 543.47h5.65v54.08h-5.65v-54.08z" fill="#fbbf93"/><path d="M1729.2 544.93h4.2v52.62h-4.2v-52.62zM1739.62 544.93h4.18v52.62h-4.18v-52.62zM1750.03 544.93h4.2v52.62h-4.2v-52.62zM1760.43 544.93h4.2v52.62h-4.2v-52.62zM1770.85 544.93h4.2v52.62h-4.2v-52.62zM1781.27 544.93h4.18v52.62h-4.18v-52.62zM1791.68 544.93h4.2v52.62h-4.2v-52.62zM1802.1 544.93h4.2v52.62h-4.2v-52.62zM1812.52 544.93h4.18v52.62h-4.18v-52.62zM1822.93 544.93h4.2v52.62h-4.2v-52.62zM1833.35 544.93h4.2v52.62h-4.2v-52.62z" fill="#fff"/><use xlink:href="#k" transform="matrix(1,0,0,1,1722.6347399785923,606.7946371664682) translate(19.01692708333333 21.52777777777778)"/><path d="M1553.3 692.55h120v61.4h-120v-61.4z" fill="#9d5025"/><path d="M1553.3 686.96h120v61.4h-120v-61.4z" fill="#f58536"/><path d="M1579.22 690.63h5.65v54.1h-5.65v-54.1zM1589.64 690.63h5.65v54.1h-5.66v-54.1zM1600.05 690.63h5.65v54.1h-5.65v-54.1zM1558.4 690.63h5.64v54.1h-5.65v-54.1zM1568.8 690.63h5.66v54.1h-5.65v-54.1zM1610.47 690.63h5.65v54.1h-5.65v-54.1zM1620.88 690.63h5.66v54.1h-5.67v-54.1zM1631.3 690.63h5.65v54.1h-5.65v-54.1zM1641.7 690.63h5.66v54.1h-5.65v-54.1zM1652.12 690.63h5.65v54.1h-5.65v-54.1zM1662.54 690.63h5.65v54.1h-5.66v-54.1z" fill="#fbbf93"/><path d="M1559.87 692.1h4.18v52.62h-4.18V692.1zM1570.28 692.1h4.2v52.62h-4.2V692.1zM1580.7 692.1h4.18v52.62h-4.18V692.1zM1591.1 692.1h4.2v52.62h-4.2V692.1zM1601.52 692.1h4.18v52.62h-4.18V692.1zM1611.93 692.1h4.2v52.62h-4.2V692.1zM1622.35 692.1h4.2v52.62h-4.2V692.1zM1632.77 692.1h4.18v52.62h-4.18V692.1zM1643.18 692.1h4.2v52.62h-4.2V692.1zM1653.6 692.1h4.2v52.62h-4.2V692.1zM1664 692.1h4.2v52.62h-4.2V692.1z" fill="#fff"/><use xlink:href="#k" transform="matrix(1,0,0,1,1553.3014066452588,753.9613038331738) translate(19.01692708333333 21.52777777777778)"/><path d="M1722.63 692.55h120v61.4h-120v-61.4z" fill="#9d5025"/><path d="M1722.63 686.96h120v61.4h-120v-61.4z" fill="#f58536"/><path d="M1748.56 690.63h5.65v54.1h-5.64v-54.1zM1758.97 690.63h5.65v54.1h-5.65v-54.1zM1769.4 690.63h5.64v54.1h-5.65v-54.1zM1727.72 690.63h5.65v54.1h-5.65v-54.1zM1738.14 690.63h5.65v54.1h-5.66v-54.1zM1779.8 690.63h5.65v54.1h-5.65v-54.1zM1790.22 690.63h5.65v54.1h-5.65v-54.1zM1800.63 690.63h5.66v54.1h-5.66v-54.1zM1811.04 690.63h5.65v54.1h-5.66v-54.1zM1821.45 690.63h5.66v54.1h-5.64v-54.1zM1831.87 690.63h5.65v54.1h-5.65v-54.1z" fill="#fbbf93"/><path d="M1729.2 692.1h4.2v52.62h-4.2V692.1zM1739.62 692.1h4.18v52.62h-4.18V692.1zM1750.03 692.1h4.2v52.62h-4.2V692.1zM1760.43 692.1h4.2v52.62h-4.2V692.1zM1770.85 692.1h4.2v52.62h-4.2V692.1zM1781.27 692.1h4.18v52.62h-4.18V692.1zM1791.68 692.1h4.2v52.62h-4.2V692.1zM1802.1 692.1h4.2v52.62h-4.2V692.1zM1812.52 692.1h4.18v52.62h-4.18V692.1zM1822.93 692.1h4.2v52.62h-4.2V692.1zM1833.35 692.1h4.2v52.62h-4.2V692.1z" fill="#fff"/><use xlink:href="#k" transform="matrix(1,0,0,1,1722.6347399785923,753.9613038331738) translate(19.01692708333333 21.52777777777778)"/><path d="M2125.33 780.68l.58-4.44c4.88 2.88 6.4 4.56 6.86 5.28-1.28.48-3.95.12-7.43-.84zm-48.6-16.44c0-.12.1-.24.34-.24l-.1.48c-.13-.12-.24-.12-.24-.24zm37.58 56.4v.36c0 .36-1.03 1.92-5.67 3.72-1.97.84-4.4 1.56-7.2 2.16-7.07 1.68-15.77 2.52-24.36 2.52-23.3 0-37.35-5.88-37.35-8.4v-.36L2029.17 743c.7.36 1.4.72 2.2 1.08.12.12.35.24.58.24.7.36 1.4.6 2.1.96.34.12.57.24.92.36.8.24 1.5.6 2.43.84.12 0 .35.12.58.24 1.05.24 2.2.6 3.25.84.35.12.58.24.93.24.93.24 1.74.48 2.67.72.35 0 .8.12 1.16.24 1.03.12 2.07.36 3.12.6.23 0 .35 0 .58.12 1.28.12 2.55.36 3.83.6.34 0 .8 0 1.16.12.9.12 1.96.24 3 .36.35 0 .82.12 1.16.12l3.7.36h.48l4.18.36h1.16c1.04.12 2.08.12 3.24.12.35 0 .82.12 1.16.12H2081.25c.35 0 .8-.12 1.16-.12 1.17 0 2.2 0 3.26-.12h1.16l4.17-.36h.46l3.7-.36c.36 0 .82-.12 1.17-.12l3.13-.36c.35-.12.7-.12 1.05-.12 1.28-.24 2.56-.48 3.84-.6.23-.12.34-.12.57-.12l3.15-.72c.46 0 .8-.12 1.16-.12.94-.24 1.86-.48 2.68-.72.34 0 .57-.12.92-.24 1.05-.24 2.2-.6 3.25-.84.23-.12.35-.24.58-.24.93-.24 1.74-.6 2.44-.84.34-.12.58-.24.92-.36.7-.36 1.5-.6 2.08-.96.24 0 .47-.12.58-.24.82-.36 1.5-.72 2.2-1.08l-4.87 36.12c-9.98-3.12-24.02-8.88-37.24-15.12-.12-3-2.67-5.52-5.7-5.52-3.23 0-5.78 2.64-5.78 5.76 0 3.12 2.55 5.76 5.8 5.76 1.16 0 2.32-.48 3.24-1.08 11.95 5.64 27.03 12.36 38.86 15.72l-4.87 36zm-37.23-100.2c28.54 0 48.6 8.76 49.07 13.56l-.1.6c-.13.24-.13.36-.24.48-.12.24-.12.36-.24.48-.1.12-.34.36-.46.48s-.23.36-.46.48c-.12.12-.47.36-.7.48-.12.24-.35.36-.58.48-.23.24-.58.36-.8.6-.24.12-.48.24-.82.36-.35.24-.7.36-1.05.6-.36.12-.6.24-.94.36-.46.24-.8.36-1.27.6-.36.12-.7.24-1.17.36-.47.24-.93.36-1.4.48-.46.24-.8.36-1.27.48-.46.12-1.05.36-1.63.48-.46.12-.92.24-1.4.48l-1.73.36-1.62.36c-.58.24-1.28.36-1.86.48-.58.12-1.16.24-1.85.36-.58.12-1.4.24-2.1.36-.57.12-1.15.24-1.85.24l-2.2.36c-.7.12-1.28.24-1.97.24-.8.12-1.63.24-2.44.24-.68.12-1.38.24-2.08.24-.93.12-1.85.12-2.78.24-.58 0-1.28.12-1.97.12-1.05.12-2.1.12-3.14.12-.7 0-1.16.12-1.85.12-1.63 0-3.36.12-5.1.12-1.86 0-3.6-.12-5.22-.12-.6 0-1.16-.12-1.75-.12-1.14 0-2.2 0-3.23-.12-.7 0-1.28-.12-1.97-.12-.93-.12-1.86-.12-2.8-.24-.68 0-1.26-.12-1.96-.24-.8 0-1.74-.12-2.55-.24-.6 0-1.17-.12-1.87-.24-.8-.12-1.62-.24-2.32-.36-.68 0-1.15-.12-1.73-.24-.8-.12-1.5-.24-2.2-.36l-1.74-.36c-.7-.12-1.28-.24-1.97-.48-.47-.12-1.05-.24-1.5-.36-.6-.12-1.3-.24-1.87-.36-.47-.24-.94-.36-1.4-.48-.58-.12-1.05-.24-1.63-.48-.46-.12-.8-.24-1.27-.36-.46-.24-.93-.36-1.4-.6-.46-.12-.8-.24-1.15-.36-.35-.24-.82-.36-1.28-.6-.35-.12-.58-.24-.93-.36-.35-.24-.7-.36-1.04-.6-.23-.12-.46-.24-.8-.36-.24-.24-.6-.36-.83-.6-.23-.12-.46-.24-.58-.48-.24-.12-.47-.36-.7-.48-.23-.12-.35-.36-.47-.48-.1-.12-.34-.36-.46-.48s-.12-.24-.23-.48c0-.12-.12-.24-.23-.48v-.6c.36-4.8 20.42-13.56 49.07-13.56zm61.25 60.6c-.58-3.24-4.17-6.48-11.6-10.68l4.76-34.8.1-.96v-.36c0-11.4-28.75-19.32-54.5-19.32-25.87 0-54.64 7.92-54.64 19.32v.36l.12.96 11.6 85.56c.46 10.08 26.44 13.8 42.9 13.8 9.06 0 18.1-.96 25.65-2.64 3.03-.72 5.7-1.56 8.02-2.4 5.9-2.4 9.04-5.28 9.16-8.76l4.76-35.16c2.55.6 4.98.84 6.95.84 2.66 0 4.64-.48 5.68-1.8.93-1.08 1.4-2.52 1.04-3.96zm-89.32.72l7.2-11.88 7.2 11.88H2049zm21.58 4.08c.46-.84.46-1.92 0-2.76l-12.07-19.92c-.9-1.68-3.7-1.68-4.74 0l-11.95 19.92c-.45.84-.57 1.92 0 2.76.48.84 1.4 1.32 2.33 1.32h24c1.06 0 1.98-.48 2.45-1.32zm25.3 3.72c4.4 0 8 3.6 8 8.04 0 4.44-3.6 8.16-8 8.16-4.54 0-8.13-3.72-8.13-8.16 0-4.44 3.6-8.04 8.12-8.04zm0 21.6c7.4 0 13.56-6 13.56-13.56 0-7.44-6.15-13.44-13.57-13.44-7.54 0-13.57 6-13.57 13.44 0 7.56 6.03 13.56 13.57 13.56zm-41.54 3.96v-13.56h13.57v13.56h-13.56zm16.24-19.08h-18.9c-1.52 0-2.8 1.2-2.8 2.76v19.08c0 1.56 1.28 2.76 2.8 2.76h18.9c1.62 0 2.78-1.2 2.78-2.76V798.8c0-1.56-1.16-2.76-2.78-2.76z" stroke="#000" stroke-opacity="0" fill="#7aa116"/><use xlink:href="#l" transform="matrix(1,0,0,1,1992.4389954865846,843.9165657409249) translate(39.847978515625 16.216875)"/><use xlink:href="#m" transform="matrix(1,0,0,1,1992.4389954865846,843.9165657409249) translate(70.45896484375001 16.216875)"/><use xlink:href="#n" transform="matrix(1,0,0,1,1992.4389954865846,843.9165657409249) translate(42.9785546875 36.47162109375)"/><path d="M2020.44 409.18h120v120h-120v-120z" stroke="#fff" stroke-opacity="0" stroke-width="2" fill="#3b48cc"/><path d="M2100.85 473.96l-10.6 10.55c2-.55 3.64-1.2 5.5-2.23 1.07.64 1.67 1.68 1.9 2.88 0 2.96-6.2 6.15-15.4 7.43-3.06.4-5.56.56-8.6.56h-1.6c-12.94-.24-22.4-4.3-22.4-8 .16-1.2.8-2.15 1.9-2.87 5 2.8 13.17 4.48 22.1 4.48h.15l.93-3.2h-1.1c-8.8 0-16.97-1.76-21.27-4.48-1.74-1.12-2.72-2.4-2.72-3.43v-7.44c4.9 3.76 14.64 5.68 24 5.68 1.25 0 2.5 0 3.76-.08l.92-3.2c-1.63.08-3.1.16-4.68.16-13.7 0-24-4.24-24-8 .17-1.27.82-2.23 1.9-2.87 4.4 2.47 11.22 4 18.9 4.4l.1-3.2c-7.57-.4-14.42-2-18.18-4.5-1.74-1.03-2.66-2.3-2.72-3.43v-7.35c4.9 3.76 14.64 5.68 24 5.68h.33l1.74-3.2h-2.06c-13.7 0-24-4.16-24-8 0-3.75 10.3-8 24-8 4.85 0 8.98.5 13.72 1.6h8.8c-4.83-2.95-13.1-4.8-22.52-4.8-13.17 0-27.2 3.93-27.2 11.2v12.87c.1 1.92.92 3.52 2.44 4.72-1.52 1.27-2.34 2.87-2.45 4.8v12.78c.1 2 .93 3.6 2.45 4.87-1.52 1.2-2.34 2.8-2.45 4.8V498.25c.44 7.04 14.2 10.8 27.2 10.8 13.02 0 26.8-3.76 27.22-10.87V485.06c-.05-1.9-.92-3.6-2.45-4.8 1.53-1.2 2.34-2.87 2.45-4.78zm-3.2 23.98c0 3.75-10.3 8-24 8-13.72 0-24-4.17-24-8v-7.36c4.9 3.68 14.63 5.68 24 5.68 9.35 0 19.1-2 24-5.68z" stroke="#fff" stroke-opacity="0" stroke-width="2" fill="#fff"/><path d="M2056.44 453.2c0 1.1-.9 2-2 2s-2-.9-2-2 .9-2 2-2 2 .9 2 2zM2056.44 475.6c0 1.1-.9 2-2 2s-2-.9-2-2 .9-2 2-2 2 .9 2 2zM2056.44 498c0 1.1-.9 2-2 2s-2-.9-2-2 .9-2 2-2 2 .9 2 2zM2077.63 491.55c-.3 0-.53-.06-.8-.22-.65-.38-.93-1.15-.73-1.85l8.98-29.95h-9.06c-.88.05-1.6-.65-1.6-1.58 0-.27.04-.55.2-.76l9.58-19.23c.28-.55.8-.88 1.45-.88h20.8c.9-.06 1.6.65 1.65 1.52.04.22 0 .38-.04.6l-4.13 12.25h8.98c.9.05 1.6.76 1.6 1.63 0 .44-.15.77-.43 1.1l-35.2 36.8c-.32.38-.72.55-1.24.55zm1-35.18h8.62c.52 0 .96.22 1.28.6.28.43.4.92.24 1.4l-7.7 25.6 28.03-29.23h-7.46c-.88 0-1.64-.66-1.68-1.53 0-.2 0-.42.08-.6l4.1-12.3h-17.6z" stroke="#fff" stroke-opacity="0" stroke-width="2" fill="#fff"/><use xlink:href="#o" transform="matrix(1,0,0,1,1990.4389954865846,538.176854665471) translate(28.04796006944445 21.52777777777778)"/><use xlink:href="#p" transform="matrix(1,0,0,1,1990.4389954865846,538.176854665471) translate(40.58593750000001 48.415798611111114)"/><path d="M636.4 1227.62h120v120h-120v-120z" stroke="#000" stroke-opacity="0" fill="#c925d1"/><path d="M707.72 1290.9v20.82h3.05v2.97H683.7v-2.98h3.05v-10.37h2.97v10.37h6.03v-14.82h2.97v14.82h6.03v-20.82h2.97zm12.05 11.15c0-11.85-9.82-21.53-21.8-21.53-11.96 0-21.8 9.68-21.8 21.53 0 11.94 9.84 21.6 21.8 21.6 11.98 0 21.8-9.66 21.8-21.6zm2.98 0c0 13.57-11.07 24.57-24.77 24.57-13.63 0-24.77-11-24.77-24.57 0-13.5 11.15-24.5 24.78-24.5 13.7 0 24.76 11 24.76 24.5zm15.76-16.38c0 8.5-4.7 14.04-12.87 15.13l-.4-2.96c4.7-.62 10.3-3.28 10.3-12.17 0-8.34-6.43-11.4-11.7-12.4-.67-.16-1.17-.7-1.25-1.4-.33-6.1-3.96-8.82-7.43-8.82-2.15 0-4.13.94-5.45 2.73-.33.47-.9.63-1.5.55-.48-.08-.98-.4-1.14-.94-1.24-3.28-2.97-6.1-5.2-8.2-5.78-5.54-13.63-7.1-21.06-4.05-6.2 2.5-11.06 9.75-11.06 16.45 0 .78.08 1.5.17 2.27.1.7-.4 1.4-1.15 1.63-3.63.86-9.82 3.67-9.82 12.1 0 .3.08.54.08.85.26 4.92 4.55 9.52 10.4 11.08l-.73 2.8c-7.1-1.87-12.3-7.48-12.72-13.72v-1c0-9.76 6.86-13.42 10.82-14.67v-1.33c0-7.95 5.53-16.22 12.88-19.18 8.6-3.5 17.67-1.8 24.27 4.68 2.07 1.87 3.72 4.36 5.04 7.1 1.73-1.4 3.96-2.2 6.2-2.2 4.6 0 9.48 3.3 10.3 10.54 8.43 2.03 13.05 7.4 13.05 15.13z" stroke="#000" stroke-opacity="0" fill="#fff"/><use xlink:href="#a" transform="matrix(1,0,0,1,606.3942689504274,1356.6223803626697) translate(44.82733886718749 16.589501953125)"/><use xlink:href="#q" transform="matrix(1,0,0,1,606.3942689504274,1356.6223803626697) translate(87.3721142578125 16.589501953125)"/><path d="M916.52 1093.52h64v64h-64v-64z" stroke="#fff" stroke-opacity="0" fill="#cc2264"/><path d="M943.4 1134.48H934c-.97-.03-1.83-.3-2.68-.8-2.7-1.65-4.18-4.42-4.14-7.6-.17-3.64 2.1-6.8 5.55-7.8v-.68c.13-4.54 2.56-8.37 6.7-10.32 4.4-1.94 9.26-.98 12.6 2.5 1.14 1.17 1.9 2.3 2.55 3.76.93-.73 1.96-1.1 3.15-1.1 2.3 0 4.95 1.75 5.42 5.6 2.18.54 6.7 2.32 6.7 8.12.13 3.05-1.36 5.72-4.05 7.16l-.86-1.5c2.14-1.15 3.3-3.26 3.16-5.66 0-5-4.14-6.25-5.97-6.56-.22-.06-.43-.17-.56-.37-.13-.17-.17-.4-.13-.62-.25-3.1-2.04-4.47-3.75-4.47-1.16.03-2.1.54-2.78 1.47-.17.25-.47.36-.8.34-.3-.06-.57-.26-.7-.57-.55-1.72-1.4-3.07-2.64-4.37-2.86-2.93-6.96-3.74-10.7-2.1-3.43 1.65-5.52 4.87-5.65 8.67 0 .42.05.8.1 1.18.03.45-.27.88-.7.96-3.02.63-5.1 3.3-4.94 6.38-.1 2.6 1.14 4.82 3.36 6.14.55.37 1.1.54 1.75.54h9.4z" stroke="#fff" stroke-opacity="0" fill="#fff"/><path d="M968.9 1139.6l-6.06-6.1c1.17-2.57 1.1-5.26-.2-7.8-2.28-4.45-7.74-6.22-12.18-3.92-4.45 2.28-6.22 7.73-3.94 12.16 2.28 4.46 7.72 6.23 12.2 3.95l5.97 5.96c.57.6 1.27.86 2.1.86.83 0 1.56-.27 2.14-.86h.02c1.14-1.2 1.14-3.1-.05-4.27zm-14.32-2.42c-4.05 0-7.33-3.3-7.33-7.33 0-4.05 3.28-7.33 7.33-7.33 4.06 0 7.34 3.28 7.34 7.33 0 4.05-3.28 7.33-7.34 7.33zm13.14 5.45c-.5.48-1.33.48-1.84 0l-5.7-5.7c.74-.57 1.3-1.14 1.84-1.9l5.7 5.76c.5.5.5 1.3 0 1.83z" stroke="#fff" stroke-opacity="0" fill="#fff"/><path d="M956.93 1125.88l-1.02 1.38c-.62-.47-1.33-.65-2.12-.54-1.57.23-2.65 1.7-2.42 3.27.1.8.48 1.44 1.13 1.92l-1 1.33c-2-1.55-2.37-4.42-.83-6.43 1.5-1.95 4.28-2.37 6.3-.93z" stroke="#fff" stroke-opacity="0" fill="#fff"/><use xlink:href="#r" transform="matrix(1,0,0,1,886.5236774494467,1166.517166935175) translate(36.296875 12.916666666666668)"/><use xlink:href="#s" transform="matrix(1,0,0,1,886.5236774494467,1166.517166935175) translate(23.653645833333336 29.049479166666668)"/><path d="M1072.92 1436.27c-1.56 1.8-3.83 2.78-6.1 2.78-2.05 0-4.1-.72-5.64-2.15l-14.15-12.8c-5.04 3.22-10.9 5.1-17.26 5.1-13.9 0-25.66-9.13-29.73-21.67h5.87c3.73 9.5 13.08 16.3 23.87 16.3 14.26 0 25.77-11.55 25.77-25.8 0-14.23-11.5-25.78-25.77-25.78-11.87 0-21.82 8.06-24.82 18.98h-5.63c3.1-13.97 15.58-24.36 30.45-24.36 17.26 0 31.17 13.97 31.17 31.17 0 4.83-1.08 9.4-3 13.43l14.38 13.07c3.48 3.05 3.72 8.33.6 11.73zm-43.15-58.56c11.27 0 20.38 9.14 20.38 20.34s-9.1 20.32-20.38 20.32c-7.8 0-14.5-4.38-18-10.83h6.5c2.75 3.3 6.94 5.46 11.5 5.46 8.27 0 14.98-6.72 14.98-14.96 0-8.24-6.7-14.96-14.98-14.96-5.76 0-10.8 3.32-13.2 8.15h-5.98c2.86-7.88 10.42-13.52 19.17-13.52zm-74.57 24.37v-5.38h73.25v5.37zm0-43.35v-5.46h56.94v5.46zm0 84.1v-5.47h51.55v5.46zm0-62.42v-5.47h35.25v5.46zm0 40.74v-5.46h35.25v5.46zm113.53 7.43l-13.67-12.36c-1.08 1.63-2.4 3.06-3.84 4.4l13.55 12.27c1.2 1.08 3.12 1 4.2-.27.96-1.16.96-2.95-.24-4.03z" stroke="#000" stroke-opacity="0" fill="#b0084d"/><path d="M955.3 1353.27l56.65-.1.24 5.4 16.8 8.3c12-.46 18.83 5.4 25.3 11.7 2.65 4.76 5.9 9.08 6.6 15.3.25 5.84.37 11.78-3 17.63l15.73 14.3c1.56 3.7 2.88 7.4-.84 10.8-3.73 3.43-7.1 2.7-10.33 1.36l-15.48-14.04c-4.8 3.5-10.2 5.22-15.97 5.22-4.44.36-8.04-.27-11.04-1.7l-13.33 9.8.12 5.94-51.6-.36z" stroke="#000" stroke-opacity="0" fill-opacity="0"/><use xlink:href="#t" transform="matrix(1,0,0,1,925.1903441161523,1452.1838336018031) translate(20.199594726562495 16.589501953125)"/><use xlink:href="#u" transform="matrix(1,0,0,1,925.1903441161523,1452.1838336018031) translate(121.1954150390625 16.589501953125)"/><path d="M1292.16 1439.1v-16.32h-55.05v-5.52h55.06l-.24-51.84h5.54v73.8c0 3-2.36 5.28-5.3 5.28h-46.8v8.28h21.92v5.4h-57.52v-5.4h19.2v-8.28h-44.08c-2.94 0-5.3-2.4-5.3-5.28v-32.88h5.54v10.92h8.13v5.52h-8.13v16.44zm-13.9-91.32c0-5.28 4.35-9.6 9.65-9.6 5.2 0 9.56 4.32 9.56 9.6 0 5.16-4.36 9.48-9.55 9.48-.7 0-1.28 0-1.87-.12l-25 33.12c.48 1.2.83 2.52.83 3.84 0 5.28-4.36 9.48-9.66 9.48s-9.55-4.2-9.55-9.48c0-1.44.35-2.88.94-4.08l-20.17-20.04c-1.3.6-2.6.96-4.12.96-5.3 0-9.54-4.32-9.54-9.6 0-5.28 4.24-9.48 9.55-9.48 5.3 0 9.67 4.2 9.67 9.48 0 1.8-.6 3.48-1.4 4.92l19.67 19.68c1.54-.84 3.2-1.44 4.95-1.44 1.88 0 3.65.6 5.18 1.56l23.8-31.56c-1.75-1.68-2.93-4.08-2.93-6.72zm-63.08 47.76c8.25 0 16.5 2.4 16.5 7.68v24.24c0 2.16-1.3 5.88-9.78 7.32l-3.54.36c-.6 0-1.06.12-1.53.12H1213.65c-.47 0-1.06-.12-1.54-.12-1.28-.12-2.46-.24-3.52-.36-8.5-1.44-9.8-5.16-9.8-7.32v-24.24c0-5.28 8.27-7.68 16.4-7.68zm-30.06-13.68h-5.54v-19.32c0-2.88 2.36-5.28 5.3-5.28h11.9c2.25-10.44 11.56-18.24 22.76-18.24 11.08 0 20.5 7.8 22.75 18.24h24.98v5.52h-24.52c0 2.4-.47 4.68-1.17 6.96l-5.2-1.68c.6-1.92.94-3.84.94-5.88 0-9.72-8-17.76-17.8-17.76-9.9 0-17.8 8.04-17.8 17.76 0 9.84 7.9 17.76 17.8 17.76 2 0 4.13-.36 6-1.08l1.9 5.16c-2.6.84-5.2 1.32-7.9 1.32-6.36 0-12.26-2.52-16.38-6.72l-18.75 19.8-4-3.72 19.34-20.4c-2.12-3.36-3.42-7.32-3.54-11.52h-11.32zm41.14 45.48l-.12-18.48c-2.6.96-6 1.56-10.02 1.56-3.42 0-8.25-.48-11.9-1.92v18.96c.12.24 1.53 1.2 5.18 1.92l3.07.36h1.4c.84.12 1.78.12 2.73 0h1.3l3.06-.36c3.77-.72 5.07-1.68 5.3-2.04zm-11.08-26.4c-5.54 0-8.84 1.08-10.26 1.92 1.42.84 5.3 2.04 11.2 2.04 5.78 0 8.73-1.2 9.8-1.92-1.07-.6-4.5-2.04-10.74-2.04zm4.13-35.52c2.25 0 4.13-1.8 4.13-4.08 0-2.28-1.88-4.08-4.12-4.08-2.23 0-4.12 1.8-4.12 4.08 0 2.28 1.9 4.08 4.13 4.08zm64.5-17.64c0 2.16 1.76 4.08 4.1 4.08 2.25 0 4.02-1.92 4.02-4.08 0-2.28-1.77-4.2-4-4.2-2.36 0-4.13 1.92-4.13 4.2zm-27.48 46.32c0-2.28-1.77-4.08-4.13-4.08-2.25 0-4.13 1.8-4.13 4.08 0 2.28 1.88 4.08 4.13 4.08 2.35 0 4.12-1.8 4.12-4.08zm-21.92 58.68h5.53v-8.28h-5.54z" stroke="#000" stroke-opacity="0" fill="#b0084d"/><path d="M1179.76 1361.48c.35-2.4 2.24-3.35 4.13-4.2h12.73c1.9-4.9 3.9-9.7 10.4-14.48 6.95-4.67 12.73-3.84 18.63-3 4.25 1.56 8.5 3.36 11.33 7.43 2.47 2.63 4.7 5.5 5.3 9.94l24.9.12 14.16-16.66c3.42-2.87 7.43-2.87 11.8-.96 2.7 1.92 4.13 4.67 4.25 8.4l.12 17.6v73.88c-.6 2.88-2 4.9-5.07 4.9l-25.25.13.12 13.53h-57.6l.13-13.54-25.96-.13c-2.72-.6-3.8-2.4-4.38-4.67l.12-78.92z" stroke="#000" stroke-opacity="0" fill-opacity="0"/><use xlink:href="#v" transform="matrix(1,0,0,1,1149.5236774494467,1467.1838336018031) translate(3.843749999999986 17.22222222222222)"/><use xlink:href="#w" transform="matrix(1,0,0,1,1149.5236774494467,1467.1838336018031) translate(111.10069444444444 17.22222222222222)"/><path d="M1280.4 1171.52c.83-.36 1.9-.36 2.63.12.84.48 1.32 1.44 1.32 2.28v63.36c0 1.44-1.2 2.64-2.76 2.64h-24c-1.57 0-2.77-1.2-2.77-2.64v-63.36c0-.84.48-1.8 1.32-2.28.72-.48 1.8-.48 2.64-.12 6.83 3.24 14.75 3.24 21.6 0zm-99.6 68.4c-1.57 0-2.77-1.2-2.77-2.64v-52.56c0-1.44 1.2-2.64 2.76-2.64h24c1.55 0 2.75 1.2 2.75 2.64v52.56c0 1.44-1.2 2.64-2.76 2.64zm38.4 0c-1.57 0-2.77-1.2-2.77-2.64v-40.56c0-1.56 1.2-2.76 2.76-2.76h24c1.55 0 2.75 1.2 2.75 2.76v40.56c0 1.44-1.2 2.64-2.76 2.64zm50.4-71.52c-10.8 0-19.57-8.76-19.57-19.44 0-10.68 8.76-19.44 19.56-19.44 10.8 0 19.55 8.76 19.55 19.44 0 10.68-8.76 19.44-19.56 19.44zm9.23 66.12V1178c-6 1.8-12.6 1.8-18.48 0v56.52zm-95.28 0h18.48v-47.04h-18.48zm-12.36 15v-5.4h120v5.4zm50.75-15h18.48v-35.16h-18.48zm47.64-99.6c-7.8 0-14.05 6.36-14.05 14.04 0 7.68 6.24 13.92 14.04 13.92 7.8 0 14.03-6.24 14.03-13.92s-6.24-14.04-14.04-14.04z" stroke="#000" stroke-opacity="0" fill="#b0084d"/><use xlink:href="#t" transform="matrix(1,0,0,1,1141.1903441161135,1258.517166935175) translate(11.968549804687498 16.589501953125)"/><use xlink:href="#x" transform="matrix(1,0,0,1,1141.1903441161135,1258.517166935175) translate(112.9643701171875 16.589501953125)"/><path d="M305.67 481.03h120v120h-120v-120z" stroke="#000" stroke-opacity="0" fill="#8c4fff"/><path d="M356.77 564.47h4.37v-3.02h-4.37v3.02zm7.4 0h4.53v-3.02h-4.54v3.02zm-18-61.5l-19.47 9.67v60.15l19.5 6.62v-76.44zm3.04 19.16v39.32h4.46v3.02h-4.45v17.05c0 .5-.24.93-.66 1.26-.25.17-.6.25-.84.25-.17 0-.34 0-.5-.08l-22.52-7.64c-.6-.16-1-.75-1-1.42v-62.16c0-.6.33-1.1.83-1.35l22.52-11.17c.43-.25 1-.25 1.43.1.42.24.76.74.76 1.25v18.56h4.46v3.03h-4.45zm22.44 42.34h4.53v-3.02h-4.53v3.02zm.17-42.34h4.37v-3.02h-4.37v3.03zm-7.56 0h4.46v-3.02h-4.45v3.03zm-7.47 0h4.37v-3.02h-4.37v3.03zm47.88-9.5l-19.5-9.65v76.44l19.5-6.63v-60.16zm3.02 61.25c0 .67-.42 1.26-1 1.43l-22.52 7.65c-.16.08-.33.08-.5.08-.25 0-.6-.08-.84-.25-.4-.33-.66-.75-.66-1.26v-17.05h-2.86v-3.02h2.86v-39.32h-2.86v-3.02h2.86v-18.55c0-.5.33-1 .75-1.26.4-.35 1-.35 1.42-.1l22.5 11.17c.52.26.85.76.85 1.35v62.16zm-37.63-42.17l-2.77-1.08-7.48 19.74 2.76 1.1 7.48-19.75zm10.16 9.67c.6-.6.6-1.6 0-2.18l-5.96-6.06-2.1 2.18 4.87 4.96-4.86 4.95 2.1 2.2 5.96-6.06zm-23.1 6.05l-5.96-6.05c-.6-.6-.6-1.6 0-2.18l5.97-6.06 2.1 2.18-4.87 4.96 4.88 4.95-2.1 2.2z" stroke="#000" stroke-opacity="0" fill="#fff"/><use xlink:href="#y" transform="matrix(1,0,0,1,275.6730992064404,610.0335054392847) translate(26.290147569444457 21.52777777777778)"/><use xlink:href="#z" transform="matrix(1,0,0,1,275.6730992064404,610.0335054392847) translate(118.21723090277777 21.52777777777778)"/><use xlink:href="#A" transform="matrix(1,0,0,1,275.6730992064404,610.0335054392847) translate(44.25347222222222 48.415798611111114)"/><path d="M305.67 244.95h120v120h-120v-120z" stroke="#000" stroke-opacity="0" fill="#dd344c"/><path d="M331.15 298.63h19.32v-2.96h-19.32v2.96zm66.6 21.7l-10 9.97-4.52-4.53-2.1 2.1 5.54 5.55c.34.3.68.47 1.1.47.33 0 .75-.17 1-.48l11.1-11-2.1-2.1zm6.8 8.18c-.32 2.8-1.4 5.4-3.26 7.5-1.27 1.55-2.95 2.8-4.72 3.66-2.43 1.1-5.03 1.56-7.72 1.25-2.6-.38-5.04-1.4-7.06-2.96-3.95-3.12-5.88-7.95-5.3-12.87.6-4.68 3.37-8.73 7.57-10.92 2-1 4.2-1.56 6.47-1.56.58 0 1.17 0 1.68.07 4.7.55 8.82 3.43 10.92 7.64 1.26 2.5 1.76 5.4 1.43 8.2zm1.27-9.5c-2.6-5.16-7.56-8.6-13.18-9.3-3.45-.38-6.9.24-9.9 1.8-5.06 2.57-8.5 7.57-9.17 13.18-.76 6 1.68 11.86 6.38 15.6 2.44 1.95 5.38 3.12 8.57 3.5.67.1 1.35.17 2.02.17 2.52 0 5.04-.55 7.3-1.64 2.2-1 4.12-2.56 5.72-4.36 2.18-2.57 3.6-5.7 3.94-9.12.43-3.36-.16-6.8-1.68-9.83zm-59.8-11.4h5.96v-2.96h-5.96v2.96zm-14.87 0H343v-2.96h-11.85v2.96zm-1.34-38.7h66.62c1.76 0 3.2 1.73 3.2 3.9v11h-4.46v-7.48c0-.78-.68-1.48-1.52-1.48h-34.27c-.75 0-1.43.7-1.43 1.48v7.5H326.6v-11c0-2.1 1.52-3.9 3.2-3.9zm46.8 14.44c3.44 0 6.2 2.8 6.2 6.24 0 2.27-1.25 4.3-3.18 5.38-1.94 1.02-4.2 1.02-6.13 0-1.95-1.1-3.2-3.1-3.2-5.38 0-3.43 2.76-6.24 6.3-6.24zm-50 32.3v-28.87h31.34v25.28c0 .78.68 1.48 1.43 1.48H375v-2.96h-12.44c.1-5.93 4.04-11.08 9.75-12.72 2.7 1.17 5.8 1.25 8.5 0 3.2.94 6.04 3.04 7.8 6l2.52-1.55c-1.76-2.97-4.53-5.3-7.64-6.63 1.43-1.64 2.35-3.82 2.35-6.1 0-5.06-4.2-9.2-9.24-9.2-5.13 0-9.33 4.14-9.33 9.2 0 2.28.92 4.38 2.35 6.02-3.95 1.7-7.06 4.82-8.74 8.72V277.9h31.25v23.8h3.03v-14.9h4.45v22.3h3.03V272.8c0-3.8-2.77-6.85-6.2-6.85H329.8c-3.36 0-6.13 3.04-6.13 6.86v42.83c0 3.75 2.77 6.8 6.13 6.8h40.07v-2.97H329.8c-1.68 0-3.2-1.72-3.2-3.82z" stroke="#000" stroke-opacity="0" fill="#fff"/><use xlink:href="#B" transform="matrix(1,0,0,1,275.6730992064404,373.9493347187983) translate(24.462246093749997 16.589501953125)"/><use xlink:href="#C" transform="matrix(1,0,0,1,275.6730992064404,373.9493347187983) translate(93.71091796875 16.589501953125)"/><path d="M314.43 937.63h1864.73" stroke="#3a414a" stroke-width="2" stroke-linecap="round" fill="none"/><path d="M1058.67 942.63a6 6 0 0 1 6-6h228a6 6 0 0 1 6 6v48a6 6 0 0 1-6 6h-228a6 6 0 0 1-6-6z" fill="none"/><use xlink:href="#D" transform="matrix(1,0,0,1,1058.6666666666279,936.6279704998014) translate(63.429904513888886 38.083767361111114)"/><path d="M1796.23 1092.1h65.2v65.22h-65.2v-65.2z" stroke="#000" stroke-opacity="0" fill="#e7157b"/><path d="M1810.13 1123.1c.9 0 1.62.72 1.62 1.6 0 .9-.72 1.62-1.62 1.62-.9 0-1.66-.72-1.66-1.6 0-.9.76-1.62 1.66-1.62zm19.56 21.2c-9.52 0-17.73-7-19.43-16.33 1.43-.08 2.64-1.1 3-2.45h5.03v-1.6h-5.03c-.36-1.37-1.57-2.4-3-2.47 1.7-9.2 10.05-16.32 19.42-16.32 3.54 0 7.22 1.35 10.94 3.94l.94-1.3c-4.04-2.8-8.03-4.25-11.9-4.25-10.35 0-19.6 8.05-21.12 18.35-1.03.55-1.7 1.6-1.7 2.84 0 1.24.67 2.3 1.7 2.85 1.53 10.47 10.6 18.35 21.13 18.35 4.4 0 8.92-1.48 12.7-4.23l-.95-1.32c-3.5 2.55-7.67 3.94-11.76 3.94zm-8.9-22.47c1.54.34 3.42.42 4.8.42 1.36 0 3.15-.08 4.63-.38l-3.72 7.38c-.04.08-.08.2-.08.34v3.63c-.63.42-1.75 1.1-2.43 1.23v-4.88c0-.08-.05-.2-.1-.3l-3.1-7.45zm4.8-2.84c3.3 0 5.04.5 5.62.84-.6.3-2.33.8-5.6.8-3.28 0-5.03-.5-5.57-.8.54-.34 2.3-.85 5.56-.85zm-2.4 17.1h.9c.97-.1 2.27-.88 3.35-1.6l.22-.13c.27-.16.4-.42.4-.67v-3.9l4.54-9.07c.23-.26.37-.56.37-.9 0-2.15-4.62-2.45-7.36-2.45-2.73 0-7.3.3-7.3 2.46 0 .3.1.55.22.76l3.82 9.16v5.55c0 .47.4.8.85.8zm23.63-.8c.9 0 1.62.73 1.62 1.62 0 .93-.72 1.65-1.62 1.65-.9 0-1.6-.72-1.6-1.65 0-.9.7-1.6 1.6-1.6zm0-24.45c.9 0 1.62.72 1.62 1.65 0 .9-.72 1.6-1.62 1.6-.9 0-1.6-.7-1.6-1.6 0-.93.7-1.65 1.6-1.65zm1.62 12.25c.9 0 1.66.72 1.66 1.6 0 .9-.76 1.62-1.65 1.62-.9 0-1.62-.72-1.62-1.6 0-.9.72-1.62 1.62-1.62zm-8.17 2.42h5.03c.37 1.4 1.62 2.45 3.15 2.45 1.8 0 3.27-1.48 3.27-3.26 0-1.77-1.48-3.25-3.27-3.25-1.53 0-2.8 1.06-3.14 2.46h-5.02v-10.6h3.4c.37 1.4 1.63 2.42 3.15 2.42 1.8 0 3.28-1.44 3.28-3.22 0-1.82-1.47-3.26-3.27-3.26-1.52 0-2.78 1.02-3.14 2.42h-4.23c-.44 0-.8.38-.8.84v11.4h-5.7v1.62h5.7v11.4c0 .46.36.85.8.85h4.22c.35 1.4 1.6 2.4 3.13 2.4 1.8 0 3.28-1.43 3.28-3.25 0-1.78-1.47-3.22-3.27-3.22-1.52 0-2.78 1-3.14 2.4h-3.42v-10.58z" stroke="#000" stroke-opacity="0" fill="#fff"/><use xlink:href="#E" transform="matrix(1,0,0,1,1766.2275758675632,1166.3161387819982) translate(45.9534814453125 16.589501953125)"/><path d="M2029.95 131.4h120v120h-120v-120z" stroke="#000" stroke-opacity="0" fill="#dd344c"/><path d="M2088.1 196.43c0 1 .85 1.85 1.85 1.85s1.85-.84 1.85-1.85c0-1-.84-1.85-1.85-1.85-1 0-1.84.84-1.84 1.85zm-3.02 0c0-2.7 2.2-4.87 4.87-4.87 2.7 0 4.88 2.18 4.88 4.87 0 2.2-1.43 3.95-3.36 4.62v3.87h-3.03v-3.87c-1.93-.67-3.36-2.43-3.36-4.62zm18.4-8.06h-27.05v19.5h27.05v-4.47h-4.54v-3.02h4.54v-4.45h-4.54v-3.03h4.54v-4.53zm-22.5-2.94h17.96v-7.56c0-3.87-4.28-7.48-9-7.48-2.25 0-4.6.83-6.37 2.34-1.68 1.43-2.6 3.36-2.6 5.13v7.56zm21-7.56v7.56h3c.77 0 1.44.67 1.44 1.43v22.5c0 .85-.67 1.52-1.43 1.52h-30.08c-.76 0-1.43-.67-1.43-1.5v-22.52c0-.76.66-1.43 1.42-1.43h3.02v-7.56c0-2.7 1.35-5.38 3.7-7.4 2.27-1.93 5.3-3.1 8.3-3.1 6.4 0 12.03 4.95 12.03 10.5zm-43.2 36.12l2.45-1.78c-4.12-5.7-6.4-12.34-6.72-19.32h3.95v-3.02h-3.86c.24-6.97 2.5-13.52 6.63-19.15l-2.44-1.77c-4.46 6.14-6.98 13.36-7.23 20.92h-3.62v3.02h3.62c.25 7.65 2.68 14.87 7.22 21.1zm51.92 6.2c-5.63 4.12-12.26 6.4-19.23 6.64v-3.95h-3.03v3.94c-6.97-.25-13.6-2.52-19.23-6.64l-1.76 2.44c6.13 4.45 13.44 6.9 21 7.22v3.53h3.03v-3.54c7.56-.33 14.86-2.77 21-7.22l-1.77-2.44zm-41.5-57.54c5.63-4.03 12.27-6.3 19.24-6.63v3.86h3.03v-3.87c6.97.33 13.6 2.6 19.23 6.63l1.77-2.43c-6.14-4.45-13.44-6.9-21-7.14v-3.7h-3.03v3.7c-7.56.24-14.87 2.68-21 7.13l1.77 2.43zm59.14 27.22c-.25-7.56-2.77-14.78-7.22-20.92l-2.44 1.77c4.12 5.63 6.4 12.18 6.64 19.15h-3.87v3.02h3.87c-.25 6.98-2.52 13.6-6.64 19.32l2.44 1.77c4.53-6.23 6.97-13.45 7.22-21.1h3.6v-3.02h-3.6zm-13.77-20.92l11.76-11.76-2.2-2.1-11.75 11.76 2.2 2.1zm-49.23 44.94l-11.76 11.76 2.2 2.1 11.75-11.76-2.2-2.1zm7.65-41.66l-22.27-22.26-2.2 2.18 22.27 22.26 2.2-2.18zm38.2 38.3l20.17 20.08-2.2 2.18-20.06-20.16 2.1-2.1z" stroke="#000" stroke-opacity="0" fill="#fff"/><use xlink:href="#a" transform="matrix(1,0,0,1,1999.9535852515116,260.3924054977681) translate(1.3057910156250045 16.589501953125)"/><use xlink:href="#F" transform="matrix(1,0,0,1,1999.9535852515116,260.3924054977681) translate(43.85056640625001 16.589501953125)"/><use xlink:href="#G" transform="matrix(1,0,0,1,1999.9535852515116,260.3924054977681) translate(108.55458984375001 16.589501953125)"/><path d="M592.6 595.63c-30.12 0-54.6-24.48-54.6-54.6s24.48-54.6 54.6-54.6 54.6 24.48 54.6 54.6-24.48 54.6-54.6 54.6zm0-114.6c-33.12 0-60 26.88-60 60 0 33.12 26.88 60 60 60 33.12 0 60-26.88 60-60 0-33.12-26.88-60-60-60zm-18.48 90.72h-14.64l17.4-36.24 7.32 15-10.08 21.25zm5.16-43.8c-.48-.96-1.44-1.56-2.52-1.56-.96 0-1.92.6-2.4 1.55l-21.6 45.36c-.36.85-.36 1.8.12 2.65.48.72 1.44 1.2 2.28 1.2h20.76c.96 0 1.92-.6 2.4-1.56l11.28-23.9c.36-.7.36-1.55 0-2.4l-10.32-21.35zm46.44 43.8h-14.88l-27.12-58.08c-.36-.96-1.32-1.56-2.4-1.56h-9.84v-11.27h19.68l26.88 58.08c.48.97 1.44 1.57 2.52 1.57h5.16v11.28zm2.64-16.8h-6.12L595.36 497c-.48-1.1-1.44-1.7-2.4-1.7h-24.24c-1.44 0-2.64 1.2-2.64 2.77l-.12 16.68c0 .72.36 1.44.84 1.92.48.6 1.2.84 1.92.84h10.8l27.12 58.1c.36.95 1.32 1.55 2.4 1.55h19.32c1.56 0 2.76-1.2 2.76-2.76v-16.7c0-1.43-1.2-2.75-2.76-2.75z" stroke="#000" stroke-opacity="0" fill="#ed7100"/><use xlink:href="#H" transform="matrix(1,0,0,1,502.5973684917658,610.0335054392847) translate(23.575385742187493 16.589501953125)"/><use xlink:href="#I" transform="matrix(1,0,0,1,502.5973684917658,610.0335054392847) translate(88.2875830078125 16.589501953125)"/><path d="M1623.23 1243.62c1.56 0 2.76 1.25 2.76 2.7v27.36c0 1.56-1.2 2.8-2.77 2.8h-114.48c-1.56 0-2.76-1.24-2.76-2.8v-27.35c0-1.46 1.2-2.7 2.75-2.7zm-111.84 27.35h109.2v-21.84h-109.2zm9.6 16.44v-5.5h8.15v5.5zm16.3 0v-5.5h8.3v5.5zm16.45 0v-5.5h8.16v5.5zm16.32 0v-5.5h8.16v5.5zm16.32 0v-5.5h8.27v5.5zm16.43 0v-5.5h8.16v5.5zm-81.84 24.65v-5.5h8.15v5.5zm16.3 0v-5.5h8.3v5.5zm16.45 0v-5.5h8.16v5.5zm16.32 0v-5.5h8.16v5.5zm16.32 0v-5.5h8.27v5.5zm16.43 0v-5.5h8.16v5.5zm-81.84 10.92v-5.4h8.15v5.4zm16.3 0v-5.4h8.3v5.4zm16.45 0v-5.4h8.16v5.4zm16.32 0v-5.4h8.16v5.4zm16.32 0v-5.4h8.27v5.4zm16.43 0v-5.4h8.16v5.4zm-81.84 24.65v-5.5h8.15v5.5zm16.3 0v-5.5h8.3v5.5zm16.45 0v-5.5h8.16v5.5zm16.32 0v-5.5h8.16v5.5zm16.32 0v-5.5h8.27v5.5zm16.43 0v-5.5h8.16v5.5zm23.16-27.35v4.06h-5.4v-1.36h-1.45v-5.4h4.08c1.56 0 2.76 1.14 2.76 2.7zm-5.4 20.5h5.4v4.15c0 1.45-1.2 2.7-2.77 2.7h-4.08v-5.5h1.44zm-111.85-23.2h4.08v5.4h-1.44v1.36h-5.4v-4.06c0-1.56 1.2-2.7 2.75-2.7zm2.64 24.54h1.43v5.52h-4.08c-1.56 0-2.76-1.25-2.76-2.7v-4.16h5.4zm109.2-36.9h5.4v4.15c0 1.46-1.2 2.7-2.77 2.7h-4.08v-5.5h1.44zm5.4-20.5v4.06h-5.4v-1.35h-1.45v-5.5h4.08c1.56 0 2.76 1.24 2.76 2.8zm-114.6 21.84h1.43v5.5h-4.08c-1.56 0-2.76-1.23-2.76-2.7v-4.15h5.4zm-2.65-24.65h4.08v5.5h-1.44v1.36h-5.4v-4.06c0-1.56 1.2-2.8 2.75-2.8zm-2.76 17.78v-5.4h5.4v5.4zm114.6 0v-5.4h5.4v5.4zm-114.6 35.67v-5.5h5.4v5.5zm114.6 0v-5.5h5.4v5.5z" stroke="#000" stroke-opacity="0" fill="#b0084d"/><path d="M1508.66 1259.95h114.6v85.38h-114.6v-85.38z" stroke="#000" stroke-opacity="0" fill-opacity="0"/><use xlink:href="#J" transform="matrix(1,0,0,1,1475.9864192817986,1356.6223803626697) translate(15.377036132812492 16.216875)"/><use xlink:href="#K" transform="matrix(1,0,0,1,1475.9864192817986,1356.6223803626697) translate(73.6073876953125 16.216875)"/><use xlink:href="#L" transform="matrix(1,0,0,1,1475.9864192817986,1356.6223803626697) translate(36.02003906249999 36.47162109375)"/><use xlink:href="#M" transform="matrix(1,0,0,1,1475.9864192817986,1356.6223803626697) translate(100.57693359375 36.47162109375)"/><path d="M1779.46 1280.1l-2.88-4.56c4.56-2.88 9.6-4.8 15-5.52l.72 5.4c-4.56.6-9 2.28-12.84 4.68zm-3.6 2.64c-7.32 6-11.76 14.88-12.12 24.24l-5.4-.24c.48-10.92 5.52-21.24 14.04-28.2l3.48 4.2zm3.48 17.76c-1.08 2.76-1.44 5.76-1.08 8.64l-5.4.84c-.48-3.96 0-7.8 1.44-11.52l5.04 2.04zm1.56-2.88l-4.56-3.12c3.48-5.28 9.12-8.76 15.36-9.72l.84 5.4c-4.8.72-9 3.36-11.64 7.44zm-1.08 25.08h-38.28c-3.24 0-5.52-1.2-7.2-2.28-4.44-2.76-11.76-9.12-11.76-21.36 0-14.52 9.6-20.04 15.6-22.08l-.12-1.44c0-12.24 8.16-24.72 18.96-29.28 12.48-5.28 25.8-2.64 35.64 7.08 2.76 2.88 5.16 6.24 7.08 10.2 3.84-2.88 8.88-3.84 13.56-2.28 6.12 2.04 9.96 7.56 10.56 15.12 6.36 1.56 18.6 6.72 18.6 22.8V1303.74l-5.4-.24v-4.32c0-13.68-11.4-17.16-16.32-18-.72-.12-1.44-.48-1.8-1.08-.36-.6-.6-1.32-.48-2.04 0-6-2.52-10.2-6.84-11.52-3.96-1.32-8.16 0-10.68 3.36-.6.84-1.68 1.32-2.64 1.08-.96-.12-1.8-.84-2.16-1.68-1.68-4.92-4.2-8.88-7.32-12.12-3.96-3.84-14.64-12.24-29.76-5.88-8.64 3.72-15.48 14.16-15.48 24l.24 3.48c0 1.32-.84 2.52-2.16 2.76-5.04 1.32-13.68 5.28-13.68 17.52 0 9.12 5.04 14.16 9.24 16.8 1.68 1.08 2.88 1.44 4.32 1.44h38.28v5.4zm34.8 32.16h5.52c0 4.8-3.96 8.76-8.76 8.76s-8.64-3.96-8.64-8.76h5.4c0 1.8 1.44 3.36 3.24 3.36 1.8 0 3.24-1.56 3.24-3.36zm22.56-10.92c0 1.92-1.56 3.36-3.36 3.36h-45.24c-1.8 0-3.24-1.44-3.24-3.36v-1.44c0-1.92 1.44-3.36 3.24-3.36h45.24c1.8 0 3.36 1.44 3.36 3.36v1.44zm-43.68-26.16c0-8.88 4.08-15.24 10.92-17.04 1.2-.36 2.04-1.44 2.04-2.64v-5.64c0-.96.6-1.92 1.56-2.52 1.92-1.2 3.6-.72 4.44-.24 1.32.72 2.04 1.92 2.04 2.76v5.04c0 1.32.96 2.4 2.16 2.76 7.56 1.68 12.24 8.52 12.24 17.76v15.6h-35.4v-15.84zm40.92 15.96v-15.72c0-11.04-5.52-19.56-14.4-22.56v-3c0-3-1.92-5.88-4.92-7.56-3.24-1.68-6.96-1.56-10.08.48-2.52 1.56-3.96 4.2-3.96 7.08v3.6c-8.16 3.24-13.08 11.16-13.08 21.72v15.84h.6c-4.8 0-8.76 3.96-8.76 8.88v1.44c0 4.92 3.96 8.76 8.76 8.76h45.24c4.8 0 8.76-3.84 8.76-8.76v-1.44c0-4.68-3.6-8.52-8.16-8.76z" stroke="#000" stroke-opacity="0" fill="#e7157b"/><use xlink:href="#N" transform="matrix(1,0,0,1,1692.583141700481,1372.6223803626697) translate(20.886196289062497 16.589501953125)"/><use xlink:href="#G" transform="matrix(1,0,0,1,1692.583141700481,1372.6223803626697) translate(88.9741845703125 16.589501953125)"/><path d="M1058.67 882.63a6 6 0 0 1 6-6h228a6 6 0 0 1 6 6v48a6 6 0 0 1-6 6h-228a6 6 0 0 1-6-6z" fill="none"/><use xlink:href="#O" transform="matrix(1,0,0,1,1058.6666666666279,876.6279704998014) translate(50.18663194444446 38.083767361111114)"/><use xlink:href="#P" transform="matrix(1,0,0,1,1058.6666666666279,876.6279704998014) translate(141.64713541666669 38.083767361111114)"/><path d="M578.92 374.9v-15.7l13.68-7.93 13.68 7.92v15.7l-13.68 7.8-13.68-7.8zm13.68 13.7c.48 0 .96-.13 1.32-.37l16.44-9.36c.84-.48 1.32-1.44 1.32-2.4v-18.84c0-1.08-.48-1.92-1.32-2.4l-16.44-9.48c-.84-.48-1.8-.48-2.64 0l-16.44 9.48c-.84.48-1.32 1.32-1.32 2.4v18.84c0 .96.48 1.92 1.32 2.4l16.44 9.36c.36.24.84.36 1.32.36zm23.76-39.73l16.32-16.32-3.84-3.96-16.32 16.43 3.84 3.84zm-47.52 37.08l-16.32 16.32 3.84 3.84 16.32-16.3-3.84-3.85zm2.76-37.08l3.84-3.84-16.32-16.44-3.96 3.95 16.44 16.32zm44.76 37.08l-3.84 3.84 16.32 16.3 3.84-3.83-16.32-16.32zm3.48-14.52h16.44v-5.4h-16.44v5.4zm-70.92 0h16.44v-5.4h-16.44v5.4zm40.92-35.4h5.52V319.7h-5.52v16.33zm0 76.32h5.52V398.8h-5.52v13.55zM538 420.63v-109.2h109.2v109.2H538zM652.6 308.8c0-1.57-1.2-2.77-2.76-2.77H535.36c-1.56 0-2.76 1.2-2.76 2.76v114.47c0 1.56 1.2 2.76 2.76 2.76h114.48c1.56 0 2.76-1.2 2.76-2.76V308.8z" stroke="#000" stroke-opacity="0" fill="#e7157b"/><use xlink:href="#Q" transform="matrix(1,0,0,1,502.5973684917658,435.0315668730112) translate(34.409794921875 16.589501953125)"/><path d="M834.72 595.63c-30.12 0-54.6-24.48-54.6-54.6s24.48-54.6 54.6-54.6 54.6 24.48 54.6 54.6-24.48 54.6-54.6 54.6zm0-114.6c-33.12 0-60 26.88-60 60 0 33.12 26.88 60 60 60 33.12 0 60-26.88 60-60 0-33.12-26.88-60-60-60zm-18.48 90.72H801.6L819 535.5l7.32 15-10.08 21.25zm5.16-43.8c-.48-.96-1.44-1.56-2.52-1.56-.96 0-1.92.6-2.4 1.55l-21.6 45.36c-.36.85-.36 1.8.12 2.65.48.72 1.44 1.2 2.28 1.2h20.76c.96 0 1.92-.6 2.4-1.56l11.28-23.9c.36-.7.36-1.55 0-2.4l-10.32-21.35zm46.44 43.8h-14.88l-27.12-58.08c-.36-.96-1.32-1.56-2.4-1.56h-9.84v-11.27h19.68l26.88 58.08c.48.97 1.44 1.57 2.52 1.57h5.16v11.28zm2.64-16.8h-6.12L837.48 497c-.48-1.1-1.44-1.7-2.4-1.7h-24.24c-1.44 0-2.64 1.2-2.64 2.77l-.12 16.68c0 .72.36 1.44.84 1.92.48.6 1.2.84 1.92.84h10.8l27.12 58.1c.36.95 1.32 1.55 2.4 1.55h19.32c1.56 0 2.76-1.2 2.76-2.76v-16.7c0-1.43-1.2-2.75-2.76-2.75z" stroke="#000" stroke-opacity="0" fill="#ed7100"/><use xlink:href="#H" transform="matrix(1,0,0,1,744.7189385966914,610.0335054392847) translate(32.13747070312499 16.589501953125)"/><use xlink:href="#R" transform="matrix(1,0,0,1,744.7189385966914,610.0335054392847) translate(96.84966796875 16.589501953125)"/><path d="M1129.67 535.2v10.94l-6.6-5.62 6.6-5.33zm.96 18.93c.48.45 1.2.6 1.8.6.37 0 .72-.08 1.1-.23.94-.44 1.66-1.4 1.66-2.5V529.4c0-1.1-.6-2.08-1.57-2.52-.96-.44-2.16-.3-2.88.37l-13.67 11.1c-.72.52-1.1 1.26-1.1 2.07 0 .9.38 1.63 1.1 2.22l13.56 11.47zm-74.4-18.87l6.6 5.63-6.6 5.3v-10.94zm-3.95 19.24c.36.15.84.22 1.2.22.6 0 1.2-.14 1.67-.6l13.68-11.1c.73-.5 1.1-1.25 1.1-2.13-.02-.83-.38-1.57-1.1-2.16l-13.55-11.47c-.85-.67-2.05-.8-3-.37-.85.44-1.57 1.4-1.57 2.52V552c0 1.02.62 2.06 1.58 2.5zm52.67 13.17h5.4V514.4h-5.4v53.27zm-14.4 0h5.53V514.4h-5.52v53.27zm-14.75 0h5.52V514.4h-5.52v53.27zm-37.44 4.8v-62.9h109.2v62.9h-109.2zm111.84-68.44h-114.5c-1.55 0-2.75 1.26-2.75 2.74v68.53c0 1.48 1.2 2.73 2.76 2.73h114.5c1.56 0 2.75-1.25 2.75-2.73v-68.53c0-1.48-1.2-2.74-2.76-2.74z" stroke="#000" stroke-opacity="0" fill="#e7157b"/><use xlink:href="#S" transform="matrix(1,0,0,1,1002.9546413563635,587.0335054392847) translate(63.9418359375 16.589501953125)"/><path d="M834.72 480.53V197.4a6 6 0 0 1 6-6h1172.85" stroke="#3a414a" fill="none"/><path d="M835.2 481.05l-.48-.02-.48.02v-.53h.95z" stroke="#3a414a" stroke-width=".05" fill="#3a414a"/><path d="M2028.34 191.4l-14.27 4.63v-9.27z" stroke="#3a414a" fill="#3a414a"/><path d="M895.22 541.03h121.35" stroke="#3a414a" fill="none"/><path d="M895.23 541.5h-.53l.02-.47-.02-.47h.53z" stroke="#3a414a" stroke-width=".05" fill="#3a414a"/><path d="M1031.34 541.03l-14.27 4.64v-9.27z" stroke="#3a414a" fill="#3a414a"/><path d="M1153.45 541.03h121.36" stroke="#3a414a" fill="none"/><path d="M1153.47 541.5h-.52v-.94h.52z" stroke="#3a414a" stroke-width=".05" fill="#3a414a"/><path d="M1289.57 541.03l-14.26 4.64v-9.27z" stroke="#3a414a" fill="#3a414a"/><path d="M1411.7 541.03h89.05" stroke="#3a414a" fill="none"/><path d="M1411.7 541.5h-.53l.02-.47-.03-.47h.53z" stroke="#3a414a" stroke-width=".05" fill="#3a414a"/><path d="M1515.52 541.03l-14.27 4.64v-9.27z" stroke="#3a414a" fill="#3a414a"/><path d="M834.72 480.53v-132.6a6 6 0 0 1 6-6h1233.72a6 6 0 0 1 6 6v44.86" stroke="#3a414a" fill="none"/><path d="M835.2 481.05l-.48-.02-.48.02v-.53h.95z" stroke="#3a414a" stroke-width=".05" fill="#3a414a"/><path d="M2080.44 407.56l-4.64-14.27h9.27z" stroke="#3a414a" fill="#3a414a"/><path d="M1905.97 637.3h51.98a6 6 0 0 1 6 6V768.9a6 6 0 0 0 6 6h36.1" stroke="#3a414a" fill="none"/><path d="M1905.98 637.77h-.5v-.95h.5z" stroke="#3a414a" stroke-width=".05" fill="#3a414a"/><path d="M2020.82 774.92l-14.26 4.63v-9.27z" stroke="#3a414a" fill="#3a414a"/><path d="M1905.97 637.3h50.98a6 6 0 0 0 6-6V475.17a6 6 0 0 1 6-6h35.1" stroke="#3a414a" fill="none"/><path d="M1905.98 637.77h-.5v-.95h.5z" stroke="#3a414a" stroke-width=".05" fill="#3a414a"/><path d="M2018.82 469.18l-14.26 4.63v-9.26z" stroke="#3a414a" fill="#3a414a"/><path d="M653.1 541.03h105.24" stroke="#3a414a" fill="none"/><path d="M653.1 541.5h-.52l.02-.47-.02-.47h.53z" stroke="#3a414a" stroke-width=".05" fill="#3a414a"/><path d="M773.1 541.03l-14.26 4.64v-9.27z" stroke="#3a414a" fill="#3a414a"/><path d="M426.17 541.03h90.04" stroke="#3a414a" fill="none"/><path d="M426.2 541.5h-.53v-.94h.52z" stroke="#3a414a" stroke-width=".05" fill="#3a414a"/><path d="M530.98 541.03l-14.27 4.64v-9.27z" stroke="#3a414a" fill="#3a414a"/><path d="M365.67 480.53v-33.5a6 6 0 0 1 6-6h88a6 6 0 0 0 6-6V310.95a6 6 0 0 0-6-6h-17.6" stroke="#3a414a" fill="none"/><path d="M366.15 481.03h-.95v-.5h.95z" stroke="#3a414a" stroke-width=".05" fill="#3a414a"/><path d="M427.3 304.95l14.26-4.64v9.28z" stroke="#3a414a" fill="#3a414a"/><path d="M625.25 741.8v-17.04h-5.4v11.64h-9.24v5.4h14.65zm-2.64-21.48c9 0 16.45 7.32 16.45 16.44 0 9-7.44 16.32-16.44 16.32-9.1 0-16.43-7.32-16.43-16.32 0-9.12 7.32-16.44 16.44-16.44zm0 38.16c12 0 21.85-9.72 21.85-21.72 0-12-9.84-21.84-21.84-21.84-12.1 0-21.83 9.84-21.83 21.84s9.72 21.72 21.84 21.72zm9.25 61.44h-18.48v-53.04c5.88 1.8 12.48 1.8 18.48 0v53.04zm1.56-59.4c-6.83 3-14.87 3-21.7 0-.85-.36-1.8-.36-2.53.24-.84.48-1.32 1.32-1.32 2.28v59.64c0 1.44 1.32 2.64 2.76 2.64h23.9c1.55 0 2.75-1.2 2.75-2.64v-59.64c0-.96-.48-1.8-1.2-2.28-.84-.6-1.8-.6-2.64-.24zm-108.95 74.4H644.1v-5.4H524.44v5.4zm50.64-15v-35.16h18.47v35.16H575.1zm-2.77 5.4h23.88c1.57 0 2.77-1.2 2.77-2.64v-40.56c0-1.56-1.2-2.76-2.76-2.76h-23.87c-1.56 0-2.76 1.2-2.76 2.76v40.56c0 1.44 1.2 2.64 2.76 2.64zm-35.64-5.4v-47.04h18.6v47.04h-18.6zm-2.65 5.4h23.88c1.56 0 2.76-1.2 2.76-2.64v-52.56c0-1.44-1.2-2.64-2.77-2.64h-23.88c-1.56 0-2.76 1.2-2.76 2.64v52.56c0 1.44 1.2 2.64 2.75 2.64z" stroke="#000" stroke-opacity="0" fill="#e7157b"/><g><use xlink:href="#T" transform="matrix(1,0,0,1,494.4530708712041,843.9165657409249) translate(15.744858398437486 16.589501953125)"/><use xlink:href="#U" transform="matrix(1,0,0,1,494.4530708712041,843.9165657409249) translate(64.7224365234375 16.589501953125)"/><use xlink:href="#V" transform="matrix(1,0,0,1,494.4530708712041,843.9165657409249) translate(109.4904931640625 16.589501953125)"/></g><path d="M523.95 774.92H271.67a6 6 0 0 1-6-6v-221.9a6 6 0 0 1 6-6h17.62" stroke="#3a414a" fill="none"/><path d="M527.45 775.4h-3.5v-.96h3.5z" stroke="#3a414a" stroke-width=".05" fill="#3a414a"/><path d="M304.06 541.03l-14.27 4.64v-9.27z" stroke="#3a414a" fill="#3a414a"/><path d="M-88.95 526.55c16.5 10.2 26.73 28.92 26.73 48.72 0 1.56-1.2 2.76-2.75 2.76h-104.5c-1.54 0-2.75-1.2-2.75-2.76 0-26.64 18.04-49.08 42.13-55.08-11.54-5.05-19.57-16.45-19.57-29.77 0-17.88 14.52-32.4 32.45-32.4 17.93 0 32.45 14.52 32.45 32.4 0 13.32-8.03 24.72-19.58 29.76 5.4 1.3 10.56 3.35 15.4 6.35zm-77.66 46.08h98.77c-.88-17.04-9.9-32.64-24.1-41.4-7.58-4.8-16.38-7.2-25.3-7.2-26.4 0-48.06 21.48-49.38 48.6zm22.43-82.2c0 14.88 12.1 26.88 26.95 26.88s26.95-12 26.95-26.87c0-14.88-12.1-27-26.95-27s-26.95 12.12-26.95 27z" stroke="#000" stroke-opacity="0" fill="#242f3e"/><g><use xlink:href="#W" transform="matrix(1,0,0,1,-202.21801183364198,587.0335054392847) translate(66.32280273437499 16.589501953125)"/></g><path d="M-100.27 518.53v16.5a6 6 0 0 0 6 6H289.3" stroke="#3a414a" fill="none"/><path d="M-99.8 518.55h-.95v-.26l.8-.43.16-.12z" stroke="#3a414a" stroke-width=".05" fill="#3a414a"/><path d="M304.06 541.03l-14.27 4.64v-9.27z" stroke="#3a414a" fill="#3a414a"/><path d="M-100.27 518.53v16.5a6 6 0 0 0 6 6H90.57a6 6 0 0 0 6-6V310.95a6 6 0 0 1 6-6H289.3" stroke="#3a414a" fill="none"/><path d="M-99.8 518.55h-.95v-.26l.8-.43.16-.12z" stroke="#3a414a" stroke-width=".05" fill="#3a414a"/><path d="M304.06 304.95l-14.27 4.63v-9.27z" stroke="#3a414a" fill="#3a414a"/><defs><path d="M52 0l541-1490h220L1361 0h-200l-149-416H398L254 0H52zm404-582h497c-103-290-145-390-251-756-108 377-145 460-246 756" id="X"/><path d="M458 0L52-1490h194c108 439 233 855 324 1313 92-459 221-873 331-1313h216c110 438 234 854 330 1307 92-455 216-869 323-1307h196L1558 0h-221l-256-944c-26-95-50-200-73-331-22 122-44 223-73 331L680 0H458" id="Y"/><path d="M657 26c-323 0-524-166-541-416h195c15 169 171 246 346 246 202 0 356-106 356-265 5-203-294-238-475-293-239-73-380-191-380-389 0-252 224-419 512-419 294 0 499 171 508 396H992c-17-145-151-228-328-228-193 0-321 102-321 242 0 156 175 211 284 241l149 41c160 44 422 134 422 412 0 244-197 432-541 432" id="Z"/><g id="a"><use transform="matrix(0.008173828125000001,0,0,0.008173828125000001,0,0)" xlink:href="#X"/><use transform="matrix(0.008173828125000001,0,0,0.008173828125000001,10.601455078125001,0)" xlink:href="#Y"/><use transform="matrix(0.008173828125000001,0,0,0.008173828125000001,27.096240234375003,0)" xlink:href="#Z"/></g><path d="M613 24c-304 0-509-231-509-576 0-350 205-580 509-580 216 0 392 114 453 309l-173 49c-33-115-133-197-280-197-223 0-326 196-326 419 0 220 103 415 326 415 150 0 252-85 285-206l172 49C1010-95 832 24 613 24" id="aa"/><path d="M613 24c-304 0-509-231-509-576 0-350 205-580 509-580 305 0 511 230 511 580 0 345-206 576-511 576zm0-161c226 0 329-195 329-415 0-222-103-419-329-419-223 0-326 196-326 419 0 220 103 415 326 415" id="ab"/><path d="M537 14c-226 0-379-139-379-422v-710h180v695c0 172 97 275 253 275 160 0 281-109 281-300v-670h181V0H879v-209C806-46 684 14 537 14" id="ac"/><path d="M338-670V0H158v-1118h173l1 207c72-158 192-221 342-221 226 0 378 139 378 422V0H872v-695c0-172-96-275-252-275-161 0-282 109-282 300" id="ad"/><g id="b"><use transform="matrix(0.008173828125000001,0,0,0.008173828125000001,0,0)" xlink:href="#X"/><use transform="matrix(0.008173828125000001,0,0,0.008173828125000001,11.549619140625001,0)" xlink:href="#aa"/><use transform="matrix(0.008173828125000001,0,0,0.008173828125000001,21.112998046875003,0)" xlink:href="#aa"/><use transform="matrix(0.008173828125000001,0,0,0.008173828125000001,30.676376953125004,0)" xlink:href="#ab"/><use transform="matrix(0.008173828125000001,0,0,0.008173828125000001,40.71383789062501,0)" xlink:href="#ac"/><use transform="matrix(0.008173828125000001,0,0,0.008173828125000001,50.61234375,0)" xlink:href="#ad"/></g><path d="M471 26C259 26 90-98 90-318c0-256 228-303 435-329 202-27 287-16 287-108 0-139-79-219-234-219-161 0-248 86-283 164l-173-57c86-203 278-265 451-265 150 0 419 46 419 395V0H815v-152h-12C765-73 660 26 471 26zm31-159c199 0 310-134 310-271v-155c-30 35-226 55-295 64-131 17-246 59-246 186 0 116 97 176 231 176" id="ae"/><path d="M598-1118v154H368v674c0 100 37 144 132 144 23 0 62-6 92-12L629-6c-37 13-88 20-134 20-193 0-307-107-307-290v-688H20v-154h168v-266h180v266h230" id="af"/><g id="c"><use transform="matrix(0.008173828125000001,0,0,0.008173828125000001,0,0)" xlink:href="#ae"/><use transform="matrix(0.008173828125000001,0,0,0.008173828125000001,9.399902343750002,0)" xlink:href="#ac"/><use transform="matrix(0.008173828125000001,0,0,0.008173828125000001,19.298408203125003,0)" xlink:href="#af"/><use transform="matrix(0.008173828125000001,0,0,0.008173828125000001,24.611396484375003,0)" xlink:href="#ab"/></g><path d="M538 24C308 24 148-78 108-271l171-41c32 123 123 178 257 178 156 0 256-77 256-169 0-77-54-128-164-154l-186-44c-203-48-300-148-300-305 0-192 176-326 414-326 230 0 351 112 402 269l-163 42c-31-80-94-158-238-158-133 0-233 69-233 162 0 83 57 129 188 160l169 40c203 48 298 149 298 302 0 196-179 339-441 339" id="ag"/><path d="M338-1490V0H158v-1490h180" id="ah"/><path d="M628 24c-324 0-524-230-524-574 0-343 198-582 503-582 237 0 487 146 487 559v75H286c9 234 145 362 343 362 132 0 231-58 273-172l174 48C1024-91 857 24 628 24zM287-650h624c-17-190-120-322-304-322-192 0-309 151-320 322" id="ai"/><g id="d"><use transform="matrix(0.008173828125000001,0,0,0.008173828125000001,0,0)" xlink:href="#ag"/><use transform="matrix(0.008173828125000001,0,0,0.008173828125000001,8.835908203125001,0)" xlink:href="#aa"/><use transform="matrix(0.008173828125000001,0,0,0.008173828125000001,18.562763671875004,0)" xlink:href="#ae"/><use transform="matrix(0.008173828125000001,0,0,0.008173828125000001,27.962666015625004,0)" xlink:href="#ah"/><use transform="matrix(0.008173828125000001,0,0,0.008173828125000001,32.01688476562501,0)" xlink:href="#ai"/></g><path d="M158 418v-1536h174v179h20c37-59 106-193 324-193 279 0 474 222 474 576 0 356-194 580-473 580-213 0-288-135-325-197h-14v591H158zm492-555c209 0 317-186 317-421 0-232-105-413-317-413-206 0-314 166-314 413 0 249 111 421 314 421" id="aj"/><path d="M158 0v-1118h180V0H158zm91-1301c-68 0-125-53-125-119s57-119 125-119c69 0 126 53 126 119s-57 119-126 119" id="ak"/><g id="e"><use transform="matrix(0.008173828125000001,0,0,0.008173828125000001,0,0)" xlink:href="#X"/><use transform="matrix(0.008173828125000001,0,0,0.008173828125000001,11.549619140625001,0)" xlink:href="#aj"/><use transform="matrix(0.008173828125000001,0,0,0.008173828125000001,21.799599609375,0)" xlink:href="#aj"/><use transform="matrix(0.008173828125000001,0,0,0.008173828125000001,32.049580078125004,0)" xlink:href="#ah"/><use transform="matrix(0.008173828125000001,0,0,0.008173828125000001,36.103798828125,0)" xlink:href="#ak"/><use transform="matrix(0.008173828125000001,0,0,0.008173828125000001,40.15801757812501,0)" xlink:href="#aa"/><use transform="matrix(0.008173828125000001,0,0,0.008173828125000001,49.884873046875015,0)" xlink:href="#ae"/><use transform="matrix(0.008173828125000001,0,0,0.008173828125000001,59.284775390625015,0)" xlink:href="#af"/><use transform="matrix(0.008173828125000001,0,0,0.008173828125000001,64.76124023437501,0)" xlink:href="#ak"/><use transform="matrix(0.008173828125000001,0,0,0.008173828125000001,68.81545898437501,0)" xlink:href="#ab"/><use transform="matrix(0.008173828125000001,0,0,0.008173828125000001,78.85291992187501,0)" xlink:href="#ad"/></g><path d="M180 0v-1490h190v1322h690V0H180" id="al"/><path d="M577 24c-279 0-473-224-473-580 0-354 195-576 474-576 218 0 287 134 324 193h14v-551h180V0H922v-173h-20C865-111 790 24 577 24zm27-161c203 0 314-172 314-421 0-247-108-413-314-413-212 0-317 181-317 413 0 235 108 421 317 421" id="am"/><g id="f"><use transform="matrix(0.008173828125000001,0,0,0.008173828125000001,0,0)" xlink:href="#al"/><use transform="matrix(0.008173828125000001,0,0,0.008173828125000001,9.465292968750001,0)" xlink:href="#ab"/><use transform="matrix(0.008173828125000001,0,0,0.008173828125000001,19.66623046875,0)" xlink:href="#ae"/><use transform="matrix(0.008173828125000001,0,0,0.008173828125000001,29.0661328125,0)" xlink:href="#am"/></g><path d="M180 0v-1490h528c311 0 458 177 458 395 0 191-114 278-244 313v14c139 9 302 137 302 371 0 225-148 397-499 397H180zm190-168h350c232 0 321-102 321-231 0-149-120-277-311-277H370v508zm0-668h328c160 0 286-101 286-255 0-129-87-231-280-231H370v486" id="an"/><path d="M158 0v-1118h174v172h12c41-113 157-188 290-188 26 0 70 2 91 3v181c-11-2-60-10-108-10-161 0-279 109-279 260V0H158" id="ao"/><g id="g"><use transform="matrix(0.008173828125000001,0,0,0.008173828125000001,0,0)" xlink:href="#an"/><use transform="matrix(0.008173828125000001,0,0,0.008173828125000001,10.952929687500001,0)" xlink:href="#ae"/><use transform="matrix(0.008173828125000001,0,0,0.008173828125000001,20.352832031250003,0)" xlink:href="#ah"/><use transform="matrix(0.008173828125000001,0,0,0.008173828125000001,24.407050781250003,0)" xlink:href="#ae"/><use transform="matrix(0.008173828125000001,0,0,0.008173828125000001,33.80695312500001,0)" xlink:href="#ad"/><use transform="matrix(0.008173828125000001,0,0,0.008173828125000001,43.697285156250004,0)" xlink:href="#aa"/><use transform="matrix(0.008173828125000001,0,0,0.008173828125000001,53.260664062500005,0)" xlink:href="#ai"/><use transform="matrix(0.008173828125000001,0,0,0.008173828125000001,63.020214843750004,0)" xlink:href="#ao"/></g><path d="M158 0v-1118h175l1 205c55-151 181-225 313-225 147 0 245 90 285 228 53-141 190-228 352-228 194 0 352 125 352 384V0h-181v-749c0-161-105-225-225-225-151 0-243 103-243 244V0H807v-767c0-124-93-207-219-207-131 0-250 92-250 270V0H158" id="ap"/><path d="M126 0v-134l627-806v-11H146v-167h839v143L376-178v11h629V0H126" id="aq"/><g id="h"><use transform="matrix(0.010850694444444444,0,0,0.010850694444444444,0,0)" xlink:href="#X"/><use transform="matrix(0.010850694444444444,0,0,0.010850694444444444,15.33203125,0)" xlink:href="#ap"/><use transform="matrix(0.010850694444444444,0,0,0.010850694444444444,34.79817708333333,0)" xlink:href="#ae"/><use transform="matrix(0.010850694444444444,0,0,0.010850694444444444,47.27647569444444,0)" xlink:href="#aq"/><use transform="matrix(0.010850694444444444,0,0,0.010850694444444444,59.22309027777778,0)" xlink:href="#ab"/><use transform="matrix(0.010850694444444444,0,0,0.010850694444444444,72.54774305555554,0)" xlink:href="#ad"/></g><path d="M180 0v-1490h908v168H370v486h669v168H370v500h727V0H180" id="ar"/><path d="M783 20c-382 0-661-292-661-764 0-473 279-766 661-766 302 0 548 182 601 489h-190c-42-204-217-313-411-313-268 0-476 208-476 590 0 381 209 588 476 588 195 0 369-110 411-313h190c-52 303-296 489-601 489" id="as"/><g id="i"><use transform="matrix(0.010850694444444444,0,0,0.010850694444444444,0,0)" xlink:href="#ar"/><use transform="matrix(0.010850694444444444,0,0,0.010850694444444444,13.35720486111111,0)" xlink:href="#as"/><use transform="matrix(0.010850694444444444,0,0,0.010850694444444444,29.58984375,0)" xlink:href="#Z"/></g><path d="M409 0L70-1118h191c89 329 165 560 243 925 75-353 154-601 240-925h192c85 325 161 564 235 922 77-354 157-598 244-922h191L1267 0h-179c-86-307-176-590-250-913C763-588 675-308 588 0H409" id="at"/><g id="j"><use transform="matrix(0.010850694444444444,0,0,0.010850694444444444,0,0)" xlink:href="#as"/><use transform="matrix(0.010850694444444444,0,0,0.010850694444444444,16.23263888888889,0)" xlink:href="#ao"/><use transform="matrix(0.010850694444444444,0,0,0.010850694444444444,24.598524305555554,0)" xlink:href="#ae"/><use transform="matrix(0.010850694444444444,0,0,0.010850694444444444,37.07682291666667,0)" xlink:href="#at"/><use transform="matrix(0.010850694444444444,0,0,0.010850694444444444,55.26258680555556,0)" xlink:href="#ah"/><use transform="matrix(0.010850694444444444,0,0,0.010850694444444444,60.64453125,0)" xlink:href="#ai"/><use transform="matrix(0.010850694444444444,0,0,0.010850694444444444,73.60026041666667,0)" xlink:href="#ao"/></g><g id="k"><use transform="matrix(0.010850694444444444,0,0,0.010850694444444444,0,0)" xlink:href="#as"/><use transform="matrix(0.010850694444444444,0,0,0.010850694444444444,16.23263888888889,0)" xlink:href="#ao"/><use transform="matrix(0.010850694444444444,0,0,0.010850694444444444,24.598524305555554,0)" xlink:href="#ae"/><use transform="matrix(0.010850694444444444,0,0,0.010850694444444444,37.07682291666667,0)" xlink:href="#at"/><use transform="matrix(0.010850694444444444,0,0,0.010850694444444444,55.26258680555556,0)" xlink:href="#ah"/><use transform="matrix(0.010850694444444444,0,0,0.010850694444444444,60.64453125,0)" xlink:href="#ai"/><use transform="matrix(0.010850694444444444,0,0,0.010850694444444444,73.60026041666667,0)" xlink:href="#ao"/></g><path d="M635 20c-292 0-500-160-510-396h192c11 142 145 229 315 229 187 0 323-105 323-260 0-161-125-274-346-274H488v-165h121c174 0 294-100 294-254 0-148-104-245-266-245-152 0-291 85-297 230H157c8-234 222-395 484-395 278 0 448 188 448 400 0 168-95 291-247 336v12c190 31 301 169 301 357 0 244-216 425-508 425" id="au"/><path d="M295 13c-75 0-135-60-135-135s60-135 135-135 135 60 135 135S370 13 295 13zm0-809c-75 0-135-60-135-135s60-135 135-135 135 60 135 135-60 135-135 135" id="av"/><g id="l"><use transform="matrix(0.008173828125000001,0,0,0.008173828125000001,0,0)" xlink:href="#Z"/><use transform="matrix(0.008173828125000001,0,0,0.008173828125000001,10.740410156250002,0)" xlink:href="#au"/><use transform="matrix(0.008173828125000001,0,0,0.008173828125000001,21.080302734375003,0)" xlink:href="#av"/></g><g id="m"><use transform="matrix(0.008173828125000001,0,0,0.008173828125000001,0,0)" xlink:href="#as"/><use transform="matrix(0.008173828125000001,0,0,0.008173828125000001,12.228046875000002,0)" xlink:href="#ao"/><use transform="matrix(0.008173828125000001,0,0,0.008173828125000001,18.530068359375,0)" xlink:href="#ae"/><use transform="matrix(0.008173828125000001,0,0,0.008173828125000001,27.929970703125,0)" xlink:href="#at"/><use transform="matrix(0.008173828125000001,0,0,0.008173828125000001,41.629306640625,0)" xlink:href="#ah"/><use transform="matrix(0.008173828125000001,0,0,0.008173828125000001,45.68352539062501,0)" xlink:href="#ai"/><use transform="matrix(0.008173828125000001,0,0,0.008173828125000001,55.443076171875006,0)" xlink:href="#am"/></g><path d="M645 0H180v-1490h484c435 0 692 280 692 742 0 466-257 748-711 748zM370-168h263c363 0 539-218 539-580 0-358-176-574-521-574H370v1154" id="aw"/><g id="n"><use transform="matrix(0.008173828125000001,0,0,0.008173828125000001,0,0)" xlink:href="#aw"/><use transform="matrix(0.008173828125000001,0,0,0.008173828125000001,12.08091796875,0)" xlink:href="#ab"/><use transform="matrix(0.008173828125000001,0,0,0.008173828125000001,22.11837890625,0)" xlink:href="#aa"/><use transform="matrix(0.008173828125000001,0,0,0.008173828125000001,31.681757812500003,0)" xlink:href="#ac"/><use transform="matrix(0.008173828125000001,0,0,0.008173828125000001,41.580263671875,0)" xlink:href="#ap"/><use transform="matrix(0.008173828125000001,0,0,0.008173828125000001,56.244111328125,0)" xlink:href="#ai"/><use transform="matrix(0.008173828125000001,0,0,0.008173828125000001,66.003662109375,0)" xlink:href="#ad"/><use transform="matrix(0.008173828125000001,0,0,0.008173828125000001,75.893994140625,0)" xlink:href="#af"/><use transform="matrix(0.008173828125000001,0,0,0.008173828125000001,81.206982421875,0)" xlink:href="#ag"/></g><path d="M140 405l46-156c120 36 205 19 263-150l32-93L54-1118h197c107 313 237 620 324 950 87-331 219-637 326-950h196L606 167c-68 178-176 259-334 259-64 0-113-12-132-21" id="ax"/><g id="o"><use transform="matrix(0.010850694444444444,0,0,0.010850694444444444,0,0)" xlink:href="#aw"/><use transform="matrix(0.010850694444444444,0,0,0.010850694444444444,16.03732638888889,0)" xlink:href="#ax"/><use transform="matrix(0.010850694444444444,0,0,0.010850694444444444,28.526475694444443,0)" xlink:href="#ad"/><use transform="matrix(0.010850694444444444,0,0,0.010850694444444444,41.65581597222222,0)" xlink:href="#ae"/><use transform="matrix(0.010850694444444444,0,0,0.010850694444444444,54.13411458333333,0)" xlink:href="#ap"/><use transform="matrix(0.010850694444444444,0,0,0.010850694444444444,73.60026041666666,0)" xlink:href="#ab"/><use transform="matrix(0.010850694444444444,0,0,0.010850694444444444,86.92491319444443,0)" xlink:href="#aw"/><use transform="matrix(0.010850694444444444,0,0,0.010850694444444444,102.96223958333331,0)" xlink:href="#an"/><use transform="matrix(0.010850694444444444,0,0,0.010850694444444444,117.50217013888887,0)" xlink:href="#av"/></g><path d="M180 0v-1490h270l367 940c28 72 75 218 110 339 35-117 81-264 110-339l362-940h271V0h-187c2-448-5-837 7-1287-157 497-311 829-483 1287H842C666-458 514-784 354-1284c12 438 5 843 7 1284H180" id="ay"/><g id="p"><use transform="matrix(0.010850694444444444,0,0,0.010850694444444444,0,0)" xlink:href="#ay"/><use transform="matrix(0.010850694444444444,0,0,0.010850694444444444,20.07378472222222,0)" xlink:href="#ai"/><use transform="matrix(0.010850694444444444,0,0,0.010850694444444444,33.029513888888886,0)" xlink:href="#af"/><use transform="matrix(0.010850694444444444,0,0,0.010850694444444444,40.40798611111111,0)" xlink:href="#ae"/><use transform="matrix(0.010850694444444444,0,0,0.010850694444444444,52.88628472222221,0)" xlink:href="#am"/><use transform="matrix(0.010850694444444444,0,0,0.010850694444444444,66.49305555555554,0)" xlink:href="#ae"/><use transform="matrix(0.010850694444444444,0,0,0.010850694444444444,78.97135416666666,0)" xlink:href="#af"/><use transform="matrix(0.010850694444444444,0,0,0.010850694444444444,86.34982638888887,0)" xlink:href="#ae"/></g><path d="M57 0l534-763-501-727h220c122 187 296 416 391 605 94-191 272-419 396-605h215L811-770 1340 0h-219C986-204 811-426 699-640 588-430 407-202 273 0H57" id="az"/><path d="M798-719v166H144v-166h654" id="aA"/><path d="M180 0v-1490h510c348 0 508 194 508 460 0 198-88 351-276 417L1256 0h-220L726-579c-117 2-238 0-356 1V0H180zm190-747h312c235 0 327-108 327-283 0-177-92-293-329-293H370v576" id="aB"/><g id="q"><use transform="matrix(0.008173828125000001,0,0,0.008173828125000001,0,0)" xlink:href="#az"/><use transform="matrix(0.008173828125000001,0,0,0.008173828125000001,10.846669921875002,0)" xlink:href="#aA"/><use transform="matrix(0.008173828125000001,0,0,0.008173828125000001,18.546416015625002,0)" xlink:href="#aB"/><use transform="matrix(0.008173828125000001,0,0,0.008173828125000001,29.237783203125005,0)" xlink:href="#ae"/><use transform="matrix(0.008173828125000001,0,0,0.008173828125000001,38.39247070312501,0)" xlink:href="#ax"/></g><g id="r"><use transform="matrix(0.006510416666666667,0,0,0.006510416666666667,0,0)" xlink:href="#X"/><use transform="matrix(0.006510416666666667,0,0,0.006510416666666667,9.19921875,0)" xlink:href="#ap"/><use transform="matrix(0.006510416666666667,0,0,0.006510416666666667,20.87890625,0)" xlink:href="#ae"/><use transform="matrix(0.006510416666666667,0,0,0.006510416666666667,28.365885416666668,0)" xlink:href="#aq"/><use transform="matrix(0.006510416666666667,0,0,0.006510416666666667,35.53385416666667,0)" xlink:href="#ab"/><use transform="matrix(0.006510416666666667,0,0,0.006510416666666667,43.528645833333336,0)" xlink:href="#ad"/></g><path d="M338-670V0H158v-1490h180v566c73-149 190-208 336-208 226 0 379 139 379 422V0H872v-695c0-172-96-275-252-275-161 0-282 109-282 300" id="aC"/><g id="s"><use transform="matrix(0.006510416666666667,0,0,0.006510416666666667,0,0)" xlink:href="#as"/><use transform="matrix(0.006510416666666667,0,0,0.006510416666666667,9.739583333333334,0)" xlink:href="#ah"/><use transform="matrix(0.006510416666666667,0,0,0.006510416666666667,12.96875,0)" xlink:href="#ab"/><use transform="matrix(0.006510416666666667,0,0,0.006510416666666667,20.963541666666668,0)" xlink:href="#ac"/><use transform="matrix(0.006510416666666667,0,0,0.006510416666666667,28.84765625,0)" xlink:href="#am"/><use transform="matrix(0.006510416666666667,0,0,0.006510416666666667,37.01171875,0)" xlink:href="#Y"/><use transform="matrix(0.006510416666666667,0,0,0.006510416666666667,49.47265625,0)" xlink:href="#ae"/><use transform="matrix(0.006510416666666667,0,0,0.006510416666666667,56.95963541666667,0)" xlink:href="#af"/><use transform="matrix(0.006510416666666667,0,0,0.006510416666666667,61.19140624999999,0)" xlink:href="#aa"/><use transform="matrix(0.006510416666666667,0,0,0.006510416666666667,68.80859375,0)" xlink:href="#aC"/></g><g id="t"><use transform="matrix(0.008173828125000001,0,0,0.008173828125000001,0,0)" xlink:href="#as"/><use transform="matrix(0.008173828125000001,0,0,0.008173828125000001,12.228046875000002,0)" xlink:href="#ah"/><use transform="matrix(0.008173828125000001,0,0,0.008173828125000001,16.282265625,0)" xlink:href="#ab"/><use transform="matrix(0.008173828125000001,0,0,0.008173828125000001,26.3197265625,0)" xlink:href="#ac"/><use transform="matrix(0.008173828125000001,0,0,0.008173828125000001,36.218232421875,0)" xlink:href="#am"/><use transform="matrix(0.008173828125000001,0,0,0.008173828125000001,46.468212890625004,0)" xlink:href="#Y"/><use transform="matrix(0.008173828125000001,0,0,0.008173828125000001,62.112919921875005,0)" xlink:href="#ae"/><use transform="matrix(0.008173828125000001,0,0,0.008173828125000001,71.512822265625,0)" xlink:href="#af"/><use transform="matrix(0.008173828125000001,0,0,0.008173828125000001,76.825810546875,0)" xlink:href="#aa"/><use transform="matrix(0.008173828125000001,0,0,0.008173828125000001,86.389189453125,0)" xlink:href="#aC"/></g><path d="M611 442c-248 0-391-105-460-228l146-94c47 65 117 165 314 165 178 0 307-82 307-266v-224h-17C863-141 792-18 576-18c-268 0-472-195-472-546 0-346 197-568 476-568 216 0 288 133 326 193h17v-179h175V29c0 289-215 413-487 413zm-5-620c203 0 314-146 314-390 0-237-108-403-314-403-213 0-319 180-319 403 0 230 109 390 319 390" id="aD"/><g id="u"><use transform="matrix(0.008173828125000001,0,0,0.008173828125000001,0,0)" xlink:href="#al"/><use transform="matrix(0.008173828125000001,0,0,0.008173828125000001,9.465292968750001,0)" xlink:href="#ab"/><use transform="matrix(0.008173828125000001,0,0,0.008173828125000001,19.50275390625,0)" xlink:href="#aD"/><use transform="matrix(0.008173828125000001,0,0,0.008173828125000001,29.76908203125,0)" xlink:href="#ag"/></g><g id="v"><use transform="matrix(0.008680555555555556,0,0,0.008680555555555556,0,0)" xlink:href="#as"/><use transform="matrix(0.008680555555555556,0,0,0.008680555555555556,12.986111111111112,0)" xlink:href="#ah"/><use transform="matrix(0.008680555555555556,0,0,0.008680555555555556,17.291666666666668,0)" xlink:href="#ab"/><use transform="matrix(0.008680555555555556,0,0,0.008680555555555556,27.951388888888893,0)" xlink:href="#ac"/><use transform="matrix(0.008680555555555556,0,0,0.008680555555555556,38.46354166666667,0)" xlink:href="#am"/><use transform="matrix(0.008680555555555556,0,0,0.008680555555555556,49.34895833333334,0)" xlink:href="#Y"/><use transform="matrix(0.008680555555555556,0,0,0.008680555555555556,65.96354166666667,0)" xlink:href="#ae"/><use transform="matrix(0.008680555555555556,0,0,0.008680555555555556,75.94618055555556,0)" xlink:href="#af"/><use transform="matrix(0.008680555555555556,0,0,0.008680555555555556,81.58854166666667,0)" xlink:href="#aa"/><use transform="matrix(0.008680555555555556,0,0,0.008680555555555556,91.74479166666667,0)" xlink:href="#aC"/></g><g id="w"><use transform="matrix(0.008680555555555556,0,0,0.008680555555555556,0,0)" xlink:href="#ay"/><use transform="matrix(0.008680555555555556,0,0,0.008680555555555556,16.05902777777778,0)" xlink:href="#ai"/><use transform="matrix(0.008680555555555556,0,0,0.008680555555555556,26.423611111111118,0)" xlink:href="#af"/><use transform="matrix(0.008680555555555556,0,0,0.008680555555555556,32.239583333333336,0)" xlink:href="#ao"/><use transform="matrix(0.008680555555555556,0,0,0.008680555555555556,39.21006944444444,0)" xlink:href="#ak"/><use transform="matrix(0.008680555555555556,0,0,0.008680555555555556,43.51562500000001,0)" xlink:href="#aa"/><use transform="matrix(0.008680555555555556,0,0,0.008680555555555556,53.67187500000001,0)" xlink:href="#ag"/></g><g id="x"><use transform="matrix(0.008173828125000001,0,0,0.008173828125000001,0,0)" xlink:href="#X"/><use transform="matrix(0.008173828125000001,0,0,0.008173828125000001,11.549619140625001,0)" xlink:href="#ah"/><use transform="matrix(0.008173828125000001,0,0,0.008173828125000001,15.603837890625002,0)" xlink:href="#ae"/><use transform="matrix(0.008173828125000001,0,0,0.008173828125000001,25.003740234375,0)" xlink:href="#ao"/><use transform="matrix(0.008173828125000001,0,0,0.008173828125000001,31.567324218750002,0)" xlink:href="#ap"/><use transform="matrix(0.008173828125000001,0,0,0.008173828125000001,46.231171875,0)" xlink:href="#ag"/></g><g id="y"><use transform="matrix(0.010850694444444444,0,0,0.010850694444444444,0,0)" xlink:href="#X"/><use transform="matrix(0.010850694444444444,0,0,0.010850694444444444,15.33203125,0)" xlink:href="#ap"/><use transform="matrix(0.010850694444444444,0,0,0.010850694444444444,34.79817708333333,0)" xlink:href="#ae"/><use transform="matrix(0.010850694444444444,0,0,0.010850694444444444,47.27647569444444,0)" xlink:href="#aq"/><use transform="matrix(0.010850694444444444,0,0,0.010850694444444444,59.22309027777778,0)" xlink:href="#ab"/><use transform="matrix(0.010850694444444444,0,0,0.010850694444444444,72.54774305555554,0)" xlink:href="#ad"/></g><path d="M180 0v-1490h510c348 0 508 209 508 474 0 266-160 477-507 477H370V0H180zm190-706h312c236 0 327-133 327-310 0-176-91-307-329-307H370v617" id="aE"/><path d="M370-1490V0H180v-1490h190" id="aF"/><g id="z"><use transform="matrix(0.010850694444444444,0,0,0.010850694444444444,0,0)" xlink:href="#X"/><use transform="matrix(0.010850694444444444,0,0,0.010850694444444444,15.33203125,0)" xlink:href="#aE"/><use transform="matrix(0.010850694444444444,0,0,0.010850694444444444,29.524739583333332,0)" xlink:href="#aF"/></g><path d="M789 20c-398 0-667-293-667-764 0-473 273-766 655-766 315 0 558 198 612 487h-196c-61-191-204-311-415-311-262 0-471 207-471 590 0 380 208 588 482 588 249 0 420-165 425-427H828v-166h572v163c0 370-256 606-611 606" id="aG"/><g id="A"><use transform="matrix(0.010850694444444444,0,0,0.010850694444444444,0,0)" xlink:href="#aG"/><use transform="matrix(0.010850694444444444,0,0,0.010850694444444444,16.57986111111111,0)" xlink:href="#ae"/><use transform="matrix(0.010850694444444444,0,0,0.010850694444444444,29.05815972222222,0)" xlink:href="#af"/><use transform="matrix(0.010850694444444444,0,0,0.010850694444444444,36.11111111111111,0)" xlink:href="#ai"/><use transform="matrix(0.010850694444444444,0,0,0.010850694444444444,48.66536458333333,0)" xlink:href="#at"/><use transform="matrix(0.010850694444444444,0,0,0.010850694444444444,66.85112847222221,0)" xlink:href="#ae"/><use transform="matrix(0.010850694444444444,0,0,0.010850694444444444,79.00390625,0)" xlink:href="#ax"/></g><g id="B"><use transform="matrix(0.008173828125000001,0,0,0.008173828125000001,0,0)" xlink:href="#X"/><use transform="matrix(0.008173828125000001,0,0,0.008173828125000001,11.549619140625001,0)" xlink:href="#ap"/><use transform="matrix(0.008173828125000001,0,0,0.008173828125000001,26.213466796875004,0)" xlink:href="#ae"/><use transform="matrix(0.008173828125000001,0,0,0.008173828125000001,35.613369140625004,0)" xlink:href="#aq"/><use transform="matrix(0.008173828125000001,0,0,0.008173828125000001,44.612753906250006,0)" xlink:href="#ab"/><use transform="matrix(0.008173828125000001,0,0,0.008173828125000001,54.65021484375001,0)" xlink:href="#ad"/></g><g id="C"><use transform="matrix(0.008173828125000001,0,0,0.008173828125000001,0,0)" xlink:href="#as"/><use transform="matrix(0.008173828125000001,0,0,0.008173828125000001,12.228046875000002,0)" xlink:href="#ab"/><use transform="matrix(0.008173828125000001,0,0,0.008173828125000001,22.265507812500008,0)" xlink:href="#aD"/><use transform="matrix(0.008173828125000001,0,0,0.008173828125000001,32.531835937500006,0)" xlink:href="#ad"/><use transform="matrix(0.008173828125000001,0,0,0.008173828125000001,42.42216796875,0)" xlink:href="#ak"/><use transform="matrix(0.008173828125000001,0,0,0.008173828125000001,46.47638671875001,0)" xlink:href="#af"/><use transform="matrix(0.008173828125000001,0,0,0.008173828125000001,51.78937500000001,0)" xlink:href="#ab"/></g><g id="D"><use transform="matrix(0.010850694444444444,0,0,0.010850694444444444,0,0)" xlink:href="#ay"/><use transform="matrix(0.010850694444444444,0,0,0.010850694444444444,20.07378472222222,0)" xlink:href="#ab"/><use transform="matrix(0.010850694444444444,0,0,0.010850694444444444,33.3984375,0)" xlink:href="#ad"/><use transform="matrix(0.010850694444444444,0,0,0.010850694444444444,46.52777777777778,0)" xlink:href="#ak"/><use transform="matrix(0.010850694444444444,0,0,0.010850694444444444,51.90972222222222,0)" xlink:href="#af"/><use transform="matrix(0.010850694444444444,0,0,0.010850694444444444,58.96267361111112,0)" xlink:href="#ab"/><use transform="matrix(0.010850694444444444,0,0,0.010850694444444444,72.28732638888889,0)" xlink:href="#ao"/><use transform="matrix(0.010850694444444444,0,0,0.010850694444444444,81.00043402777779,0)" xlink:href="#ak"/><use transform="matrix(0.010850694444444444,0,0,0.010850694444444444,86.38237847222223,0)" xlink:href="#ad"/><use transform="matrix(0.010850694444444444,0,0,0.010850694444444444,99.51171875,0)" xlink:href="#aD"/></g><path d="M180 0v-1490h224l606 953c40 63 108 177 176 312-27-437-7-821-13-1265h190V0h-226C860-448 622-778 356-1262c27 476 11 792 15 1262H180" id="aH"/><g id="E"><use transform="matrix(0.008173828125000001,0,0,0.008173828125000001,0,0)" xlink:href="#Z"/><use transform="matrix(0.008173828125000001,0,0,0.008173828125000001,10.740410156250002,0)" xlink:href="#aH"/><use transform="matrix(0.008173828125000001,0,0,0.008173828125000001,23.352626953125004,0)" xlink:href="#Z"/></g><g id="F"><use transform="matrix(0.008173828125000001,0,0,0.008173828125000001,0,0)" xlink:href="#Z"/><use transform="matrix(0.008173828125000001,0,0,0.008173828125000001,10.740410156250002,0)" xlink:href="#ai"/><use transform="matrix(0.008173828125000001,0,0,0.008173828125000001,20.499960937500003,0)" xlink:href="#aa"/><use transform="matrix(0.008173828125000001,0,0,0.008173828125000001,30.063339843750004,0)" xlink:href="#ao"/><use transform="matrix(0.008173828125000001,0,0,0.008173828125000001,36.087451171875,0)" xlink:href="#ai"/><use transform="matrix(0.008173828125000001,0,0,0.008173828125000001,45.847001953124995,0)" xlink:href="#af"/><use transform="matrix(0.008173828125000001,0,0,0.008173828125000001,51.159990234375,0)" xlink:href="#ag"/></g><g id="G"><use transform="matrix(0.008173828125000001,0,0,0.008173828125000001,0,0)" xlink:href="#ay"/><use transform="matrix(0.008173828125000001,0,0,0.008173828125000001,15.121582031250002,0)" xlink:href="#ae"/><use transform="matrix(0.008173828125000001,0,0,0.008173828125000001,24.521484375000004,0)" xlink:href="#ad"/><use transform="matrix(0.008173828125000001,0,0,0.008173828125000001,34.411816406250004,0)" xlink:href="#ae"/><use transform="matrix(0.008173828125000001,0,0,0.008173828125000001,43.811718750000004,0)" xlink:href="#aD"/><use transform="matrix(0.008173828125000001,0,0,0.008173828125000001,54.078046875000005,0)" xlink:href="#ai"/><use transform="matrix(0.008173828125000001,0,0,0.008173828125000001,63.837597656250004,0)" xlink:href="#ao"/></g><path d="M1096 418H916v-591h-14C865-111 790 24 577 24c-279 0-473-224-473-580 0-354 195-576 474-576 218 0 287 134 324 193h20v-179h174V418zM604-137c203 0 314-172 314-421 0-247-108-413-314-413-212 0-317 181-317 413 0 235 108 421 317 421" id="aI"/><g id="H"><use transform="matrix(0.008173828125000001,0,0,0.008173828125000001,0,0)" xlink:href="#ao"/><use transform="matrix(0.008173828125000001,0,0,0.008173828125000001,6.0241113281250005,0)" xlink:href="#ai"/><use transform="matrix(0.008173828125000001,0,0,0.008173828125000001,15.783662109375001,0)" xlink:href="#aI"/><use transform="matrix(0.008173828125000001,0,0,0.008173828125000001,26.033642578125004,0)" xlink:href="#ac"/><use transform="matrix(0.008173828125000001,0,0,0.008173828125000001,35.932148437500004,0)" xlink:href="#ai"/><use transform="matrix(0.008173828125000001,0,0,0.008173828125000001,45.69169921875,0)" xlink:href="#ag"/><use transform="matrix(0.008173828125000001,0,0,0.008173828125000001,54.527607421875004,0)" xlink:href="#af"/></g><path d="M481 0L54-1118h197c107 314 236 620 325 951 87-331 217-637 324-951h197L670 0H481" id="aJ"/><g id="I"><use transform="matrix(0.008173828125000001,0,0,0.008173828125000001,0,0)" xlink:href="#aJ"/><use transform="matrix(0.008173828125000001,0,0,0.008173828125000001,9.326337890625,0)" xlink:href="#ae"/><use transform="matrix(0.008173828125000001,0,0,0.008173828125000001,18.726240234375002,0)" xlink:href="#ah"/><use transform="matrix(0.008173828125000001,0,0,0.008173828125000001,22.780458984375002,0)" xlink:href="#ak"/><use transform="matrix(0.008173828125000001,0,0,0.008173828125000001,26.834677734375003,0)" xlink:href="#am"/><use transform="matrix(0.008173828125000001,0,0,0.008173828125000001,37.084658203125,0)" xlink:href="#ae"/><use transform="matrix(0.008173828125000001,0,0,0.008173828125000001,46.484560546875,0)" xlink:href="#af"/><use transform="matrix(0.008173828125000001,0,0,0.008173828125000001,51.797548828125,0)" xlink:href="#ab"/><use transform="matrix(0.008173828125000001,0,0,0.008173828125000001,61.835009765625,0)" xlink:href="#ao"/></g><g id="J"><use transform="matrix(0.008173828125000001,0,0,0.008173828125000001,0,0)" xlink:href="#Z"/><use transform="matrix(0.008173828125000001,0,0,0.008173828125000001,10.740410156250002,0)" xlink:href="#ak"/><use transform="matrix(0.008173828125000001,0,0,0.008173828125000001,14.794628906250002,0)" xlink:href="#ap"/><use transform="matrix(0.008173828125000001,0,0,0.008173828125000001,29.458476562500003,0)" xlink:href="#aj"/><use transform="matrix(0.008173828125000001,0,0,0.008173828125000001,39.708457031250006,0)" xlink:href="#ah"/><use transform="matrix(0.008173828125000001,0,0,0.008173828125000001,43.76267578125001,0)" xlink:href="#ai"/></g><path d="M678-1118v154H420V0H240v-964H20v-154h220v-149c0-194 155-293 318-293 85 0 141 18 168 30l-50 154c-19-6-47-17-97-17-111 0-159 58-159 166v109h258" id="aK"/><g id="K"><use transform="matrix(0.008173828125000001,0,0,0.008173828125000001,0,0)" xlink:href="#aH"/><use transform="matrix(0.008173828125000001,0,0,0.008173828125000001,12.612216796875002,0)" xlink:href="#ab"/><use transform="matrix(0.008173828125000001,0,0,0.008173828125000001,22.649677734375004,0)" xlink:href="#af"/><use transform="matrix(0.008173828125000001,0,0,0.008173828125000001,28.126142578125005,0)" xlink:href="#ak"/><use transform="matrix(0.008173828125000001,0,0,0.008173828125000001,32.180361328125,0)" xlink:href="#aK"/><use transform="matrix(0.008173828125000001,0,0,0.008173828125000001,38.376123046875,0)" xlink:href="#ak"/><use transform="matrix(0.008173828125000001,0,0,0.008173828125000001,42.430341796875,0)" xlink:href="#aa"/><use transform="matrix(0.008173828125000001,0,0,0.008173828125000001,52.157197265625,0)" xlink:href="#ae"/><use transform="matrix(0.008173828125000001,0,0,0.008173828125000001,61.557099609375,0)" xlink:href="#af"/><use transform="matrix(0.008173828125000001,0,0,0.008173828125000001,67.033564453125,0)" xlink:href="#ak"/><use transform="matrix(0.008173828125000001,0,0,0.008173828125000001,71.087783203125,0)" xlink:href="#ab"/><use transform="matrix(0.008173828125000001,0,0,0.008173828125000001,81.125244140625,0)" xlink:href="#ad"/></g><g id="L"><use transform="matrix(0.008173828125000001,0,0,0.008173828125000001,0,0)" xlink:href="#Z"/><use transform="matrix(0.008173828125000001,0,0,0.008173828125000001,10.740410156250002,0)" xlink:href="#ai"/><use transform="matrix(0.008173828125000001,0,0,0.008173828125000001,20.499960937500003,0)" xlink:href="#ao"/><use transform="matrix(0.008173828125000001,0,0,0.008173828125000001,27.063544921875003,0)" xlink:href="#aJ"/><use transform="matrix(0.008173828125000001,0,0,0.008173828125000001,36.47162109375,0)" xlink:href="#ak"/><use transform="matrix(0.008173828125000001,0,0,0.008173828125000001,40.525839843750006,0)" xlink:href="#aa"/><use transform="matrix(0.008173828125000001,0,0,0.008173828125000001,50.08921875000001,0)" xlink:href="#ai"/></g><path d="M98-1322v-168h1126v168H757V0H567v-1322H98" id="aL"/><g id="M"><use transform="matrix(0.008173828125000001,0,0,0.008173828125000001,0,0)" xlink:href="#aL"/><use transform="matrix(0.008173828125000001,0,0,0.008173828125000001,9.49798828125,0)" xlink:href="#ab"/><use transform="matrix(0.008173828125000001,0,0,0.008173828125000001,19.535449218750003,0)" xlink:href="#aj"/><use transform="matrix(0.008173828125000001,0,0,0.008173828125000001,29.785429687500006,0)" xlink:href="#ak"/><use transform="matrix(0.008173828125000001,0,0,0.008173828125000001,33.8396484375,0)" xlink:href="#aa"/></g><g id="N"><use transform="matrix(0.008173828125000001,0,0,0.008173828125000001,0,0)" xlink:href="#aF"/><use transform="matrix(0.008173828125000001,0,0,0.008173828125000001,4.495605468750001,0)" xlink:href="#ad"/><use transform="matrix(0.008173828125000001,0,0,0.008173828125000001,14.3859375,0)" xlink:href="#aa"/><use transform="matrix(0.008173828125000001,0,0,0.008173828125000001,23.949316406250002,0)" xlink:href="#ak"/><use transform="matrix(0.008173828125000001,0,0,0.008173828125000001,28.003535156250003,0)" xlink:href="#am"/><use transform="matrix(0.008173828125000001,0,0,0.008173828125000001,38.253515625000006,0)" xlink:href="#ai"/><use transform="matrix(0.008173828125000001,0,0,0.008173828125000001,48.013066406250005,0)" xlink:href="#ad"/><use transform="matrix(0.008173828125000001,0,0,0.008173828125000001,57.9033984375,0)" xlink:href="#af"/></g><g id="O"><use transform="matrix(0.010850694444444444,0,0,0.010850694444444444,0,0)" xlink:href="#Z"/><use transform="matrix(0.010850694444444444,0,0,0.010850694444444444,14.2578125,0)" xlink:href="#ab"/><use transform="matrix(0.010850694444444444,0,0,0.010850694444444444,27.58246527777778,0)" xlink:href="#ah"/><use transform="matrix(0.010850694444444444,0,0,0.010850694444444444,32.96440972222222,0)" xlink:href="#ac"/><use transform="matrix(0.010850694444444444,0,0,0.010850694444444444,46.10460069444444,0)" xlink:href="#af"/><use transform="matrix(0.010850694444444444,0,0,0.010850694444444444,53.37456597222222,0)" xlink:href="#ak"/><use transform="matrix(0.010850694444444444,0,0,0.010850694444444444,58.756510416666664,0)" xlink:href="#ab"/><use transform="matrix(0.010850694444444444,0,0,0.010850694444444444,72.08116319444444,0)" xlink:href="#ad"/></g><g id="P"><use transform="matrix(0.010850694444444444,0,0,0.010850694444444444,0,0)" xlink:href="#aF"/><use transform="matrix(0.010850694444444444,0,0,0.010850694444444444,5.967881944444445,0)" xlink:href="#ad"/><use transform="matrix(0.010850694444444444,0,0,0.010850694444444444,19.09722222222222,0)" xlink:href="#aK"/><use transform="matrix(0.010850694444444444,0,0,0.010850694444444444,27.32204861111111,0)" xlink:href="#ao"/><use transform="matrix(0.010850694444444444,0,0,0.010850694444444444,35.68793402777778,0)" xlink:href="#ae"/></g><path d="M545 20c-263 0-445-160-445-446v-80h190v80c0 182 102 279 255 279 152 0 254-97 254-279v-1064h190v1064c0 286-181 446-444 446" id="aM"/><g id="Q"><use transform="matrix(0.008173828125000001,0,0,0.008173828125000001,0,0)" xlink:href="#aM"/><use transform="matrix(0.008173828125000001,0,0,0.008173828125000001,9.555205078125,0)" xlink:href="#ag"/><use transform="matrix(0.008173828125000001,0,0,0.008173828125000001,18.39111328125,0)" xlink:href="#ab"/><use transform="matrix(0.008173828125000001,0,0,0.008173828125000001,28.42857421875,0)" xlink:href="#ad"/><use transform="matrix(0.008173828125000001,0,0,0.008173828125000001,38.31890625,0)" xlink:href="#Z"/><use transform="matrix(0.008173828125000001,0,0,0.008173828125000001,49.05931640625,0)" xlink:href="#aa"/><use transform="matrix(0.008173828125000001,0,0,0.008173828125000001,58.6226953125,0)" xlink:href="#aC"/><use transform="matrix(0.008173828125000001,0,0,0.008173828125000001,68.521201171875,0)" xlink:href="#ai"/><use transform="matrix(0.008173828125000001,0,0,0.008173828125000001,78.280751953125,0)" xlink:href="#ap"/><use transform="matrix(0.008173828125000001,0,0,0.008173828125000001,92.944599609375,0)" xlink:href="#ae"/><use transform="matrix(0.008173828125000001,0,0,0.008173828125000001,102.344501953125,0)" xlink:href="#ag"/></g><g id="R"><use transform="matrix(0.008173828125000001,0,0,0.008173828125000001,0,0)" xlink:href="#aj"/><use transform="matrix(0.008173828125000001,0,0,0.008173828125000001,10.413457031250001,0)" xlink:href="#ae"/><use transform="matrix(0.008173828125000001,0,0,0.008173828125000001,19.813359375000005,0)" xlink:href="#ao"/><use transform="matrix(0.008173828125000001,0,0,0.008173828125000001,26.11538085937501,0)" xlink:href="#ag"/><use transform="matrix(0.008173828125000001,0,0,0.008173828125000001,34.95128906250001,0)" xlink:href="#ai"/><use transform="matrix(0.008173828125000001,0,0,0.008173828125000001,44.71083984375001,0)" xlink:href="#ao"/></g><path d="M784 20c-382 0-662-292-662-764 0-473 280-766 662-766s660 293 660 766c0 282-99 499-260 629l192 255h-198L1049-33C969 2 880 20 784 20zm-62-486h198l156 205c112-98 183-261 183-483 0-383-209-590-475-590-268 0-477 208-477 590 0 380 209 588 477 588 54 0 106-9 154-25" id="aN"/><g id="S"><use transform="matrix(0.008173828125000001,0,0,0.008173828125000001,0,0)" xlink:href="#aN"/><use transform="matrix(0.008173828125000001,0,0,0.008173828125000001,12.800214843750002,0)" xlink:href="#ac"/><use transform="matrix(0.008173828125000001,0,0,0.008173828125000001,22.698720703125005,0)" xlink:href="#ai"/><use transform="matrix(0.008173828125000001,0,0,0.008173828125000001,32.458271484375004,0)" xlink:href="#ac"/><use transform="matrix(0.008173828125000001,0,0,0.008173828125000001,42.356777343750004,0)" xlink:href="#ai"/></g><g id="T"><use transform="matrix(0.008173828125000001,0,0,0.008173828125000001,0,0)" xlink:href="#ar"/><use transform="matrix(0.008173828125000001,0,0,0.008173828125000001,10.061982421875001,0)" xlink:href="#aJ"/><use transform="matrix(0.008173828125000001,0,0,0.008173828125000001,19.14310546875,0)" xlink:href="#ai"/><use transform="matrix(0.008173828125000001,0,0,0.008173828125000001,28.90265625,0)" xlink:href="#ad"/><use transform="matrix(0.008173828125000001,0,0,0.008173828125000001,38.792988281250004,0)" xlink:href="#af"/></g><path d="M218-607c0-325 108-727 258-974h175c-155 315-250 682-250 974 0 265 78 531 250 886H476C306-10 218-315 218-607" id="aO"/><g id="U"><use transform="matrix(0.008173828125000001,0,0,0.008173828125000001,0,0)" xlink:href="#aO"/><use transform="matrix(0.008173828125000001,0,0,0.008173828125000001,6.105849609375,0)" xlink:href="#af"/><use transform="matrix(0.008173828125000001,0,0,0.008173828125000001,11.582314453125,0)" xlink:href="#ak"/><use transform="matrix(0.008173828125000001,0,0,0.008173828125000001,15.636533203125001,0)" xlink:href="#ap"/><use transform="matrix(0.008173828125000001,0,0,0.008173828125000001,30.300380859375004,0)" xlink:href="#ai"/></g><path d="M677 24c-213 0-288-135-325-197h-20V0H158v-1490h180v551h14c37-59 106-193 324-193 279 0 474 222 474 576 0 356-194 580-473 580zm-27-161c209 0 317-186 317-421 0-232-105-413-317-413-206 0-314 166-314 413 0 249 111 421 314 421" id="aP"/><path d="M96 279C273-86 346-350 346-607c0-292-95-659-250-974h175c150 246 258 650 258 974 0 297-91 602-258 886H96" id="aQ"/><g id="V"><use transform="matrix(0.008173828125000001,0,0,0.008173828125000001,0,0)" xlink:href="#aP"/><use transform="matrix(0.008173828125000001,0,0,0.008173828125000001,10.413457031250001,0)" xlink:href="#ae"/><use transform="matrix(0.008173828125000001,0,0,0.008173828125000001,19.813359375000005,0)" xlink:href="#ag"/><use transform="matrix(0.008173828125000001,0,0,0.008173828125000001,28.649267578125006,0)" xlink:href="#ai"/><use transform="matrix(0.008173828125000001,0,0,0.008173828125000001,38.408818359375005,0)" xlink:href="#am"/><use transform="matrix(0.008173828125000001,0,0,0.008173828125000001,48.65879882812501,0)" xlink:href="#aQ"/></g><path d="M763 24c-353 0-583-224-583-531v-983h190v968c0 214 149 370 393 370 243 0 391-156 391-370v-968h190v983c0 307-230 531-581 531" id="aR"/><g id="W"><use transform="matrix(0.008173828125000001,0,0,0.008173828125000001,0,0)" xlink:href="#aR"/><use transform="matrix(0.008173828125000001,0,0,0.008173828125000001,12.456914062500001,0)" xlink:href="#ag"/><use transform="matrix(0.008173828125000001,0,0,0.008173828125000001,21.292822265625002,0)" xlink:href="#ai"/><use transform="matrix(0.008173828125000001,0,0,0.008173828125000001,31.052373046875005,0)" xlink:href="#ao"/></g></defs></g></svg>